<svg width="20" height="20" viewBox="0 0 20 20" fill="none" xmlns="http://www.w3.org/2000/svg">
<path d="M14.2808 5.71922C14.5249 5.47515 14.9206 5.47515 15.1647 5.71922C15.3913 5.94587 15.4075 6.30327 15.2132 6.54859L15.1647 6.60311L6.32583 15.4419C6.08175 15.686 5.68602 15.686 5.44194 15.4419C5.2153 15.2153 5.19911 14.8579 5.39338 14.6126L5.44194 14.5581L14.2808 5.71922Z" fill="#F8E7B5"/>
<path d="M15.1771 14.5521C15.4212 14.7962 15.4212 15.1919 15.1771 15.436C14.9505 15.6627 14.5931 15.6788 14.3477 15.4845L14.2932 15.436L5.45291 6.59569C5.20879 6.35157 5.20876 5.95581 5.45283 5.71173C5.67948 5.48509 6.03691 5.46893 6.28227 5.66323L6.33679 5.7118L15.1771 14.5521Z" fill="#F8E7B5"/>
</svg>
