<svg width="24" height="24" viewBox="0 0 24 24" fill="none" xmlns="http://www.w3.org/2000/svg">
<path d="M19.5 3.75C20.7426 3.75 21.75 4.75736 21.75 6L21.75 18C21.75 19.2426 20.7426 20.25 19.5 20.25L4.5 20.25C3.25736 20.25 2.25 19.2426 2.25 18L2.25 6C2.25 4.75736 3.25736 3.75 4.5 3.75L19.5 3.75ZM4.5 5.25C4.08579 5.25 3.75 5.58579 3.75 6L3.75 18C3.75 18.4142 4.08579 18.75 4.5 18.75L19.5 18.75C19.9142 18.75 20.25 18.4142 20.25 18L20.25 6C20.25 5.58579 19.9142 5.25 19.5 5.25L4.5 5.25Z" fill="#FFF4D5"/>
<path d="M6 17.25C5.58579 17.25 5.25 16.9142 5.25 16.5C5.25 16.1154 5.53953 15.7984 5.91253 15.755L6 15.75L12 15.75C12.4142 15.75 12.75 16.0858 12.75 16.5C12.75 16.8846 12.4605 17.2016 12.0875 17.245L12 17.25H6Z" fill="#FFF4D5"/>
<path d="M21 8.25L3 8.25C2.58579 8.25 2.25 8.58579 2.25 9L2.25 10.5C2.25 10.9142 2.58579 11.25 3 11.25L21 11.25C21.4142 11.25 21.75 10.9142 21.75 10.5V9C21.75 8.58579 21.4142 8.25 21 8.25Z" fill="#FFF4D5"/>
</svg>
