<svg width="39" height="40" viewBox="0 0 39 40" fill="none" xmlns="http://www.w3.org/2000/svg">
<rect x="1.74846e-06" y="40" width="40" height="39" rx="19.5" transform="rotate(-90 1.74846e-06 40)" fill="#825FDB"/>
<path d="M28.8771 8.698C28.5882 8.70178 28.3122 8.81822 28.1079 9.02253C27.9036 9.22683 27.7871 9.50284 27.7833 9.79175V13.3355L26.5583 12.1105C25.2911 10.8325 23.7181 9.8996 21.9889 9.40051C20.2596 8.90141 18.4315 8.85265 16.6781 9.25885C14.9247 9.66505 13.3043 10.5127 11.9706 11.7214C10.637 12.9301 9.63453 14.4596 9.05834 16.1647C8.99834 16.3037 8.96826 16.4537 8.97005 16.6051C8.97184 16.7565 9.00546 16.9058 9.06873 17.0433C9.132 17.1809 9.22349 17.3036 9.33728 17.4034C9.45106 17.5033 9.58459 17.5781 9.72917 17.623C9.8498 17.644 9.97313 17.644 10.0938 17.623C10.3219 17.6207 10.5438 17.548 10.7291 17.4149C10.9144 17.2818 11.0541 17.0947 11.1292 16.8792C11.5366 15.669 12.2207 14.5704 13.1271 13.6709C14.7014 12.1027 16.8331 11.2222 19.0552 11.2222C21.2774 11.2222 23.409 12.1027 24.9833 13.6709L26.2083 14.8959H22.6938C22.4037 14.8959 22.1255 15.0112 21.9204 15.2163C21.7152 15.4214 21.6 15.6996 21.6 15.9897C21.6 16.2797 21.7152 16.5579 21.9204 16.7631C22.1255 16.9682 22.4037 17.0834 22.6938 17.0834H28.8771C29.0213 17.0854 29.1644 17.0584 29.298 17.0042C29.4315 16.9499 29.5529 16.8694 29.6549 16.7674C29.7568 16.6655 29.8373 16.5441 29.8916 16.4105C29.9459 16.2769 29.9728 16.1338 29.9708 15.9897V9.79175C29.9708 9.50167 29.8556 9.22347 29.6505 9.01835C29.4454 8.81323 29.1672 8.698 28.8771 8.698Z" fill="#FFF4D5"/>
<path d="M29.2417 22.4501C29.1013 22.3949 28.9511 22.369 28.8003 22.3739C28.6495 22.3788 28.5013 22.4144 28.3648 22.4786C28.2283 22.5427 28.1063 22.6341 28.0063 22.7471C27.9063 22.86 27.8304 22.9922 27.7833 23.1355C27.3759 24.3458 26.6918 25.4443 25.7854 26.3439C24.211 27.9121 22.0794 28.7926 19.8573 28.7926C17.6351 28.7926 15.5035 27.9121 13.9292 26.3439L12.7042 25.1189H16.3062C16.5963 25.1189 16.8745 25.0036 17.0796 24.7985C17.2848 24.5934 17.4 24.3152 17.4 24.0251C17.4 23.735 17.2848 23.4568 17.0796 23.2517C16.8745 23.0466 16.5963 22.9314 16.3062 22.9314H10.1229C9.97873 22.9294 9.83562 22.9563 9.70203 23.0106C9.56845 23.0649 9.44709 23.1454 9.34513 23.2473C9.24318 23.3493 9.16269 23.4706 9.10841 23.6042C9.05414 23.7378 9.02719 23.8809 9.02915 24.0251V30.2084C9.02915 30.4985 9.14439 30.7767 9.34951 30.9818C9.55462 31.187 9.83282 31.3022 10.1229 31.3022C10.413 31.3022 10.6912 31.187 10.8963 30.9818C11.1014 30.7767 11.2167 30.4985 11.2167 30.2084V26.6647L12.4417 27.8897C13.7089 29.1677 15.2819 30.1006 17.0111 30.5997C18.7404 31.0988 20.5685 31.1475 22.3219 30.7413C24.0753 30.3351 25.6957 29.4875 27.0293 28.2788C28.363 27.0701 29.3655 25.5406 29.9417 23.8355C29.9892 23.6987 30.0088 23.5537 29.9992 23.4092C29.9895 23.2647 29.9509 23.1236 29.8856 22.9943C29.8203 22.865 29.7296 22.7502 29.619 22.6567C29.5083 22.5632 29.38 22.493 29.2417 22.4501Z" fill="#FFF4D5"/>
</svg>
