<svg width="24" height="24" viewBox="0 0 24 24" fill="none" xmlns="http://www.w3.org/2000/svg">
<path d="M18.75 2.99854C19.9926 2.99854 21 4.00589 21 5.24854L21 15.7485C21 16.9912 19.9926 17.9985 18.75 17.9985L7.7627 17.9995L4.21875 20.8345C3.72768 21.2273 3 20.8774 3 20.2485L3 5.24854C3 4.00589 4.00736 2.99854 5.25 2.99854L18.75 2.99854ZM5.25 4.49854C4.83579 4.49854 4.5 4.83432 4.5 5.24854L4.5 18.689L7.03125 16.6626C7.16423 16.5562 7.3297 16.4985 7.5 16.4985H18.75C19.1642 16.4985 19.5 16.1627 19.5 15.7485L19.5 5.24854C19.5 4.83432 19.1642 4.49854 18.75 4.49854L5.25 4.49854Z" fill="#FFF4D5"/>
<path d="M8.25 12.75C7.83579 12.75 7.5 12.4142 7.5 12C7.5 11.6154 7.78953 11.2984 8.16253 11.255L8.25 11.25H11.25C11.6642 11.25 12 11.5858 12 12C12 12.3846 11.7105 12.7016 11.3375 12.745L11.25 12.75H8.25Z" fill="#FFF4D5"/>
<path d="M8.25 9.75C7.83579 9.75 7.5 9.41421 7.5 9C7.5 8.61537 7.78953 8.29837 8.16253 8.25505L8.25 8.25L15.75 8.25C16.1642 8.25 16.5 8.58579 16.5 9C16.5 9.38463 16.2105 9.70163 15.8375 9.74495L15.75 9.75L8.25 9.75Z" fill="#FFF4D5"/>
</svg>
