<svg width="32" height="32" viewBox="0 0 32 32" fill="none" xmlns="http://www.w3.org/2000/svg">
<path d="M22.05 10.08C20.4776 8.51428 18.349 7.63523 16.13 7.63523C13.911 7.63523 11.7824 8.51428 10.21 10.08L9 11.29V8.38C9 8.18109 8.92098 7.99033 8.78033 7.84967C8.63968 7.70902 8.44891 7.63 8.25 7.63C8.05109 7.63 7.86032 7.70902 7.71967 7.84967C7.57902 7.99033 7.5 8.18109 7.5 8.38V13.12C7.49998 13.3198 7.57868 13.5117 7.71905 13.6539C7.85943 13.7961 8.05017 13.8774 8.25 13.88H13C13.1989 13.88 13.3897 13.801 13.5303 13.6603C13.671 13.5197 13.75 13.3289 13.75 13.13C13.75 12.9311 13.671 12.7403 13.5303 12.5997C13.3897 12.459 13.1989 12.38 13 12.38H10L11.27 11.14C12.5599 9.85275 14.3077 9.12979 16.13 9.12979C17.9523 9.12979 19.7002 9.85275 20.99 11.14C27.18 17.83 17.99 27.05 11.27 20.86C11.1294 20.7196 10.9388 20.6407 10.74 20.6407C10.5413 20.6407 10.3506 20.7196 10.21 20.86C10.1392 20.929 10.083 21.0114 10.0446 21.1024C10.0062 21.1934 9.98643 21.2912 9.98643 21.39C9.98643 21.4888 10.0062 21.5866 10.0446 21.6776C10.083 21.7686 10.1392 21.8511 10.21 21.92C11.7801 23.4901 13.9096 24.3722 16.13 24.3722C18.3504 24.3722 20.4799 23.4901 22.05 21.92C23.6201 20.3499 24.5021 18.2204 24.5021 16C24.5021 13.7796 23.6201 11.6501 22.05 10.08Z" fill="#040306"/>
<path d="M16 11.75C15.8019 11.7526 15.6126 11.8324 15.4725 11.9725C15.3324 12.1126 15.2526 12.3019 15.25 12.5V16C15.2502 16.1988 15.3293 16.3895 15.47 16.53L18 19C18.0692 19.0701 18.1518 19.1257 18.2428 19.1635C18.3338 19.2012 18.4315 19.2205 18.53 19.22C18.6617 19.2008 18.7859 19.1469 18.8899 19.0639C18.9939 18.9809 19.0739 18.8716 19.1218 18.7474C19.1696 18.6233 19.1836 18.4886 19.1622 18.3572C19.1408 18.2259 19.0848 18.1026 19 18L16.72 15.72V12.5C16.7177 12.3069 16.642 12.1219 16.5083 11.9826C16.3746 11.8433 16.1928 11.7601 16 11.75Z" fill="#040306"/>
</svg>
