<svg width="32" height="32" viewBox="0 0 32 32" fill="none" xmlns="http://www.w3.org/2000/svg">
<rect x="1.39876e-06" y="32" width="32" height="32" rx="16" transform="rotate(-90 1.39876e-06 32)" fill="#825FDB"/>
<path d="M22.75 16.75C23.1346 16.75 23.4516 17.0395 23.495 17.4125L23.5 17.5V23.5C23.5 24.6983 22.5633 25.6777 21.3822 25.7462L21.25 25.75H10.75C9.55174 25.75 8.57226 24.8133 8.50382 23.6322L8.5 23.5V17.5C8.5 17.0858 8.83579 16.75 9.25 16.75C9.63463 16.75 9.95163 17.0395 9.99496 17.4125L10 17.5V23.5C10 23.8846 10.2895 24.2016 10.6625 24.245L10.75 24.25H21.25C21.6346 24.25 21.9516 23.9605 21.995 23.5875L22 23.5V17.5C22 17.0858 22.3358 16.75 22.75 16.75Z" fill="#FFF4D5"/>
<path fill-rule="evenodd" clip-rule="evenodd" d="M17.5 21.25V19C17.5 18.1716 16.8284 17.5 16 17.5C15.1716 17.5 14.5 18.1716 14.5 19V21.25H17.5Z" fill="#FFF4D5"/>
<path d="M15.4697 6.46967C15.74 6.19931 16.1655 6.17851 16.4597 6.40728L16.5303 6.46967L25.5303 15.4697C25.8232 15.7626 25.8232 16.2374 25.5303 16.5303C25.26 16.8007 24.8345 16.8215 24.5403 16.5927L24.4697 16.5303L16 8.06125L7.53033 16.5303C7.25997 16.8007 6.83455 16.8215 6.54033 16.5927L6.46967 16.5303C6.19931 16.26 6.17851 15.8345 6.40728 15.5403L6.46967 15.4697L15.4697 6.46967Z" fill="#FFF4D5"/>
</svg>
