<svg width="32" height="32" viewBox="0 0 32 32" fill="none" xmlns="http://www.w3.org/2000/svg">
<path d="M4.77031 11.8219C5.02031 11.8219 5.22031 11.6219 5.22031 11.3719V5.77187C5.22031 5.44687 5.47031 5.19687 5.79531 5.19687H11.4203C11.6703 5.19687 11.8703 4.99687 11.8703 4.74687C11.8703 4.49687 11.6703 4.29688 11.4203 4.29688H5.77031C4.97031 4.29688 4.32031 4.94687 4.32031 5.74687V11.3719C4.32031 11.6469 4.52031 11.8219 4.77031 11.8219Z" fill="#FFF4D5"/>
<path d="M26.2234 4.32031H20.5984C20.3484 4.32031 20.1484 4.52031 20.1484 4.77031C20.1484 5.02031 20.3484 5.22031 20.5984 5.22031H26.2234C26.5484 5.22031 26.7984 5.47031 26.7984 5.79531V11.4203C26.7984 11.6703 26.9984 11.8703 27.2484 11.8703C27.4984 11.8703 27.6984 11.6703 27.6984 11.4203V5.77031C27.6734 4.97031 27.0234 4.32031 26.2234 4.32031Z" fill="#FFF4D5"/>
<path d="M11.3969 26.7984H5.77187C5.44687 26.7984 5.19687 26.5484 5.19687 26.2234V20.5984C5.19687 20.3484 4.99687 20.1484 4.74687 20.1484C4.49687 20.1484 4.29688 20.3484 4.29688 20.5984V26.2234C4.29688 27.0234 4.94687 27.6734 5.74687 27.6734H11.3719C11.6219 27.6734 11.8219 27.4734 11.8219 27.2234C11.8219 26.9734 11.6219 26.7984 11.3969 26.7984Z" fill="#FFF4D5"/>
<path d="M27.2484 20.1719C26.9984 20.1719 26.8234 20.3719 26.7984 20.5969V26.2219C26.7984 26.5469 26.5484 26.7969 26.2234 26.7969H20.5984C20.3484 26.7969 20.1484 26.9969 20.1484 27.2469C20.1484 27.4969 20.3484 27.6969 20.5984 27.6969H26.2234C27.0234 27.6969 27.6734 27.0469 27.6734 26.2469V20.5969C27.6984 20.3469 27.4984 20.1719 27.2484 20.1719Z" fill="#FFF4D5"/>
<path d="M11.4219 7.64844H8.62187C8.09687 7.64844 7.67188 8.07344 7.67188 8.59844V11.3984C7.67188 11.6484 7.87187 11.8484 8.12187 11.8484C8.37187 11.8484 8.57187 11.6484 8.57187 11.3984V8.59844C8.57187 8.57344 8.59687 8.52344 8.64687 8.52344H11.4469C11.6969 8.52344 11.8969 8.32344 11.8969 8.07344C11.8469 7.84844 11.6469 7.64844 11.4219 7.64844Z" fill="#FFF4D5"/>
<path d="M23.8984 11.8234C24.1484 11.8234 24.3234 11.6234 24.3484 11.3984V8.59844C24.3484 8.07344 23.9234 7.64844 23.3984 7.64844H20.5984C20.3484 7.64844 20.1484 7.84844 20.1484 8.09844C20.1484 8.34844 20.3484 8.54844 20.5984 8.54844H23.3984C23.4234 8.54844 23.4734 8.57344 23.4734 8.62344V11.4234C23.4734 11.6484 23.6734 11.8234 23.8984 11.8234Z" fill="#FFF4D5"/>
<path d="M20.5984 24.3484H23.3984C23.9234 24.3484 24.3484 23.9234 24.3484 23.3984V20.5984C24.3484 20.3484 24.1484 20.1484 23.8984 20.1484C23.6484 20.1484 23.4484 20.3484 23.4484 20.5984V23.3984C23.4484 23.4234 23.4234 23.4734 23.3734 23.4734H20.5984C20.3484 23.4734 20.1484 23.6734 20.1484 23.9234C20.1484 24.1734 20.3734 24.3484 20.5984 24.3484Z" fill="#FFF4D5"/>
<path d="M11.4 23.4734H8.6C8.575 23.4734 8.525 23.4484 8.525 23.3984V20.5984C8.525 20.3484 8.325 20.1484 8.075 20.1484C7.825 20.1484 7.625 20.3484 7.625 20.5984V23.3984C7.625 23.9234 8.05 24.3484 8.575 24.3484H11.375C11.625 24.3484 11.825 24.1484 11.825 23.8984C11.825 23.6484 11.625 23.4734 11.4 23.4734Z" fill="#FFF4D5"/>
<path d="M26.2469 14.5469H5.74687C4.94687 14.5469 4.29688 15.1969 4.29688 15.9969C4.29688 16.7969 4.94687 17.4469 5.74687 17.4469H26.2469C27.0469 17.4469 27.6969 16.7969 27.6969 15.9969C27.6969 15.1969 27.0469 14.5469 26.2469 14.5469ZM26.2469 16.5469H5.74687C5.44687 16.5469 5.17188 16.2969 5.17188 15.9719C5.17188 15.6719 5.42187 15.3969 5.74687 15.3969H26.2469C26.5469 15.3969 26.8219 15.6469 26.8219 15.9719C26.8219 16.2969 26.5469 16.5469 26.2469 16.5469Z" fill="#FFF4D5"/>
</svg>
