<svg width="325" height="102" viewBox="0 0 325 102" fill="none" xmlns="http://www.w3.org/2000/svg">
<g filter="url(#filter0_i_4034_99222)">
<g clip-path="url(#clip0_4034_99222)">
<rect width="325" height="102" rx="8" fill="url(#paint0_radial_4034_99222)"/>
<mask id="mask0_4034_99222" style="mask-type:alpha" maskUnits="userSpaceOnUse" x="222" y="-73" width="235" height="212">
<rect x="222.148" y="26.1564" width="194.929" height="130.661" transform="rotate(-30.5753 222.148 26.1564)" fill="#D9D9D9"/>
</mask>
<g mask="url(#mask0_4034_99222)">
<path d="M311.598 93.395C268.419 66.7766 298.123 31.9531 289.665 9.80585C281.405 -14.6173 328.35 -46.3634 353.915 -28.1538C379.479 -9.94423 410.032 4.70106 399.17 41.6564C388.307 78.6117 354.777 120.013 311.598 93.395Z" fill="url(#paint1_radial_4034_99222)"/>
<rect x="202.961" y="20.8359" width="223.611" height="40.3668" transform="rotate(-30.5753 202.961 20.8359)" fill="black" fill-opacity="0.2"/>
<rect x="223.492" y="55.5859" width="223.611" height="39.3045" transform="rotate(-30.5753 223.492 55.5859)" fill="black" fill-opacity="0.2"/>
<rect x="243.031" y="89.6953" width="223.611" height="39.8357" transform="rotate(-30.5753 243.031 89.6953)" fill="black" fill-opacity="0.2"/>
<rect x="262.836" y="124.266" width="223.611" height="40.3668" transform="rotate(-30.5753 262.836 124.266)" fill="black" fill-opacity="0.2"/>
</g>
<path d="M26.642 22.3636V34H24.5511V24.1136H19.4602V34H17.3693V22.3636H26.642ZM32.8793 34.1705C32.027 34.1705 31.2884 33.983 30.6634 33.608C30.0384 33.233 29.5535 32.7083 29.2088 32.0341C28.8679 31.3598 28.6974 30.572 28.6974 29.6705C28.6974 28.7689 28.8679 27.9792 29.2088 27.3011C29.5535 26.6231 30.0384 26.0966 30.6634 25.7216C31.2884 25.3466 32.027 25.1591 32.8793 25.1591C33.7315 25.1591 34.4702 25.3466 35.0952 25.7216C35.7202 26.0966 36.2031 26.6231 36.544 27.3011C36.8887 27.9792 37.0611 28.7689 37.0611 29.6705C37.0611 30.572 36.8887 31.3598 36.544 32.0341C36.2031 32.7083 35.7202 33.233 35.0952 33.608C34.4702 33.983 33.7315 34.1705 32.8793 34.1705ZM32.8906 32.5227C33.3527 32.5227 33.7391 32.3958 34.0497 32.142C34.3603 31.8845 34.5914 31.5398 34.7429 31.108C34.8982 30.6761 34.9759 30.1951 34.9759 29.6648C34.9759 29.1307 34.8982 28.6477 34.7429 28.2159C34.5914 27.7803 34.3603 27.4337 34.0497 27.1761C33.7391 26.9186 33.3527 26.7898 32.8906 26.7898C32.4171 26.7898 32.0232 26.9186 31.7088 27.1761C31.3982 27.4337 31.1652 27.7803 31.0099 28.2159C30.8584 28.6477 30.7827 29.1307 30.7827 29.6648C30.7827 30.1951 30.8584 30.6761 31.0099 31.108C31.1652 31.5398 31.3982 31.8845 31.7088 32.142C32.0232 32.3958 32.4171 32.5227 32.8906 32.5227ZM38.8068 34V25.2727H42.4716C43.5057 25.2727 44.322 25.4792 44.9205 25.892C45.5227 26.3049 45.8239 26.8807 45.8239 27.6193C45.8239 28.108 45.6534 28.5076 45.3125 28.8182C44.9754 29.125 44.5152 29.3314 43.9318 29.4375C44.3902 29.4754 44.7917 29.5909 45.1364 29.7841C45.4848 29.9773 45.7576 30.2311 45.9545 30.5455C46.1515 30.8598 46.25 31.2216 46.25 31.6307C46.25 32.1117 46.1231 32.5303 45.8693 32.8864C45.6193 33.2386 45.2538 33.5133 44.7727 33.7102C44.2955 33.9034 43.7159 34 43.0341 34H38.8068ZM40.733 32.3807H43.0341C43.4129 32.3807 43.7102 32.2917 43.9261 32.1136C44.142 31.9318 44.25 31.6856 44.25 31.375C44.25 31.0152 44.142 30.733 43.9261 30.5284C43.7102 30.3201 43.4129 30.2159 43.0341 30.2159H40.733V32.3807ZM40.733 28.8864H42.5114C42.7917 28.8864 43.0322 28.8466 43.233 28.767C43.4337 28.6837 43.5871 28.5682 43.6932 28.4205C43.7992 28.2689 43.8523 28.089 43.8523 27.8807C43.8523 27.5814 43.7292 27.3466 43.483 27.1761C43.2405 27.0057 42.9034 26.9205 42.4716 26.9205H40.733V28.8864ZM49.3395 28.1136H51.9134C53.027 28.1136 53.8887 28.3845 54.4986 28.9261C55.1084 29.4678 55.4152 30.178 55.419 31.0568C55.4152 31.6288 55.2751 32.1364 54.9986 32.5795C54.7259 33.0227 54.3281 33.3712 53.8054 33.625C53.2865 33.875 52.6558 34 51.9134 34H47.9474V25.2727H49.9304V32.3125H51.9134C52.3603 32.3125 52.7277 32.1989 53.0156 31.9716C53.3035 31.7405 53.4474 31.4451 53.4474 31.0852C53.4474 30.7064 53.3035 30.3977 53.0156 30.1591C52.7277 29.9205 52.3603 29.8011 51.9134 29.8011H49.3395V28.1136ZM56.5043 34V25.2727H58.5611V34H56.5043ZM60.6818 25.2727H62.6648V32.3068H65.4091V25.2727H67.392V32.3068H70.1364V25.2727H72.1193V34H60.6818V25.2727ZM78.0611 34.1705C77.1861 34.1705 76.4304 33.9886 75.794 33.625C75.1615 33.2576 74.6747 32.7386 74.3338 32.0682C73.9929 31.3939 73.8224 30.6004 73.8224 29.6875C73.8224 28.7898 73.9929 28.0019 74.3338 27.3239C74.6785 26.642 75.1596 26.1117 75.777 25.733C76.3944 25.3504 77.1198 25.1591 77.9531 25.1591C78.491 25.1591 78.9986 25.2462 79.4759 25.4205C79.9569 25.5909 80.3812 25.8561 80.7486 26.2159C81.1198 26.5758 81.4115 27.0341 81.6236 27.5909C81.8357 28.1439 81.9418 28.803 81.9418 29.5682V30.1989H74.7884V28.8125H79.9702C79.9664 28.4186 79.8812 28.0682 79.7145 27.7614C79.5478 27.4508 79.3149 27.2064 79.0156 27.0284C78.7202 26.8504 78.3755 26.7614 77.9815 26.7614C77.5611 26.7614 77.1918 26.8636 76.8736 27.0682C76.5554 27.2689 76.3073 27.5341 76.1293 27.8636C75.955 28.1894 75.866 28.5473 75.8622 28.9375V30.1477C75.8622 30.6553 75.955 31.0909 76.1406 31.4545C76.3262 31.8144 76.5857 32.0909 76.919 32.2841C77.2524 32.4735 77.6425 32.5682 78.0895 32.5682C78.3887 32.5682 78.6596 32.5265 78.902 32.4432C79.1444 32.3561 79.3546 32.2292 79.5327 32.0625C79.7107 31.8958 79.8452 31.6894 79.9361 31.4432L81.8565 31.6591C81.7353 32.1667 81.5043 32.6098 81.1634 32.9886C80.8262 33.3636 80.3944 33.6553 79.8679 33.8636C79.3414 34.0682 78.7391 34.1705 78.0611 34.1705ZM89.6761 28.7841V30.4716H85.0284V28.7841H89.6761ZM85.6648 25.2727V34H83.6818V25.2727H85.6648ZM91.0227 25.2727V34H89.0455V25.2727H91.0227ZM99.098 28.7841V30.4716H94.4503V28.7841H99.098ZM95.0866 25.2727V34H93.1037V25.2727H95.0866ZM100.445 25.2727V34H98.4673V25.2727H100.445ZM103.918 28.1136H106.491C107.605 28.1136 108.467 28.3845 109.077 28.9261C109.687 29.4678 109.993 30.178 109.997 31.0568C109.993 31.6288 109.853 32.1364 109.577 32.5795C109.304 33.0227 108.906 33.3712 108.384 33.625C107.865 33.875 107.234 34 106.491 34H102.526V25.2727H104.509V32.3125H106.491C106.938 32.3125 107.306 32.1989 107.594 31.9716C107.882 31.7405 108.026 31.4451 108.026 31.0852C108.026 30.7064 107.882 30.3977 107.594 30.1591C107.306 29.9205 106.938 29.8011 106.491 29.8011H103.918V28.1136ZM111.082 34V25.2727H113.139V34H111.082ZM117.243 31.2159L120.737 25.2727H122.851V34H120.862V28.0511L117.379 34H115.26V25.2727H117.243V31.2159ZM120.175 22.2727H121.714C121.714 22.9356 121.474 23.4735 120.993 23.8864C120.516 24.2955 119.868 24.5 119.05 24.5C118.239 24.5 117.593 24.2955 117.112 23.8864C116.635 23.4735 116.398 22.9356 116.402 22.2727H117.93C117.93 22.5455 118.014 22.7898 118.18 23.0057C118.351 23.2178 118.641 23.3239 119.05 23.3239C119.451 23.3239 119.737 23.2178 119.908 23.0057C120.082 22.7936 120.171 22.5492 120.175 22.2727ZM128.932 34V25.2727H130.989V28.7955H131.739L134.364 25.2727H136.841L133.608 29.5568L136.875 34H134.386L131.994 30.7102H130.989V34H128.932ZM141.545 34.1705C140.67 34.1705 139.915 33.9886 139.278 33.625C138.646 33.2576 138.159 32.7386 137.818 32.0682C137.477 31.3939 137.307 30.6004 137.307 29.6875C137.307 28.7898 137.477 28.0019 137.818 27.3239C138.163 26.642 138.644 26.1117 139.261 25.733C139.879 25.3504 140.604 25.1591 141.438 25.1591C141.975 25.1591 142.483 25.2462 142.96 25.4205C143.441 25.5909 143.866 25.8561 144.233 26.2159C144.604 26.5758 144.896 27.0341 145.108 27.5909C145.32 28.1439 145.426 28.803 145.426 29.5682V30.1989H138.273V28.8125H143.455C143.451 28.4186 143.366 28.0682 143.199 27.7614C143.032 27.4508 142.799 27.2064 142.5 27.0284C142.205 26.8504 141.86 26.7614 141.466 26.7614C141.045 26.7614 140.676 26.8636 140.358 27.0682C140.04 27.2689 139.792 27.5341 139.614 27.8636C139.439 28.1894 139.35 28.5473 139.347 28.9375V30.1477C139.347 30.6553 139.439 31.0909 139.625 31.4545C139.811 31.8144 140.07 32.0909 140.403 32.2841C140.737 32.4735 141.127 32.5682 141.574 32.5682C141.873 32.5682 142.144 32.5265 142.386 32.4432C142.629 32.3561 142.839 32.2292 143.017 32.0625C143.195 31.8958 143.33 31.6894 143.42 31.4432L145.341 31.6591C145.22 32.1667 144.989 32.6098 144.648 32.9886C144.311 33.3636 143.879 33.6553 143.352 33.8636C142.826 34.0682 142.223 34.1705 141.545 34.1705ZM147.166 25.2727H149.149V32.3068H151.893V25.2727H153.876V32.3068H156.621V25.2727H158.604V34H147.166V25.2727ZM167.676 22.0455L168.392 23.375C168.138 23.5947 167.854 23.7538 167.54 23.8523C167.225 23.9508 166.856 24.0152 166.432 24.0455C166.011 24.072 165.511 24.0909 164.932 24.1023C164.28 24.1174 163.748 24.2405 163.335 24.4716C162.922 24.7027 162.606 25.053 162.386 25.5227C162.167 25.9886 162.023 26.5833 161.955 27.3068H162.051C162.324 26.7727 162.706 26.3655 163.199 26.0852C163.691 25.8049 164.269 25.6648 164.932 25.6648C165.655 25.6648 166.294 25.8277 166.847 26.1534C167.403 26.4754 167.837 26.9432 168.148 27.5568C168.462 28.1705 168.619 28.9129 168.619 29.7841C168.619 30.6818 168.451 31.4602 168.114 32.1193C167.777 32.7746 167.297 33.2803 166.676 33.6364C166.059 33.9924 165.326 34.1705 164.477 34.1705C163.633 34.1705 162.898 33.9867 162.273 33.6193C161.652 33.2481 161.17 32.7008 160.83 31.9773C160.492 31.25 160.324 30.3542 160.324 29.2898V28.5057C160.324 26.4527 160.706 24.9205 161.472 23.9091C162.237 22.8977 163.371 22.3826 164.875 22.3636C165.322 22.3561 165.722 22.3542 166.074 22.358C166.43 22.3617 166.741 22.3447 167.006 22.3068C167.271 22.2689 167.494 22.1818 167.676 22.0455ZM164.489 32.5227C164.909 32.5227 165.273 32.4148 165.58 32.1989C165.886 31.9792 166.121 31.6686 166.284 31.267C166.451 30.8655 166.534 30.3902 166.534 29.8409C166.534 29.2992 166.451 28.839 166.284 28.4602C166.117 28.0777 165.881 27.786 165.574 27.5852C165.267 27.3845 164.902 27.2841 164.477 27.2841C164.159 27.2841 163.873 27.3409 163.619 27.4545C163.366 27.5682 163.15 27.7348 162.972 27.9545C162.794 28.1742 162.657 28.4413 162.562 28.7557C162.468 29.0701 162.417 29.4318 162.409 29.8409C162.409 30.6629 162.595 31.3163 162.966 31.8011C163.337 32.2822 163.845 32.5227 164.489 32.5227ZM173.483 26.8523C173.195 26.8561 172.93 26.9186 172.688 27.0398C172.445 27.161 172.25 27.3258 172.102 27.5341C171.958 27.7386 171.886 27.9773 171.886 28.25H169.994C169.994 27.8106 170.085 27.4015 170.267 27.0227C170.449 26.6439 170.699 26.3144 171.017 26.0341C171.339 25.7538 171.71 25.536 172.131 25.3807C172.555 25.2216 173.006 25.142 173.483 25.142C174.331 25.142 175.047 25.339 175.631 25.733C176.218 26.1269 176.661 26.6572 176.96 27.3239C177.263 27.9867 177.415 28.7216 177.415 29.5284V29.7727C177.415 30.5795 177.265 31.3163 176.966 31.983C176.667 32.6458 176.223 33.1742 175.636 33.5682C175.053 33.9621 174.335 34.1591 173.483 34.1591C172.801 34.1591 172.197 34.0208 171.67 33.7443C171.148 33.464 170.737 33.0739 170.438 32.5739C170.142 32.0739 169.994 31.4905 169.994 30.8239H171.886C171.886 31.1117 171.955 31.3788 172.091 31.625C172.227 31.8674 172.415 32.0625 172.653 32.2102C172.896 32.358 173.172 32.4337 173.483 32.4375C173.949 32.4337 174.324 32.2955 174.608 32.0227C174.896 31.75 175.104 31.4091 175.233 31C175.366 30.5909 175.432 30.1818 175.432 29.7727V29.5284C175.432 29.089 175.366 28.6667 175.233 28.2614C175.104 27.8523 174.896 27.517 174.608 27.2557C174.324 26.9905 173.949 26.8561 173.483 26.8523ZM176.074 28.9432V30.3068H172.75V28.9432H176.074ZM179.151 34V25.2727H181.207V28.7955H181.957L184.582 25.2727H187.06L183.827 29.5568L187.094 34H184.605L182.213 30.7102H181.207V34H179.151ZM191.661 34L194.882 29.4943L191.689 25.2727H194.064L196.547 28.7898H197.036V25.2727H199.092V28.7898H199.57L202.053 25.2727H204.428L201.251 29.4943L204.456 34H202.03L199.547 30.4773H199.092V34H197.036V30.4773H196.581L194.087 34H191.661ZM205.222 36.5341V32.3068H205.915C206.1 32.1629 206.256 31.9678 206.381 31.7216C206.506 31.4716 206.608 31.178 206.688 30.8409C206.771 30.5 206.839 30.1193 206.892 29.6989C206.945 29.2746 206.992 28.8182 207.034 28.3295L207.284 25.2727H213.591V32.3068H214.943V36.5341H212.955V34H207.244V36.5341H205.222ZM208.028 32.3068H211.625V26.9318H209.068L208.932 28.3295C208.856 29.2538 208.756 30.0455 208.631 30.7045C208.506 31.3636 208.305 31.8977 208.028 32.3068ZM220.342 34.1705C219.467 34.1705 218.712 33.9886 218.075 33.625C217.443 33.2576 216.956 32.7386 216.615 32.0682C216.274 31.3939 216.104 30.6004 216.104 29.6875C216.104 28.7898 216.274 28.0019 216.615 27.3239C216.96 26.642 217.441 26.1117 218.058 25.733C218.676 25.3504 219.401 25.1591 220.234 25.1591C220.772 25.1591 221.28 25.2462 221.757 25.4205C222.238 25.5909 222.662 25.8561 223.03 26.2159C223.401 26.5758 223.693 27.0341 223.905 27.5909C224.117 28.1439 224.223 28.803 224.223 29.5682V30.1989H217.07V28.8125H222.251C222.248 28.4186 222.162 28.0682 221.996 27.7614C221.829 27.4508 221.596 27.2064 221.297 27.0284C221.001 26.8504 220.657 26.7614 220.263 26.7614C219.842 26.7614 219.473 26.8636 219.155 27.0682C218.837 27.2689 218.589 27.5341 218.411 27.8636C218.236 28.1894 218.147 28.5473 218.143 28.9375V30.1477C218.143 30.6553 218.236 31.0909 218.422 31.4545C218.607 31.8144 218.867 32.0909 219.2 32.2841C219.534 32.4735 219.924 32.5682 220.371 32.5682C220.67 32.5682 220.941 32.5265 221.183 32.4432C221.426 32.3561 221.636 32.2292 221.814 32.0625C221.992 31.8958 222.126 31.6894 222.217 31.4432L224.138 31.6591C224.017 32.1667 223.786 32.6098 223.445 32.9886C223.107 33.3636 222.676 33.6553 222.149 33.8636C221.623 34.0682 221.02 34.1705 220.342 34.1705ZM218.479 23.9886C218.179 23.9886 217.92 23.8826 217.7 23.6705C217.484 23.4583 217.376 23.2083 217.376 22.9205C217.376 22.6174 217.484 22.3636 217.7 22.1591C217.92 21.9508 218.179 21.8466 218.479 21.8466C218.786 21.8466 219.043 21.9508 219.251 22.1591C219.464 22.3636 219.57 22.6174 219.57 22.9205C219.57 23.2083 219.464 23.4583 219.251 23.6705C219.043 23.8826 218.786 23.9886 218.479 23.9886ZM221.888 23.9886C221.589 23.9886 221.329 23.8826 221.109 23.6705C220.893 23.4583 220.786 23.2083 220.786 22.9205C220.786 22.6174 220.893 22.3636 221.109 22.1591C221.329 21.9508 221.589 21.8466 221.888 21.8466C222.195 21.8466 222.452 21.9508 222.661 22.1591C222.873 22.3636 222.979 22.6174 222.979 22.9205C222.979 23.2083 222.873 23.4583 222.661 23.6705C222.452 23.8826 222.195 23.9886 221.888 23.9886ZM225.236 26.9602V25.2727H232.872V26.9602H230.048V34H228.06V26.9602H225.236ZM238.479 34V25.2727H242.143C243.178 25.2727 243.994 25.4792 244.592 25.892C245.195 26.3049 245.496 26.8807 245.496 27.6193C245.496 28.108 245.325 28.5076 244.984 28.8182C244.647 29.125 244.187 29.3314 243.604 29.4375C244.062 29.4754 244.464 29.5909 244.808 29.7841C245.157 29.9773 245.429 30.2311 245.626 30.5455C245.823 30.8598 245.922 31.2216 245.922 31.6307C245.922 32.1117 245.795 32.5303 245.541 32.8864C245.291 33.2386 244.926 33.5133 244.445 33.7102C243.967 33.9034 243.388 34 242.706 34H238.479ZM240.405 32.3807H242.706C243.085 32.3807 243.382 32.2917 243.598 32.1136C243.814 31.9318 243.922 31.6856 243.922 31.375C243.922 31.0152 243.814 30.733 243.598 30.5284C243.382 30.3201 243.085 30.2159 242.706 30.2159H240.405V32.3807ZM240.405 28.8864H242.183C242.464 28.8864 242.704 28.8466 242.905 28.767C243.106 28.6837 243.259 28.5682 243.365 28.4205C243.471 28.2689 243.524 28.089 243.524 27.8807C243.524 27.5814 243.401 27.3466 243.155 27.1761C242.912 27.0057 242.575 26.9205 242.143 26.9205H240.405V28.8864ZM250.131 34.1761C249.578 34.1761 249.08 34.0777 248.636 33.8807C248.197 33.6799 247.848 33.3845 247.591 32.9943C247.337 32.6042 247.21 32.1231 247.21 31.5511C247.21 31.0587 247.301 30.6515 247.483 30.3295C247.665 30.0076 247.913 29.75 248.227 29.5568C248.542 29.3636 248.896 29.2178 249.29 29.1193C249.688 29.017 250.098 28.9432 250.523 28.8977C251.034 28.8447 251.449 28.7973 251.767 28.7557C252.085 28.7102 252.316 28.642 252.46 28.5511C252.608 28.4564 252.682 28.3106 252.682 28.1136V28.0795C252.682 27.6515 252.555 27.3201 252.301 27.0852C252.047 26.8504 251.682 26.733 251.205 26.733C250.701 26.733 250.301 26.8428 250.006 27.0625C249.714 27.2822 249.517 27.5417 249.415 27.8409L247.494 27.5682C247.646 27.0379 247.896 26.5947 248.244 26.2386C248.593 25.8788 249.019 25.6098 249.523 25.4318C250.027 25.25 250.583 25.1591 251.193 25.1591C251.614 25.1591 252.032 25.2083 252.449 25.3068C252.866 25.4053 253.246 25.5682 253.591 25.7955C253.936 26.0189 254.212 26.3239 254.42 26.7102C254.633 27.0966 254.739 27.5795 254.739 28.1591V34H252.761V32.8011H252.693C252.568 33.0436 252.392 33.2708 252.165 33.483C251.941 33.6913 251.659 33.8598 251.318 33.9886C250.981 34.1136 250.585 34.1761 250.131 34.1761ZM250.665 32.6648C251.078 32.6648 251.436 32.5833 251.739 32.4205C252.042 32.2538 252.275 32.0341 252.438 31.7614C252.604 31.4886 252.688 31.1913 252.688 30.8693V29.8409C252.623 29.8939 252.513 29.9432 252.358 29.9886C252.206 30.0341 252.036 30.0739 251.847 30.108C251.657 30.142 251.47 30.1723 251.284 30.1989C251.098 30.2254 250.938 30.2481 250.801 30.267C250.494 30.3087 250.22 30.3769 249.977 30.4716C249.735 30.5663 249.544 30.6989 249.403 30.8693C249.263 31.036 249.193 31.2519 249.193 31.517C249.193 31.8958 249.331 32.1818 249.608 32.375C249.884 32.5682 250.237 32.6648 250.665 32.6648ZM260.614 34.1705C259.742 34.1705 258.994 33.9792 258.369 33.5966C257.748 33.214 257.269 32.6856 256.932 32.0114C256.598 31.3333 256.432 30.553 256.432 29.6705C256.432 28.7841 256.602 28.0019 256.943 27.3239C257.284 26.642 257.765 26.1117 258.386 25.733C259.011 25.3504 259.75 25.1591 260.602 25.1591C261.311 25.1591 261.938 25.2898 262.483 25.5511C263.032 25.8087 263.47 26.1742 263.795 26.6477C264.121 27.1174 264.307 27.6667 264.352 28.2955H262.386C262.307 27.875 262.117 27.5246 261.818 27.2443C261.523 26.9602 261.127 26.8182 260.631 26.8182C260.21 26.8182 259.841 26.9318 259.523 27.1591C259.205 27.3826 258.956 27.7045 258.778 28.125C258.604 28.5455 258.517 29.0492 258.517 29.6364C258.517 30.2311 258.604 30.7424 258.778 31.1705C258.953 31.5947 259.197 31.9223 259.511 32.1534C259.83 32.3807 260.203 32.4943 260.631 32.4943C260.934 32.4943 261.205 32.4375 261.443 32.3239C261.686 32.2064 261.888 32.0379 262.051 31.8182C262.214 31.5985 262.326 31.3314 262.386 31.017H264.352C264.303 31.6345 264.121 32.1818 263.807 32.6591C263.492 33.1326 263.064 33.5038 262.523 33.7727C261.981 34.0379 261.345 34.1705 260.614 34.1705Z" fill="#FFF4D5"/>
<path d="M23.5852 59.2727V68H22.5284V60.2102H18.1307V68H17.0739V59.2727H23.5852ZM28.2397 68.1364C27.6488 68.1364 27.1303 67.9957 26.6843 67.7145C26.2411 67.4332 25.8945 67.0398 25.6445 66.5341C25.3974 66.0284 25.2738 65.4375 25.2738 64.7614C25.2738 64.0795 25.3974 63.4844 25.6445 62.9759C25.8945 62.4673 26.2411 62.0724 26.6843 61.7912C27.1303 61.5099 27.6488 61.3693 28.2397 61.3693C28.8306 61.3693 29.3477 61.5099 29.7908 61.7912C30.2369 62.0724 30.5835 62.4673 30.8306 62.9759C31.0806 63.4844 31.2056 64.0795 31.2056 64.7614C31.2056 65.4375 31.0806 66.0284 30.8306 66.5341C30.5835 67.0398 30.2369 67.4332 29.7908 67.7145C29.3477 67.9957 28.8306 68.1364 28.2397 68.1364ZM28.2397 67.233C28.6886 67.233 29.0579 67.1179 29.3477 66.8878C29.6374 66.6577 29.8519 66.3551 29.9911 65.9801C30.1303 65.6051 30.1999 65.1989 30.1999 64.7614C30.1999 64.3239 30.1303 63.9162 29.9911 63.5384C29.8519 63.1605 29.6374 62.8551 29.3477 62.6222C29.0579 62.3892 28.6886 62.2727 28.2397 62.2727C27.7908 62.2727 27.4215 62.3892 27.1317 62.6222C26.842 62.8551 26.6275 63.1605 26.4883 63.5384C26.3491 63.9162 26.2795 64.3239 26.2795 64.7614C26.2795 65.1989 26.3491 65.6051 26.4883 65.9801C26.6275 66.3551 26.842 66.6577 27.1317 66.8878C27.4215 67.1179 27.7908 67.233 28.2397 67.233ZM32.0419 69.875V67.0625H32.5874C32.7209 66.9233 32.8359 66.7727 32.9325 66.6108C33.0291 66.4489 33.1129 66.2571 33.1839 66.0355C33.2578 65.8111 33.3203 65.5384 33.3714 65.2173C33.4226 64.8935 33.468 64.5028 33.5078 64.0455L33.7294 61.4545H37.8885V67.0625H38.8942V69.875H37.8885V68H33.0476V69.875H32.0419ZM33.7294 67.0625H36.8828V62.392H34.6669L34.4964 64.0455C34.4254 64.7301 34.3374 65.3281 34.2322 65.8395C34.1271 66.3509 33.9595 66.7585 33.7294 67.0625ZM40.229 70.4545V61.4545H41.2006V62.4943H41.32C41.3938 62.3807 41.4961 62.2358 41.6268 62.0597C41.7603 61.8807 41.9506 61.7216 42.1978 61.5824C42.4478 61.4403 42.7859 61.3693 43.212 61.3693C43.7631 61.3693 44.2489 61.5071 44.6694 61.7827C45.0898 62.0582 45.418 62.4489 45.6538 62.9545C45.8896 63.4602 46.0075 64.0568 46.0075 64.7443C46.0075 65.4375 45.8896 66.0384 45.6538 66.5469C45.418 67.0526 45.0913 67.4446 44.6737 67.723C44.256 67.9986 43.7745 68.1364 43.229 68.1364C42.8086 68.1364 42.4719 68.0668 42.2191 67.9276C41.9663 67.7855 41.7717 67.625 41.6353 67.446C41.4989 67.2642 41.3938 67.1136 41.32 66.9943H41.2347V70.4545H40.229ZM41.2177 64.7273C41.2177 65.2216 41.2901 65.6577 41.435 66.0355C41.5799 66.4105 41.7915 66.7045 42.07 66.9176C42.3484 67.1278 42.6893 67.233 43.0927 67.233C43.5131 67.233 43.864 67.1222 44.1452 66.9006C44.4293 66.6761 44.6424 66.375 44.7844 65.9972C44.9293 65.6165 45.0018 65.1932 45.0018 64.7273C45.0018 64.267 44.9308 63.8523 44.7887 63.483C44.6495 63.1108 44.4379 62.8168 44.1538 62.6009C43.8725 62.3821 43.5188 62.2727 43.0927 62.2727C42.6836 62.2727 42.3398 62.3764 42.0614 62.5838C41.783 62.7884 41.5728 63.0753 41.4308 63.4446C41.2887 63.8111 41.2177 64.2386 41.2177 64.7273ZM50.2006 68.1364C49.6097 68.1364 49.0913 67.9957 48.6452 67.7145C48.2021 67.4332 47.8555 67.0398 47.6055 66.5341C47.3583 66.0284 47.2347 65.4375 47.2347 64.7614C47.2347 64.0795 47.3583 63.4844 47.6055 62.9759C47.8555 62.4673 48.2021 62.0724 48.6452 61.7912C49.0913 61.5099 49.6097 61.3693 50.2006 61.3693C50.7915 61.3693 51.3086 61.5099 51.7518 61.7912C52.1978 62.0724 52.5444 62.4673 52.7915 62.9759C53.0415 63.4844 53.1665 64.0795 53.1665 64.7614C53.1665 65.4375 53.0415 66.0284 52.7915 66.5341C52.5444 67.0398 52.1978 67.4332 51.7518 67.7145C51.3086 67.9957 50.7915 68.1364 50.2006 68.1364ZM50.2006 67.233C50.6495 67.233 51.0188 67.1179 51.3086 66.8878C51.5984 66.6577 51.8129 66.3551 51.9521 65.9801C52.0913 65.6051 52.1609 65.1989 52.1609 64.7614C52.1609 64.3239 52.0913 63.9162 51.9521 63.5384C51.8129 63.1605 51.5984 62.8551 51.3086 62.6222C51.0188 62.3892 50.6495 62.2727 50.2006 62.2727C49.7518 62.2727 49.3825 62.3892 49.0927 62.6222C48.8029 62.8551 48.5884 63.1605 48.4492 63.5384C48.31 63.9162 48.2404 64.3239 48.2404 64.7614C48.2404 65.1989 48.31 65.6051 48.4492 65.9801C48.5884 66.3551 48.8029 66.6577 49.0927 66.8878C49.3825 67.1179 49.7518 67.233 50.2006 67.233ZM59.5597 59L60.071 59.6136C59.8722 59.8068 59.642 59.9418 59.3807 60.0185C59.1193 60.0952 58.8239 60.142 58.4943 60.1591C58.1648 60.1761 57.7983 60.1932 57.3949 60.2102C56.9403 60.2273 56.5639 60.3381 56.2656 60.5426C55.9673 60.7472 55.7372 61.0426 55.5753 61.429C55.4134 61.8153 55.3097 62.2898 55.2642 62.8523H55.3494C55.571 62.4432 55.8778 62.142 56.2699 61.9489C56.6619 61.7557 57.0824 61.6591 57.5312 61.6591C58.0426 61.6591 58.5028 61.7784 58.9119 62.017C59.321 62.2557 59.6449 62.6094 59.8835 63.0781C60.1222 63.5469 60.2415 64.125 60.2415 64.8125C60.2415 65.4972 60.1193 66.0881 59.875 66.5852C59.6335 67.0824 59.294 67.4659 58.8565 67.7358C58.4219 68.0028 57.9119 68.1364 57.3267 68.1364C56.7415 68.1364 56.2287 67.9986 55.7884 67.723C55.348 67.4446 55.0057 67.0327 54.7614 66.4872C54.517 65.9389 54.3949 65.2614 54.3949 64.4545V63.7557C54.3949 62.2983 54.642 61.1932 55.1364 60.4403C55.6335 59.6875 56.3807 59.2983 57.3778 59.2727C57.7301 59.2614 58.044 59.2585 58.3196 59.2642C58.5952 59.2699 58.8352 59.2571 59.0398 59.2259C59.2443 59.1946 59.4176 59.1193 59.5597 59ZM57.3267 67.233C57.7216 67.233 58.0611 67.1335 58.3452 66.9347C58.6321 66.7358 58.8523 66.456 59.0057 66.0952C59.1591 65.7315 59.2358 65.304 59.2358 64.8125C59.2358 64.3352 59.1577 63.929 59.0014 63.5938C58.848 63.2585 58.6278 63.0028 58.3409 62.8267C58.054 62.6506 57.7102 62.5625 57.3097 62.5625C57.017 62.5625 56.7543 62.6122 56.5213 62.7116C56.2884 62.8111 56.0895 62.9574 55.9247 63.1506C55.7599 63.3437 55.6321 63.5795 55.5412 63.858C55.4531 64.1364 55.4062 64.4545 55.4006 64.8125C55.4006 65.5455 55.5724 66.1321 55.9162 66.5724C56.2599 67.0128 56.7301 67.233 57.3267 67.233ZM66.1605 64.267V65.2045H62.5469V64.267H66.1605ZM62.7855 61.4545V68H61.7798V61.4545H62.7855ZM66.9276 61.4545V68H65.9219V61.4545H66.9276ZM71.4233 68.1364C70.8324 68.1364 70.3139 67.9957 69.8679 67.7145C69.4247 67.4332 69.0781 67.0398 68.8281 66.5341C68.581 66.0284 68.4574 65.4375 68.4574 64.7614C68.4574 64.0795 68.581 63.4844 68.8281 62.9759C69.0781 62.4673 69.4247 62.0724 69.8679 61.7912C70.3139 61.5099 70.8324 61.3693 71.4233 61.3693C72.0142 61.3693 72.5313 61.5099 72.9744 61.7912C73.4205 62.0724 73.767 62.4673 74.0142 62.9759C74.2642 63.4844 74.3892 64.0795 74.3892 64.7614C74.3892 65.4375 74.2642 66.0284 74.0142 66.5341C73.767 67.0398 73.4205 67.4332 72.9744 67.7145C72.5313 67.9957 72.0142 68.1364 71.4233 68.1364ZM71.4233 67.233C71.8722 67.233 72.2415 67.1179 72.5312 66.8878C72.821 66.6577 73.0355 66.3551 73.1747 65.9801C73.3139 65.6051 73.3835 65.1989 73.3835 64.7614C73.3835 64.3239 73.3139 63.9162 73.1747 63.5384C73.0355 63.1605 72.821 62.8551 72.5312 62.6222C72.2415 62.3892 71.8722 62.2727 71.4233 62.2727C70.9744 62.2727 70.6051 62.3892 70.3153 62.6222C70.0256 62.8551 69.8111 63.1605 69.6719 63.5384C69.5327 63.9162 69.4631 64.3239 69.4631 64.7614C69.4631 65.1989 69.5327 65.6051 69.6719 65.9801C69.8111 66.3551 70.0256 66.6577 70.3153 66.8878C70.6051 67.1179 70.9744 67.233 71.4233 67.233ZM78.6687 68.1364C78.038 68.1364 77.494 67.9972 77.0366 67.7188C76.582 67.4375 76.2312 67.0455 75.984 66.5426C75.7397 66.0369 75.6175 65.4489 75.6175 64.7784C75.6175 64.108 75.7397 63.517 75.984 63.0057C76.2312 62.4915 76.5749 62.0909 77.0153 61.804C77.4585 61.5142 77.9755 61.3693 78.5664 61.3693C78.9073 61.3693 79.244 61.4261 79.5763 61.5398C79.9087 61.6534 80.2113 61.8381 80.484 62.0938C80.7567 62.3466 80.9741 62.6818 81.136 63.0994C81.2979 63.517 81.3789 64.0312 81.3789 64.642V65.0682H76.3335V64.1989H80.3562C80.3562 63.8295 80.2823 63.5 80.1346 63.2102C79.9897 62.9205 79.7823 62.6918 79.5124 62.5241C79.2454 62.3565 78.93 62.2727 78.5664 62.2727C78.1658 62.2727 77.8192 62.3722 77.5266 62.571C77.2369 62.767 77.0138 63.0227 76.8576 63.3381C76.7013 63.6534 76.6232 63.9915 76.6232 64.3523V64.9318C76.6232 65.4261 76.7085 65.8452 76.8789 66.1889C77.0522 66.5298 77.2923 66.7898 77.5991 66.9688C77.9059 67.1449 78.2624 67.233 78.6687 67.233C78.9329 67.233 79.1715 67.196 79.3846 67.1222C79.6005 67.0455 79.7866 66.9318 79.9428 66.7812C80.0991 66.6278 80.2198 66.4375 80.305 66.2102L81.2766 66.483C81.1744 66.8125 81.0025 67.1023 80.761 67.3523C80.5195 67.5994 80.2212 67.7926 79.8661 67.9318C79.511 68.0682 79.1119 68.1364 78.6687 68.1364ZM86.2837 70.4545V61.4545H87.2553V62.4943H87.3746C87.4485 62.3807 87.5508 62.2358 87.6815 62.0597C87.815 61.8807 88.0053 61.7216 88.2525 61.5824C88.5025 61.4403 88.8406 61.3693 89.2667 61.3693C89.8178 61.3693 90.3036 61.5071 90.7241 61.7827C91.1445 62.0582 91.4727 62.4489 91.7085 62.9545C91.9442 63.4602 92.0621 64.0568 92.0621 64.7443C92.0621 65.4375 91.9442 66.0384 91.7085 66.5469C91.4727 67.0526 91.146 67.4446 90.7283 67.723C90.3107 67.9986 89.8292 68.1364 89.2837 68.1364C88.8633 68.1364 88.5266 68.0668 88.2738 67.9276C88.021 67.7855 87.8263 67.625 87.69 67.446C87.5536 67.2642 87.4485 67.1136 87.3746 66.9943H87.2894V70.4545H86.2837ZM87.2724 64.7273C87.2724 65.2216 87.3448 65.6577 87.4897 66.0355C87.6346 66.4105 87.8462 66.7045 88.1246 66.9176C88.4031 67.1278 88.744 67.233 89.1474 67.233C89.5678 67.233 89.9187 67.1222 90.1999 66.9006C90.484 66.6761 90.6971 66.375 90.8391 65.9972C90.984 65.6165 91.0565 65.1932 91.0565 64.7273C91.0565 64.267 90.9854 63.8523 90.8434 63.483C90.7042 63.1108 90.4925 62.8168 90.2085 62.6009C89.9272 62.3821 89.5735 62.2727 89.1474 62.2727C88.7383 62.2727 88.3945 62.3764 88.1161 62.5838C87.8377 62.7884 87.6275 63.0753 87.4854 63.4446C87.3434 63.8111 87.2724 64.2386 87.2724 64.7273ZM94.0096 70.4545C93.8391 70.4545 93.6871 70.4403 93.5536 70.4119C93.4201 70.3864 93.3278 70.3608 93.2766 70.3352L93.5323 69.4489C93.7766 69.5114 93.9925 69.5341 94.18 69.517C94.3675 69.5 94.5337 69.4162 94.6786 69.2656C94.8263 69.1179 94.9613 68.8778 95.0835 68.5455L95.271 68.0341L92.8505 61.4545H93.9414L95.7482 66.6705H95.8164L97.6232 61.4545H98.7141L95.9357 68.9545C95.8107 69.2926 95.6559 69.5724 95.4712 69.794C95.2866 70.0185 95.0721 70.1847 94.8278 70.2926C94.5863 70.4006 94.3136 70.4545 94.0096 70.4545ZM100.042 68V61.4545H101.047V64.3011H101.712L104.064 61.4545H105.36L102.718 64.608L105.394 68H104.098L101.951 65.2386H101.047V68H100.042ZM108.876 68.1364C108.286 68.1364 107.767 67.9957 107.321 67.7145C106.878 67.4332 106.531 67.0398 106.281 66.5341C106.034 66.0284 105.911 65.4375 105.911 64.7614C105.911 64.0795 106.034 63.4844 106.281 62.9759C106.531 62.4673 106.878 62.0724 107.321 61.7912C107.767 61.5099 108.286 61.3693 108.876 61.3693C109.467 61.3693 109.984 61.5099 110.428 61.7912C110.874 62.0724 111.22 62.4673 111.467 62.9759C111.717 63.4844 111.842 64.0795 111.842 64.7614C111.842 65.4375 111.717 66.0284 111.467 66.5341C111.22 67.0398 110.874 67.4332 110.428 67.7145C109.984 67.9957 109.467 68.1364 108.876 68.1364ZM108.876 67.233C109.325 67.233 109.695 67.1179 109.984 66.8878C110.274 66.6577 110.489 66.3551 110.628 65.9801C110.767 65.6051 110.837 65.1989 110.837 64.7614C110.837 64.3239 110.767 63.9162 110.628 63.5384C110.489 63.1605 110.274 62.8551 109.984 62.6222C109.695 62.3892 109.325 62.2727 108.876 62.2727C108.428 62.2727 108.058 62.3892 107.768 62.6222C107.479 62.8551 107.264 63.1605 107.125 63.5384C106.986 63.9162 106.916 64.3239 106.916 64.7614C106.916 65.1989 106.986 65.6051 107.125 65.9801C107.264 66.3551 107.479 66.6577 107.768 66.8878C108.058 67.1179 108.428 67.233 108.876 67.233ZM113.377 68V61.4545H116.054C116.758 61.4545 117.318 61.6136 117.733 61.9318C118.147 62.25 118.355 62.6705 118.355 63.1932C118.355 63.5909 118.237 63.8991 118.001 64.1179C117.765 64.3338 117.463 64.4801 117.093 64.5568C117.335 64.5909 117.569 64.6761 117.797 64.8125C118.027 64.9489 118.217 65.1364 118.368 65.375C118.518 65.6108 118.593 65.9006 118.593 66.2443C118.593 66.5795 118.508 66.8793 118.338 67.1435C118.167 67.4077 117.923 67.6165 117.605 67.7699C117.287 67.9233 116.906 68 116.463 68H113.377ZM114.332 67.0795H116.463C116.809 67.0795 117.081 66.9972 117.277 66.8324C117.473 66.6676 117.571 66.4432 117.571 66.1591C117.571 65.821 117.473 65.5554 117.277 65.3622C117.081 65.1662 116.809 65.0682 116.463 65.0682H114.332V67.0795ZM114.332 64.1989H116.054C116.324 64.1989 116.555 64.1619 116.748 64.0881C116.941 64.0114 117.089 63.9034 117.191 63.7642C117.297 63.6222 117.349 63.4545 117.349 63.2614C117.349 62.9858 117.234 62.7699 117.004 62.6136C116.774 62.4545 116.457 62.375 116.054 62.375H114.332V64.1989ZM122.775 68.1364C122.184 68.1364 121.665 67.9957 121.219 67.7145C120.776 67.4332 120.43 67.0398 120.18 66.5341C119.933 66.0284 119.809 65.4375 119.809 64.7614C119.809 64.0795 119.933 63.4844 120.18 62.9759C120.43 62.4673 120.776 62.0724 121.219 61.7912C121.665 61.5099 122.184 61.3693 122.775 61.3693C123.366 61.3693 123.883 61.5099 124.326 61.7912C124.772 62.0724 125.119 62.4673 125.366 62.9759C125.616 63.4844 125.741 64.0795 125.741 64.7614C125.741 65.4375 125.616 66.0284 125.366 66.5341C125.119 67.0398 124.772 67.4332 124.326 67.7145C123.883 67.9957 123.366 68.1364 122.775 68.1364ZM122.775 67.233C123.224 67.233 123.593 67.1179 123.883 66.8878C124.173 66.6577 124.387 66.3551 124.526 65.9801C124.665 65.6051 124.735 65.1989 124.735 64.7614C124.735 64.3239 124.665 63.9162 124.526 63.5384C124.387 63.1605 124.173 62.8551 123.883 62.6222C123.593 62.3892 123.224 62.2727 122.775 62.2727C122.326 62.2727 121.957 62.3892 121.667 62.6222C121.377 62.8551 121.163 63.1605 121.023 63.5384C120.884 63.9162 120.815 64.3239 120.815 64.7614C120.815 65.1989 120.884 65.6051 121.023 65.9801C121.163 66.3551 121.377 66.6577 121.667 66.8878C121.957 67.1179 122.326 67.233 122.775 67.233ZM126.577 69.875V67.0625H127.123C127.256 66.9233 127.371 66.7727 127.468 66.6108C127.564 66.4489 127.648 66.2571 127.719 66.0355C127.793 65.8111 127.855 65.5384 127.907 65.2173C127.958 64.8935 128.003 64.5028 128.043 64.0455L128.265 61.4545H132.424V67.0625H133.429V69.875H132.424V68H127.583V69.875H126.577ZM128.265 67.0625H131.418V62.392H129.202L129.032 64.0455C128.961 64.7301 128.873 65.3281 128.767 65.8395C128.662 66.3509 128.495 66.7585 128.265 67.0625ZM137.423 68.1364C136.81 68.1364 136.281 67.9915 135.838 67.7017C135.395 67.4119 135.054 67.0128 134.815 66.5043C134.577 65.9957 134.457 65.4148 134.457 64.7614C134.457 64.0966 134.58 63.5099 134.824 63.0014C135.071 62.4901 135.415 62.0909 135.855 61.804C136.298 61.5142 136.815 61.3693 137.406 61.3693C137.866 61.3693 138.281 61.4545 138.651 61.625C139.02 61.7955 139.322 62.0341 139.558 62.3409C139.794 62.6477 139.94 63.0057 139.997 63.4148H138.991C138.915 63.1165 138.744 62.8523 138.48 62.6222C138.219 62.3892 137.866 62.2727 137.423 62.2727C137.031 62.2727 136.688 62.375 136.392 62.5795C136.099 62.7812 135.871 63.0668 135.706 63.4361C135.544 63.8026 135.463 64.233 135.463 64.7273C135.463 65.233 135.543 65.6733 135.702 66.0483C135.864 66.4233 136.091 66.7145 136.384 66.9219C136.679 67.1293 137.026 67.233 137.423 67.233C137.685 67.233 137.922 67.1875 138.135 67.0966C138.348 67.0057 138.528 66.875 138.676 66.7045C138.824 66.5341 138.929 66.3295 138.991 66.0909H139.997C139.94 66.4773 139.8 66.8253 139.575 67.1349C139.354 67.4418 139.06 67.6861 138.693 67.8679C138.33 68.0469 137.906 68.1364 137.423 68.1364ZM140.952 62.392V61.4545H146.27V62.392H144.122V68H143.116V62.392H140.952ZM147.737 68V61.4545H150.413C151.118 61.4545 151.677 61.6136 152.092 61.9318C152.507 62.25 152.714 62.6705 152.714 63.1932C152.714 63.5909 152.596 63.8991 152.36 64.1179C152.125 64.3338 151.822 64.4801 151.453 64.5568C151.694 64.5909 151.929 64.6761 152.156 64.8125C152.386 64.9489 152.576 65.1364 152.727 65.375C152.877 65.6108 152.953 65.9006 152.953 66.2443C152.953 66.5795 152.868 66.8793 152.697 67.1435C152.527 67.4077 152.282 67.6165 151.964 67.7699C151.646 67.9233 151.265 68 150.822 68H147.737ZM148.691 67.0795H150.822C151.169 67.0795 151.44 66.9972 151.636 66.8324C151.832 66.6676 151.93 66.4432 151.93 66.1591C151.93 65.821 151.832 65.5554 151.636 65.3622C151.44 65.1662 151.169 65.0682 150.822 65.0682H148.691V67.0795ZM148.691 64.1989H150.413C150.683 64.1989 150.914 64.1619 151.108 64.0881C151.301 64.0114 151.449 63.9034 151.551 63.7642C151.656 63.6222 151.708 63.4545 151.708 63.2614C151.708 62.9858 151.593 62.7699 151.363 62.6136C151.133 62.4545 150.816 62.375 150.413 62.375H148.691V64.1989ZM157.134 68.1364C156.543 68.1364 156.025 67.9957 155.579 67.7145C155.136 67.4332 154.789 67.0398 154.539 66.5341C154.292 66.0284 154.168 65.4375 154.168 64.7614C154.168 64.0795 154.292 63.4844 154.539 62.9759C154.789 62.4673 155.136 62.0724 155.579 61.7912C156.025 61.5099 156.543 61.3693 157.134 61.3693C157.725 61.3693 158.242 61.5099 158.685 61.7912C159.131 62.0724 159.478 62.4673 159.725 62.9759C159.975 63.4844 160.1 64.0795 160.1 64.7614C160.1 65.4375 159.975 66.0284 159.725 66.5341C159.478 67.0398 159.131 67.4332 158.685 67.7145C158.242 67.9957 157.725 68.1364 157.134 68.1364ZM157.134 67.233C157.583 67.233 157.952 67.1179 158.242 66.8878C158.532 66.6577 158.746 66.3551 158.886 65.9801C159.025 65.6051 159.094 65.1989 159.094 64.7614C159.094 64.3239 159.025 63.9162 158.886 63.5384C158.746 63.1605 158.532 62.8551 158.242 62.6222C157.952 62.3892 157.583 62.2727 157.134 62.2727C156.685 62.2727 156.316 62.3892 156.026 62.6222C155.737 62.8551 155.522 63.1605 155.383 63.5384C155.244 63.9162 155.174 64.3239 155.174 64.7614C155.174 65.1989 155.244 65.6051 155.383 65.9801C155.522 66.3551 155.737 66.6577 156.026 66.8878C156.316 67.1179 156.685 67.233 157.134 67.233ZM165.01 68V61.4545H170.158V68H169.152V62.392H166.016V68H165.01ZM174.654 68.1364C174.063 68.1364 173.544 67.9957 173.098 67.7145C172.655 67.4332 172.309 67.0398 172.059 66.5341C171.811 66.0284 171.688 65.4375 171.688 64.7614C171.688 64.0795 171.811 63.4844 172.059 62.9759C172.309 62.4673 172.655 62.0724 173.098 61.7912C173.544 61.5099 174.063 61.3693 174.654 61.3693C175.245 61.3693 175.762 61.5099 176.205 61.7912C176.651 62.0724 176.998 62.4673 177.245 62.9759C177.495 63.4844 177.62 64.0795 177.62 64.7614C177.62 65.4375 177.495 66.0284 177.245 66.5341C176.998 67.0398 176.651 67.4332 176.205 67.7145C175.762 67.9957 175.245 68.1364 174.654 68.1364ZM174.654 67.233C175.103 67.233 175.472 67.1179 175.762 66.8878C176.051 66.6577 176.266 66.3551 176.405 65.9801C176.544 65.6051 176.614 65.1989 176.614 64.7614C176.614 64.3239 176.544 63.9162 176.405 63.5384C176.266 63.1605 176.051 62.8551 175.762 62.6222C175.472 62.3892 175.103 62.2727 174.654 62.2727C174.205 62.2727 173.836 62.3892 173.546 62.6222C173.256 62.8551 173.042 63.1605 172.902 63.5384C172.763 63.9162 172.694 64.3239 172.694 64.7614C172.694 65.1989 172.763 65.6051 172.902 65.9801C173.042 66.3551 173.256 66.6577 173.546 66.8878C173.836 67.1179 174.205 67.233 174.654 67.233ZM183.536 66.517L186.689 61.4545H187.848V68H186.842V62.9375L183.706 68H182.53V61.4545H183.536V66.517ZM192.349 68.1364C191.735 68.1364 191.207 67.9915 190.764 67.7017C190.321 67.4119 189.98 67.0128 189.741 66.5043C189.502 65.9957 189.383 65.4148 189.383 64.7614C189.383 64.0966 189.505 63.5099 189.75 63.0014C189.997 62.4901 190.341 62.0909 190.781 61.804C191.224 61.5142 191.741 61.3693 192.332 61.3693C192.792 61.3693 193.207 61.4545 193.576 61.625C193.946 61.7955 194.248 62.0341 194.484 62.3409C194.72 62.6477 194.866 63.0057 194.923 63.4148H193.917C193.841 63.1165 193.67 62.8523 193.406 62.6222C193.145 62.3892 192.792 62.2727 192.349 62.2727C191.957 62.2727 191.613 62.375 191.318 62.5795C191.025 62.7812 190.797 63.0668 190.632 63.4361C190.47 63.8026 190.389 64.233 190.389 64.7273C190.389 65.233 190.468 65.6733 190.627 66.0483C190.789 66.4233 191.017 66.7145 191.309 66.9219C191.605 67.1293 191.951 67.233 192.349 67.233C192.61 67.233 192.848 67.1875 193.061 67.0966C193.274 67.0057 193.454 66.875 193.602 66.7045C193.75 66.5341 193.855 66.3295 193.917 66.0909H194.923C194.866 66.4773 194.725 66.8253 194.501 67.1349C194.279 67.4418 193.985 67.6861 193.619 67.8679C193.255 68.0469 192.832 68.1364 192.349 68.1364ZM196.393 68V61.4545H201.541V68H200.535V62.392H197.399V68H196.393ZM206.037 68.1364C205.446 68.1364 204.927 67.9957 204.481 67.7145C204.038 67.4332 203.691 67.0398 203.441 66.5341C203.194 66.0284 203.071 65.4375 203.071 64.7614C203.071 64.0795 203.194 63.4844 203.441 62.9759C203.691 62.4673 204.038 62.0724 204.481 61.7912C204.927 61.5099 205.446 61.3693 206.037 61.3693C206.627 61.3693 207.145 61.5099 207.588 61.7912C208.034 62.0724 208.38 62.4673 208.627 62.9759C208.877 63.4844 209.002 64.0795 209.002 64.7614C209.002 65.4375 208.877 66.0284 208.627 66.5341C208.38 67.0398 208.034 67.4332 207.588 67.7145C207.145 67.9957 206.627 68.1364 206.037 68.1364ZM206.037 67.233C206.485 67.233 206.855 67.1179 207.145 66.8878C207.434 66.6577 207.649 66.3551 207.788 65.9801C207.927 65.6051 207.997 65.1989 207.997 64.7614C207.997 64.3239 207.927 63.9162 207.788 63.5384C207.649 63.1605 207.434 62.8551 207.145 62.6222C206.855 62.3892 206.485 62.2727 206.037 62.2727C205.588 62.2727 205.218 62.3892 204.929 62.6222C204.639 62.8551 204.424 63.1605 204.285 63.5384C204.146 63.9162 204.076 64.3239 204.076 64.7614C204.076 65.1989 204.146 65.6051 204.285 65.9801C204.424 66.3551 204.639 66.6577 204.929 66.8878C205.218 67.1179 205.588 67.233 206.037 67.233ZM209.958 68V67.0625H210.197C210.393 67.0625 210.556 67.0241 210.687 66.9474C210.817 66.8679 210.923 66.7301 211.002 66.5341C211.085 66.3352 211.147 66.0597 211.19 65.7074C211.235 65.3523 211.268 64.9006 211.288 64.3523L211.407 61.4545H215.771V68H214.765V62.392H212.362L212.259 64.7273C212.237 65.2642 212.188 65.7372 212.114 66.1463C212.043 66.5526 211.934 66.8935 211.786 67.169C211.641 67.4446 211.448 67.652 211.207 67.7912C210.965 67.9304 210.663 68 210.299 68H209.958ZM218.485 63.8239H220.36C221.127 63.8239 221.714 64.0185 222.12 64.4077C222.526 64.7969 222.729 65.2898 222.729 65.8864C222.729 66.2784 222.638 66.6349 222.457 66.956C222.275 67.2741 222.008 67.5284 221.656 67.7188C221.303 67.9062 220.871 68 220.36 68H217.616V61.4545H218.621V67.0625H220.36C220.758 67.0625 221.085 66.9574 221.34 66.7472C221.596 66.5369 221.724 66.267 221.724 65.9375C221.724 65.5909 221.596 65.3082 221.34 65.0895C221.085 64.8707 220.758 64.7614 220.36 64.7614H218.485V63.8239ZM223.851 66.3295H224.925C224.948 66.625 225.081 66.8494 225.326 67.0028C225.573 67.1562 225.894 67.233 226.289 67.233C226.692 67.233 227.037 67.1506 227.324 66.9858C227.611 66.8182 227.755 66.5483 227.755 66.1761C227.755 65.9574 227.701 65.767 227.593 65.6051C227.485 65.4403 227.333 65.3125 227.137 65.2216C226.941 65.1307 226.709 65.0852 226.442 65.0852H225.317V64.1818H226.442C226.843 64.1818 227.138 64.0909 227.328 63.9091C227.522 63.7273 227.618 63.5 227.618 63.2273C227.618 62.9347 227.515 62.7003 227.307 62.5241C227.1 62.3452 226.806 62.2557 226.425 62.2557C226.042 62.2557 225.722 62.3423 225.466 62.5156C225.211 62.6861 225.076 62.9062 225.061 63.1761H224.005C224.016 62.8239 224.124 62.5128 224.328 62.2429C224.533 61.9702 224.811 61.7571 225.164 61.6037C225.516 61.4474 225.919 61.3693 226.374 61.3693C226.834 61.3693 227.233 61.4503 227.571 61.6122C227.912 61.7713 228.175 61.9886 228.36 62.2642C228.547 62.5369 228.641 62.8466 228.641 63.1932C228.641 63.5625 228.537 63.8608 228.33 64.0881C228.123 64.3153 227.863 64.4773 227.55 64.5739V64.642C227.797 64.6591 228.012 64.7386 228.194 64.8807C228.378 65.0199 228.522 65.2031 228.624 65.4304C228.726 65.6548 228.777 65.9034 228.777 66.1761C228.777 66.5739 228.671 66.9205 228.458 67.2159C228.245 67.5085 227.952 67.7358 227.58 67.8977C227.208 68.0568 226.783 68.1364 226.306 68.1364C225.843 68.1364 225.428 68.0611 225.061 67.9105C224.695 67.7571 224.404 67.5455 224.188 67.2756C223.975 67.0028 223.863 66.6875 223.851 66.3295ZM232.849 68.1364C232.258 68.1364 231.74 67.9957 231.294 67.7145C230.85 67.4332 230.504 67.0398 230.254 66.5341C230.007 66.0284 229.883 65.4375 229.883 64.7614C229.883 64.0795 230.007 63.4844 230.254 62.9759C230.504 62.4673 230.85 62.0724 231.294 61.7912C231.74 61.5099 232.258 61.3693 232.849 61.3693C233.44 61.3693 233.957 61.5099 234.4 61.7912C234.846 62.0724 235.193 62.4673 235.44 62.9759C235.69 63.4844 235.815 64.0795 235.815 64.7614C235.815 65.4375 235.69 66.0284 235.44 66.5341C235.193 67.0398 234.846 67.4332 234.4 67.7145C233.957 67.9957 233.44 68.1364 232.849 68.1364ZM232.849 67.233C233.298 67.233 233.667 67.1179 233.957 66.8878C234.247 66.6577 234.461 66.3551 234.6 65.9801C234.74 65.6051 234.809 65.1989 234.809 64.7614C234.809 64.3239 234.74 63.9162 234.6 63.5384C234.461 63.1605 234.247 62.8551 233.957 62.6222C233.667 62.3892 233.298 62.2727 232.849 62.2727C232.4 62.2727 232.031 62.3892 231.741 62.6222C231.451 62.8551 231.237 63.1605 231.098 63.5384C230.958 63.9162 230.889 64.3239 230.889 64.7614C230.889 65.1989 230.958 65.6051 231.098 65.9801C231.237 66.3551 231.451 66.6577 231.741 66.8878C232.031 67.1179 232.4 67.233 232.849 67.233ZM237.35 68V61.4545H240.026C240.731 61.4545 241.29 61.6136 241.705 61.9318C242.12 62.25 242.327 62.6705 242.327 63.1932C242.327 63.5909 242.21 63.8991 241.974 64.1179C241.738 64.3338 241.435 64.4801 241.066 64.5568C241.308 64.5909 241.542 64.6761 241.769 64.8125C241.999 64.9489 242.19 65.1364 242.34 65.375C242.491 65.6108 242.566 65.9006 242.566 66.2443C242.566 66.5795 242.481 66.8793 242.31 67.1435C242.14 67.4077 241.896 67.6165 241.577 67.7699C241.259 67.9233 240.879 68 240.435 68H237.35ZM238.305 67.0795H240.435C240.782 67.0795 241.053 66.9972 241.249 66.8324C241.445 66.6676 241.543 66.4432 241.543 66.1591C241.543 65.821 241.445 65.5554 241.249 65.3622C241.053 65.1662 240.782 65.0682 240.435 65.0682H238.305V67.0795ZM238.305 64.1989H240.026C240.296 64.1989 240.528 64.1619 240.721 64.0881C240.914 64.0114 241.062 63.9034 241.164 63.7642C241.269 63.6222 241.322 63.4545 241.322 63.2614C241.322 62.9858 241.207 62.7699 240.977 62.6136C240.746 62.4545 240.43 62.375 240.026 62.375H238.305V64.1989ZM246.015 68.1534C245.6 68.1534 245.223 68.0753 244.885 67.919C244.547 67.7599 244.279 67.5312 244.08 67.233C243.881 66.9318 243.782 66.5682 243.782 66.142C243.782 65.767 243.855 65.4631 244.003 65.2301C244.151 64.9943 244.348 64.8097 244.596 64.6761C244.843 64.5426 245.115 64.4432 245.414 64.3778C245.715 64.3097 246.017 64.2557 246.321 64.2159C246.719 64.1648 247.042 64.1264 247.289 64.1009C247.539 64.0724 247.721 64.0256 247.834 63.9602C247.951 63.8949 248.009 63.7812 248.009 63.6193V63.5852C248.009 63.1648 247.894 62.8381 247.664 62.6051C247.436 62.3722 247.091 62.2557 246.628 62.2557C246.148 62.2557 245.772 62.3608 245.499 62.571C245.226 62.7812 245.034 63.0057 244.924 63.2443L243.969 62.9034C244.14 62.5057 244.367 62.196 244.651 61.9744C244.938 61.75 245.25 61.5937 245.588 61.5057C245.929 61.4148 246.265 61.3693 246.594 61.3693C246.804 61.3693 247.046 61.3949 247.319 61.446C247.594 61.4943 247.86 61.5952 248.115 61.7486C248.374 61.902 248.588 62.1335 248.759 62.4432C248.929 62.7528 249.015 63.1676 249.015 63.6875V68H248.009V67.1136H247.958C247.89 67.2557 247.776 67.4077 247.617 67.5696C247.458 67.7315 247.246 67.8693 246.982 67.983C246.718 68.0966 246.395 68.1534 246.015 68.1534ZM246.168 67.25C246.566 67.25 246.901 67.1719 247.174 67.0156C247.449 66.8594 247.657 66.6577 247.796 66.4105C247.938 66.1634 248.009 65.9034 248.009 65.6307V64.7102C247.966 64.7614 247.873 64.8082 247.728 64.8509C247.586 64.8906 247.421 64.9261 247.233 64.9574C247.049 64.9858 246.868 65.0114 246.692 65.0341C246.519 65.054 246.378 65.071 246.27 65.0852C246.009 65.1193 245.765 65.1747 245.537 65.2514C245.313 65.3253 245.131 65.4375 244.992 65.5881C244.855 65.7358 244.787 65.9375 244.787 66.1932C244.787 66.5426 244.917 66.8068 245.175 66.9858C245.436 67.1619 245.767 67.25 246.168 67.25ZM255.231 64.267V65.2045H251.617V64.267H255.231ZM251.856 61.4545V68H250.85V61.4545H251.856ZM255.998 61.4545V68H254.992V61.4545H255.998ZM258.84 66.517L261.994 61.4545H263.153V68H262.147V62.9375L259.011 68H257.835V61.4545H258.84V66.517ZM268.131 64.3182V65.2557H264.671V64.3182H268.131ZM265.523 61.4545V68H264.517V61.4545H265.523ZM270.142 68.1364C269.551 68.1364 269.033 67.9957 268.587 67.7145C268.144 67.4332 267.797 67.0398 267.547 66.5341C267.3 66.0284 267.176 65.4375 267.176 64.7614C267.176 64.0795 267.3 63.4844 267.547 62.9759C267.797 62.4673 268.144 62.0724 268.587 61.7912C269.033 61.5099 269.551 61.3693 270.142 61.3693C270.733 61.3693 271.25 61.5099 271.694 61.7912C272.14 62.0724 272.486 62.4673 272.733 62.9759C272.983 63.4844 273.108 64.0795 273.108 64.7614C273.108 65.4375 272.983 66.0284 272.733 66.5341C272.486 67.0398 272.14 67.4332 271.694 67.7145C271.25 67.9957 270.733 68.1364 270.142 68.1364ZM270.142 67.233C270.591 67.233 270.961 67.1179 271.25 66.8878C271.54 66.6577 271.755 66.3551 271.894 65.9801C272.033 65.6051 272.103 65.1989 272.103 64.7614C272.103 64.3239 272.033 63.9162 271.894 63.5384C271.755 63.1605 271.54 62.8551 271.25 62.6222C270.961 62.3892 270.591 62.2727 270.142 62.2727C269.694 62.2727 269.324 62.3892 269.034 62.6222C268.745 62.8551 268.53 63.1605 268.391 63.5384C268.252 63.9162 268.182 64.3239 268.182 64.7614C268.182 65.1989 268.252 65.6051 268.391 65.9801C268.53 66.3551 268.745 66.6577 269.034 66.8878C269.324 67.1179 269.694 67.233 270.142 67.233ZM16.9205 83V76.4545H17.9261V79.3011H18.5909L20.9432 76.4545H22.2386L19.5966 79.608L22.2727 83H20.9773L18.8295 80.2386H17.9261V83H16.9205ZM25.8406 83.1364C25.2099 83.1364 24.6658 82.9972 24.2085 82.7188C23.7539 82.4375 23.4031 82.0455 23.1559 81.5426C22.9116 81.0369 22.7894 80.4489 22.7894 79.7784C22.7894 79.108 22.9116 78.517 23.1559 78.0057C23.4031 77.4915 23.7468 77.0909 24.1871 76.804C24.6303 76.5142 25.1474 76.3693 25.7383 76.3693C26.0792 76.3693 26.4158 76.4261 26.7482 76.5398C27.0806 76.6534 27.3832 76.8381 27.6559 77.0938C27.9286 77.3466 28.146 77.6818 28.3079 78.0994C28.4698 78.517 28.5508 79.0312 28.5508 79.642V80.0682H23.5053V79.1989H27.5281C27.5281 78.8295 27.4542 78.5 27.3065 78.2102C27.1616 77.9205 26.9542 77.6918 26.6843 77.5241C26.4173 77.3565 26.1019 77.2727 25.7383 77.2727C25.3377 77.2727 24.9911 77.3722 24.6985 77.571C24.4087 77.767 24.1857 78.0227 24.0295 78.3381C23.8732 78.6534 23.7951 78.9915 23.7951 79.3523V79.9318C23.7951 80.4261 23.8803 80.8452 24.0508 81.1889C24.2241 81.5298 24.4641 81.7898 24.771 81.9688C25.0778 82.1449 25.4343 82.233 25.8406 82.233C26.1048 82.233 26.3434 82.196 26.5565 82.1222C26.7724 82.0455 26.9585 81.9318 27.1147 81.7812C27.271 81.6278 27.3917 81.4375 27.4769 81.2102L28.4485 81.483C28.3462 81.8125 28.1744 82.1023 27.9329 82.3523C27.6914 82.5994 27.3931 82.7926 27.038 82.9318C26.6829 83.0682 26.2837 83.1364 25.8406 83.1364ZM30.0806 76.4545H31.0863V82.0625H33.5579V76.4545H34.5636V82.0625H37.0352V76.4545H38.0408V83H30.0806V76.4545ZM44.7354 74L45.2468 74.6136C45.0479 74.8068 44.8178 74.9418 44.5565 75.0185C44.2951 75.0952 43.9996 75.142 43.6701 75.1591C43.3406 75.1761 42.9741 75.1932 42.5707 75.2102C42.1161 75.2273 41.7397 75.3381 41.4414 75.5426C41.1431 75.7472 40.913 76.0426 40.7511 76.429C40.5891 76.8153 40.4854 77.2898 40.44 77.8523H40.5252C40.7468 77.4432 41.0536 77.142 41.4457 76.9489C41.8377 76.7557 42.2582 76.6591 42.707 76.6591C43.2184 76.6591 43.6786 76.7784 44.0877 77.017C44.4968 77.2557 44.8207 77.6094 45.0593 78.0781C45.2979 78.5469 45.4173 79.125 45.4173 79.8125C45.4173 80.4972 45.2951 81.0881 45.0508 81.5852C44.8093 82.0824 44.4698 82.4659 44.0323 82.7358C43.5977 83.0028 43.0877 83.1364 42.5025 83.1364C41.9173 83.1364 41.4045 82.9986 40.9641 82.723C40.5238 82.4446 40.1815 82.0327 39.9371 81.4872C39.6928 80.9389 39.5707 80.2614 39.5707 79.4545V78.7557C39.5707 77.2983 39.8178 76.1932 40.3121 75.4403C40.8093 74.6875 41.5565 74.2983 42.5536 74.2727C42.9059 74.2614 43.2198 74.2585 43.4954 74.2642C43.771 74.2699 44.011 74.2571 44.2156 74.2259C44.4201 74.1946 44.5934 74.1193 44.7354 74ZM42.5025 82.233C42.8974 82.233 43.2369 82.1335 43.521 81.9347C43.8079 81.7358 44.0281 81.456 44.1815 81.0952C44.3349 80.7315 44.4116 80.304 44.4116 79.8125C44.4116 79.3352 44.3335 78.929 44.1772 78.5938C44.0238 78.2585 43.8036 78.0028 43.5167 77.8267C43.2298 77.6506 42.886 77.5625 42.4854 77.5625C42.1928 77.5625 41.93 77.6122 41.6971 77.7116C41.4641 77.8111 41.2653 77.9574 41.1005 78.1506C40.9357 78.3437 40.8079 78.5795 40.717 78.858C40.6289 79.1364 40.582 79.4545 40.5763 79.8125C40.5763 80.5455 40.7482 81.1321 41.092 81.5724C41.4357 82.0128 41.9059 82.233 42.5025 82.233ZM49.1204 77.3068C48.8931 77.3097 48.6644 77.3679 48.4343 77.4815C48.207 77.5952 48.0167 77.7457 47.8633 77.9332C47.7127 78.1179 47.6374 78.3239 47.6374 78.5511H46.6488C46.6488 78.267 46.717 77.9943 46.8533 77.733C46.9897 77.4716 47.1729 77.2386 47.4031 77.0341C47.636 76.8295 47.9002 76.6676 48.1957 76.5483C48.494 76.429 48.8022 76.3693 49.1204 76.3693C49.717 76.3693 50.2227 76.5199 50.6374 76.821C51.055 77.1222 51.3718 77.5199 51.5877 78.0142C51.8065 78.5085 51.9158 79.0455 51.9158 79.625V79.8636C51.9158 80.4403 51.8065 80.9773 51.5877 81.4744C51.3718 81.9687 51.055 82.3665 50.6374 82.6676C50.2227 82.9687 49.717 83.1193 49.1204 83.1193C48.6431 83.1193 48.2184 83.0142 47.8462 82.804C47.4741 82.5909 47.1815 82.3068 46.9684 81.9517C46.7553 81.5966 46.6488 81.2017 46.6488 80.767H47.6374C47.6374 81.0142 47.707 81.2457 47.8462 81.4616C47.9883 81.6747 48.1715 81.848 48.396 81.9815C48.6232 82.1122 48.8647 82.179 49.1204 82.1818C49.5011 82.179 49.8249 82.0597 50.092 81.8239C50.359 81.5881 50.5621 81.2926 50.7013 80.9375C50.8406 80.5824 50.9102 80.2244 50.9102 79.8636V79.625C50.9102 79.2557 50.8406 78.8949 50.7013 78.5426C50.565 78.1875 50.3633 77.8935 50.0962 77.6605C49.832 77.4276 49.5067 77.3097 49.1204 77.3068ZM51.3192 79.233V80.1705H48.4556V79.233H51.3192ZM53.4478 83V76.4545H54.4535V79.3011H55.1183L57.4705 76.4545H58.766L56.1239 79.608L58.8001 83H57.5046L55.3569 80.2386H54.4535V83H53.4478ZM63.0923 78.7898V79.7273H59.2741V78.7898H63.0923ZM64.8619 83V76.4545H70.0096V83H69.0039V77.392H65.8675V83H64.8619ZM71.8462 85.4545V76.4545H72.8178V77.4943H72.9371C73.011 77.3807 73.1133 77.2358 73.244 77.0597C73.3775 76.8807 73.5678 76.7216 73.815 76.5824C74.065 76.4403 74.4031 76.3693 74.8292 76.3693C75.3803 76.3693 75.8661 76.5071 76.2866 76.7827C76.707 77.0582 77.0352 77.4489 77.271 77.9545C77.5067 78.4602 77.6246 79.0568 77.6246 79.7443C77.6246 80.4375 77.5067 81.0384 77.271 81.5469C77.0352 82.0526 76.7085 82.4446 76.2908 82.723C75.8732 82.9986 75.3917 83.1364 74.8462 83.1364C74.4258 83.1364 74.0891 83.0668 73.8363 82.9276C73.5835 82.7855 73.3888 82.625 73.2525 82.446C73.1161 82.2642 73.011 82.1136 72.9371 81.9943H72.8519V85.4545H71.8462ZM72.8349 79.7273C72.8349 80.2216 72.9073 80.6577 73.0522 81.0355C73.1971 81.4105 73.4087 81.7045 73.6871 81.9176C73.9656 82.1278 74.3065 82.233 74.7099 82.233C75.1303 82.233 75.4812 82.1222 75.7624 81.9006C76.0465 81.6761 76.2596 81.375 76.4016 80.9972C76.5465 80.6165 76.619 80.1932 76.619 79.7273C76.619 79.267 76.5479 78.8523 76.4059 78.483C76.2667 78.1108 76.055 77.8168 75.771 77.6009C75.4897 77.3821 75.136 77.2727 74.7099 77.2727C74.3008 77.2727 73.957 77.3764 73.6786 77.5838C73.4002 77.7884 73.19 78.0753 73.0479 78.4446C72.9059 78.8111 72.8349 79.2386 72.8349 79.7273ZM81.8178 83.1364C81.2269 83.1364 80.7085 82.9957 80.2624 82.7145C79.8192 82.4332 79.4727 82.0398 79.2227 81.5341C78.9755 81.0284 78.8519 80.4375 78.8519 79.7614C78.8519 79.0795 78.9755 78.4844 79.2227 77.9759C79.4727 77.4673 79.8192 77.0724 80.2624 76.7912C80.7085 76.5099 81.2269 76.3693 81.8178 76.3693C82.4087 76.3693 82.9258 76.5099 83.369 76.7912C83.815 77.0724 84.1616 77.4673 84.4087 77.9759C84.6587 78.4844 84.7837 79.0795 84.7837 79.7614C84.7837 80.4375 84.6587 81.0284 84.4087 81.5341C84.1616 82.0398 83.815 82.4332 83.369 82.7145C82.9258 82.9957 82.4087 83.1364 81.8178 83.1364ZM81.8178 82.233C82.2667 82.233 82.636 82.1179 82.9258 81.8878C83.2156 81.6577 83.43 81.3551 83.5692 80.9801C83.7085 80.6051 83.7781 80.1989 83.7781 79.7614C83.7781 79.3239 83.7085 78.9162 83.5692 78.5384C83.43 78.1605 83.2156 77.8551 82.9258 77.6222C82.636 77.3892 82.2667 77.2727 81.8178 77.2727C81.369 77.2727 80.9996 77.3892 80.7099 77.6222C80.4201 77.8551 80.2056 78.1605 80.0664 78.5384C79.9272 78.9162 79.8576 79.3239 79.8576 79.7614C79.8576 80.1989 79.9272 80.6051 80.0664 80.9801C80.2056 81.3551 80.4201 81.6577 80.7099 81.8878C80.9996 82.1179 81.369 82.233 81.8178 82.233ZM90.3587 76.4545V77.392H87.3246V83H86.3189V76.4545H90.3587ZM91.8267 85.4545V76.4545H92.7983V77.4943H92.9176C92.9915 77.3807 93.0938 77.2358 93.2244 77.0597C93.358 76.8807 93.5483 76.7216 93.7955 76.5824C94.0455 76.4403 94.3835 76.3693 94.8097 76.3693C95.3608 76.3693 95.8466 76.5071 96.267 76.7827C96.6875 77.0582 97.0156 77.4489 97.2514 77.9545C97.4872 78.4602 97.6051 79.0568 97.6051 79.7443C97.6051 80.4375 97.4872 81.0384 97.2514 81.5469C97.0156 82.0526 96.6889 82.4446 96.2713 82.723C95.8537 82.9986 95.3722 83.1364 94.8267 83.1364C94.4063 83.1364 94.0696 83.0668 93.8168 82.9276C93.5639 82.7855 93.3693 82.625 93.233 82.446C93.0966 82.2642 92.9915 82.1136 92.9176 81.9943H92.8324V85.4545H91.8267ZM92.8153 79.7273C92.8153 80.2216 92.8878 80.6577 93.0327 81.0355C93.1776 81.4105 93.3892 81.7045 93.6676 81.9176C93.946 82.1278 94.2869 82.233 94.6903 82.233C95.1108 82.233 95.4616 82.1222 95.7429 81.9006C96.027 81.6761 96.2401 81.375 96.3821 80.9972C96.527 80.6165 96.5994 80.1932 96.5994 79.7273C96.5994 79.267 96.5284 78.8523 96.3864 78.483C96.2472 78.1108 96.0355 77.8168 95.7514 77.6009C95.4702 77.3821 95.1165 77.2727 94.6903 77.2727C94.2813 77.2727 93.9375 77.3764 93.6591 77.5838C93.3807 77.7884 93.1705 78.0753 93.0284 78.4446C92.8864 78.8111 92.8153 79.2386 92.8153 79.7273ZM101.065 83.1534C100.651 83.1534 100.274 83.0753 99.9361 82.919C99.598 82.7599 99.3295 82.5312 99.1307 82.233C98.9318 81.9318 98.8324 81.5682 98.8324 81.142C98.8324 80.767 98.9063 80.4631 99.054 80.2301C99.2017 79.9943 99.3991 79.8097 99.6463 79.6761C99.8935 79.5426 100.166 79.4432 100.464 79.3778C100.766 79.3097 101.068 79.2557 101.372 79.2159C101.77 79.1648 102.092 79.1264 102.339 79.1009C102.589 79.0724 102.771 79.0256 102.885 78.9602C103.001 78.8949 103.06 78.7812 103.06 78.6193V78.5852C103.06 78.1648 102.945 77.8381 102.714 77.6051C102.487 77.3722 102.142 77.2557 101.679 77.2557C101.199 77.2557 100.822 77.3608 100.55 77.571C100.277 77.7812 100.085 78.0057 99.9744 78.2443L99.0199 77.9034C99.1903 77.5057 99.4176 77.196 99.7017 76.9744C99.9886 76.75 100.301 76.5937 100.639 76.5057C100.98 76.4148 101.315 76.3693 101.645 76.3693C101.855 76.3693 102.097 76.3949 102.369 76.446C102.645 76.4943 102.911 76.5952 103.166 76.7486C103.425 76.902 103.639 77.1335 103.81 77.4432C103.98 77.7528 104.065 78.1676 104.065 78.6875V83H103.06V82.1136H103.009C102.94 82.2557 102.827 82.4077 102.668 82.5696C102.509 82.7315 102.297 82.8693 102.033 82.983C101.768 83.0966 101.446 83.1534 101.065 83.1534ZM101.219 82.25C101.616 82.25 101.952 82.1719 102.224 82.0156C102.5 81.8594 102.707 81.6577 102.847 81.4105C102.989 81.1634 103.06 80.9034 103.06 80.6307V79.7102C103.017 79.7614 102.923 79.8082 102.778 79.8509C102.636 79.8906 102.472 79.9261 102.284 79.9574C102.099 79.9858 101.919 80.0114 101.743 80.0341C101.57 80.054 101.429 80.071 101.321 80.0852C101.06 80.1193 100.815 80.1747 100.588 80.2514C100.364 80.3253 100.182 80.4375 100.043 80.5881C99.9063 80.7358 99.8381 80.9375 99.8381 81.1932C99.8381 81.5426 99.9673 81.8068 100.226 81.9858C100.487 82.1619 100.818 82.25 101.219 82.25ZM109.48 81.6364L111.765 76.4545H112.719L109.89 83H109.071L106.293 76.4545H107.23L109.48 81.6364ZM106.907 76.4545V83H105.901V76.4545H106.907ZM112.054 83V76.4545H113.06V83H112.054ZM118.48 81.6364L120.765 76.4545H121.719L118.89 83H118.071L115.293 76.4545H116.23L118.48 81.6364ZM115.907 76.4545V83H114.901V76.4545H115.907ZM121.054 83V76.4545H122.06V83H121.054ZM124.77 78.8239H126.645C127.412 78.8239 127.999 79.0185 128.405 79.4077C128.811 79.7969 129.015 80.2898 129.015 80.8864C129.015 81.2784 128.924 81.6349 128.742 81.956C128.56 82.2741 128.293 82.5284 127.941 82.7188C127.588 82.9062 127.157 83 126.645 83H123.901V76.4545H124.907V82.0625H126.645C127.043 82.0625 127.37 81.9574 127.625 81.7472C127.881 81.5369 128.009 81.267 128.009 80.9375C128.009 80.5909 127.881 80.3082 127.625 80.0895C127.37 79.8707 127.043 79.7614 126.645 79.7614H124.77V78.8239ZM130.054 83V76.4545H131.06V83H130.054ZM137.282 81.517L140.435 76.4545H141.594V83H140.588V77.9375L137.452 83H136.276V76.4545H137.282V81.517ZM146.811 83V76.4545H149.487C150.192 76.4545 150.751 76.6136 151.166 76.9318C151.581 77.25 151.788 77.6705 151.788 78.1932C151.788 78.5909 151.67 78.8991 151.435 79.1179C151.199 79.3338 150.896 79.4801 150.527 79.5568C150.768 79.5909 151.003 79.6761 151.23 79.8125C151.46 79.9489 151.651 80.1364 151.801 80.375C151.952 80.6108 152.027 80.9006 152.027 81.2443C152.027 81.5795 151.942 81.8793 151.771 82.1435C151.601 82.4077 151.357 82.6165 151.038 82.7699C150.72 82.9233 150.339 83 149.896 83H146.811ZM147.766 82.0795H149.896C150.243 82.0795 150.514 81.9972 150.71 81.8324C150.906 81.6676 151.004 81.4432 151.004 81.1591C151.004 80.821 150.906 80.5554 150.71 80.3622C150.514 80.1662 150.243 80.0682 149.896 80.0682H147.766V82.0795ZM147.766 79.1989H149.487C149.757 79.1989 149.989 79.1619 150.182 79.0881C150.375 79.0114 150.523 78.9034 150.625 78.7642C150.73 78.6222 150.783 78.4545 150.783 78.2614C150.783 77.9858 150.668 77.7699 150.438 77.6136C150.207 77.4545 149.891 77.375 149.487 77.375H147.766V79.1989ZM154.419 78.8239H156.294C157.061 78.8239 157.647 79.0185 158.054 79.4077C158.46 79.7969 158.663 80.2898 158.663 80.8864C158.663 81.2784 158.572 81.6349 158.39 81.956C158.208 82.2741 157.941 82.5284 157.589 82.7188C157.237 82.9062 156.805 83 156.294 83H153.549V76.4545H154.555V82.0625H156.294C156.691 82.0625 157.018 81.9574 157.274 81.7472C157.529 81.5369 157.657 81.267 157.657 80.9375C157.657 80.5909 157.529 80.3082 157.274 80.0895C157.018 79.8707 156.691 79.7614 156.294 79.7614H154.419V78.8239ZM159.703 83V76.4545H160.708V83H159.703ZM167.407 74L167.919 74.6136C167.72 74.8068 167.49 74.9418 167.228 75.0185C166.967 75.0952 166.672 75.142 166.342 75.1591C166.012 75.1761 165.646 75.1932 165.243 75.2102C164.788 75.2273 164.412 75.3381 164.113 75.5426C163.815 75.7472 163.585 76.0426 163.423 76.429C163.261 76.8153 163.157 77.2898 163.112 77.8523H163.197C163.419 77.4432 163.725 77.142 164.118 76.9489C164.51 76.7557 164.93 76.6591 165.379 76.6591C165.89 76.6591 166.35 76.7784 166.76 77.017C167.169 77.2557 167.493 77.6094 167.731 78.0781C167.97 78.5469 168.089 79.125 168.089 79.8125C168.089 80.4972 167.967 81.0881 167.723 81.5852C167.481 82.0824 167.142 82.4659 166.704 82.7358C166.27 83.0028 165.76 83.1364 165.174 83.1364C164.589 83.1364 164.076 82.9986 163.636 82.723C163.196 82.4446 162.853 82.0327 162.609 81.4872C162.365 80.9389 162.243 80.2614 162.243 79.4545V78.7557C162.243 77.2983 162.49 76.1932 162.984 75.4403C163.481 74.6875 164.228 74.2983 165.225 74.2727C165.578 74.2614 165.892 74.2585 166.167 74.2642C166.443 74.2699 166.683 74.2571 166.887 74.2259C167.092 74.1946 167.265 74.1193 167.407 74ZM165.174 82.233C165.569 82.233 165.909 82.1335 166.193 81.9347C166.48 81.7358 166.7 81.456 166.853 81.0952C167.007 80.7315 167.083 80.304 167.083 79.8125C167.083 79.3352 167.005 78.929 166.849 78.5938C166.696 78.2585 166.475 78.0028 166.189 77.8267C165.902 77.6506 165.558 77.5625 165.157 77.5625C164.865 77.5625 164.602 77.6122 164.369 77.7116C164.136 77.8111 163.937 77.9574 163.772 78.1506C163.608 78.3437 163.48 78.5795 163.389 78.858C163.301 79.1364 163.254 79.4545 163.248 79.8125C163.248 80.5455 163.42 81.1321 163.764 81.5724C164.108 82.0128 164.578 82.233 165.174 82.233ZM172.287 83.1364C171.696 83.1364 171.177 82.9957 170.731 82.7145C170.288 82.4332 169.941 82.0398 169.691 81.5341C169.444 81.0284 169.321 80.4375 169.321 79.7614C169.321 79.0795 169.444 78.4844 169.691 77.9759C169.941 77.4673 170.288 77.0724 170.731 76.7912C171.177 76.5099 171.696 76.3693 172.287 76.3693C172.877 76.3693 173.395 76.5099 173.838 76.7912C174.284 77.0724 174.63 77.4673 174.877 77.9759C175.127 78.4844 175.252 79.0795 175.252 79.7614C175.252 80.4375 175.127 81.0284 174.877 81.5341C174.63 82.0398 174.284 82.4332 173.838 82.7145C173.395 82.9957 172.877 83.1364 172.287 83.1364ZM172.287 82.233C172.735 82.233 173.105 82.1179 173.395 81.8878C173.684 81.6577 173.899 81.3551 174.038 80.9801C174.177 80.6051 174.247 80.1989 174.247 79.7614C174.247 79.3239 174.177 78.9162 174.038 78.5384C173.899 78.1605 173.684 77.8551 173.395 77.6222C173.105 77.3892 172.735 77.2727 172.287 77.2727C171.838 77.2727 171.468 77.3892 171.179 77.6222C170.889 77.8551 170.674 78.1605 170.535 78.5384C170.396 78.9162 170.326 79.3239 170.326 79.7614C170.326 80.1989 170.396 80.6051 170.535 80.9801C170.674 81.3551 170.889 81.6577 171.179 81.8878C171.468 82.1179 171.838 82.233 172.287 82.233ZM176.788 85.4545V76.4545H177.759V77.4943H177.879C177.952 77.3807 178.055 77.2358 178.185 77.0597C178.319 76.8807 178.509 76.7216 178.756 76.5824C179.006 76.4403 179.344 76.3693 179.771 76.3693C180.322 76.3693 180.808 76.5071 181.228 76.7827C181.648 77.0582 181.977 77.4489 182.212 77.9545C182.448 78.4602 182.566 79.0568 182.566 79.7443C182.566 80.4375 182.448 81.0384 182.212 81.5469C181.977 82.0526 181.65 82.4446 181.232 82.723C180.815 82.9986 180.333 83.1364 179.788 83.1364C179.367 83.1364 179.031 83.0668 178.778 82.9276C178.525 82.7855 178.33 82.625 178.194 82.446C178.058 82.2642 177.952 82.1136 177.879 81.9943H177.793V85.4545H176.788ZM177.776 79.7273C177.776 80.2216 177.849 80.6577 177.994 81.0355C178.138 81.4105 178.35 81.7045 178.629 81.9176C178.907 82.1278 179.248 82.233 179.651 82.233C180.072 82.233 180.423 82.1222 180.704 81.9006C180.988 81.6761 181.201 81.375 181.343 80.9972C181.488 80.6165 181.56 80.1932 181.56 79.7273C181.56 79.267 181.489 78.8523 181.347 78.483C181.208 78.1108 180.996 77.8168 180.712 77.6009C180.431 77.3821 180.077 77.2727 179.651 77.2727C179.242 77.2727 178.898 77.3764 178.62 77.5838C178.342 77.7884 178.131 78.0753 177.989 78.4446C177.847 78.8111 177.776 79.2386 177.776 79.7273ZM184.513 85.4545C184.343 85.4545 184.191 85.4403 184.058 85.4119C183.924 85.3864 183.832 85.3608 183.781 85.3352L184.036 84.4489C184.281 84.5114 184.496 84.5341 184.684 84.517C184.871 84.5 185.038 84.4162 185.183 84.2656C185.33 84.1179 185.465 83.8778 185.587 83.5455L185.775 83.0341L183.354 76.4545H184.445L186.252 81.6705H186.32L188.127 76.4545H189.218L186.44 83.9545C186.315 84.2926 186.16 84.5724 185.975 84.794C185.79 85.0185 185.576 85.1847 185.332 85.2926C185.09 85.4006 184.817 85.4545 184.513 85.4545ZM193.92 83V76.4545H194.926V79.3011H195.591L197.943 76.4545H199.239L196.597 79.608L199.273 83H197.977L195.83 80.2386H194.926V83H193.92ZM202.292 83.1534C201.877 83.1534 201.501 83.0753 201.163 82.919C200.825 82.7599 200.556 82.5312 200.357 82.233C200.158 81.9318 200.059 81.5682 200.059 81.142C200.059 80.767 200.133 80.4631 200.281 80.2301C200.428 79.9943 200.626 79.8097 200.873 79.6761C201.12 79.5426 201.393 79.4432 201.691 79.3778C201.992 79.3097 202.295 79.2557 202.599 79.2159C202.996 79.1648 203.319 79.1264 203.566 79.1009C203.816 79.0724 203.998 79.0256 204.112 78.9602C204.228 78.8949 204.286 78.7812 204.286 78.6193V78.5852C204.286 78.1648 204.171 77.8381 203.941 77.6051C203.714 77.3722 203.369 77.2557 202.906 77.2557C202.425 77.2557 202.049 77.3608 201.776 77.571C201.504 77.7812 201.312 78.0057 201.201 78.2443L200.246 77.9034C200.417 77.5057 200.644 77.196 200.928 76.9744C201.215 76.75 201.528 76.5937 201.866 76.5057C202.207 76.4148 202.542 76.3693 202.871 76.3693C203.082 76.3693 203.323 76.3949 203.596 76.446C203.871 76.4943 204.137 76.5952 204.393 76.7486C204.651 76.902 204.866 77.1335 205.036 77.4432C205.207 77.7528 205.292 78.1676 205.292 78.6875V83H204.286V82.1136H204.235C204.167 82.2557 204.053 82.4077 203.894 82.5696C203.735 82.7315 203.523 82.8693 203.259 82.983C202.995 83.0966 202.673 83.1534 202.292 83.1534ZM202.445 82.25C202.843 82.25 203.178 82.1719 203.451 82.0156C203.727 81.8594 203.934 81.6577 204.073 81.4105C204.215 81.1634 204.286 80.9034 204.286 80.6307V79.7102C204.244 79.7614 204.15 79.8082 204.005 79.8509C203.863 79.8906 203.698 79.9261 203.511 79.9574C203.326 79.9858 203.146 80.0114 202.969 80.0341C202.796 80.054 202.656 80.071 202.548 80.0852C202.286 80.1193 202.042 80.1747 201.815 80.2514C201.59 80.3253 201.408 80.4375 201.269 80.5881C201.133 80.7358 201.065 80.9375 201.065 81.1932C201.065 81.5426 201.194 81.8068 201.452 81.9858C201.714 82.1619 202.045 82.25 202.445 82.25ZM206.237 77.392V76.4545H211.555V77.392H209.407V83H208.402V77.392H206.237ZM215.426 83.1364C214.796 83.1364 214.252 82.9972 213.794 82.7188C213.34 82.4375 212.989 82.0455 212.742 81.5426C212.498 81.0369 212.375 80.4489 212.375 79.7784C212.375 79.108 212.498 78.517 212.742 78.0057C212.989 77.4915 213.333 77.0909 213.773 76.804C214.216 76.5142 214.733 76.3693 215.324 76.3693C215.665 76.3693 216.002 76.4261 216.334 76.5398C216.667 76.6534 216.969 76.8381 217.242 77.0938C217.515 77.3466 217.732 77.6818 217.894 78.0994C218.056 78.517 218.137 79.0312 218.137 79.642V80.0682H213.091V79.1989H217.114C217.114 78.8295 217.04 78.5 216.892 78.2102C216.748 77.9205 216.54 77.6918 216.27 77.5241C216.003 77.3565 215.688 77.2727 215.324 77.2727C214.924 77.2727 214.577 77.3722 214.284 77.571C213.995 77.767 213.772 78.0227 213.615 78.3381C213.459 78.6534 213.381 78.9915 213.381 79.3523V79.9318C213.381 80.4261 213.466 80.8452 213.637 81.1889C213.81 81.5298 214.05 81.7898 214.357 81.9688C214.664 82.1449 215.02 82.233 215.426 82.233C215.691 82.233 215.929 82.196 216.142 82.1222C216.358 82.0455 216.544 81.9318 216.701 81.7812C216.857 81.6278 216.978 81.4375 217.063 81.2102L218.034 81.483C217.932 81.8125 217.76 82.1023 217.519 82.3523C217.277 82.5994 216.979 82.7926 216.624 82.9318C216.269 83.0682 215.87 83.1364 215.426 83.1364ZM223.706 76.4545V77.392H220.672V83H219.667V76.4545H223.706ZM227.494 83.1364C226.903 83.1364 226.384 82.9957 225.938 82.7145C225.495 82.4332 225.148 82.0398 224.898 81.5341C224.651 81.0284 224.528 80.4375 224.528 79.7614C224.528 79.0795 224.651 78.4844 224.898 77.9759C225.148 77.4673 225.495 77.0724 225.938 76.7912C226.384 76.5099 226.903 76.3693 227.494 76.3693C228.085 76.3693 228.602 76.5099 229.045 76.7912C229.491 77.0724 229.837 77.4673 230.085 77.9759C230.335 78.4844 230.46 79.0795 230.46 79.7614C230.46 80.4375 230.335 81.0284 230.085 81.5341C229.837 82.0398 229.491 82.4332 229.045 82.7145C228.602 82.9957 228.085 83.1364 227.494 83.1364ZM227.494 82.233C227.942 82.233 228.312 82.1179 228.602 81.8878C228.891 81.6577 229.106 81.3551 229.245 80.9801C229.384 80.6051 229.454 80.1989 229.454 79.7614C229.454 79.3239 229.384 78.9162 229.245 78.5384C229.106 78.1605 228.891 77.8551 228.602 77.6222C228.312 77.3892 227.942 77.2727 227.494 77.2727C227.045 77.2727 226.675 77.3892 226.386 77.6222C226.096 77.8551 225.881 78.1605 225.742 78.5384C225.603 78.9162 225.533 79.3239 225.533 79.7614C225.533 80.1989 225.603 80.6051 225.742 80.9801C225.881 81.3551 226.096 81.6577 226.386 81.8878C226.675 82.1179 227.045 82.233 227.494 82.233ZM231.995 85.4545V76.4545H232.966V77.4943H233.086C233.159 77.3807 233.262 77.2358 233.392 77.0597C233.526 76.8807 233.716 76.7216 233.963 76.5824C234.213 76.4403 234.551 76.3693 234.978 76.3693C235.529 76.3693 236.015 76.5071 236.435 76.7827C236.855 77.0582 237.184 77.4489 237.419 77.9545C237.655 78.4602 237.773 79.0568 237.773 79.7443C237.773 80.4375 237.655 81.0384 237.419 81.5469C237.184 82.0526 236.857 82.4446 236.439 82.723C236.022 82.9986 235.54 83.1364 234.995 83.1364C234.574 83.1364 234.238 83.0668 233.985 82.9276C233.732 82.7855 233.537 82.625 233.401 82.446C233.265 82.2642 233.159 82.1136 233.086 81.9943H233V85.4545H231.995ZM232.983 79.7273C232.983 80.2216 233.056 80.6577 233.201 81.0355C233.346 81.4105 233.557 81.7045 233.836 81.9176C234.114 82.1278 234.455 82.233 234.858 82.233C235.279 82.233 235.63 82.1222 235.911 81.9006C236.195 81.6761 236.408 81.375 236.55 80.9972C236.695 80.6165 236.767 80.1932 236.767 79.7273C236.767 79.267 236.696 78.8523 236.554 78.483C236.415 78.1108 236.203 77.8168 235.919 77.6009C235.638 77.3821 235.284 77.2727 234.858 77.2727C234.449 77.2727 234.105 77.3764 233.827 77.5838C233.549 77.7884 233.338 78.0753 233.196 78.4446C233.054 78.8111 232.983 79.2386 232.983 79.7273ZM240.313 81.517L243.466 76.4545H244.625V83H243.62V77.9375L240.483 83H239.307V76.4545H240.313V81.517ZM247.473 81.517L250.626 76.4545H251.786V83H250.78V77.9375L247.643 83H246.467V76.4545H247.473V81.517ZM249.962 74.2727H250.899C250.899 74.733 250.74 75.1094 250.422 75.402C250.104 75.6946 249.672 75.8409 249.126 75.8409C248.589 75.8409 248.162 75.6946 247.844 75.402C247.528 75.1094 247.371 74.733 247.371 74.2727H248.308C248.308 74.4943 248.369 74.6889 248.491 74.8565C248.616 75.0241 248.828 75.108 249.126 75.108C249.425 75.108 249.638 75.0241 249.766 74.8565C249.896 74.6889 249.962 74.4943 249.962 74.2727Z" fill="#FFF4D5" fill-opacity="0.75"/>
</g>
<rect x="0.15" y="0.15" width="324.7" height="101.7" rx="7.85" stroke="#FFF4D5" stroke-width="0.3"/>
</g>
<defs>
<filter id="filter0_i_4034_99222" x="0" y="0" width="329" height="106" filterUnits="userSpaceOnUse" color-interpolation-filters="sRGB">
<feFlood flood-opacity="0" result="BackgroundImageFix"/>
<feBlend mode="normal" in="SourceGraphic" in2="BackgroundImageFix" result="shape"/>
<feColorMatrix in="SourceAlpha" type="matrix" values="0 0 0 0 0 0 0 0 0 0 0 0 0 0 0 0 0 0 127 0" result="hardAlpha"/>
<feOffset dx="4" dy="4"/>
<feGaussianBlur stdDeviation="6.05"/>
<feComposite in2="hardAlpha" operator="arithmetic" k2="-1" k3="1"/>
<feColorMatrix type="matrix" values="0 0 0 0 0 0 0 0 0 0 0 0 0 0 0 0 0 0 1 0"/>
<feBlend mode="normal" in2="shape" result="effect1_innerShadow_4034_99222"/>
</filter>
<radialGradient id="paint0_radial_4034_99222" cx="0" cy="0" r="1" gradientUnits="userSpaceOnUse" gradientTransform="translate(3.3413e-06 51) scale(325 120.768)">
<stop stop-color="#131339"/>
<stop offset="1" stop-color="#040306"/>
</radialGradient>
<radialGradient id="paint1_radial_4034_99222" cx="0" cy="0" r="1" gradientUnits="userSpaceOnUse" gradientTransform="translate(339.52 32.6892) rotate(68.2601) scale(51.8707 51.8707)">
<stop stop-color="#BEA8F3"/>
<stop offset="1" stop-color="#503A86"/>
</radialGradient>
<clipPath id="clip0_4034_99222">
<rect width="325" height="102" rx="8" fill="white"/>
</clipPath>
</defs>
</svg>
