<svg width="325" height="102" viewBox="0 0 325 102" fill="none" xmlns="http://www.w3.org/2000/svg">
<g filter="url(#filter0_i_4034_99238)">
<g clip-path="url(#clip0_4034_99238)">
<rect width="325" height="102" rx="8" fill="url(#paint0_radial_4034_99238)"/>
<mask id="mask0_4034_99238" style="mask-type:alpha" maskUnits="userSpaceOnUse" x="222" y="-73" width="235" height="212">
<rect x="222.148" y="26.1564" width="194.929" height="130.661" transform="rotate(-30.5753 222.148 26.1564)" fill="#D9D9D9"/>
</mask>
<g mask="url(#mask0_4034_99238)">
<path d="M311.598 93.4029C268.419 66.7844 298.123 31.9609 289.665 9.81367C281.405 -14.6095 328.35 -46.3556 353.915 -28.146C379.479 -9.93641 410.032 4.70888 399.17 41.6642C388.307 78.6195 354.777 120.021 311.598 93.4029Z" fill="url(#paint1_radial_4034_99238)"/>
<rect x="202.961" y="20.8359" width="223.611" height="40.3668" transform="rotate(-30.5753 202.961 20.8359)" fill="black" fill-opacity="0.2"/>
<rect x="223.492" y="55.5859" width="223.611" height="39.3045" transform="rotate(-30.5753 223.492 55.5859)" fill="black" fill-opacity="0.2"/>
<rect x="243.031" y="89.6953" width="223.611" height="39.8357" transform="rotate(-30.5753 243.031 89.6953)" fill="black" fill-opacity="0.2"/>
<rect x="262.836" y="124.266" width="223.611" height="40.3668" transform="rotate(-30.5753 262.836 124.266)" fill="black" fill-opacity="0.2"/>
</g>
<path d="M16.392 36.8068V32.2784H17.1705C17.4318 32.0701 17.6761 31.7765 17.9034 31.3977C18.1307 31.0189 18.3239 30.5 18.483 29.8409C18.642 29.1818 18.7519 28.3295 18.8125 27.2841L19.1193 22.3636H26.5568V32.2784H27.8523V36.7955H25.8295V34H18.4148V36.8068H16.392ZM19.625 32.2784H24.5341V24.1307H21.017L20.8352 27.2841C20.786 28.0758 20.7064 28.7841 20.5966 29.4091C20.4867 30.0341 20.3485 30.5852 20.1818 31.0625C20.0152 31.536 19.8295 31.9413 19.625 32.2784ZM33.3423 34.1705C32.4673 34.1705 31.7116 33.9886 31.0753 33.625C30.4427 33.2576 29.956 32.7386 29.6151 32.0682C29.2741 31.3939 29.1037 30.6004 29.1037 29.6875C29.1037 28.7898 29.2741 28.0019 29.6151 27.3239C29.9598 26.642 30.4408 26.1117 31.0582 25.733C31.6757 25.3504 32.401 25.1591 33.2344 25.1591C33.7723 25.1591 34.2798 25.2462 34.7571 25.4205C35.2382 25.5909 35.6624 25.8561 36.0298 26.2159C36.401 26.5758 36.6927 27.0341 36.9048 27.5909C37.117 28.1439 37.223 28.803 37.223 29.5682V30.1989H30.0696V28.8125H35.2514C35.2476 28.4186 35.1624 28.0682 34.9957 27.7614C34.8291 27.4508 34.5961 27.2064 34.2969 27.0284C34.0014 26.8504 33.6567 26.7614 33.2628 26.7614C32.8423 26.7614 32.473 26.8636 32.1548 27.0682C31.8366 27.2689 31.5885 27.5341 31.4105 27.8636C31.2363 28.1894 31.1473 28.5473 31.1435 28.9375V30.1477C31.1435 30.6553 31.2363 31.0909 31.4219 31.4545C31.6075 31.8144 31.867 32.0909 32.2003 32.2841C32.5336 32.4735 32.9238 32.5682 33.3707 32.5682C33.67 32.5682 33.9408 32.5265 34.1832 32.4432C34.4257 32.3561 34.6359 32.2292 34.8139 32.0625C34.992 31.8958 35.1264 31.6894 35.2173 31.4432L37.1378 31.6591C37.0166 32.1667 36.7855 32.6098 36.4446 32.9886C36.1075 33.3636 35.6757 33.6553 35.1491 33.8636C34.6226 34.0682 34.0204 34.1705 33.3423 34.1705ZM38.3608 34L38.3494 32.3068H38.6506C38.8778 32.3068 39.0691 32.2557 39.2244 32.1534C39.3797 32.0511 39.5085 31.8807 39.6108 31.642C39.7131 31.3996 39.7926 31.0739 39.8494 30.6648C39.9063 30.2557 39.946 29.7462 39.9688 29.1364L40.1222 25.2727H46.4858V34H44.4972V26.9602H41.9915L41.8551 29.7727C41.821 30.5 41.7396 31.1307 41.6108 31.6648C41.4858 32.1951 41.3078 32.6326 41.0767 32.9773C40.8494 33.322 40.5634 33.5795 40.2188 33.75C39.8741 33.9167 39.4669 34 38.9972 34H38.3608ZM50.5398 31.2159L54.0341 25.2727H56.1477V34H54.1591V28.0511L50.6761 34H48.5568V25.2727H50.5398V31.2159ZM57.2827 26.9602V25.2727H64.919V26.9602H62.0952V34H60.1065V26.9602H57.2827ZM70.0611 34.1705C69.1861 34.1705 68.4304 33.9886 67.794 33.625C67.1615 33.2576 66.6747 32.7386 66.3338 32.0682C65.9929 31.3939 65.8224 30.6004 65.8224 29.6875C65.8224 28.7898 65.9929 28.0019 66.3338 27.3239C66.6785 26.642 67.1596 26.1117 67.777 25.733C68.3944 25.3504 69.1198 25.1591 69.9531 25.1591C70.491 25.1591 70.9986 25.2462 71.4759 25.4205C71.9569 25.5909 72.3812 25.8561 72.7486 26.2159C73.1198 26.5758 73.4115 27.0341 73.6236 27.5909C73.8357 28.1439 73.9418 28.803 73.9418 29.5682V30.1989H66.7884V28.8125H71.9702C71.9664 28.4186 71.8812 28.0682 71.7145 27.7614C71.5478 27.4508 71.3149 27.2064 71.0156 27.0284C70.7202 26.8504 70.3755 26.7614 69.9815 26.7614C69.5611 26.7614 69.1918 26.8636 68.8736 27.0682C68.5554 27.2689 68.3073 27.5341 68.1293 27.8636C67.955 28.1894 67.866 28.5473 67.8622 28.9375V30.1477C67.8622 30.6553 67.955 31.0909 68.1406 31.4545C68.3262 31.8144 68.5857 32.0909 68.919 32.2841C69.2524 32.4735 69.6425 32.5682 70.0895 32.5682C70.3887 32.5682 70.6596 32.5265 70.902 32.4432C71.1444 32.3561 71.3546 32.2292 71.5327 32.0625C71.7107 31.8958 71.8452 31.6894 71.9361 31.4432L73.8565 31.6591C73.7353 32.1667 73.5043 32.6098 73.1634 32.9886C72.8262 33.3636 72.3944 33.6553 71.8679 33.8636C71.3414 34.0682 70.7391 34.1705 70.0611 34.1705ZM79.4886 34.1705C78.6174 34.1705 77.8693 33.9792 77.2443 33.5966C76.6231 33.214 76.1439 32.6856 75.8068 32.0114C75.4735 31.3333 75.3068 30.553 75.3068 29.6705C75.3068 28.7841 75.4773 28.0019 75.8182 27.3239C76.1591 26.642 76.6402 26.1117 77.2614 25.733C77.8864 25.3504 78.625 25.1591 79.4773 25.1591C80.1856 25.1591 80.8125 25.2898 81.358 25.5511C81.9072 25.8087 82.3447 26.1742 82.6705 26.6477C82.9962 27.1174 83.1818 27.6667 83.2273 28.2955H81.2614C81.1818 27.875 80.9924 27.5246 80.6932 27.2443C80.3977 26.9602 80.0019 26.8182 79.5057 26.8182C79.0852 26.8182 78.7159 26.9318 78.3977 27.1591C78.0795 27.3826 77.8314 27.7045 77.6534 28.125C77.4792 28.5455 77.392 29.0492 77.392 29.6364C77.392 30.2311 77.4792 30.7424 77.6534 31.1705C77.8277 31.5947 78.072 31.9223 78.3864 32.1534C78.7045 32.3807 79.0777 32.4943 79.5057 32.4943C79.8087 32.4943 80.0795 32.4375 80.3182 32.3239C80.5606 32.2064 80.7633 32.0379 80.9261 31.8182C81.089 31.5985 81.2008 31.3314 81.2614 31.017H83.2273C83.178 31.6345 82.9962 32.1818 82.6818 32.6591C82.3674 33.1326 81.9394 33.5038 81.3977 33.7727C80.8561 34.0379 80.2197 34.1705 79.4886 34.1705ZM86.3082 28.1136H88.8821C89.9957 28.1136 90.8575 28.3845 91.4673 28.9261C92.0772 29.4678 92.384 30.178 92.3878 31.0568C92.384 31.6288 92.2438 32.1364 91.9673 32.5795C91.6946 33.0227 91.2969 33.3712 90.7741 33.625C90.2552 33.875 89.6245 34 88.8821 34H84.9162V25.2727H86.8991V32.3125H88.8821C89.3291 32.3125 89.6965 32.1989 89.9844 31.9716C90.2723 31.7405 90.4162 31.4451 90.4162 31.0852C90.4162 30.7064 90.2723 30.3977 89.9844 30.1591C89.6965 29.9205 89.3291 29.8011 88.8821 29.8011H86.3082V28.1136ZM98.1193 34V25.2727H101.784C102.818 25.2727 103.634 25.4792 104.233 25.892C104.835 26.3049 105.136 26.8807 105.136 27.6193C105.136 28.108 104.966 28.5076 104.625 28.8182C104.288 29.125 103.828 29.3314 103.244 29.4375C103.703 29.4754 104.104 29.5909 104.449 29.7841C104.797 29.9773 105.07 30.2311 105.267 30.5455C105.464 30.8598 105.562 31.2216 105.562 31.6307C105.562 32.1117 105.436 32.5303 105.182 32.8864C104.932 33.2386 104.566 33.5133 104.085 33.7102C103.608 33.9034 103.028 34 102.347 34H98.1193ZM100.045 32.3807H102.347C102.725 32.3807 103.023 32.2917 103.239 32.1136C103.455 31.9318 103.562 31.6856 103.562 31.375C103.562 31.0152 103.455 30.733 103.239 30.5284C103.023 30.3201 102.725 30.2159 102.347 30.2159H100.045V32.3807ZM100.045 28.8864H101.824C102.104 28.8864 102.345 28.8466 102.545 28.767C102.746 28.6837 102.9 28.5682 103.006 28.4205C103.112 28.2689 103.165 28.089 103.165 27.8807C103.165 27.5814 103.042 27.3466 102.795 27.1761C102.553 27.0057 102.216 26.9205 101.784 26.9205H100.045V28.8864ZM108.652 28.1136H111.226C112.339 28.1136 113.201 28.3845 113.811 28.9261C114.421 29.4678 114.728 30.178 114.732 31.0568C114.728 31.6288 114.588 32.1364 114.311 32.5795C114.038 33.0227 113.641 33.3712 113.118 33.625C112.599 33.875 111.968 34 111.226 34H107.26V25.2727H109.243V32.3125H111.226C111.673 32.3125 112.04 32.1989 112.328 31.9716C112.616 31.7405 112.76 31.4451 112.76 31.0852C112.76 30.7064 112.616 30.3977 112.328 30.1591C112.04 29.9205 111.673 29.8011 111.226 29.8011H108.652V28.1136ZM115.817 34V25.2727H117.874V34H115.817ZM125.767 25.2727V26.9602H122.006V34H119.994V25.2727H125.767ZM130.864 34.1705C130.011 34.1705 129.273 33.983 128.648 33.608C128.023 33.233 127.538 32.7083 127.193 32.0341C126.852 31.3598 126.682 30.572 126.682 29.6705C126.682 28.7689 126.852 27.9792 127.193 27.3011C127.538 26.6231 128.023 26.0966 128.648 25.7216C129.273 25.3466 130.011 25.1591 130.864 25.1591C131.716 25.1591 132.455 25.3466 133.08 25.7216C133.705 26.0966 134.188 26.6231 134.528 27.3011C134.873 27.9792 135.045 28.7689 135.045 29.6705C135.045 30.572 134.873 31.3598 134.528 32.0341C134.188 32.7083 133.705 33.233 133.08 33.608C132.455 33.983 131.716 34.1705 130.864 34.1705ZM130.875 32.5227C131.337 32.5227 131.723 32.3958 132.034 32.142C132.345 31.8845 132.576 31.5398 132.727 31.108C132.883 30.6761 132.96 30.1951 132.96 29.6648C132.96 29.1307 132.883 28.6477 132.727 28.2159C132.576 27.7803 132.345 27.4337 132.034 27.1761C131.723 26.9186 131.337 26.7898 130.875 26.7898C130.402 26.7898 130.008 26.9186 129.693 27.1761C129.383 27.4337 129.15 27.7803 128.994 28.2159C128.843 28.6477 128.767 29.1307 128.767 29.6648C128.767 30.1951 128.843 30.6761 128.994 31.108C129.15 31.5398 129.383 31.8845 129.693 32.142C130.008 32.3958 130.402 32.5227 130.875 32.5227ZM136.018 36.5341V32.3068H136.712C136.897 32.1629 137.053 31.9678 137.178 31.7216C137.303 31.4716 137.405 31.178 137.484 30.8409C137.568 30.5 137.636 30.1193 137.689 29.6989C137.742 29.2746 137.789 28.8182 137.831 28.3295L138.081 25.2727H144.388V32.3068H145.74V36.5341H143.751V34H138.041V36.5341H136.018ZM138.825 32.3068H142.422V26.9318H139.865L139.729 28.3295C139.653 29.2538 139.553 30.0455 139.428 30.7045C139.303 31.3636 139.102 31.8977 138.825 32.3068ZM151.082 34.1705C150.23 34.1705 149.491 33.983 148.866 33.608C148.241 33.233 147.757 32.7083 147.412 32.0341C147.071 31.3598 146.901 30.572 146.901 29.6705C146.901 28.7689 147.071 27.9792 147.412 27.3011C147.757 26.6231 148.241 26.0966 148.866 25.7216C149.491 25.3466 150.23 25.1591 151.082 25.1591C151.935 25.1591 152.673 25.3466 153.298 25.7216C153.923 26.0966 154.406 26.6231 154.747 27.3011C155.092 27.9792 155.264 28.7689 155.264 29.6705C155.264 30.572 155.092 31.3598 154.747 32.0341C154.406 32.7083 153.923 33.233 153.298 33.608C152.673 33.983 151.935 34.1705 151.082 34.1705ZM151.094 32.5227C151.556 32.5227 151.942 32.3958 152.253 32.142C152.563 31.8845 152.795 31.5398 152.946 31.108C153.101 30.6761 153.179 30.1951 153.179 29.6648C153.179 29.1307 153.101 28.6477 152.946 28.2159C152.795 27.7803 152.563 27.4337 152.253 27.1761C151.942 26.9186 151.556 26.7898 151.094 26.7898C150.62 26.7898 150.226 26.9186 149.912 27.1761C149.601 27.4337 149.368 27.7803 149.213 28.2159C149.062 28.6477 148.986 29.1307 148.986 29.6648C148.986 30.1951 149.062 30.6761 149.213 31.108C149.368 31.5398 149.601 31.8845 149.912 32.142C150.226 32.3958 150.62 32.5227 151.094 32.5227ZM158.993 31.2159L162.487 25.2727H164.601V34H162.612V28.0511L159.129 34H157.01V25.2727H158.993V31.2159ZM161.925 22.2727H163.464C163.464 22.9356 163.224 23.4735 162.743 23.8864C162.266 24.2955 161.618 24.5 160.8 24.5C159.989 24.5 159.343 24.2955 158.862 23.8864C158.385 23.4735 158.148 22.9356 158.152 22.2727H159.68C159.68 22.5455 159.764 22.7898 159.93 23.0057C160.101 23.2178 160.391 23.3239 160.8 23.3239C161.201 23.3239 161.487 23.2178 161.658 23.0057C161.832 22.7936 161.921 22.5492 161.925 22.2727ZM174.489 34.1705C173.617 34.1705 172.869 33.9792 172.244 33.5966C171.623 33.214 171.144 32.6856 170.807 32.0114C170.473 31.3333 170.307 30.553 170.307 29.6705C170.307 28.7841 170.477 28.0019 170.818 27.3239C171.159 26.642 171.64 26.1117 172.261 25.733C172.886 25.3504 173.625 25.1591 174.477 25.1591C175.186 25.1591 175.813 25.2898 176.358 25.5511C176.907 25.8087 177.345 26.1742 177.67 26.6477C177.996 27.1174 178.182 27.6667 178.227 28.2955H176.261C176.182 27.875 175.992 27.5246 175.693 27.2443C175.398 26.9602 175.002 26.8182 174.506 26.8182C174.085 26.8182 173.716 26.9318 173.398 27.1591C173.08 27.3826 172.831 27.7045 172.653 28.125C172.479 28.5455 172.392 29.0492 172.392 29.6364C172.392 30.2311 172.479 30.7424 172.653 31.1705C172.828 31.5947 173.072 31.9223 173.386 32.1534C173.705 32.3807 174.078 32.4943 174.506 32.4943C174.809 32.4943 175.08 32.4375 175.318 32.3239C175.561 32.2064 175.763 32.0379 175.926 31.8182C176.089 31.5985 176.201 31.3314 176.261 31.017H178.227C178.178 31.6345 177.996 32.1818 177.682 32.6591C177.367 33.1326 176.939 33.5038 176.398 33.7727C175.856 34.0379 175.22 34.1705 174.489 34.1705ZM183.112 36.5341V32.3068H183.805C183.991 32.1629 184.146 31.9678 184.271 31.7216C184.396 31.4716 184.499 31.178 184.578 30.8409C184.661 30.5 184.73 30.1193 184.783 29.6989C184.836 29.2746 184.883 28.8182 184.925 28.3295L185.175 25.2727H191.482V32.3068H192.834V36.5341H190.845V34H185.135V36.5341H183.112ZM185.919 32.3068H189.516V26.9318H186.959L186.822 28.3295C186.747 29.2538 186.646 30.0455 186.521 30.7045C186.396 31.3636 186.196 31.8977 185.919 32.3068ZM194.369 37.2727V25.2727H196.392V26.7159H196.511C196.617 26.5038 196.767 26.2784 196.96 26.0398C197.153 25.7973 197.415 25.5909 197.744 25.4205C198.074 25.2462 198.494 25.1591 199.006 25.1591C199.68 25.1591 200.288 25.3314 200.83 25.6761C201.375 26.017 201.807 26.5227 202.125 27.1932C202.447 27.8598 202.608 28.678 202.608 29.6477C202.608 30.6061 202.451 31.4205 202.136 32.0909C201.822 32.7614 201.394 33.2727 200.852 33.625C200.311 33.9773 199.697 34.1534 199.011 34.1534C198.511 34.1534 198.097 34.0701 197.767 33.9034C197.438 33.7367 197.172 33.536 196.972 33.3011C196.775 33.0625 196.621 32.8371 196.511 32.625H196.426V37.2727H194.369ZM196.386 29.6364C196.386 30.2008 196.466 30.6951 196.625 31.1193C196.788 31.5436 197.021 31.875 197.324 32.1136C197.631 32.3485 198.002 32.4659 198.438 32.4659C198.892 32.4659 199.273 32.3447 199.58 32.1023C199.886 31.8561 200.117 31.5208 200.273 31.0966C200.432 30.6686 200.511 30.1818 200.511 29.6364C200.511 29.0947 200.434 28.6136 200.278 28.1932C200.123 27.7727 199.892 27.4432 199.585 27.2045C199.278 26.9659 198.896 26.8466 198.438 26.8466C197.998 26.8466 197.625 26.9621 197.318 27.1932C197.011 27.4242 196.778 27.7481 196.619 28.1648C196.464 28.5814 196.386 29.072 196.386 29.6364ZM205.351 37.2727C205.071 37.2727 204.811 37.25 204.572 37.2045C204.338 37.1629 204.15 37.1136 204.01 37.0568L204.487 35.4545C204.786 35.5417 205.054 35.5833 205.288 35.5795C205.523 35.5758 205.73 35.5019 205.908 35.358C206.089 35.2178 206.243 34.983 206.368 34.6534L206.544 34.1818L203.379 25.2727H205.561L207.572 31.8636H207.663L209.68 25.2727H211.868L208.374 35.0568C208.211 35.5189 207.995 35.9148 207.726 36.2443C207.457 36.5777 207.127 36.8314 206.737 37.0057C206.351 37.1837 205.889 37.2727 205.351 37.2727ZM212.808 31.608H214.848C214.867 31.9337 215.013 32.1856 215.286 32.3636C215.558 32.5417 215.912 32.6307 216.348 32.6307C216.791 32.6307 217.164 32.5341 217.467 32.3409C217.774 32.1439 217.928 31.8466 217.928 31.4489C217.928 31.214 217.869 31.0076 217.751 30.8295C217.634 30.6477 217.469 30.5076 217.257 30.4091C217.045 30.3106 216.795 30.2614 216.507 30.2614H215.172V28.8011H216.507C216.935 28.8011 217.259 28.7027 217.479 28.5057C217.702 28.3087 217.814 28.0606 217.814 27.7614C217.814 27.4394 217.696 27.178 217.462 26.9773C217.231 26.7765 216.911 26.6761 216.501 26.6761C216.092 26.6761 215.751 26.7689 215.479 26.9545C215.21 27.1402 215.07 27.3788 215.058 27.6705H213.03C213.037 27.1629 213.189 26.7216 213.484 26.3466C213.784 25.9716 214.185 25.6799 214.689 25.4716C215.196 25.2633 215.768 25.1591 216.405 25.1591C217.087 25.1591 217.676 25.2614 218.172 25.4659C218.668 25.6705 219.051 25.9564 219.32 26.3239C219.589 26.6875 219.723 27.1155 219.723 27.608C219.723 28.0814 219.575 28.4735 219.28 28.7841C218.984 29.0909 218.587 29.3106 218.087 29.4432V29.5341C218.431 29.553 218.742 29.6515 219.018 29.8295C219.295 30.0038 219.515 30.2405 219.678 30.5398C219.84 30.839 219.922 31.1856 219.922 31.5795C219.922 32.1136 219.768 32.5758 219.462 32.9659C219.155 33.3523 218.732 33.6496 218.195 33.858C217.661 34.0663 217.049 34.1705 216.359 34.1705C215.689 34.1705 215.089 34.0701 214.558 33.8693C214.032 33.6648 213.613 33.3712 213.303 32.9886C212.992 32.6061 212.827 32.1458 212.808 31.608ZM222.933 28.1136H225.507C226.621 28.1136 227.482 28.3845 228.092 28.9261C228.702 29.4678 229.009 30.178 229.013 31.0568C229.009 31.6288 228.869 32.1364 228.592 32.5795C228.32 33.0227 227.922 33.3712 227.399 33.625C226.88 33.875 226.25 34 225.507 34H221.541V25.2727H223.524V32.3125H225.507C225.954 32.3125 226.321 32.1989 226.609 31.9716C226.897 31.7405 227.041 31.4451 227.041 31.0852C227.041 30.7064 226.897 30.3977 226.609 30.1591C226.321 29.9205 225.954 29.8011 225.507 29.8011H222.933V28.1136ZM235.935 34V26.9432H234.071C233.598 26.9432 233.234 27.053 232.98 27.2727C232.726 27.4924 232.601 27.7652 232.605 28.0909C232.601 28.4167 232.721 28.6856 232.963 28.8977C233.205 29.1098 233.552 29.2159 234.003 29.2159H236.582V30.7159H234.003C233.306 30.7159 232.704 30.6061 232.196 30.3864C231.688 30.1667 231.298 29.8561 231.026 29.4545C230.753 29.053 230.616 28.5833 230.616 28.0455C230.616 27.4848 230.755 26.9981 231.031 26.5852C231.312 26.1686 231.709 25.8466 232.224 25.6193C232.743 25.3883 233.359 25.2727 234.071 25.2727H237.861V34H235.935ZM230.298 34L232.736 29.5227H234.764L232.321 34H230.298ZM244.955 31.608L247.545 25.2727H249.205L245.676 34H244.239L240.79 25.2727H242.432L244.955 31.608ZM241.915 25.2727V34H239.932V25.2727H241.915ZM248.08 34V25.2727H250.045V34H248.08ZM254.102 31.2159L257.597 25.2727H259.71V34H257.722V28.0511L254.239 34H252.119V25.2727H254.102V31.2159Z" fill="#FFF4D5"/>
<path d="M23.5852 59.2727V68H22.5284V60.2102H18.1307V68H17.0739V59.2727H23.5852ZM28.2397 68.1364C27.6488 68.1364 27.1303 67.9957 26.6843 67.7145C26.2411 67.4332 25.8945 67.0398 25.6445 66.5341C25.3974 66.0284 25.2738 65.4375 25.2738 64.7614C25.2738 64.0795 25.3974 63.4844 25.6445 62.9759C25.8945 62.4673 26.2411 62.0724 26.6843 61.7912C27.1303 61.5099 27.6488 61.3693 28.2397 61.3693C28.8306 61.3693 29.3477 61.5099 29.7908 61.7912C30.2369 62.0724 30.5835 62.4673 30.8306 62.9759C31.0806 63.4844 31.2056 64.0795 31.2056 64.7614C31.2056 65.4375 31.0806 66.0284 30.8306 66.5341C30.5835 67.0398 30.2369 67.4332 29.7908 67.7145C29.3477 67.9957 28.8306 68.1364 28.2397 68.1364ZM28.2397 67.233C28.6886 67.233 29.0579 67.1179 29.3477 66.8878C29.6374 66.6577 29.8519 66.3551 29.9911 65.9801C30.1303 65.6051 30.1999 65.1989 30.1999 64.7614C30.1999 64.3239 30.1303 63.9162 29.9911 63.5384C29.8519 63.1605 29.6374 62.8551 29.3477 62.6222C29.0579 62.3892 28.6886 62.2727 28.2397 62.2727C27.7908 62.2727 27.4215 62.3892 27.1317 62.6222C26.842 62.8551 26.6275 63.1605 26.4883 63.5384C26.3491 63.9162 26.2795 64.3239 26.2795 64.7614C26.2795 65.1989 26.3491 65.6051 26.4883 65.9801C26.6275 66.3551 26.842 66.6577 27.1317 66.8878C27.4215 67.1179 27.7908 67.233 28.2397 67.233ZM32.1612 68V67.0625H32.3999C32.5959 67.0625 32.7592 67.0241 32.8899 66.9474C33.0206 66.8679 33.1257 66.7301 33.2053 66.5341C33.2876 66.3352 33.3501 66.0597 33.3928 65.7074C33.4382 65.3523 33.4709 64.9006 33.4908 64.3523L33.6101 61.4545H37.9737V68H36.968V62.392H34.5646L34.4624 64.7273C34.4396 65.2642 34.3913 65.7372 34.3175 66.1463C34.2464 66.5526 34.1371 66.8935 33.9893 67.169C33.8445 67.4446 33.6513 67.652 33.4098 67.7912C33.1683 67.9304 32.8658 68 32.5021 68H32.1612ZM40.2322 70.4545C40.0618 70.4545 39.9098 70.4403 39.7763 70.4119C39.6428 70.3864 39.5504 70.3608 39.4993 70.3352L39.755 69.4489C39.9993 69.5114 40.2152 69.5341 40.4027 69.517C40.5902 69.5 40.7564 69.4162 40.9013 69.2656C41.049 69.1179 41.1839 68.8778 41.3061 68.5455L41.4936 68.0341L39.0732 61.4545H40.1641L41.9709 66.6705H42.0391L43.8459 61.4545H44.9368L42.1584 68.9545C42.0334 69.2926 41.8786 69.5724 41.6939 69.794C41.5092 70.0185 41.2947 70.1847 41.0504 70.2926C40.8089 70.4006 40.5362 70.4545 40.2322 70.4545ZM51.1104 61.4545V68H50.1048V61.4545H51.1104ZM50.7184 64.5739V65.5114C50.4911 65.5966 50.2653 65.6719 50.0408 65.7372C49.8164 65.7997 49.5806 65.8494 49.3335 65.8864C49.0863 65.9205 48.815 65.9375 48.5195 65.9375C47.7781 65.9375 47.1829 65.7372 46.734 65.3366C46.288 64.9361 46.065 64.3352 46.065 63.5341V61.4375H47.0707V63.5341C47.0707 63.8693 47.1346 64.1449 47.2624 64.3608C47.3903 64.5767 47.5636 64.7372 47.7823 64.8423C48.0011 64.9474 48.2468 65 48.5195 65C48.9457 65 49.3306 64.9616 49.6744 64.8849C50.021 64.8054 50.369 64.7017 50.7184 64.5739ZM53.9613 66.517L57.1147 61.4545H58.2738V68H57.2681V62.9375L54.1317 68H52.9556V61.4545H53.9613V66.517ZM59.2251 62.392V61.4545H64.5433V62.392H62.3956V68H61.3899V62.392H59.2251ZM68.4148 68.1364C67.7841 68.1364 67.2401 67.9972 66.7827 67.7188C66.3281 67.4375 65.9773 67.0455 65.7301 66.5426C65.4858 66.0369 65.3636 65.4489 65.3636 64.7784C65.3636 64.108 65.4858 63.517 65.7301 63.0057C65.9773 62.4915 66.321 62.0909 66.7614 61.804C67.2045 61.5142 67.7216 61.3693 68.3125 61.3693C68.6534 61.3693 68.9901 61.4261 69.3224 61.5398C69.6548 61.6534 69.9574 61.8381 70.2301 62.0938C70.5028 62.3466 70.7202 62.6818 70.8821 63.0994C71.044 63.517 71.125 64.0312 71.125 64.642V65.0682H66.0795V64.1989H70.1023C70.1023 63.8295 70.0284 63.5 69.8807 63.2102C69.7358 62.9205 69.5284 62.6918 69.2585 62.5241C68.9915 62.3565 68.6761 62.2727 68.3125 62.2727C67.9119 62.2727 67.5653 62.3722 67.2727 62.571C66.983 62.767 66.7599 63.0227 66.6037 63.3381C66.4474 63.6534 66.3693 63.9915 66.3693 64.3523V64.9318C66.3693 65.4261 66.4545 65.8452 66.625 66.1889C66.7983 66.5298 67.0384 66.7898 67.3452 66.9688C67.652 67.1449 68.0085 67.233 68.4148 67.233C68.679 67.233 68.9176 67.196 69.1307 67.1222C69.3466 67.0455 69.5327 66.9318 69.6889 66.7812C69.8452 66.6278 69.9659 66.4375 70.0511 66.2102L71.0227 66.483C70.9205 66.8125 70.7486 67.1023 70.5071 67.3523C70.2656 67.5994 69.9673 67.7926 69.6122 67.9318C69.2571 68.0682 68.858 68.1364 68.4148 68.1364ZM75.331 69.875V67.0625H75.8764C76.0099 66.9233 76.125 66.7727 76.2216 66.6108C76.3182 66.4489 76.402 66.2571 76.473 66.0355C76.5469 65.8111 76.6094 65.5384 76.6605 65.2173C76.7116 64.8935 76.7571 64.5028 76.7969 64.0455L77.0185 61.4545H81.1776V67.0625H82.1832V69.875H81.1776V68H76.3366V69.875H75.331ZM77.0185 67.0625H80.1719V62.392H77.956L77.7855 64.0455C77.7145 64.7301 77.6264 65.3281 77.5213 65.8395C77.4162 66.3509 77.2486 66.7585 77.0185 67.0625ZM86.1772 68.1364C85.5863 68.1364 85.0678 67.9957 84.6218 67.7145C84.1786 67.4332 83.832 67.0398 83.582 66.5341C83.3349 66.0284 83.2113 65.4375 83.2113 64.7614C83.2113 64.0795 83.3349 63.4844 83.582 62.9759C83.832 62.4673 84.1786 62.0724 84.6218 61.7912C85.0678 61.5099 85.5863 61.3693 86.1772 61.3693C86.7681 61.3693 87.2852 61.5099 87.7283 61.7912C88.1744 62.0724 88.521 62.4673 88.7681 62.9759C89.0181 63.4844 89.1431 64.0795 89.1431 64.7614C89.1431 65.4375 89.0181 66.0284 88.7681 66.5341C88.521 67.0398 88.1744 67.4332 87.7283 67.7145C87.2852 67.9957 86.7681 68.1364 86.1772 68.1364ZM86.1772 67.233C86.6261 67.233 86.9954 67.1179 87.2852 66.8878C87.5749 66.6577 87.7894 66.3551 87.9286 65.9801C88.0678 65.6051 88.1374 65.1989 88.1374 64.7614C88.1374 64.3239 88.0678 63.9162 87.9286 63.5384C87.7894 63.1605 87.5749 62.8551 87.2852 62.6222C86.9954 62.3892 86.6261 62.2727 86.1772 62.2727C85.7283 62.2727 85.359 62.3892 85.0692 62.6222C84.7795 62.8551 84.565 63.1605 84.4258 63.5384C84.2866 63.9162 84.217 64.3239 84.217 64.7614C84.217 65.1989 84.2866 65.6051 84.4258 65.9801C84.565 66.3551 84.7795 66.6577 85.0692 66.8878C85.359 67.1179 85.7283 67.233 86.1772 67.233ZM93.3374 68.1364C92.7237 68.1364 92.1953 67.9915 91.7521 67.7017C91.3089 67.4119 90.968 67.0128 90.7294 66.5043C90.4908 65.9957 90.3714 65.4148 90.3714 64.7614C90.3714 64.0966 90.4936 63.5099 90.7379 63.0014C90.9851 62.4901 91.3288 62.0909 91.7692 61.804C92.2124 61.5142 92.7294 61.3693 93.3203 61.3693C93.7805 61.3693 94.1953 61.4545 94.5646 61.625C94.9339 61.7955 95.2365 62.0341 95.4723 62.3409C95.7081 62.6477 95.8544 63.0057 95.9112 63.4148H94.9055C94.8288 63.1165 94.6584 62.8523 94.3942 62.6222C94.1328 62.3892 93.7805 62.2727 93.3374 62.2727C92.9453 62.2727 92.6016 62.375 92.3061 62.5795C92.0135 62.7812 91.7848 63.0668 91.62 63.4361C91.4581 63.8026 91.3771 64.233 91.3771 64.7273C91.3771 65.233 91.4567 65.6733 91.6158 66.0483C91.7777 66.4233 92.005 66.7145 92.2976 66.9219C92.593 67.1293 92.9396 67.233 93.3374 67.233C93.5987 67.233 93.8359 67.1875 94.049 67.0966C94.2621 67.0057 94.4425 66.875 94.5902 66.7045C94.7379 66.5341 94.843 66.3295 94.9055 66.0909H95.9112C95.8544 66.4773 95.7138 66.8253 95.4893 67.1349C95.2678 67.4418 94.9737 67.6861 94.6072 67.8679C94.2436 68.0469 93.8203 68.1364 93.3374 68.1364ZM96.8658 62.392V61.4545H102.184V62.392H100.036V68H99.0305V62.392H96.8658ZM105.97 68.1364C105.379 68.1364 104.861 67.9957 104.415 67.7145C103.972 67.4332 103.625 67.0398 103.375 66.5341C103.128 66.0284 103.004 65.4375 103.004 64.7614C103.004 64.0795 103.128 63.4844 103.375 62.9759C103.625 62.4673 103.972 62.0724 104.415 61.7912C104.861 61.5099 105.379 61.3693 105.97 61.3693C106.561 61.3693 107.078 61.5099 107.521 61.7912C107.967 62.0724 108.314 62.4673 108.561 62.9759C108.811 63.4844 108.936 64.0795 108.936 64.7614C108.936 65.4375 108.811 66.0284 108.561 66.5341C108.314 67.0398 107.967 67.4332 107.521 67.7145C107.078 67.9957 106.561 68.1364 105.97 68.1364ZM105.97 67.233C106.419 67.233 106.788 67.1179 107.078 66.8878C107.368 66.6577 107.582 66.3551 107.722 65.9801C107.861 65.6051 107.93 65.1989 107.93 64.7614C107.93 64.3239 107.861 63.9162 107.722 63.5384C107.582 63.1605 107.368 62.8551 107.078 62.6222C106.788 62.3892 106.419 62.2727 105.97 62.2727C105.521 62.2727 105.152 62.3892 104.862 62.6222C104.572 62.8551 104.358 63.1605 104.219 63.5384C104.08 63.9162 104.01 64.3239 104.01 64.7614C104.01 65.1989 104.08 65.6051 104.219 65.9801C104.358 66.3551 104.572 66.6577 104.862 66.8878C105.152 67.1179 105.521 67.233 105.97 67.233ZM111.477 66.517L114.63 61.4545H115.789V68H114.784V62.9375L111.647 68H110.471V61.4545H111.477V66.517ZM113.966 59.2727H114.903C114.903 59.733 114.744 60.1094 114.426 60.402C114.108 60.6946 113.676 60.8409 113.13 60.8409C112.593 60.8409 112.166 60.6946 111.848 60.402C111.532 60.1094 111.375 59.733 111.375 59.2727H112.312C112.312 59.4943 112.373 59.6889 112.495 59.8565C112.62 60.0241 112.832 60.108 113.13 60.108C113.429 60.108 113.642 60.0241 113.77 59.8565C113.9 59.6889 113.966 59.4943 113.966 59.2727ZM122.012 64.267V65.2045H118.398V64.267H122.012ZM118.637 61.4545V68H117.631V61.4545H118.637ZM122.779 61.4545V68H121.773V61.4545H122.779ZM127.275 68.1364C126.684 68.1364 126.165 67.9957 125.719 67.7145C125.276 67.4332 124.93 67.0398 124.68 66.5341C124.433 66.0284 124.309 65.4375 124.309 64.7614C124.309 64.0795 124.433 63.4844 124.68 62.9759C124.93 62.4673 125.276 62.0724 125.719 61.7912C126.165 61.5099 126.684 61.3693 127.275 61.3693C127.866 61.3693 128.383 61.5099 128.826 61.7912C129.272 62.0724 129.619 62.4673 129.866 62.9759C130.116 63.4844 130.241 64.0795 130.241 64.7614C130.241 65.4375 130.116 66.0284 129.866 66.5341C129.619 67.0398 129.272 67.4332 128.826 67.7145C128.383 67.9957 127.866 68.1364 127.275 68.1364ZM127.275 67.233C127.724 67.233 128.093 67.1179 128.383 66.8878C128.673 66.6577 128.887 66.3551 129.026 65.9801C129.165 65.6051 129.235 65.1989 129.235 64.7614C129.235 64.3239 129.165 63.9162 129.026 63.5384C128.887 63.1605 128.673 62.8551 128.383 62.6222C128.093 62.3892 127.724 62.2727 127.275 62.2727C126.826 62.2727 126.457 62.3892 126.167 62.6222C125.877 62.8551 125.663 63.1605 125.523 63.5384C125.384 63.9162 125.315 64.3239 125.315 64.7614C125.315 65.1989 125.384 65.6051 125.523 65.9801C125.663 66.3551 125.877 66.6577 126.167 66.8878C126.457 67.1179 126.826 67.233 127.275 67.233ZM134.52 68.1364C133.89 68.1364 133.346 67.9972 132.888 67.7188C132.434 67.4375 132.083 67.0455 131.836 66.5426C131.591 66.0369 131.469 65.4489 131.469 64.7784C131.469 64.108 131.591 63.517 131.836 63.0057C132.083 62.4915 132.426 62.0909 132.867 61.804C133.31 61.5142 133.827 61.3693 134.418 61.3693C134.759 61.3693 135.096 61.4261 135.428 61.5398C135.76 61.6534 136.063 61.8381 136.336 62.0938C136.608 62.3466 136.826 62.6818 136.988 63.0994C137.15 63.517 137.23 64.0312 137.23 64.642V65.0682H132.185V64.1989H136.208C136.208 63.8295 136.134 63.5 135.986 63.2102C135.841 62.9205 135.634 62.6918 135.364 62.5241C135.097 62.3565 134.782 62.2727 134.418 62.2727C134.017 62.2727 133.671 62.3722 133.378 62.571C133.088 62.767 132.865 63.0227 132.709 63.3381C132.553 63.6534 132.475 63.9915 132.475 64.3523V64.9318C132.475 65.4261 132.56 65.8452 132.73 66.1889C132.904 66.5298 133.144 66.7898 133.451 66.9688C133.757 67.1449 134.114 67.233 134.52 67.233C134.784 67.233 135.023 67.196 135.236 67.1222C135.452 67.0455 135.638 66.9318 135.794 66.7812C135.951 66.6278 136.071 66.4375 136.157 66.2102L137.128 66.483C137.026 66.8125 136.854 67.1023 136.613 67.3523C136.371 67.5994 136.073 67.7926 135.718 67.9318C135.363 68.0682 134.963 68.1364 134.52 68.1364ZM142.135 68V61.4545H144.811C145.516 61.4545 146.076 61.6136 146.49 61.9318C146.905 62.25 147.113 62.6705 147.113 63.1932C147.113 63.5909 146.995 63.8991 146.759 64.1179C146.523 64.3338 146.221 64.4801 145.851 64.5568C146.093 64.5909 146.327 64.6761 146.554 64.8125C146.784 64.9489 146.975 65.1364 147.125 65.375C147.276 65.6108 147.351 65.9006 147.351 66.2443C147.351 66.5795 147.266 66.8793 147.096 67.1435C146.925 67.4077 146.681 67.6165 146.363 67.7699C146.044 67.9233 145.664 68 145.221 68H142.135ZM143.09 67.0795H145.221C145.567 67.0795 145.838 66.9972 146.034 66.8324C146.23 66.6676 146.328 66.4432 146.328 66.1591C146.328 65.821 146.23 65.5554 146.034 65.3622C145.838 65.1662 145.567 65.0682 145.221 65.0682H143.09V67.0795ZM143.09 64.1989H144.811C145.081 64.1989 145.313 64.1619 145.506 64.0881C145.699 64.0114 145.847 63.9034 145.949 63.7642C146.054 63.6222 146.107 63.4545 146.107 63.2614C146.107 62.9858 145.992 62.7699 145.762 62.6136C145.532 62.4545 145.215 62.375 144.811 62.375H143.09V64.1989ZM151.533 68.1364C150.942 68.1364 150.423 67.9957 149.977 67.7145C149.534 67.4332 149.188 67.0398 148.938 66.5341C148.69 66.0284 148.567 65.4375 148.567 64.7614C148.567 64.0795 148.69 63.4844 148.938 62.9759C149.188 62.4673 149.534 62.0724 149.977 61.7912C150.423 61.5099 150.942 61.3693 151.533 61.3693C152.124 61.3693 152.641 61.5099 153.084 61.7912C153.53 62.0724 153.876 62.4673 154.124 62.9759C154.374 63.4844 154.499 64.0795 154.499 64.7614C154.499 65.4375 154.374 66.0284 154.124 66.5341C153.876 67.0398 153.53 67.4332 153.084 67.7145C152.641 67.9957 152.124 68.1364 151.533 68.1364ZM151.533 67.233C151.982 67.233 152.351 67.1179 152.641 66.8878C152.93 66.6577 153.145 66.3551 153.284 65.9801C153.423 65.6051 153.493 65.1989 153.493 64.7614C153.493 64.3239 153.423 63.9162 153.284 63.5384C153.145 63.1605 152.93 62.8551 152.641 62.6222C152.351 62.3892 151.982 62.2727 151.533 62.2727C151.084 62.2727 150.714 62.3892 150.425 62.6222C150.135 62.8551 149.92 63.1605 149.781 63.5384C149.642 63.9162 149.572 64.3239 149.572 64.7614C149.572 65.1989 149.642 65.6051 149.781 65.9801C149.92 66.3551 150.135 66.6577 150.425 66.8878C150.714 67.1179 151.084 67.233 151.533 67.233ZM155.625 66.3295H156.699C156.721 66.625 156.855 66.8494 157.099 67.0028C157.346 67.1562 157.667 67.233 158.062 67.233C158.466 67.233 158.811 67.1506 159.098 66.9858C159.385 66.8182 159.528 66.5483 159.528 66.1761C159.528 65.9574 159.474 65.767 159.366 65.6051C159.258 65.4403 159.106 65.3125 158.91 65.2216C158.714 65.1307 158.483 65.0852 158.216 65.0852H157.091V64.1818H158.216C158.616 64.1818 158.912 64.0909 159.102 63.9091C159.295 63.7273 159.392 63.5 159.392 63.2273C159.392 62.9347 159.288 62.7003 159.081 62.5241C158.873 62.3452 158.579 62.2557 158.199 62.2557C157.815 62.2557 157.495 62.3423 157.24 62.5156C156.984 62.6861 156.849 62.9062 156.835 63.1761H155.778C155.789 62.8239 155.897 62.5128 156.102 62.2429C156.306 61.9702 156.585 61.7571 156.937 61.6037C157.289 61.4474 157.693 61.3693 158.147 61.3693C158.608 61.3693 159.007 61.4503 159.345 61.6122C159.686 61.7713 159.949 61.9886 160.133 62.2642C160.321 62.5369 160.414 62.8466 160.414 63.1932C160.414 63.5625 160.311 63.8608 160.103 64.0881C159.896 64.3153 159.636 64.4773 159.324 64.5739V64.642C159.571 64.6591 159.785 64.7386 159.967 64.8807C160.152 65.0199 160.295 65.2031 160.397 65.4304C160.5 65.6548 160.551 65.9034 160.551 66.1761C160.551 66.5739 160.444 66.9205 160.231 67.2159C160.018 67.5085 159.725 67.7358 159.353 67.8977C158.981 68.0568 158.556 68.1364 158.079 68.1364C157.616 68.1364 157.201 68.0611 156.835 67.9105C156.468 67.7571 156.177 67.5455 155.961 67.2756C155.748 67.0028 155.636 66.6875 155.625 66.3295ZM166.344 64.267V65.2045H162.73V64.267H166.344ZM162.969 61.4545V68H161.963V61.4545H162.969ZM167.111 61.4545V68H166.105V61.4545H167.111ZM170.874 68.1534C170.459 68.1534 170.083 68.0753 169.745 67.919C169.407 67.7599 169.138 67.5312 168.939 67.233C168.74 66.9318 168.641 66.5682 168.641 66.142C168.641 65.767 168.715 65.4631 168.863 65.2301C169.01 64.9943 169.208 64.8097 169.455 64.6761C169.702 64.5426 169.975 64.4432 170.273 64.3778C170.574 64.3097 170.877 64.2557 171.181 64.2159C171.578 64.1648 171.901 64.1264 172.148 64.1009C172.398 64.0724 172.58 64.0256 172.694 63.9602C172.81 63.8949 172.868 63.7812 172.868 63.6193V63.5852C172.868 63.1648 172.753 62.8381 172.523 62.6051C172.296 62.3722 171.951 62.2557 171.488 62.2557C171.007 62.2557 170.631 62.3608 170.358 62.571C170.086 62.7812 169.894 63.0057 169.783 63.2443L168.828 62.9034C168.999 62.5057 169.226 62.196 169.51 61.9744C169.797 61.75 170.11 61.5937 170.448 61.5057C170.789 61.4148 171.124 61.3693 171.453 61.3693C171.664 61.3693 171.905 61.3949 172.178 61.446C172.453 61.4943 172.719 61.5952 172.975 61.7486C173.233 61.902 173.448 62.1335 173.618 62.4432C173.789 62.7528 173.874 63.1676 173.874 63.6875V68H172.868V67.1136H172.817C172.749 67.2557 172.635 67.4077 172.476 67.5696C172.317 67.7315 172.105 67.8693 171.841 67.983C171.577 68.0966 171.255 68.1534 170.874 68.1534ZM171.027 67.25C171.425 67.25 171.76 67.1719 172.033 67.0156C172.309 66.8594 172.516 66.6577 172.655 66.4105C172.797 66.1634 172.868 65.9034 172.868 65.6307V64.7102C172.826 64.7614 172.732 64.8082 172.587 64.8509C172.445 64.8906 172.28 64.9261 172.093 64.9574C171.908 64.9858 171.728 65.0114 171.551 65.0341C171.378 65.054 171.238 65.071 171.13 65.0852C170.868 65.1193 170.624 65.1747 170.397 65.2514C170.172 65.3253 169.99 65.4375 169.851 65.5881C169.715 65.7358 169.647 65.9375 169.647 66.1932C169.647 66.5426 169.776 66.8068 170.034 66.9858C170.296 67.1619 170.627 67.25 171.027 67.25ZM179.749 61.4545V62.392H176.715V68H175.71V61.4545H179.749ZM181.217 70.4545V61.4545H182.189V62.4943H182.308C182.382 62.3807 182.484 62.2358 182.615 62.0597C182.749 61.8807 182.939 61.7216 183.186 61.5824C183.436 61.4403 183.774 61.3693 184.2 61.3693C184.751 61.3693 185.237 61.5071 185.658 61.7827C186.078 62.0582 186.406 62.4489 186.642 62.9545C186.878 63.4602 186.996 64.0568 186.996 64.7443C186.996 65.4375 186.878 66.0384 186.642 66.5469C186.406 67.0526 186.08 67.4446 185.662 67.723C185.244 67.9986 184.763 68.1364 184.217 68.1364C183.797 68.1364 183.46 68.0668 183.207 67.9276C182.955 67.7855 182.76 67.625 182.624 67.446C182.487 67.2642 182.382 67.1136 182.308 66.9943H182.223V70.4545H181.217ZM182.206 64.7273C182.206 65.2216 182.278 65.6577 182.423 66.0355C182.568 66.4105 182.78 66.7045 183.058 66.9176C183.337 67.1278 183.678 67.233 184.081 67.233C184.501 67.233 184.852 67.1222 185.134 66.9006C185.418 66.6761 185.631 66.375 185.773 65.9972C185.918 65.6165 185.99 65.1932 185.99 64.7273C185.99 64.267 185.919 63.8523 185.777 63.483C185.638 63.1108 185.426 62.8168 185.142 62.6009C184.861 62.3821 184.507 62.2727 184.081 62.2727C183.672 62.2727 183.328 62.3764 183.05 62.5838C182.771 62.7884 182.561 63.0753 182.419 63.4446C182.277 63.8111 182.206 64.2386 182.206 64.7273ZM190.456 68.1534C190.041 68.1534 189.665 68.0753 189.327 67.919C188.989 67.7599 188.72 67.5312 188.521 67.233C188.322 66.9318 188.223 66.5682 188.223 66.142C188.223 65.767 188.297 65.4631 188.445 65.2301C188.592 64.9943 188.79 64.8097 189.037 64.6761C189.284 64.5426 189.557 64.4432 189.855 64.3778C190.156 64.3097 190.459 64.2557 190.763 64.2159C191.161 64.1648 191.483 64.1264 191.73 64.1009C191.98 64.0724 192.162 64.0256 192.276 63.9602C192.392 63.8949 192.45 63.7812 192.45 63.6193V63.5852C192.45 63.1648 192.335 62.8381 192.105 62.6051C191.878 62.3722 191.533 62.2557 191.07 62.2557C190.589 62.2557 190.213 62.3608 189.94 62.571C189.668 62.7812 189.476 63.0057 189.365 63.2443L188.411 62.9034C188.581 62.5057 188.808 62.196 189.092 61.9744C189.379 61.75 189.692 61.5937 190.03 61.5057C190.371 61.4148 190.706 61.3693 191.036 61.3693C191.246 61.3693 191.487 61.3949 191.76 61.446C192.036 61.4943 192.301 61.5952 192.557 61.7486C192.815 61.902 193.03 62.1335 193.2 62.4432C193.371 62.7528 193.456 63.1676 193.456 63.6875V68H192.45V67.1136H192.399C192.331 67.2557 192.217 67.4077 192.058 67.5696C191.899 67.7315 191.688 67.8693 191.423 67.983C191.159 68.0966 190.837 68.1534 190.456 68.1534ZM190.609 67.25C191.007 67.25 191.342 67.1719 191.615 67.0156C191.891 66.8594 192.098 66.6577 192.237 66.4105C192.379 66.1634 192.45 65.9034 192.45 65.6307V64.7102C192.408 64.7614 192.314 64.8082 192.169 64.8509C192.027 64.8906 191.862 64.9261 191.675 64.9574C191.49 64.9858 191.31 65.0114 191.134 65.0341C190.96 65.054 190.82 65.071 190.712 65.0852C190.45 65.1193 190.206 65.1747 189.979 65.2514C189.754 65.3253 189.572 65.4375 189.433 65.5881C189.297 65.7358 189.229 65.9375 189.229 66.1932C189.229 66.5426 189.358 66.8068 189.616 66.9858C189.878 67.1619 190.209 67.25 190.609 67.25ZM194.882 68L197.542 64.6761L194.917 61.4545H196.11L198.292 64.25H198.837V61.4545H199.843V64.25H200.371L202.553 61.4545H203.746L201.138 64.6761L203.78 68H202.57L200.354 65.1875H199.843V68H198.837V65.1875H198.326L196.093 68H194.882ZM204.518 69.875V67.0625H205.064C205.197 66.9233 205.313 66.7727 205.409 66.6108C205.506 66.4489 205.589 66.2571 205.661 66.0355C205.734 65.8111 205.797 65.5384 205.848 65.2173C205.899 64.8935 205.945 64.5028 205.984 64.0455L206.206 61.4545H210.365V67.0625H211.371V69.875H210.365V68H205.524V69.875H204.518ZM206.206 67.0625H209.359V62.392H207.143L206.973 64.0455C206.902 64.7301 206.814 65.3281 206.709 65.8395C206.604 66.3509 206.436 66.7585 206.206 67.0625ZM215.45 68.1364C214.819 68.1364 214.275 67.9972 213.818 67.7188C213.363 67.4375 213.012 67.0455 212.765 66.5426C212.521 66.0369 212.399 65.4489 212.399 64.7784C212.399 64.108 212.521 63.517 212.765 63.0057C213.012 62.4915 213.356 62.0909 213.797 61.804C214.24 61.5142 214.757 61.3693 215.348 61.3693C215.689 61.3693 216.025 61.4261 216.358 61.5398C216.69 61.6534 216.993 61.8381 217.265 62.0938C217.538 62.3466 217.755 62.6818 217.917 63.0994C218.079 63.517 218.16 64.0312 218.16 64.642V65.0682H213.115V64.1989H217.137C217.137 63.8295 217.064 63.5 216.916 63.2102C216.771 62.9205 216.564 62.6918 216.294 62.5241C216.027 62.3565 215.711 62.2727 215.348 62.2727C214.947 62.2727 214.6 62.3722 214.308 62.571C214.018 62.767 213.795 63.0227 213.639 63.3381C213.483 63.6534 213.404 63.9915 213.404 64.3523V64.9318C213.404 65.4261 213.49 65.8452 213.66 66.1889C213.833 66.5298 214.074 66.7898 214.38 66.9688C214.687 67.1449 215.044 67.233 215.45 67.233C215.714 67.233 215.953 67.196 216.166 67.1222C216.382 67.0455 216.568 66.9318 216.724 66.7812C216.88 66.6278 217.001 66.4375 217.086 66.2102L218.058 66.483C217.956 66.8125 217.784 67.1023 217.542 67.3523C217.301 67.5994 217.002 67.7926 216.647 67.9318C216.292 68.0682 215.893 68.1364 215.45 68.1364ZM224.071 64.267V65.2045H220.457V64.267H224.071ZM220.696 61.4545V68H219.69V61.4545H220.696ZM224.838 61.4545V68H223.832V61.4545H224.838ZM227.68 66.517L230.833 61.4545H231.993V68H230.987V62.9375L227.85 68H226.674V61.4545H227.68V66.517ZM236.579 68.1364C235.948 68.1364 235.404 67.9972 234.947 67.7188C234.492 67.4375 234.141 67.0455 233.894 66.5426C233.65 66.0369 233.528 65.4489 233.528 64.7784C233.528 64.108 233.65 63.517 233.894 63.0057C234.141 62.4915 234.485 62.0909 234.925 61.804C235.369 61.5142 235.886 61.3693 236.477 61.3693C236.817 61.3693 237.154 61.4261 237.487 61.5398C237.819 61.6534 238.121 61.8381 238.394 62.0938C238.667 62.3466 238.884 62.6818 239.046 63.0994C239.208 63.517 239.289 64.0312 239.289 64.642V65.0682H234.244V64.1989H238.266C238.266 63.8295 238.192 63.5 238.045 63.2102C237.9 62.9205 237.692 62.6918 237.423 62.5241C237.156 62.3565 236.84 62.2727 236.477 62.2727C236.076 62.2727 235.729 62.3722 235.437 62.571C235.147 62.767 234.924 63.0227 234.768 63.3381C234.612 63.6534 234.533 63.9915 234.533 64.3523V64.9318C234.533 65.4261 234.619 65.8452 234.789 66.1889C234.962 66.5298 235.202 66.7898 235.509 66.9688C235.816 67.1449 236.173 67.233 236.579 67.233C236.843 67.233 237.082 67.196 237.295 67.1222C237.511 67.0455 237.697 66.9318 237.853 66.7812C238.009 66.6278 238.13 66.4375 238.215 66.2102L239.187 66.483C239.085 66.8125 238.913 67.1023 238.671 67.3523C238.43 67.5994 238.131 67.7926 237.776 67.9318C237.421 68.0682 237.022 68.1364 236.579 68.1364ZM16.5114 81.3295H17.5852C17.608 81.625 17.7415 81.8494 17.9858 82.0028C18.233 82.1562 18.554 82.233 18.9489 82.233C19.3523 82.233 19.6974 82.1506 19.9844 81.9858C20.2713 81.8182 20.4148 81.5483 20.4148 81.1761C20.4148 80.9574 20.3608 80.767 20.2528 80.6051C20.1449 80.4403 19.9929 80.3125 19.7969 80.2216C19.6009 80.1307 19.3693 80.0852 19.1023 80.0852H17.9773V79.1818H19.1023C19.5028 79.1818 19.7983 79.0909 19.9886 78.9091C20.1818 78.7273 20.2784 78.5 20.2784 78.2273C20.2784 77.9347 20.1747 77.7003 19.9673 77.5241C19.7599 77.3452 19.4659 77.2557 19.0852 77.2557C18.7017 77.2557 18.3821 77.3423 18.1264 77.5156C17.8707 77.6861 17.7358 77.9062 17.7216 78.1761H16.6648C16.6761 77.8239 16.7841 77.5128 16.9886 77.2429C17.1932 76.9702 17.4716 76.7571 17.8239 76.6037C18.1761 76.4474 18.5795 76.3693 19.0341 76.3693C19.4943 76.3693 19.8935 76.4503 20.2315 76.6122C20.5724 76.7713 20.8352 76.9886 21.0199 77.2642C21.2074 77.5369 21.3011 77.8466 21.3011 78.1932C21.3011 78.5625 21.1974 78.8608 20.9901 79.0881C20.7827 79.3153 20.5227 79.4773 20.2102 79.5739V79.642C20.4574 79.6591 20.6719 79.7386 20.8537 79.8807C21.0384 80.0199 21.1818 80.2031 21.2841 80.4304C21.3864 80.6548 21.4375 80.9034 21.4375 81.1761C21.4375 81.5739 21.331 81.9205 21.1179 82.2159C20.9048 82.5085 20.6122 82.7358 20.2401 82.8977C19.8679 83.0568 19.4432 83.1364 18.9659 83.1364C18.5028 83.1364 18.0881 83.0611 17.7216 82.9105C17.3551 82.7571 17.0639 82.5455 16.848 82.2756C16.6349 82.0028 16.5227 81.6875 16.5114 81.3295ZM24.7763 83.1534C24.3615 83.1534 23.9851 83.0753 23.647 82.919C23.3089 82.7599 23.0405 82.5312 22.8416 82.233C22.6428 81.9318 22.5433 81.5682 22.5433 81.142C22.5433 80.767 22.6172 80.4631 22.7649 80.2301C22.9126 79.9943 23.1101 79.8097 23.3572 79.6761C23.6044 79.5426 23.8771 79.4432 24.1754 79.3778C24.4766 79.3097 24.7791 79.2557 25.0831 79.2159C25.4808 79.1648 25.8033 79.1264 26.0504 79.1009C26.3004 79.0724 26.4822 79.0256 26.5959 78.9602C26.7124 78.8949 26.7706 78.7812 26.7706 78.6193V78.5852C26.7706 78.1648 26.6555 77.8381 26.4254 77.6051C26.1982 77.3722 25.853 77.2557 25.3899 77.2557C24.9098 77.2557 24.5334 77.3608 24.2607 77.571C23.9879 77.7812 23.7962 78.0057 23.6854 78.2443L22.7308 77.9034C22.9013 77.5057 23.1286 77.196 23.4126 76.9744C23.6996 76.75 24.0121 76.5937 24.3501 76.5057C24.6911 76.4148 25.0263 76.3693 25.3558 76.3693C25.5661 76.3693 25.8075 76.3949 26.0803 76.446C26.3558 76.4943 26.6214 76.5952 26.8771 76.7486C27.1357 76.902 27.3501 77.1335 27.5206 77.4432C27.6911 77.7528 27.7763 78.1676 27.7763 78.6875V83H26.7706V82.1136H26.7195C26.6513 82.2557 26.5376 82.4077 26.3786 82.5696C26.2195 82.7315 26.0078 82.8693 25.7436 82.983C25.4794 83.0966 25.157 83.1534 24.7763 83.1534ZM24.9297 82.25C25.3274 82.25 25.6626 82.1719 25.9354 82.0156C26.2109 81.8594 26.4183 81.6577 26.5575 81.4105C26.6996 81.1634 26.7706 80.9034 26.7706 80.6307V79.7102C26.728 79.7614 26.6342 79.8082 26.4893 79.8509C26.3473 79.8906 26.1825 79.9261 25.995 79.9574C25.8104 79.9858 25.63 80.0114 25.4538 80.0341C25.2805 80.054 25.1399 80.071 25.032 80.0852C24.7706 80.1193 24.5263 80.1747 24.299 80.2514C24.0746 80.3253 23.8928 80.4375 23.7536 80.5881C23.6172 80.7358 23.549 80.9375 23.549 81.1932C23.549 81.5426 23.6783 81.8068 23.9368 81.9858C24.1982 82.1619 24.5291 82.25 24.9297 82.25ZM32.9869 85.4545V76.4545H33.9585V77.4943H34.0778C34.1516 77.3807 34.2539 77.2358 34.3846 77.0597C34.5181 76.8807 34.7085 76.7216 34.9556 76.5824C35.2056 76.4403 35.5437 76.3693 35.9698 76.3693C36.521 76.3693 37.0067 76.5071 37.4272 76.7827C37.8477 77.0582 38.1758 77.4489 38.4116 77.9545C38.6474 78.4602 38.7653 79.0568 38.7653 79.7443C38.7653 80.4375 38.6474 81.0384 38.4116 81.5469C38.1758 82.0526 37.8491 82.4446 37.4315 82.723C37.0138 82.9986 36.5323 83.1364 35.9869 83.1364C35.5664 83.1364 35.2298 83.0668 34.9769 82.9276C34.7241 82.7855 34.5295 82.625 34.3931 82.446C34.2567 82.2642 34.1516 82.1136 34.0778 81.9943H33.9925V85.4545H32.9869ZM33.9755 79.7273C33.9755 80.2216 34.0479 80.6577 34.1928 81.0355C34.3377 81.4105 34.5494 81.7045 34.8278 81.9176C35.1062 82.1278 35.4471 82.233 35.8505 82.233C36.271 82.233 36.6218 82.1222 36.9031 81.9006C37.1871 81.6761 37.4002 81.375 37.5423 80.9972C37.6871 80.6165 37.7596 80.1932 37.7596 79.7273C37.7596 79.267 37.6886 78.8523 37.5465 78.483C37.4073 78.1108 37.1957 77.8168 36.9116 77.6009C36.6303 77.3821 36.2766 77.2727 35.8505 77.2727C35.4414 77.2727 35.0977 77.3764 34.8192 77.5838C34.5408 77.7884 34.3306 78.0753 34.1886 78.4446C34.0465 78.8111 33.9755 79.2386 33.9755 79.7273ZM43.0437 83.1364C42.413 83.1364 41.869 82.9972 41.4116 82.7188C40.957 82.4375 40.6062 82.0455 40.359 81.5426C40.1147 81.0369 39.9925 80.4489 39.9925 79.7784C39.9925 79.108 40.1147 78.517 40.359 78.0057C40.6062 77.4915 40.9499 77.0909 41.3903 76.804C41.8335 76.5142 42.3505 76.3693 42.9414 76.3693C43.2823 76.3693 43.619 76.4261 43.9513 76.5398C44.2837 76.6534 44.5863 76.8381 44.859 77.0938C45.1317 77.3466 45.3491 77.6818 45.511 78.0994C45.6729 78.517 45.7539 79.0312 45.7539 79.642V80.0682H40.7085V79.1989H44.7312C44.7312 78.8295 44.6573 78.5 44.5096 78.2102C44.3647 77.9205 44.1573 77.6918 43.8874 77.5241C43.6204 77.3565 43.305 77.2727 42.9414 77.2727C42.5408 77.2727 42.1942 77.3722 41.9016 77.571C41.6119 77.767 41.3888 78.0227 41.2326 78.3381C41.0763 78.6534 40.9982 78.9915 40.9982 79.3523V79.9318C40.9982 80.4261 41.0835 80.8452 41.2539 81.1889C41.4272 81.5298 41.6673 81.7898 41.9741 81.9688C42.2809 82.1449 42.6374 82.233 43.0437 82.233C43.3079 82.233 43.5465 82.196 43.7596 82.1222C43.9755 82.0455 44.1616 81.9318 44.3178 81.7812C44.4741 81.6278 44.5948 81.4375 44.68 81.2102L45.6516 81.483C45.5494 81.8125 45.3775 82.1023 45.136 82.3523C44.8945 82.5994 44.5962 82.7926 44.2411 82.9318C43.886 83.0682 43.4869 83.1364 43.0437 83.1364ZM47.2837 83V76.4545H48.2894V79.3011H48.9542L51.3065 76.4545H52.6019L49.9599 79.608L52.636 83H51.3406L49.1928 80.2386H48.2894V83H47.2837ZM56.1186 83.1364C55.5277 83.1364 55.0092 82.9957 54.5632 82.7145C54.12 82.4332 53.7734 82.0398 53.5234 81.5341C53.2763 81.0284 53.1527 80.4375 53.1527 79.7614C53.1527 79.0795 53.2763 78.4844 53.5234 77.9759C53.7734 77.4673 54.12 77.0724 54.5632 76.7912C55.0092 76.5099 55.5277 76.3693 56.1186 76.3693C56.7095 76.3693 57.2266 76.5099 57.6697 76.7912C58.1158 77.0724 58.4624 77.4673 58.7095 77.9759C58.9595 78.4844 59.0845 79.0795 59.0845 79.7614C59.0845 80.4375 58.9595 81.0284 58.7095 81.5341C58.4624 82.0398 58.1158 82.4332 57.6697 82.7145C57.2266 82.9957 56.7095 83.1364 56.1186 83.1364ZM56.1186 82.233C56.5675 82.233 56.9368 82.1179 57.2266 81.8878C57.5163 81.6577 57.7308 81.3551 57.87 80.9801C58.0092 80.6051 58.0788 80.1989 58.0788 79.7614C58.0788 79.3239 58.0092 78.9162 57.87 78.5384C57.7308 78.1605 57.5163 77.8551 57.2266 77.6222C56.9368 77.3892 56.5675 77.2727 56.1186 77.2727C55.6697 77.2727 55.3004 77.3892 55.0107 77.6222C54.7209 77.8551 54.5064 78.1605 54.3672 78.5384C54.228 78.9162 54.1584 79.3239 54.1584 79.7614C54.1584 80.1989 54.228 80.6051 54.3672 80.9801C54.5064 81.3551 54.7209 81.6577 55.0107 81.8878C55.3004 82.1179 55.6697 82.233 56.1186 82.233ZM64.1992 81.6364L66.4833 76.4545H67.4379L64.6083 83H63.7901L61.0117 76.4545H61.9492L64.1992 81.6364ZM61.6254 76.4545V83H60.6197V76.4545H61.6254ZM66.7731 83V76.4545H67.7788V83H66.7731ZM72.364 83.1364C71.7333 83.1364 71.1893 82.9972 70.7319 82.7188C70.2773 82.4375 69.9265 82.0455 69.6793 81.5426C69.435 81.0369 69.3129 80.4489 69.3129 79.7784C69.3129 79.108 69.435 78.517 69.6793 78.0057C69.9265 77.4915 70.2702 77.0909 70.7106 76.804C71.1538 76.5142 71.6708 76.3693 72.2617 76.3693C72.6026 76.3693 72.9393 76.4261 73.2717 76.5398C73.604 76.6534 73.9066 76.8381 74.1793 77.0938C74.4521 77.3466 74.6694 77.6818 74.8313 78.0994C74.9933 78.517 75.0742 79.0312 75.0742 79.642V80.0682H70.0288V79.1989H74.0515C74.0515 78.8295 73.9776 78.5 73.8299 78.2102C73.685 77.9205 73.4776 77.6918 73.2077 77.5241C72.9407 77.3565 72.6254 77.2727 72.2617 77.2727C71.8612 77.2727 71.5146 77.3722 71.2219 77.571C70.9322 77.767 70.7092 78.0227 70.5529 78.3381C70.3967 78.6534 70.3185 78.9915 70.3185 79.3523V79.9318C70.3185 80.4261 70.4038 80.8452 70.5742 81.1889C70.7475 81.5298 70.9876 81.7898 71.2944 81.9688C71.6012 82.1449 71.9577 82.233 72.364 82.233C72.6282 82.233 72.8668 82.196 73.0799 82.1222C73.2958 82.0455 73.4819 81.9318 73.6381 81.7812C73.7944 81.6278 73.9151 81.4375 74.0004 81.2102L74.9719 81.483C74.8697 81.8125 74.6978 82.1023 74.4563 82.3523C74.2148 82.5994 73.9165 82.7926 73.5614 82.9318C73.2063 83.0682 72.8072 83.1364 72.364 83.1364ZM80.9847 79.267V80.2045H77.3711V79.267H80.9847ZM77.6097 76.4545V83H76.604V76.4545H77.6097ZM81.7518 76.4545V83H80.7461V76.4545H81.7518ZM82.8896 84.875V82.0625H83.435C83.5685 81.9233 83.6836 81.7727 83.7802 81.6108C83.8768 81.4489 83.9606 81.2571 84.0316 81.0355C84.1055 80.8111 84.168 80.5384 84.2191 80.2173C84.2702 79.8935 84.3157 79.5028 84.3555 79.0455L84.5771 76.4545H88.7362V82.0625H89.7418V84.875H88.7362V83H83.8952V84.875H82.8896ZM84.5771 82.0625H87.7305V77.392H85.5146L85.3441 79.0455C85.2731 79.7301 85.185 80.3281 85.0799 80.8395C84.9748 81.3509 84.8072 81.7585 84.5771 82.0625ZM93.0028 83.1534C92.5881 83.1534 92.2116 83.0753 91.8736 82.919C91.5355 82.7599 91.267 82.5312 91.0682 82.233C90.8693 81.9318 90.7699 81.5682 90.7699 81.142C90.7699 80.767 90.8438 80.4631 90.9915 80.2301C91.1392 79.9943 91.3366 79.8097 91.5838 79.6761C91.831 79.5426 92.1037 79.4432 92.402 79.3778C92.7031 79.3097 93.0057 79.2557 93.3097 79.2159C93.7074 79.1648 94.0298 79.1264 94.277 79.1009C94.527 79.0724 94.7088 79.0256 94.8224 78.9602C94.9389 78.8949 94.9972 78.7812 94.9972 78.6193V78.5852C94.9972 78.1648 94.8821 77.8381 94.652 77.6051C94.4247 77.3722 94.0795 77.2557 93.6165 77.2557C93.1364 77.2557 92.7599 77.3608 92.4872 77.571C92.2145 77.7812 92.0227 78.0057 91.9119 78.2443L90.9574 77.9034C91.1278 77.5057 91.3551 77.196 91.6392 76.9744C91.9261 76.75 92.2386 76.5937 92.5767 76.5057C92.9176 76.4148 93.2528 76.3693 93.5824 76.3693C93.7926 76.3693 94.0341 76.3949 94.3068 76.446C94.5824 76.4943 94.848 76.5952 95.1037 76.7486C95.3622 76.902 95.5767 77.1335 95.7472 77.4432C95.9176 77.7528 96.0028 78.1676 96.0028 78.6875V83H94.9972V82.1136H94.946C94.8778 82.2557 94.7642 82.4077 94.6051 82.5696C94.446 82.7315 94.2344 82.8693 93.9702 82.983C93.706 83.0966 93.3835 83.1534 93.0028 83.1534ZM93.1562 82.25C93.554 82.25 93.8892 82.1719 94.1619 82.0156C94.4375 81.8594 94.6449 81.6577 94.7841 81.4105C94.9261 81.1634 94.9972 80.9034 94.9972 80.6307V79.7102C94.9545 79.7614 94.8608 79.8082 94.7159 79.8509C94.5739 79.8906 94.4091 79.9261 94.2216 79.9574C94.0369 79.9858 93.8565 80.0114 93.6804 80.0341C93.5071 80.054 93.3665 80.071 93.2585 80.0852C92.9972 80.1193 92.7528 80.1747 92.5256 80.2514C92.3011 80.3253 92.1193 80.4375 91.9801 80.5881C91.8438 80.7358 91.7756 80.9375 91.7756 81.1932C91.7756 81.5426 91.9048 81.8068 92.1634 81.9858C92.4247 82.1619 92.7557 82.25 93.1562 82.25ZM102.986 76.4545V82.0625H103.907V85.1136H102.901V83H97.8384V76.4545H98.8441V82.0625H101.98V76.4545H102.986ZM106.461 81.517L109.615 76.4545H110.774V83H109.768V77.9375L106.632 83H105.456V76.4545H106.461V81.517ZM113.621 81.517L116.775 76.4545H117.934V83H116.928V77.9375L113.792 83H112.616V76.4545H113.621V81.517ZM127.532 79.267V80.2045H123.918V79.267H127.532ZM124.157 76.4545V83H123.151V76.4545H124.157ZM128.299 76.4545V83H127.293V76.4545H128.299ZM132.061 83.1534C131.647 83.1534 131.27 83.0753 130.932 82.919C130.594 82.7599 130.326 82.5312 130.127 82.233C129.928 81.9318 129.828 81.5682 129.828 81.142C129.828 80.767 129.902 80.4631 130.05 80.2301C130.198 79.9943 130.395 79.8097 130.642 79.6761C130.89 79.5426 131.162 79.4432 131.461 79.3778C131.762 79.3097 132.064 79.2557 132.368 79.2159C132.766 79.1648 133.088 79.1264 133.336 79.1009C133.586 79.0724 133.767 79.0256 133.881 78.9602C133.998 78.8949 134.056 78.7812 134.056 78.6193V78.5852C134.056 78.1648 133.941 77.8381 133.711 77.6051C133.483 77.3722 133.138 77.2557 132.675 77.2557C132.195 77.2557 131.819 77.3608 131.546 77.571C131.273 77.7812 131.081 78.0057 130.971 78.2443L130.016 77.9034C130.186 77.5057 130.414 77.196 130.698 76.9744C130.985 76.75 131.297 76.5937 131.635 76.5057C131.976 76.4148 132.311 76.3693 132.641 76.3693C132.851 76.3693 133.093 76.3949 133.365 76.446C133.641 76.4943 133.907 76.5952 134.162 76.7486C134.421 76.902 134.635 77.1335 134.806 77.4432C134.976 77.7528 135.061 78.1676 135.061 78.6875V83H134.056V82.1136H134.005C133.936 82.2557 133.823 82.4077 133.664 82.5696C133.505 82.7315 133.293 82.8693 133.029 82.983C132.765 83.0966 132.442 83.1534 132.061 83.1534ZM132.215 82.25C132.613 82.25 132.948 82.1719 133.221 82.0156C133.496 81.8594 133.703 81.6577 133.843 81.4105C133.985 81.1634 134.056 80.9034 134.056 80.6307V79.7102C134.013 79.7614 133.919 79.8082 133.775 79.8509C133.632 79.8906 133.468 79.9261 133.28 79.9574C133.096 79.9858 132.915 80.0114 132.739 80.0341C132.566 80.054 132.425 80.071 132.317 80.0852C132.056 80.1193 131.811 80.1747 131.584 80.2514C131.36 80.3253 131.178 80.4375 131.039 80.5881C130.902 80.7358 130.834 80.9375 130.834 81.1932C130.834 81.5426 130.963 81.8068 131.222 81.9858C131.483 82.1619 131.814 82.25 132.215 82.25ZM136.897 76.4545H137.903V82.0625H140.374V76.4545H141.38V82.0625H143.852V76.4545H144.857V83H136.897V76.4545ZM149.438 83.1364C148.808 83.1364 148.263 82.9972 147.806 82.7188C147.352 82.4375 147.001 82.0455 146.754 81.5426C146.509 81.0369 146.387 80.4489 146.387 79.7784C146.387 79.108 146.509 78.517 146.754 78.0057C147.001 77.4915 147.344 77.0909 147.785 76.804C148.228 76.5142 148.745 76.3693 149.336 76.3693C149.677 76.3693 150.013 76.4261 150.346 76.5398C150.678 76.6534 150.981 76.8381 151.254 77.0938C151.526 77.3466 151.744 77.6818 151.906 78.0994C152.067 78.517 152.148 79.0312 152.148 79.642V80.0682H147.103V79.1989H151.126C151.126 78.8295 151.052 78.5 150.904 78.2102C150.759 77.9205 150.552 77.6918 150.282 77.5241C150.015 77.3565 149.7 77.2727 149.336 77.2727C148.935 77.2727 148.589 77.3722 148.296 77.571C148.006 77.767 147.783 78.0227 147.627 78.3381C147.471 78.6534 147.393 78.9915 147.393 79.3523V79.9318C147.393 80.4261 147.478 80.8452 147.648 81.1889C147.822 81.5298 148.062 81.7898 148.369 81.9688C148.675 82.1449 149.032 82.233 149.438 82.233C149.702 82.233 149.941 82.196 150.154 82.1222C150.37 82.0455 150.556 81.9318 150.712 81.7812C150.869 81.6278 150.989 81.4375 151.075 81.2102L152.046 81.483C151.944 81.8125 151.772 82.1023 151.531 82.3523C151.289 82.5994 150.991 82.7926 150.636 82.9318C150.281 83.0682 149.881 83.1364 149.438 83.1364ZM157.718 76.4545V77.392H154.684V83H153.678V76.4545H157.718ZM161.505 83.1364C160.914 83.1364 160.396 82.9957 159.95 82.7145C159.507 82.4332 159.16 82.0398 158.91 81.5341C158.663 81.0284 158.539 80.4375 158.539 79.7614C158.539 79.0795 158.663 78.4844 158.91 77.9759C159.16 77.4673 159.507 77.0724 159.95 76.7912C160.396 76.5099 160.914 76.3693 161.505 76.3693C162.096 76.3693 162.613 76.5099 163.056 76.7912C163.502 77.0724 163.849 77.4673 164.096 77.9759C164.346 78.4844 164.471 79.0795 164.471 79.7614C164.471 80.4375 164.346 81.0284 164.096 81.5341C163.849 82.0398 163.502 82.4332 163.056 82.7145C162.613 82.9957 162.096 83.1364 161.505 83.1364ZM161.505 82.233C161.954 82.233 162.324 82.1179 162.613 81.8878C162.903 81.6577 163.118 81.3551 163.257 80.9801C163.396 80.6051 163.466 80.1989 163.466 79.7614C163.466 79.3239 163.396 78.9162 163.257 78.5384C163.118 78.1605 162.903 77.8551 162.613 77.6222C162.324 77.3892 161.954 77.2727 161.505 77.2727C161.056 77.2727 160.687 77.3892 160.397 77.6222C160.108 77.8551 159.893 78.1605 159.754 78.5384C159.615 78.9162 159.545 79.3239 159.545 79.7614C159.545 80.1989 159.615 80.6051 159.754 80.9801C159.893 81.3551 160.108 81.6577 160.397 81.8878C160.687 82.1179 161.056 82.233 161.505 82.233ZM172.04 83.1364C171.427 83.1364 170.898 82.9915 170.455 82.7017C170.012 82.4119 169.671 82.0128 169.433 81.5043C169.194 80.9957 169.075 80.4148 169.075 79.7614C169.075 79.0966 169.197 78.5099 169.441 78.0014C169.688 77.4901 170.032 77.0909 170.472 76.804C170.915 76.5142 171.433 76.3693 172.023 76.3693C172.484 76.3693 172.898 76.4545 173.268 76.625C173.637 76.7955 173.94 77.0341 174.175 77.3409C174.411 77.6477 174.558 78.0057 174.614 78.4148H173.609C173.532 78.1165 173.362 77.8523 173.097 77.6222C172.836 77.3892 172.484 77.2727 172.04 77.2727C171.648 77.2727 171.305 77.375 171.009 77.5795C170.717 77.7812 170.488 78.0668 170.323 78.4361C170.161 78.8026 170.08 79.233 170.08 79.7273C170.08 80.233 170.16 80.6733 170.319 81.0483C170.481 81.4233 170.708 81.7145 171.001 81.9219C171.296 82.1293 171.643 82.233 172.04 82.233C172.302 82.233 172.539 82.1875 172.752 82.0966C172.965 82.0057 173.146 81.875 173.293 81.7045C173.441 81.5341 173.546 81.3295 173.609 81.0909H174.614C174.558 81.4773 174.417 81.8253 174.192 82.1349C173.971 82.4418 173.677 82.6861 173.31 82.8679C172.947 83.0469 172.523 83.1364 172.04 83.1364ZM178.829 83.1364C178.198 83.1364 177.654 82.9972 177.197 82.7188C176.742 82.4375 176.391 82.0455 176.144 81.5426C175.9 81.0369 175.778 80.4489 175.778 79.7784C175.778 79.108 175.9 78.517 176.144 78.0057C176.391 77.4915 176.735 77.0909 177.175 76.804C177.619 76.5142 178.136 76.3693 178.727 76.3693C179.067 76.3693 179.404 76.4261 179.737 76.5398C180.069 76.6534 180.371 76.8381 180.644 77.0938C180.917 77.3466 181.134 77.6818 181.296 78.0994C181.458 78.517 181.539 79.0312 181.539 79.642V80.0682H176.494V79.1989H180.516C180.516 78.8295 180.442 78.5 180.295 78.2102C180.15 77.9205 179.942 77.6918 179.673 77.5241C179.406 77.3565 179.09 77.2727 178.727 77.2727C178.326 77.2727 177.979 77.3722 177.687 77.571C177.397 77.767 177.174 78.0227 177.018 78.3381C176.862 78.6534 176.783 78.9915 176.783 79.3523V79.9318C176.783 80.4261 176.869 80.8452 177.039 81.1889C177.212 81.5298 177.452 81.7898 177.759 81.9688C178.066 82.1449 178.423 82.233 178.829 82.233C179.093 82.233 179.332 82.196 179.545 82.1222C179.761 82.0455 179.947 81.9318 180.103 81.7812C180.259 81.6278 180.38 81.4375 180.465 81.2102L181.437 81.483C181.335 81.8125 181.163 82.1023 180.921 82.3523C180.68 82.5994 180.381 82.7926 180.026 82.9318C179.671 83.0682 179.272 83.1364 178.829 83.1364ZM183.069 85.4545V76.4545H184.04V77.4943H184.16C184.234 77.3807 184.336 77.2358 184.467 77.0597C184.6 76.8807 184.79 76.7216 185.038 76.5824C185.288 76.4403 185.626 76.3693 186.052 76.3693C186.603 76.3693 187.089 76.5071 187.509 76.7827C187.93 77.0582 188.258 77.4489 188.494 77.9545C188.729 78.4602 188.847 79.0568 188.847 79.7443C188.847 80.4375 188.729 81.0384 188.494 81.5469C188.258 82.0526 187.931 82.4446 187.513 82.723C187.096 82.9986 186.614 83.1364 186.069 83.1364C185.648 83.1364 185.312 83.0668 185.059 82.9276C184.806 82.7855 184.612 82.625 184.475 82.446C184.339 82.2642 184.234 82.1136 184.16 81.9943H184.075V85.4545H183.069ZM184.058 79.7273C184.058 80.2216 184.13 80.6577 184.275 81.0355C184.42 81.4105 184.631 81.7045 184.91 81.9176C185.188 82.1278 185.529 82.233 185.933 82.233C186.353 82.233 186.704 82.1222 186.985 81.9006C187.269 81.6761 187.482 81.375 187.624 80.9972C187.769 80.6165 187.842 80.1932 187.842 79.7273C187.842 79.267 187.771 78.8523 187.629 78.483C187.489 78.1108 187.278 77.8168 186.994 77.6009C186.712 77.3821 186.359 77.2727 185.933 77.2727C185.523 77.2727 185.18 77.3764 184.901 77.5838C184.623 77.7884 184.413 78.0753 184.271 78.4446C184.129 78.8111 184.058 79.2386 184.058 79.7273ZM190.381 83V76.4545H193.058C193.762 76.4545 194.322 76.6136 194.737 76.9318C195.151 77.25 195.359 77.6705 195.359 78.1932C195.359 78.5909 195.241 78.8991 195.005 79.1179C194.769 79.3338 194.467 79.4801 194.097 79.5568C194.339 79.5909 194.573 79.6761 194.8 79.8125C195.031 79.9489 195.221 80.1364 195.371 80.375C195.522 80.6108 195.597 80.9006 195.597 81.2443C195.597 81.5795 195.512 81.8793 195.342 82.1435C195.171 82.4077 194.927 82.6165 194.609 82.7699C194.29 82.9233 193.91 83 193.467 83H190.381ZM191.336 82.0795H193.467C193.813 82.0795 194.085 81.9972 194.281 81.8324C194.477 81.6676 194.575 81.4432 194.575 81.1591C194.575 80.821 194.477 80.5554 194.281 80.3622C194.085 80.1662 193.813 80.0682 193.467 80.0682H191.336V82.0795ZM191.336 79.1989H193.058C193.327 79.1989 193.559 79.1619 193.752 79.0881C193.945 79.0114 194.093 78.9034 194.195 78.7642C194.3 78.6222 194.353 78.4545 194.353 78.2614C194.353 77.9858 194.238 77.7699 194.008 77.6136C193.778 77.4545 193.461 77.375 193.058 77.375H191.336V79.1989ZM198.125 81.517L201.279 76.4545H202.438V83H201.432V77.9375L198.296 83H197.12V76.4545H198.125V81.517ZM206.939 83.1364C206.325 83.1364 205.797 82.9915 205.354 82.7017C204.911 82.4119 204.57 82.0128 204.331 81.5043C204.092 80.9957 203.973 80.4148 203.973 79.7614C203.973 79.0966 204.095 78.5099 204.339 78.0014C204.587 77.4901 204.93 77.0909 205.371 76.804C205.814 76.5142 206.331 76.3693 206.922 76.3693C207.382 76.3693 207.797 76.4545 208.166 76.625C208.536 76.7955 208.838 77.0341 209.074 77.3409C209.31 77.6477 209.456 78.0057 209.513 78.4148H208.507C208.43 78.1165 208.26 77.8523 207.996 77.6222C207.734 77.3892 207.382 77.2727 206.939 77.2727C206.547 77.2727 206.203 77.375 205.908 77.5795C205.615 77.7812 205.386 78.0668 205.222 78.4361C205.06 78.8026 204.979 79.233 204.979 79.7273C204.979 80.233 205.058 80.6733 205.217 81.0483C205.379 81.4233 205.607 81.7145 205.899 81.9219C206.195 82.1293 206.541 82.233 206.939 82.233C207.2 82.233 207.438 82.1875 207.651 82.0966C207.864 82.0057 208.044 81.875 208.192 81.7045C208.339 81.5341 208.445 81.3295 208.507 81.0909H209.513C209.456 81.4773 209.315 81.8253 209.091 82.1349C208.869 82.4418 208.575 82.6861 208.209 82.8679C207.845 83.0469 207.422 83.1364 206.939 83.1364ZM212.909 83.1534C212.494 83.1534 212.118 83.0753 211.78 82.919C211.442 82.7599 211.173 82.5312 210.974 82.233C210.776 81.9318 210.676 81.5682 210.676 81.142C210.676 80.767 210.75 80.4631 210.898 80.2301C211.045 79.9943 211.243 79.8097 211.49 79.6761C211.737 79.5426 212.01 79.4432 212.308 79.3778C212.609 79.3097 212.912 79.2557 213.216 79.2159C213.614 79.1648 213.936 79.1264 214.183 79.1009C214.433 79.0724 214.615 79.0256 214.729 78.9602C214.845 78.8949 214.903 78.7812 214.903 78.6193V78.5852C214.903 78.1648 214.788 77.8381 214.558 77.6051C214.331 77.3722 213.986 77.2557 213.523 77.2557C213.043 77.2557 212.666 77.3608 212.393 77.571C212.121 77.7812 211.929 78.0057 211.818 78.2443L210.864 77.9034C211.034 77.5057 211.261 77.196 211.545 76.9744C211.832 76.75 212.145 76.5937 212.483 76.5057C212.824 76.4148 213.159 76.3693 213.489 76.3693C213.699 76.3693 213.94 76.3949 214.213 76.446C214.489 76.4943 214.754 76.5952 215.01 76.7486C215.268 76.902 215.483 77.1335 215.653 77.4432C215.824 77.7528 215.909 78.1676 215.909 78.6875V83H214.903V82.1136H214.852C214.784 82.2557 214.67 82.4077 214.511 82.5696C214.352 82.7315 214.141 82.8693 213.876 82.983C213.612 83.0966 213.29 83.1534 212.909 83.1534ZM213.062 82.25C213.46 82.25 213.795 82.1719 214.068 82.0156C214.344 81.8594 214.551 81.6577 214.69 81.4105C214.832 81.1634 214.903 80.9034 214.903 80.6307V79.7102C214.861 79.7614 214.767 79.8082 214.622 79.8509C214.48 79.8906 214.315 79.9261 214.128 79.9574C213.943 79.9858 213.763 80.0114 213.587 80.0341C213.413 80.054 213.273 80.071 213.165 80.0852C212.903 80.1193 212.659 80.1747 212.432 80.2514C212.207 80.3253 212.026 80.4375 211.886 80.5881C211.75 80.7358 211.682 80.9375 211.682 81.1932C211.682 81.5426 211.811 81.8068 212.07 81.9858C212.331 82.1619 212.662 82.25 213.062 82.25Z" fill="#FFF4D5" fill-opacity="0.75"/>
</g>
<rect x="0.15" y="0.15" width="324.7" height="101.7" rx="7.85" stroke="#FFF4D5" stroke-width="0.3"/>
</g>
<defs>
<filter id="filter0_i_4034_99238" x="0" y="0" width="329" height="106" filterUnits="userSpaceOnUse" color-interpolation-filters="sRGB">
<feFlood flood-opacity="0" result="BackgroundImageFix"/>
<feBlend mode="normal" in="SourceGraphic" in2="BackgroundImageFix" result="shape"/>
<feColorMatrix in="SourceAlpha" type="matrix" values="0 0 0 0 0 0 0 0 0 0 0 0 0 0 0 0 0 0 127 0" result="hardAlpha"/>
<feOffset dx="4" dy="4"/>
<feGaussianBlur stdDeviation="6.05"/>
<feComposite in2="hardAlpha" operator="arithmetic" k2="-1" k3="1"/>
<feColorMatrix type="matrix" values="0 0 0 0 0 0 0 0 0 0 0 0 0 0 0 0 0 0 1 0"/>
<feBlend mode="normal" in2="shape" result="effect1_innerShadow_4034_99238"/>
</filter>
<radialGradient id="paint0_radial_4034_99238" cx="0" cy="0" r="1" gradientUnits="userSpaceOnUse" gradientTransform="translate(3.3413e-06 51) scale(325 120.768)">
<stop stop-color="#131339"/>
<stop offset="1" stop-color="#040306"/>
</radialGradient>
<radialGradient id="paint1_radial_4034_99238" cx="0" cy="0" r="1" gradientUnits="userSpaceOnUse" gradientTransform="translate(339.52 32.697) rotate(68.2601) scale(51.8707 51.8707)">
<stop stop-color="#BEA8F3"/>
<stop offset="1" stop-color="#503A86"/>
</radialGradient>
<clipPath id="clip0_4034_99238">
<rect width="325" height="102" rx="8" fill="white"/>
</clipPath>
</defs>
</svg>
