<svg width="24" height="24" viewBox="0 0 24 24" fill="none" xmlns="http://www.w3.org/2000/svg">
<path d="M12 2.25C17.3848 2.25 21.75 6.61522 21.75 12C21.75 17.3848 17.3848 21.75 12 21.75C6.61522 21.75 2.25 17.3848 2.25 12C2.25 6.61522 6.61522 2.25 12 2.25ZM12 3.75C7.44365 3.75 3.75 7.44365 3.75 12C3.75 16.5563 7.44365 20.25 12 20.25C16.5563 20.25 20.25 16.5563 20.25 12C20.25 7.44365 16.5563 3.75 12 3.75Z" fill="#FFF4D5"/>
<path d="M12 17.25C9.94722 17.25 8.25 16.1185 8.25 14.25C8.25 13.8358 8.58579 13.5 9 13.5C9.38463 13.5 9.70163 13.7895 9.74495 14.1625L9.75 14.25C9.75 15.1315 10.6778 15.75 12 15.75C13.3222 15.75 14.25 15.1315 14.25 14.25C14.25 14.0308 14.0418 13.7668 13.5459 13.4718L13.332 13.3522C13.0641 13.2108 12.7313 13.0631 12.3255 12.9104L11.9596 12.7784L11.7628 12.7115C9.39895 11.9236 8.25 11.0035 8.25 9.75C8.25 7.88148 9.94722 6.75 12 6.75C14.0528 6.75 15.75 7.88148 15.75 9.75C15.75 10.1642 15.4142 10.5 15 10.5C14.6154 10.5 14.2984 10.2105 14.255 9.83747L14.25 9.75C14.25 8.86852 13.3222 8.25 12 8.25C10.6778 8.25 9.75 8.86852 9.75 9.75C9.75 10.0691 10.1957 10.4861 11.3315 10.9545L11.675 11.0897V11.0897L12.0406 11.2217L12.2372 11.2885C14.6032 12.0772 15.75 12.9946 15.75 14.25C15.75 16.1185 14.0528 17.25 12 17.25Z" fill="#FFF4D5"/>
<path d="M12 6C12.3846 6 12.7016 6.28953 12.745 6.66253L12.75 6.75L12.75 17.25C12.75 17.6642 12.4142 18 12 18C11.6154 18 11.2984 17.7105 11.255 17.3375L11.25 17.25L11.25 6.75C11.25 6.33579 11.5858 6 12 6Z" fill="#FFF4D5"/>
</svg>
