<svg width="18" height="20" viewBox="0 0 18 20" fill="none" xmlns="http://www.w3.org/2000/svg">
<path d="M9 0C12.2512 0 14.8983 2.58624 14.9971 5.81348L15 6H15.75C16.9926 6 18 7.00736 18 8.25L18 17.25C18 18.4926 16.9926 19.5 15.75 19.5L2.25 19.5C1.00736 19.5 0 18.4926 0 17.25L0 8.25C0 7.00736 1.00736 6 2.25 6L3 6C3 2.68629 5.68629 0 9 0ZM2.25 7.5C1.83579 7.5 1.5 7.83579 1.5 8.25L1.5 17.25C1.5 17.6642 1.83579 18 2.25 18L15.75 18C16.1642 18 16.5 17.6642 16.5 17.25L16.5 8.25C16.5 7.83579 16.1642 7.5 15.75 7.5L2.25 7.5ZM9 9.75C9.38449 9.75 9.70161 10.0393 9.74512 10.4121L9.75 10.5V15C9.75 15.4142 9.41421 15.75 9 15.75C8.61551 15.75 8.29839 15.4607 8.25488 15.0879L8.25 15V10.5C8.25 10.0858 8.58579 9.75 9 9.75ZM9 1.5C6.57128 1.5 4.59177 3.42405 4.50293 5.83105L4.5 6L13.5 6C13.5 3.51472 11.4853 1.5 9 1.5Z" fill="#FFF4D5"/>
</svg>
