<svg width="126" height="126" viewBox="0 0 126 126" fill="none" xmlns="http://www.w3.org/2000/svg">
<g clip-path="url(#clip0_4034_99310)">
<path d="M10.5 12.6V29.4C10.5 30.5597 11.4403 31.5 12.6 31.5H29.4C30.5597 31.5 31.5 30.5597 31.5 29.4V12.6C31.5 11.4403 30.5597 10.5 29.4 10.5H12.6C11.4403 10.5 10.5 11.4403 10.5 12.6ZM14.7 14.7H27.3V27.3H14.7V14.7Z" fill="#FFF4D5"/>
<path d="M96.6 31.5H113.4C114.56 31.5 115.5 30.5597 115.5 29.4V12.6C115.5 11.4403 114.56 10.5 113.4 10.5H96.6C95.4403 10.5 94.5 11.4403 94.5 12.6V29.4C94.5 30.5597 95.4403 31.5 96.6 31.5ZM98.7 14.7H111.3V27.3H98.7V14.7Z" fill="#FFF4D5"/>
<path d="M29.4 94.5H12.6C11.4403 94.5 10.5 95.4403 10.5 96.6V113.4C10.5 114.56 11.4403 115.5 12.6 115.5H29.4C30.5597 115.5 31.5 114.56 31.5 113.4V96.6C31.5 95.4403 30.5597 94.5 29.4 94.5ZM27.3 111.3H14.7V98.7H27.3V111.3Z" fill="#FFF4D5"/>
<path d="M23.0984 18.8984H18.8984V23.0984H23.0984V18.8984Z" fill="#FFF4D5"/>
<path d="M4.2 4.2H21V0H2.1C0.940275 0 0 0.940275 0 2.1V21H4.2V4.2Z" fill="#FFF4D5"/>
<path d="M4.2 105H0V123.9C0 125.06 0.940275 126 2.1 126H21V121.8H4.2V105Z" fill="#FFF4D5"/>
<path d="M123.9 0H105V4.2H121.8V21H126V2.1C126 0.940275 125.06 0 123.9 0Z" fill="#FFF4D5"/>
<path d="M121.803 121.8H109.203V126H123.903C125.063 126 126.003 125.06 126.003 123.9V105H121.803V121.8Z" fill="#FFF4D5"/>
<path d="M107.098 18.8984H102.898V23.0984H107.098V18.8984Z" fill="#FFF4D5"/>
<path d="M23.0984 102.898H18.8984V107.098H23.0984V102.898Z" fill="#FFF4D5"/>
<path d="M39.9031 18.8984H35.7031V23.0984H39.9031V18.8984Z" fill="#FFF4D5"/>
<path d="M69.3016 18.8984H65.1016V23.0984H69.3016V18.8984Z" fill="#FFF4D5"/>
<path d="M73.5 18.8984V27.2984H81.9V23.0984H77.7V18.8984H73.5Z" fill="#FFF4D5"/>
<path d="M44.0984 18.9V23.1H48.2984V18.9V14.7H81.8984V18.9H86.0984V14.7V10.5H39.8984V14.7H44.0984V18.9Z" fill="#FFF4D5"/>
<path d="M39.9031 27.2969H35.7031V35.6969H39.9031V27.2969Z" fill="#FFF4D5"/>
<path d="M44.0984 35.7031H39.8984V39.9031H44.0984V35.7031Z" fill="#FFF4D5"/>
<path d="M44.1016 27.2984V31.4984H48.3016V35.6984H56.7016V27.2984H58.8016V23.0984H60.9016V18.8984H52.5016V23.0984H54.6016V27.2984H44.1016Z" fill="#FFF4D5"/>
<path d="M65.0984 31.5H60.8984V35.7H65.0984V31.5Z" fill="#FFF4D5"/>
<path d="M84 52.5016H88.2V48.3016H92.4V44.1016H84V52.5016Z" fill="#FFF4D5"/>
<path d="M69.3016 27.2969H65.1016V31.4969H69.3016V27.2969Z" fill="#FFF4D5"/>
<path d="M52.5016 98.6969V94.4969H48.3016V90.2969H44.1016V98.6969H52.5016Z" fill="#FFF4D5"/>
<path d="M90.3016 23.1016H86.1016V27.3016H90.3016V23.1016Z" fill="#FFF4D5"/>
<path d="M92.4 31.5H84V39.9H92.4V31.5Z" fill="#FFF4D5"/>
<path d="M10.5 86.1016H14.7V69.3016H18.9V65.1016H10.5V86.1016Z" fill="#FFF4D5"/>
<path d="M31.5 35.7031H10.5V39.9031H31.5V35.7031Z" fill="#FFF4D5"/>
<path d="M18.9 44.1016H10.5V56.7016H14.7V52.5016H18.9V44.1016Z" fill="#FFF4D5"/>
<path d="M52.5016 65.0984V60.8984H56.7016V52.4984H60.9016V48.2984H65.1016V44.0984H60.9016V39.8984H56.7016V44.0984V48.2984H52.5016V44.0984H44.1016V52.4984H48.3016V65.0984H52.5016Z" fill="#FFF4D5"/>
<path d="M35.7031 115.498H39.9031V111.298H46.2031V115.498H50.4031V111.298H52.5031V107.098H39.9031V102.898H35.7031V115.498Z" fill="#FFF4D5"/>
<path d="M79.7984 71.4016V67.2016H83.9984V63.0016H88.1984V54.6016H75.5984V63.0016H71.3984V67.2016H75.5984V71.4016H79.7984Z" fill="#FFF4D5"/>
<path d="M73.4969 46.1969H77.6969V41.9969H73.4969V37.7969H69.2969V50.3969H73.4969V46.1969Z" fill="#FFF4D5"/>
<path d="M31.5016 44.1016H23.1016V48.3016H31.5016V44.1016Z" fill="#FFF4D5"/>
<path d="M39.9031 44.1016H35.7031V48.3016H39.9031V44.1016Z" fill="#FFF4D5"/>
<path d="M27.3016 65.1016H23.1016V69.3016H27.3016V65.1016Z" fill="#FFF4D5"/>
<path d="M39.9031 69.2969H35.7031V73.4969H39.9031V69.2969Z" fill="#FFF4D5"/>
<path d="M44.0984 65.1016H39.8984V69.3016H44.0984V65.1016Z" fill="#FFF4D5"/>
<path d="M44.0984 98.7031H39.8984V102.903H44.0984V98.7031Z" fill="#FFF4D5"/>
<path d="M23.0984 56.7031H18.8984V60.9031H23.0984V56.7031Z" fill="#FFF4D5"/>
<path d="M31.5016 52.5H23.1016V56.7H31.5016V52.5Z" fill="#FFF4D5"/>
<path d="M35.7 56.7031H31.5V60.9031H35.7V56.7031Z" fill="#FFF4D5"/>
<path d="M69.3016 54.6016H65.1016V58.8016H69.3016V54.6016Z" fill="#FFF4D5"/>
<path d="M65.0984 58.7969H60.8984V62.9969H65.0984V58.7969Z" fill="#FFF4D5"/>
<path d="M71.4031 69.2969H67.2031V73.4969H71.4031V69.2969Z" fill="#FFF4D5"/>
<path d="M102.9 65.1016H94.5V69.3016H102.9V65.1016Z" fill="#FFF4D5"/>
<path d="M107.098 69.2969H102.898V73.4969H107.098V69.2969Z" fill="#FFF4D5"/>
<path d="M62.9969 69.2969H58.7969V73.4969H62.9969V69.2969Z" fill="#FFF4D5"/>
<path d="M56.7016 69.2969H48.3016V73.4969H44.1016V77.6969H52.5016V73.4969H56.7016V69.2969Z" fill="#FFF4D5"/>
<path d="M60.9031 111.302H56.7031V115.502H65.1031V111.302H69.3031V107.102H60.9031V111.302Z" fill="#FFF4D5"/>
<path d="M81.9031 107.102V111.302H77.7031V115.502H86.1031V111.302H90.3031V107.102H81.9031Z" fill="#FFF4D5"/>
<path d="M100.798 44.1031V39.9031H104.998V35.7031H96.5984V39.9031H92.3984V44.1031H100.798Z" fill="#FFF4D5"/>
<path d="M67.2 84H63V88.2H67.2V84Z" fill="#FFF4D5"/>
<path d="M67.2 92.3984H63V96.5984H67.2V92.3984Z" fill="#FFF4D5"/>
<path d="M60.9031 102.898H56.7031V107.098H60.9031V102.898Z" fill="#FFF4D5"/>
<path d="M58.8016 83.9969V79.7969H54.6016V83.9969V88.1969H58.8016V83.9969Z" fill="#FFF4D5"/>
<path d="M71.4031 96.6016H67.2031V100.802H71.4031V96.6016Z" fill="#FFF4D5"/>
<path d="M98.6969 111.302H90.2969V115.502H102.897V107.102H98.6969V111.302Z" fill="#FFF4D5"/>
<path d="M102.903 98.7031H98.7031V102.903H102.903V98.7031Z" fill="#FFF4D5"/>
<path d="M94.4969 98.7031H90.2969V102.903H94.4969V98.7031Z" fill="#FFF4D5"/>
<path d="M86.0984 98.7031H81.8984V102.903H86.0984V98.7031Z" fill="#FFF4D5"/>
<path d="M90.3016 94.5H86.1016V98.7H90.3016V94.5Z" fill="#FFF4D5"/>
<path d="M77.7 107.102H73.5V111.302H77.7V107.102Z" fill="#FFF4D5"/>
<path d="M39.9031 60.8984H35.7031V65.0984H39.9031V60.8984Z" fill="#FFF4D5"/>
<path d="M111.302 115.498H115.502V102.898H107.102V107.098H111.302V115.498Z" fill="#FFF4D5"/>
<path d="M111.302 94.5H107.102V98.7H111.302V94.5Z" fill="#FFF4D5"/>
<path d="M115.502 77.7031H111.302V86.1031H107.102V90.3031H115.502V77.7031Z" fill="#FFF4D5"/>
<path d="M115.497 69.2969H111.297V73.4969H115.497V69.2969Z" fill="#FFF4D5"/>
<path d="M115.5 35.7031H111.3V54.6031H102.9V50.4031H94.5V58.8031H111.3V65.1031H115.5V35.7031Z" fill="#FFF4D5"/>
<path d="M84.0031 92.4016V84.0016H79.8031V75.6016H67.2031V84.0016H71.4031V92.4016H84.0031Z" fill="#FFF4D5"/>
<path d="M35.6984 73.5H18.8984V90.3H27.2984V86.1H23.0984V81.9H31.4984V94.5H35.6984V90.3H44.0984V86.1H39.8984V81.9H44.0984V77.7H35.6984V73.5Z" fill="#FFF4D5"/>
<path d="M107.097 77.7H98.6969V73.5H90.2969V81.9H94.4969V94.5H98.6969V90.3H102.897V81.9H107.097V77.7Z" fill="#FFF4D5"/>
</g>
<defs>
<clipPath id="clip0_4034_99310">
<rect width="126" height="126" fill="white"/>
</clipPath>
</defs>
</svg>
