<svg width="40" height="40" viewBox="0 0 40 40" fill="none" xmlns="http://www.w3.org/2000/svg">
<rect x="1.74846e-06" y="40" width="40" height="40" rx="20" transform="rotate(-90 1.74846e-06 40)" fill="#825FDB"/>
<path d="M14.375 22.25C14.3529 22.5394 14.2183 22.8086 14 23L11 26L14 29C14.1624 29.0775 14.3039 29.1929 14.4124 29.3365C14.521 29.48 14.5936 29.6475 14.624 29.8249C14.6544 30.0023 14.6419 30.1844 14.5873 30.3559C14.5328 30.5274 14.438 30.6834 14.3107 30.8106C14.1834 30.9379 14.0275 31.0328 13.856 31.0873C13.6844 31.1418 13.5023 31.1544 13.325 31.1239C13.1476 31.0935 12.9801 31.021 12.8365 30.9124C12.693 30.8038 12.5776 30.6624 12.5 30.5L8.75003 26.75C8.53936 26.539 8.42102 26.2531 8.42102 25.955C8.42102 25.6568 8.53936 25.3709 8.75003 25.16L12.5 21.5C12.7063 21.3155 12.9733 21.2135 13.25 21.2135C13.5268 21.2135 13.7938 21.3155 14 21.5C14.2183 21.6913 14.3529 21.9606 14.375 22.25Z" fill="#FFF4D5"/>
<path d="M31.625 26C31.6211 26.2972 31.5013 26.5811 31.2912 26.7912C31.0811 27.0013 30.7972 27.1211 30.5 27.125L9.5 27.125C9.20163 27.125 8.91548 27.0065 8.70451 26.7955C8.49353 26.5845 8.375 26.2984 8.375 26C8.375 25.7016 8.49353 25.4155 8.70451 25.2045C8.91548 24.9935 9.20163 24.875 9.5 24.875L30.5 24.875C30.7972 24.8789 31.0811 24.9987 31.2912 25.2088C31.5013 25.4189 31.6211 25.7028 31.625 26Z" fill="#FFF4D5"/>
<path d="M31.625 14C31.6257 14.1478 31.5969 14.2942 31.5402 14.4308C31.4836 14.5673 31.4002 14.6911 31.295 14.795L27.5 18.5C27.4225 18.6624 27.3071 18.8038 27.1635 18.9124C27.02 19.021 26.8525 19.0935 26.6751 19.1239C26.4977 19.1544 26.3156 19.1418 26.1441 19.0873C25.9726 19.0328 25.8166 18.9379 25.6894 18.8106C25.5621 18.6834 25.4672 18.5274 25.4127 18.3559C25.3582 18.1844 25.3456 18.0023 25.3761 17.8249C25.4065 17.6475 25.4791 17.48 25.5876 17.3365C25.6962 17.1929 25.8376 17.0775 26 17L29 14L26 11C25.8376 10.9224 25.6962 10.807 25.5876 10.6635C25.4791 10.5199 25.4065 10.3524 25.3761 10.175C25.3456 9.99766 25.3582 9.81556 25.4127 9.64404C25.4672 9.47252 25.5621 9.31658 25.6894 9.18931C25.8166 9.06205 25.9726 8.96718 26.1441 8.91266C26.3156 8.85814 26.4977 8.84558 26.6751 8.87601C26.8525 8.90644 27.02 8.97899 27.1635 9.08757C27.3071 9.19614 27.4225 9.33757 27.5 9.49997L31.25 13.25C31.4683 13.4413 31.6029 13.7106 31.625 14Z" fill="#FFF4D5"/>
<path d="M31.625 14C31.6211 14.2972 31.5013 14.5811 31.2912 14.7912C31.0811 15.0013 30.7972 15.1211 30.5 15.125L9.5 15.125C9.20163 15.125 8.91548 15.0065 8.70451 14.7955C8.49353 14.5845 8.375 14.2984 8.375 14C8.375 13.7016 8.49353 13.4155 8.70451 13.2045C8.91548 12.9935 9.20163 12.875 9.5 12.875L30.5 12.875C30.7972 12.8789 31.0811 12.9987 31.2912 13.2088C31.5013 13.4189 31.6211 13.7028 31.625 14Z" fill="#FFF4D5"/>
</svg>
