<svg width="40" height="40" viewBox="0 0 40 40" fill="none" xmlns="http://www.w3.org/2000/svg">
<rect x="1.74846e-06" y="40" width="40" height="40" rx="20" transform="rotate(-90 1.74846e-06 40)" fill="#825FDB"/>
<path d="M20 20.3333C19.0111 20.3333 18.0444 20.04 17.2222 19.4906C16.3999 18.9412 15.759 18.1603 15.3806 17.2467C15.0022 16.333 14.9032 15.3277 15.0961 14.3578C15.289 13.3879 15.7652 12.497 16.4645 11.7977C17.1637 11.0985 18.0546 10.6223 19.0246 10.4293C19.9945 10.2364 20.9998 10.3354 21.9134 10.7139C22.8271 11.0923 23.6079 11.7332 24.1574 12.5554C24.7068 13.3777 25 14.3443 25 15.3333C25 16.6593 24.4732 17.9311 23.5355 18.8688C22.5979 19.8065 21.3261 20.3333 20 20.3333ZM20 12.3333C19.4067 12.3333 18.8266 12.5092 18.3333 12.8388C17.8399 13.1685 17.4554 13.637 17.2284 14.1852C17.0013 14.7334 16.9419 15.3366 17.0576 15.9185C17.1734 16.5005 17.4591 17.035 17.8787 17.4546C18.2982 17.8741 18.8328 18.1599 19.4147 18.2756C19.9967 18.3914 20.5999 18.332 21.1481 18.1049C21.6962 17.8778 22.1648 17.4933 22.4944 17C22.8241 16.5066 23 15.9266 23 15.3333C23 14.5376 22.6839 13.7745 22.1213 13.2119C21.5587 12.6493 20.7957 12.3333 20 12.3333V12.3333Z" fill="#FFF4D5"/>
<path d="M29.3333 29.6666C29.0692 29.6631 28.8168 29.5567 28.63 29.3699C28.4432 29.1831 28.3367 28.9307 28.3333 28.6666C28.3333 26.0666 26.92 24.3333 20 24.3333C13.08 24.3333 11.6666 26.0666 11.6666 28.6666C11.6666 28.9318 11.5613 29.1862 11.3737 29.3737C11.1862 29.5612 10.9318 29.6666 10.6666 29.6666C10.4014 29.6666 10.1471 29.5612 9.95952 29.3737C9.77198 29.1862 9.66663 28.9318 9.66663 28.6666C9.66663 22.3333 16.9066 22.3333 20 22.3333C23.0933 22.3333 30.3333 22.3333 30.3333 28.6666C30.3298 28.9307 30.2234 29.1831 30.0366 29.3699C29.8498 29.5567 29.5974 29.6631 29.3333 29.6666Z" fill="#FFF4D5"/>
</svg>
