<svg width="24" height="24" viewBox="0 0 24 24" fill="none" xmlns="http://www.w3.org/2000/svg">
<path d="M12 12C16.1198 12 19.5 14.9217 19.5 18.584C19.4992 22.8053 4.50084 22.8053 4.5 18.584C4.5 14.9217 7.8802 12 12 12ZM12 13.5C8.66396 13.5 6 15.8027 6 18.584C6.00048 19.4209 7.70399 19.9422 9.82715 20.1484L10.3242 20.1904C11.4145 20.2693 12.5855 20.2693 13.6758 20.1904L14.1729 20.1484C16.296 19.9422 17.9995 19.4209 18 18.584C18 15.8027 15.336 13.5 12 13.5ZM12 2.25C14.4853 2.25 16.5 4.26472 16.5 6.75C16.5 9.23528 14.4853 11.25 12 11.25C9.51472 11.25 7.5 9.23528 7.5 6.75C7.5 4.26472 9.51472 2.25 12 2.25ZM12 3.75C10.3431 3.75 9 5.09315 9 6.75C9 8.40685 10.3431 9.75 12 9.75C13.6569 9.75 15 8.40685 15 6.75C15 5.09315 13.6569 3.75 12 3.75Z" fill="#FFF4D5"/>
</svg>
