<svg width="20" height="20" viewBox="0 0 20 20" fill="none" xmlns="http://www.w3.org/2000/svg">
<path d="M16.25 14.375C16.5952 14.375 16.875 14.6548 16.875 15C16.875 15.3205 16.6337 15.5847 16.3229 15.6208L16.25 15.625H3.75C3.40482 15.625 3.125 15.3452 3.125 15C3.125 14.6795 3.36628 14.4153 3.67711 14.3792L3.75 14.375H16.25Z" fill="white"/>
<path d="M11.25 9.375C11.5952 9.375 11.875 9.65482 11.875 10C11.875 10.3205 11.6337 10.5847 11.3229 10.6208L11.25 10.625H3.75C3.40482 10.625 3.125 10.3452 3.125 10C3.125 9.67948 3.36628 9.41531 3.67711 9.3792L3.75 9.375H11.25Z" fill="white"/>
<path d="M16.25 4.375C16.5952 4.375 16.875 4.65482 16.875 5C16.875 5.32052 16.6337 5.58469 16.3229 5.6208L16.25 5.625H3.75C3.40482 5.625 3.125 5.34518 3.125 5C3.125 4.67948 3.36628 4.41531 3.67711 4.3792L3.75 4.375H16.25Z" fill="white"/>
</svg>
