<svg width="726" height="125" viewBox="0 0 726 125" fill="none" xmlns="http://www.w3.org/2000/svg">
<g filter="url(#filter0_i_4034_99788)">
<g clip-path="url(#clip0_4034_99788)">
<rect width="726" height="125" rx="8" fill="url(#paint0_radial_4034_99788)"/>
<mask id="mask0_4034_99788" style="mask-type:alpha" maskUnits="userSpaceOnUse" x="563" y="-53" width="235" height="212">
<rect x="563.148" y="46.1565" width="194.929" height="130.661" transform="rotate(-30.5753 563.148 46.1565)" fill="#D9D9D9"/>
</mask>
<g mask="url(#mask0_4034_99788)">
<path d="M652.598 113.395C609.419 86.7766 639.123 51.9531 630.665 29.8059C622.405 5.38265 669.35 -26.3634 694.915 -8.15383C720.479 10.0558 751.033 24.7011 740.17 61.6564C729.307 98.6117 695.778 140.013 652.598 113.395Z" fill="url(#paint1_radial_4034_99788)"/>
<rect x="543.961" y="40.8359" width="223.611" height="40.3668" transform="rotate(-30.5753 543.961 40.8359)" fill="black" fill-opacity="0.2"/>
<rect x="564.492" y="75.5859" width="223.611" height="39.3045" transform="rotate(-30.5753 564.492 75.5859)" fill="black" fill-opacity="0.2"/>
<rect x="584.031" y="109.695" width="223.611" height="39.8357" transform="rotate(-30.5753 584.031 109.695)" fill="black" fill-opacity="0.2"/>
<rect x="603.836" y="144.266" width="223.611" height="40.3668" transform="rotate(-30.5753 603.836 144.266)" fill="black" fill-opacity="0.2"/>
</g>
<path d="M31.9631 21.5455V39H28.8267V24.1705H21.1903V39H18.054V21.5455H31.9631ZM41.3189 39.2557C40.0405 39.2557 38.9325 38.9744 37.995 38.4119C37.0575 37.8494 36.3303 37.0625 35.8132 36.0511C35.3018 35.0398 35.0462 33.858 35.0462 32.5057C35.0462 31.1534 35.3018 29.9687 35.8132 28.9517C36.3303 27.9347 37.0575 27.1449 37.995 26.5824C38.9325 26.0199 40.0405 25.7386 41.3189 25.7386C42.5973 25.7386 43.7053 26.0199 44.6428 26.5824C45.5803 27.1449 46.3047 27.9347 46.8161 28.9517C47.3331 29.9687 47.5916 31.1534 47.5916 32.5057C47.5916 33.858 47.3331 35.0398 46.8161 36.0511C46.3047 37.0625 45.5803 37.8494 44.6428 38.4119C43.7053 38.9744 42.5973 39.2557 41.3189 39.2557ZM41.3359 36.7841C42.0291 36.7841 42.6087 36.5937 43.0746 36.2131C43.5405 35.8267 43.8871 35.3097 44.1143 34.6619C44.3473 34.0142 44.4638 33.2926 44.4638 32.4972C44.4638 31.696 44.3473 30.9716 44.1143 30.3239C43.8871 29.6705 43.5405 29.1506 43.0746 28.7642C42.6087 28.3778 42.0291 28.1847 41.3359 28.1847C40.6257 28.1847 40.0348 28.3778 39.5632 28.7642C39.0973 29.1506 38.7479 29.6705 38.5149 30.3239C38.2876 30.9716 38.174 31.696 38.174 32.4972C38.174 33.2926 38.2876 34.0142 38.5149 34.6619C38.7479 35.3097 39.0973 35.8267 39.5632 36.2131C40.0348 36.5937 40.6257 36.7841 41.3359 36.7841ZM50.2102 39V25.9091H55.7074C57.2585 25.9091 58.483 26.2187 59.3807 26.8381C60.2841 27.4574 60.7358 28.321 60.7358 29.429C60.7358 30.1619 60.4801 30.7614 59.9688 31.2273C59.4631 31.6875 58.7727 31.9972 57.8977 32.1562C58.5852 32.2131 59.1875 32.3864 59.7045 32.6761C60.2273 32.9659 60.6364 33.3466 60.9318 33.8182C61.2273 34.2898 61.375 34.8324 61.375 35.446C61.375 36.1676 61.1847 36.7955 60.804 37.3295C60.429 37.858 59.8807 38.2699 59.1591 38.5653C58.4432 38.8551 57.5739 39 56.5511 39H50.2102ZM53.0994 36.571H56.5511C57.1193 36.571 57.5653 36.4375 57.8892 36.1705C58.2131 35.8977 58.375 35.5284 58.375 35.0625C58.375 34.5227 58.2131 34.0994 57.8892 33.7926C57.5653 33.4801 57.1193 33.3239 56.5511 33.3239H53.0994V36.571ZM53.0994 31.3295H55.767C56.1875 31.3295 56.5483 31.2699 56.8494 31.1506C57.1506 31.0256 57.3807 30.8523 57.5398 30.6307C57.6989 30.4034 57.7784 30.1335 57.7784 29.821C57.7784 29.3722 57.5938 29.0199 57.2244 28.7642C56.8608 28.5085 56.3551 28.3807 55.7074 28.3807H53.0994V31.3295ZM66.0092 30.1705H69.87C71.5405 30.1705 72.8331 30.5767 73.7479 31.3892C74.6626 32.2017 75.1229 33.267 75.1286 34.5852C75.1229 35.4432 74.9126 36.2045 74.4979 36.8693C74.0888 37.5341 73.4922 38.0568 72.7081 38.4375C71.9297 38.8125 70.9837 39 69.87 39H63.9212V25.9091H66.8956V36.4688H69.87C70.5405 36.4688 71.0916 36.2983 71.5234 35.9574C71.9553 35.6108 72.1712 35.1676 72.1712 34.6278C72.1712 34.0597 71.9553 33.5966 71.5234 33.2386C71.0916 32.8807 70.5405 32.7017 69.87 32.7017H66.0092V30.1705ZM76.7564 39V25.9091H79.8416V39H76.7564ZM83.0227 25.9091H85.9972V36.4602H90.1136V25.9091H93.0881V36.4602H97.2045V25.9091H100.179V39H83.0227V25.9091ZM109.092 39.2557C107.779 39.2557 106.646 38.983 105.691 38.4375C104.742 37.8864 104.012 37.108 103.501 36.1023C102.989 35.0909 102.734 33.9006 102.734 32.5312C102.734 31.1847 102.989 30.0028 103.501 28.9858C104.018 27.9631 104.739 27.1676 105.665 26.5994C106.592 26.0256 107.68 25.7386 108.93 25.7386C109.737 25.7386 110.498 25.8693 111.214 26.1307C111.935 26.3864 112.572 26.7841 113.123 27.3239C113.68 27.8636 114.117 28.5511 114.435 29.3864C114.754 30.2159 114.913 31.2045 114.913 32.3523V33.2983H104.183V31.2188H111.955C111.95 30.6278 111.822 30.1023 111.572 29.642C111.322 29.1761 110.972 28.8097 110.523 28.5426C110.08 28.2756 109.563 28.142 108.972 28.142C108.342 28.142 107.788 28.2955 107.31 28.6023C106.833 28.9034 106.461 29.3011 106.194 29.7955C105.933 30.2841 105.799 30.821 105.793 31.4062V33.2216C105.793 33.983 105.933 34.6364 106.211 35.1818C106.489 35.7216 106.879 36.1364 107.379 36.4261C107.879 36.7102 108.464 36.8523 109.134 36.8523C109.583 36.8523 109.989 36.7898 110.353 36.6648C110.717 36.5341 111.032 36.3438 111.299 36.0938C111.566 35.8438 111.768 35.5341 111.904 35.1648L114.785 35.4886C114.603 36.25 114.256 36.9148 113.745 37.483C113.239 38.0455 112.592 38.483 111.802 38.7955C111.012 39.1023 110.109 39.2557 109.092 39.2557ZM126.514 31.1761V33.7074H119.543V31.1761H126.514ZM120.497 25.9091V39H117.523V25.9091H120.497ZM128.534 25.9091V39H125.568V25.9091H128.534ZM140.647 31.1761V33.7074H133.675V31.1761H140.647ZM134.63 25.9091V39H131.656V25.9091H134.63ZM142.667 25.9091V39H139.701V25.9091H142.667ZM147.876 30.1705H151.737C153.408 30.1705 154.7 30.5767 155.615 31.3892C156.53 32.2017 156.99 33.267 156.996 34.5852C156.99 35.4432 156.78 36.2045 156.365 36.8693C155.956 37.5341 155.359 38.0568 154.575 38.4375C153.797 38.8125 152.851 39 151.737 39H145.788V25.9091H148.763V36.4688H151.737C152.408 36.4688 152.959 36.2983 153.391 35.9574C153.822 35.6108 154.038 35.1676 154.038 34.6278C154.038 34.0597 153.822 33.5966 153.391 33.2386C152.959 32.8807 152.408 32.7017 151.737 32.7017H147.876V30.1705ZM158.624 39V25.9091H161.709V39H158.624ZM167.864 34.8239L173.106 25.9091H176.276V39H173.293V30.0767L168.069 39H164.89V25.9091H167.864V34.8239ZM172.262 21.4091H174.572C174.572 22.4034 174.211 23.2102 173.489 23.8295C172.773 24.4432 171.802 24.75 170.575 24.75C169.359 24.75 168.39 24.4432 167.668 23.8295C166.952 23.2102 166.597 22.4034 166.603 21.4091H168.896C168.896 21.8182 169.021 22.1847 169.271 22.5085C169.526 22.8267 169.961 22.9858 170.575 22.9858C171.177 22.9858 171.606 22.8267 171.862 22.5085C172.123 22.1903 172.256 21.8239 172.262 21.4091ZM185.398 39V25.9091H188.483V31.1932H189.608L193.545 25.9091H197.261L192.412 32.3352L197.312 39H193.58L189.991 34.0653H188.483V39H185.398ZM204.318 39.2557C203.006 39.2557 201.872 38.983 200.918 38.4375C199.969 37.8864 199.239 37.108 198.727 36.1023C198.216 35.0909 197.96 33.9006 197.96 32.5312C197.96 31.1847 198.216 30.0028 198.727 28.9858C199.244 27.9631 199.966 27.1676 200.892 26.5994C201.818 26.0256 202.906 25.7386 204.156 25.7386C204.963 25.7386 205.724 25.8693 206.44 26.1307C207.162 26.3864 207.798 26.7841 208.349 27.3239C208.906 27.8636 209.344 28.5511 209.662 29.3864C209.98 30.2159 210.139 31.2045 210.139 32.3523V33.2983H199.409V31.2188H207.182C207.176 30.6278 207.048 30.1023 206.798 29.642C206.548 29.1761 206.199 28.8097 205.75 28.5426C205.307 28.2756 204.79 28.142 204.199 28.142C203.568 28.142 203.014 28.2955 202.537 28.6023C202.06 28.9034 201.688 29.3011 201.42 29.7955C201.159 30.2841 201.026 30.821 201.02 31.4062V33.2216C201.02 33.983 201.159 34.6364 201.438 35.1818C201.716 35.7216 202.105 36.1364 202.605 36.4261C203.105 36.7102 203.69 36.8523 204.361 36.8523C204.81 36.8523 205.216 36.7898 205.58 36.6648C205.943 36.5341 206.259 36.3438 206.526 36.0938C206.793 35.8438 206.994 35.5341 207.131 35.1648L210.011 35.4886C209.83 36.25 209.483 36.9148 208.972 37.483C208.466 38.0455 207.818 38.483 207.028 38.7955C206.239 39.1023 205.335 39.2557 204.318 39.2557ZM212.749 25.9091H215.724V36.4602H219.84V25.9091H222.815V36.4602H226.931V25.9091H229.906V39H212.749V25.9091ZM243.514 21.0682L244.588 23.0625C244.207 23.392 243.781 23.6307 243.31 23.7784C242.838 23.9261 242.284 24.0227 241.648 24.0682C241.017 24.108 240.267 24.1364 239.398 24.1534C238.42 24.1761 237.622 24.3608 237.003 24.7074C236.384 25.054 235.909 25.5795 235.58 26.2841C235.25 26.983 235.034 27.875 234.932 28.9602H235.077C235.486 28.1591 236.06 27.5483 236.798 27.1278C237.537 26.7074 238.403 26.4972 239.398 26.4972C240.483 26.4972 241.44 26.7415 242.27 27.2301C243.105 27.7131 243.756 28.4148 244.222 29.3352C244.693 30.2557 244.929 31.3693 244.929 32.6761C244.929 34.0227 244.676 35.1903 244.17 36.179C243.665 37.1619 242.946 37.9205 242.014 38.4545C241.088 38.9886 239.989 39.2557 238.716 39.2557C237.449 39.2557 236.347 38.9801 235.409 38.429C234.477 37.8722 233.756 37.0511 233.244 35.9659C232.739 34.875 232.486 33.5312 232.486 31.9347V30.7585C232.486 27.679 233.06 25.3807 234.207 23.8636C235.355 22.3466 237.057 21.5739 239.312 21.5455C239.983 21.5341 240.582 21.5312 241.111 21.5369C241.645 21.5426 242.111 21.517 242.509 21.4602C242.906 21.4034 243.241 21.2727 243.514 21.0682ZM238.733 36.7841C239.364 36.7841 239.909 36.6222 240.369 36.2983C240.83 35.9687 241.182 35.5028 241.426 34.9006C241.676 34.2983 241.801 33.5852 241.801 32.7614C241.801 31.9489 241.676 31.2585 241.426 30.6903C241.176 30.1165 240.821 29.679 240.361 29.3778C239.901 29.0767 239.352 28.9261 238.716 28.9261C238.239 28.9261 237.81 29.0114 237.429 29.1818C237.048 29.3523 236.724 29.6023 236.457 29.9318C236.19 30.2614 235.986 30.6619 235.844 31.1335C235.702 31.6051 235.625 32.1477 235.614 32.7614C235.614 33.9943 235.892 34.9744 236.449 35.7017C237.006 36.4233 237.767 36.7841 238.733 36.7841ZM252.224 28.2784C251.793 28.2841 251.395 28.3778 251.031 28.5597C250.668 28.7415 250.375 28.9886 250.153 29.3011C249.938 29.608 249.83 29.9659 249.83 30.375H246.991C246.991 29.7159 247.128 29.1023 247.401 28.5341C247.673 27.9659 248.048 27.4716 248.526 27.0511C249.009 26.6307 249.565 26.304 250.196 26.071C250.832 25.8324 251.509 25.7131 252.224 25.7131C253.497 25.7131 254.571 26.0085 255.446 26.5994C256.327 27.1903 256.991 27.9858 257.44 28.9858C257.895 29.9801 258.122 31.0824 258.122 32.2926V32.6591C258.122 33.8693 257.898 34.9744 257.449 35.9744C257 36.9688 256.335 37.7614 255.455 38.3523C254.58 38.9432 253.503 39.2386 252.224 39.2386C251.202 39.2386 250.295 39.0312 249.506 38.6165C248.722 38.196 248.105 37.6108 247.656 36.8608C247.213 36.1108 246.991 35.2358 246.991 34.2358H249.83C249.83 34.6676 249.932 35.0682 250.136 35.4375C250.341 35.8011 250.622 36.0937 250.98 36.3153C251.344 36.5369 251.759 36.6506 252.224 36.6562C252.923 36.6506 253.486 36.4432 253.912 36.0341C254.344 35.625 254.656 35.1136 254.849 34.5C255.048 33.8864 255.148 33.2727 255.148 32.6591V32.2926C255.148 31.6335 255.048 31 254.849 30.392C254.656 29.7784 254.344 29.2756 253.912 28.8835C253.486 28.4858 252.923 28.2841 252.224 28.2784ZM256.111 31.4148V33.4602H251.125V31.4148H256.111ZM260.726 39V25.9091H263.811V31.1932H264.936L268.874 25.9091H272.589L267.74 32.3352L272.641 39H268.908L265.32 34.0653H263.811V39H260.726ZM279.491 39L284.323 32.2415L279.533 25.9091H283.096L286.82 31.1847H287.553V25.9091H290.638V31.1847H291.354L295.079 25.9091H298.641L293.877 32.2415L298.684 39H295.045L291.32 33.7159H290.638V39H287.553V33.7159H286.871L283.13 39H279.491ZM299.832 42.8011V36.4602H300.872C301.151 36.2443 301.384 35.9517 301.571 35.5824C301.759 35.2074 301.912 34.767 302.031 34.2614C302.156 33.75 302.259 33.179 302.338 32.5483C302.418 31.9119 302.489 31.2273 302.551 30.4943L302.926 25.9091H312.386V36.4602H314.415V42.8011H311.432V39H302.866V42.8011H299.832ZM304.043 36.4602H309.438V28.3977H305.602L305.398 30.4943C305.284 31.8807 305.134 33.0682 304.946 34.0568C304.759 35.0455 304.457 35.8466 304.043 36.4602ZM322.513 39.2557C321.201 39.2557 320.067 38.983 319.113 38.4375C318.164 37.8864 317.434 37.108 316.923 36.1023C316.411 35.0909 316.156 33.9006 316.156 32.5312C316.156 31.1847 316.411 30.0028 316.923 28.9858C317.44 27.9631 318.161 27.1676 319.087 26.5994C320.013 26.0256 321.102 25.7386 322.352 25.7386C323.158 25.7386 323.92 25.8693 324.636 26.1307C325.357 26.3864 325.994 26.7841 326.545 27.3239C327.102 27.8636 327.539 28.5511 327.857 29.3864C328.175 30.2159 328.335 31.2045 328.335 32.3523V33.2983H317.604V31.2188H325.377C325.371 30.6278 325.244 30.1023 324.994 29.642C324.744 29.1761 324.394 28.8097 323.945 28.5426C323.502 28.2756 322.985 28.142 322.394 28.142C321.763 28.142 321.21 28.2955 320.732 28.6023C320.255 28.9034 319.883 29.3011 319.616 29.7955C319.354 30.2841 319.221 30.821 319.215 31.4062V33.2216C319.215 33.983 319.354 34.6364 319.633 35.1818C319.911 35.7216 320.3 36.1364 320.8 36.4261C321.3 36.7102 321.886 36.8523 322.556 36.8523C323.005 36.8523 323.411 36.7898 323.775 36.6648C324.138 36.5341 324.454 36.3438 324.721 36.0938C324.988 35.8438 325.19 35.5341 325.326 35.1648L328.207 35.4886C328.025 36.25 327.678 36.9148 327.167 37.483C326.661 38.0455 326.013 38.483 325.224 38.7955C324.434 39.1023 323.531 39.2557 322.513 39.2557ZM319.718 23.983C319.269 23.983 318.88 23.8239 318.55 23.5057C318.227 23.1875 318.065 22.8125 318.065 22.3807C318.065 21.9261 318.227 21.5455 318.55 21.2386C318.88 20.9261 319.269 20.7699 319.718 20.7699C320.178 20.7699 320.565 20.9261 320.877 21.2386C321.195 21.5455 321.354 21.9261 321.354 22.3807C321.354 22.8125 321.195 23.1875 320.877 23.5057C320.565 23.8239 320.178 23.983 319.718 23.983ZM324.832 23.983C324.383 23.983 323.994 23.8239 323.664 23.5057C323.34 23.1875 323.178 22.8125 323.178 22.3807C323.178 21.9261 323.34 21.5455 323.664 21.2386C323.994 20.9261 324.383 20.7699 324.832 20.7699C325.292 20.7699 325.678 20.9261 325.991 21.2386C326.309 21.5455 326.468 21.9261 326.468 22.3807C326.468 22.8125 326.309 23.1875 325.991 23.5057C325.678 23.8239 325.292 23.983 324.832 23.983ZM329.854 28.4403V25.9091H341.308V28.4403H337.072V39H334.089V28.4403H329.854ZM349.718 39V25.9091H355.215C356.766 25.9091 357.991 26.2187 358.888 26.8381C359.792 27.4574 360.244 28.321 360.244 29.429C360.244 30.1619 359.988 30.7614 359.477 31.2273C358.971 31.6875 358.281 31.9972 357.406 32.1562C358.093 32.2131 358.695 32.3864 359.212 32.6761C359.735 32.9659 360.144 33.3466 360.44 33.8182C360.735 34.2898 360.883 34.8324 360.883 35.446C360.883 36.1676 360.692 36.7955 360.312 37.3295C359.937 37.858 359.388 38.2699 358.667 38.5653C357.951 38.8551 357.082 39 356.059 39H349.718ZM352.607 36.571H356.059C356.627 36.571 357.073 36.4375 357.397 36.1705C357.721 35.8977 357.883 35.5284 357.883 35.0625C357.883 34.5227 357.721 34.0994 357.397 33.7926C357.073 33.4801 356.627 33.3239 356.059 33.3239H352.607V36.571ZM352.607 31.3295H355.275C355.695 31.3295 356.056 31.2699 356.357 31.1506C356.658 31.0256 356.888 30.8523 357.048 30.6307C357.207 30.4034 357.286 30.1335 357.286 29.821C357.286 29.3722 357.102 29.0199 356.732 28.7642C356.369 28.5085 355.863 28.3807 355.215 28.3807H352.607V31.3295ZM367.196 39.2642C366.366 39.2642 365.619 39.1165 364.955 38.821C364.295 38.5199 363.773 38.0767 363.386 37.4915C363.006 36.9062 362.815 36.1847 362.815 35.3267C362.815 34.5881 362.952 33.9773 363.224 33.4943C363.497 33.0114 363.869 32.625 364.341 32.3352C364.813 32.0455 365.344 31.8267 365.935 31.679C366.531 31.5256 367.148 31.4148 367.784 31.3466C368.551 31.267 369.173 31.196 369.651 31.1335C370.128 31.0653 370.474 30.9631 370.69 30.8267C370.912 30.6847 371.023 30.4659 371.023 30.1705V30.1193C371.023 29.4773 370.832 28.9801 370.452 28.6278C370.071 28.2756 369.523 28.0994 368.807 28.0994C368.051 28.0994 367.452 28.2642 367.009 28.5938C366.571 28.9233 366.276 29.3125 366.122 29.7614L363.241 29.3523C363.469 28.5568 363.844 27.892 364.366 27.358C364.889 26.8182 365.528 26.4148 366.284 26.1477C367.04 25.875 367.875 25.7386 368.79 25.7386C369.42 25.7386 370.048 25.8125 370.673 25.9602C371.298 26.108 371.869 26.3523 372.386 26.6932C372.903 27.0284 373.318 27.4858 373.631 28.0653C373.949 28.6449 374.108 29.3693 374.108 30.2386V39H371.142V37.2017H371.04C370.852 37.5653 370.588 37.9062 370.247 38.2244C369.912 38.5369 369.489 38.7898 368.977 38.983C368.472 39.1705 367.878 39.2642 367.196 39.2642ZM367.997 36.9972C368.616 36.9972 369.153 36.875 369.608 36.6307C370.063 36.3807 370.412 36.0511 370.656 35.642C370.906 35.233 371.031 34.7869 371.031 34.304V32.7614C370.935 32.8409 370.77 32.9148 370.537 32.983C370.31 33.0511 370.054 33.1108 369.77 33.1619C369.486 33.2131 369.205 33.2585 368.926 33.2983C368.648 33.3381 368.406 33.3722 368.202 33.4006C367.741 33.4631 367.33 33.5653 366.966 33.7074C366.602 33.8494 366.315 34.0483 366.105 34.304C365.895 34.554 365.79 34.8778 365.79 35.2756C365.79 35.8438 365.997 36.2727 366.412 36.5625C366.827 36.8523 367.355 36.9972 367.997 36.9972ZM382.92 39.2557C381.614 39.2557 380.491 38.9688 379.554 38.3949C378.622 37.821 377.903 37.0284 377.398 36.017C376.898 35 376.648 33.8295 376.648 32.5057C376.648 31.1761 376.903 30.0028 377.415 28.9858C377.926 27.9631 378.648 27.1676 379.58 26.5994C380.517 26.0256 381.625 25.7386 382.903 25.7386C383.966 25.7386 384.906 25.9347 385.724 26.3267C386.548 26.7131 387.205 27.2614 387.693 27.9716C388.182 28.6761 388.46 29.5 388.528 30.4432H385.58C385.46 29.8125 385.176 29.2869 384.727 28.8665C384.284 28.4403 383.69 28.2273 382.946 28.2273C382.315 28.2273 381.761 28.3977 381.284 28.7386C380.807 29.0739 380.435 29.5568 380.168 30.1875C379.906 30.8182 379.776 31.5739 379.776 32.4545C379.776 33.3466 379.906 34.1136 380.168 34.7557C380.429 35.392 380.795 35.8835 381.267 36.2301C381.744 36.571 382.304 36.7415 382.946 36.7415C383.401 36.7415 383.807 36.6562 384.165 36.4858C384.528 36.3097 384.832 36.0568 385.077 35.7273C385.321 35.3977 385.489 34.9972 385.58 34.5256H388.528C388.455 35.4517 388.182 36.2727 387.71 36.9886C387.239 37.6989 386.597 38.2557 385.784 38.6591C384.972 39.0568 384.017 39.2557 382.92 39.2557Z" fill="#FFF4D5"/>
<path d="M28.642 65.4545V80H26.8807V67.017H19.5511V80H17.7898V65.4545H28.642ZM36.3995 80.2273C35.4147 80.2273 34.5505 79.9929 33.8072 79.5241C33.0685 79.0554 32.4909 78.3996 32.0742 77.5568C31.6623 76.714 31.4563 75.7292 31.4563 74.6023C31.4563 73.4659 31.6623 72.474 32.0742 71.6264C32.4909 70.7789 33.0685 70.1207 33.8072 69.652C34.5505 69.1832 35.4147 68.9489 36.3995 68.9489C37.3844 68.9489 38.2461 69.1832 38.9847 69.652C39.7281 70.1207 40.3058 70.7789 40.7177 71.6264C41.1344 72.474 41.3427 73.4659 41.3427 74.6023C41.3427 75.7292 41.1344 76.714 40.7177 77.5568C40.3058 78.3996 39.7281 79.0554 38.9847 79.5241C38.2461 79.9929 37.3844 80.2273 36.3995 80.2273ZM36.3995 78.7216C37.1476 78.7216 37.7631 78.5298 38.2461 78.1463C38.729 77.7628 39.0865 77.2585 39.3185 76.6335C39.5505 76.0085 39.6665 75.3314 39.6665 74.6023C39.6665 73.8731 39.5505 73.1937 39.3185 72.5639C39.0865 71.9342 38.729 71.4252 38.2461 71.0369C37.7631 70.6487 37.1476 70.4545 36.3995 70.4545C35.6514 70.4545 35.0359 70.6487 34.5529 71.0369C34.07 71.4252 33.7125 71.9342 33.4805 72.5639C33.2485 73.1937 33.1325 73.8731 33.1325 74.6023C33.1325 75.3314 33.2485 76.0085 33.4805 76.6335C33.7125 77.2585 34.07 77.7628 34.5529 78.1463C35.0359 78.5298 35.6514 78.7216 36.3995 78.7216ZM42.7365 83.125V78.4375H43.6456C43.8681 78.2055 44.0599 77.9545 44.2209 77.6847C44.3819 77.4148 44.5215 77.0952 44.6399 76.7259C44.763 76.3518 44.8672 75.8973 44.9524 75.3622C45.0376 74.8224 45.1134 74.1714 45.1797 73.4091L45.549 69.0909H52.4808V78.4375H54.157V83.125H52.4808V80H44.4126V83.125H42.7365ZM45.549 78.4375H50.8047V70.6534H47.1115L46.8274 73.4091C46.709 74.5502 46.5623 75.5469 46.3871 76.3991C46.2119 77.2514 45.9325 77.9309 45.549 78.4375ZM56.3817 84.0909V69.0909H58.0011V70.8239H58.1999C58.323 70.6345 58.4935 70.393 58.7113 70.0994C58.9338 69.8011 59.2511 69.536 59.663 69.304C60.0797 69.0672 60.6431 68.9489 61.3533 68.9489C62.2719 68.9489 63.0816 69.1785 63.7823 69.6378C64.4831 70.0971 65.0299 70.7481 65.4229 71.5909C65.8159 72.4337 66.0124 73.428 66.0124 74.5739C66.0124 75.7292 65.8159 76.7306 65.4229 77.5781C65.0299 78.4209 64.4854 79.0743 63.7894 79.5384C63.0934 79.9976 62.2908 80.2273 61.3817 80.2273C60.681 80.2273 60.1199 80.1113 59.6985 79.8793C59.2771 79.6425 58.9528 79.375 58.7255 79.0767C58.4982 78.7737 58.323 78.5227 58.1999 78.3239H58.0579V84.0909H56.3817ZM58.0295 74.5455C58.0295 75.3693 58.1502 76.0961 58.3917 76.7259C58.6332 77.3509 58.9859 77.8409 59.4499 78.196C59.9139 78.5464 60.4821 78.7216 61.1545 78.7216C61.8552 78.7216 62.44 78.5369 62.9087 78.1676C63.3822 77.7936 63.7373 77.2917 63.9741 76.6619C64.2156 76.0275 64.3363 75.322 64.3363 74.5455C64.3363 73.7784 64.2179 73.0871 63.9812 72.4716C63.7492 71.8513 63.3964 71.3613 62.9229 71.0014C62.4542 70.6368 61.8647 70.4545 61.1545 70.4545C60.4727 70.4545 59.8997 70.6274 59.4357 70.973C58.9717 71.3139 58.6213 71.7921 58.3846 72.4077C58.1478 73.0185 58.0295 73.7311 58.0295 74.5455ZM73.0011 80.2273C72.0162 80.2273 71.1521 79.9929 70.4087 79.5241C69.6701 79.0554 69.0924 78.3996 68.6758 77.5568C68.2638 76.714 68.0579 75.7292 68.0579 74.6023C68.0579 73.4659 68.2638 72.474 68.6758 71.6264C69.0924 70.7789 69.6701 70.1207 70.4087 69.652C71.1521 69.1832 72.0162 68.9489 73.0011 68.9489C73.9859 68.9489 74.8477 69.1832 75.5863 69.652C76.3297 70.1207 76.9073 70.7789 77.3192 71.6264C77.7359 72.474 77.9442 73.4659 77.9442 74.6023C77.9442 75.7292 77.7359 76.714 77.3192 77.5568C76.9073 78.3996 76.3297 79.0554 75.5863 79.5241C74.8477 79.9929 73.9859 80.2273 73.0011 80.2273ZM73.0011 78.7216C73.7492 78.7216 74.3647 78.5298 74.8477 78.1463C75.3306 77.7628 75.6881 77.2585 75.9201 76.6335C76.1521 76.0085 76.2681 75.3314 76.2681 74.6023C76.2681 73.8731 76.1521 73.1937 75.9201 72.5639C75.6881 71.9342 75.3306 71.4252 74.8477 71.0369C74.3647 70.6487 73.7492 70.4545 73.0011 70.4545C72.253 70.4545 71.6374 70.6487 71.1545 71.0369C70.6715 71.4252 70.314 71.9342 70.082 72.5639C69.85 73.1937 69.734 73.8731 69.734 74.6023C69.734 75.3314 69.85 76.0085 70.082 76.6335C70.314 77.2585 70.6715 77.7628 71.1545 78.1463C71.6374 78.5298 72.253 78.7216 73.0011 78.7216ZM88.5994 65L89.4517 66.0227C89.1203 66.3447 88.7367 66.5696 88.3011 66.6974C87.8655 66.8253 87.3731 66.9034 86.8239 66.9318C86.2746 66.9602 85.6638 66.9886 84.9915 67.017C84.2339 67.0455 83.6065 67.2301 83.1094 67.571C82.6122 67.9119 82.2287 68.4044 81.9588 69.0483C81.6889 69.6922 81.5161 70.483 81.4403 71.4205H81.5824C81.9517 70.7386 82.4631 70.2367 83.1165 69.9148C83.7699 69.5928 84.4706 69.4318 85.2188 69.4318C86.071 69.4318 86.8381 69.6307 87.5199 70.0284C88.2017 70.4261 88.7415 71.0156 89.1392 71.7969C89.5369 72.5781 89.7358 73.5417 89.7358 74.6875C89.7358 75.8286 89.5322 76.8134 89.125 77.642C88.7225 78.4706 88.1567 79.1098 87.4276 79.5597C86.7031 80.0047 85.8532 80.2273 84.8778 80.2273C83.9025 80.2273 83.0478 79.9976 82.3139 79.5384C81.58 79.0743 81.0095 78.3878 80.6023 77.4787C80.1951 76.5649 79.9915 75.4356 79.9915 74.0909V72.9261C79.9915 70.4972 80.4034 68.6553 81.2273 67.4006C82.0559 66.1458 83.3011 65.4972 84.9631 65.4545C85.5502 65.4356 86.0734 65.4309 86.5327 65.4403C86.992 65.4498 87.392 65.4285 87.733 65.3764C88.0739 65.3243 88.3627 65.1989 88.5994 65ZM84.8778 78.7216C85.536 78.7216 86.1018 78.5559 86.5753 78.2244C87.0535 77.893 87.4205 77.4266 87.6761 76.8253C87.9318 76.2192 88.0597 75.5066 88.0597 74.6875C88.0597 73.892 87.9295 73.215 87.669 72.6562C87.4134 72.0975 87.0464 71.6714 86.5682 71.3778C86.09 71.0843 85.517 70.9375 84.8494 70.9375C84.3617 70.9375 83.9238 71.0204 83.5355 71.1861C83.1473 71.3518 82.8158 71.5956 82.5412 71.9176C82.2666 72.2396 82.0535 72.6326 81.902 73.0966C81.7552 73.5606 81.6771 74.0909 81.6676 74.6875C81.6676 75.9091 81.9541 76.8868 82.527 77.6207C83.0999 78.3546 83.8835 78.7216 84.8778 78.7216ZM99.6009 73.7784V75.3409H93.5781V73.7784H99.6009ZM93.9759 69.0909V80H92.2997V69.0909H93.9759ZM100.879 69.0909V80H99.2031V69.0909H100.879ZM108.372 80.2273C107.387 80.2273 106.523 79.9929 105.78 79.5241C105.041 79.0554 104.464 78.3996 104.047 77.5568C103.635 76.714 103.429 75.7292 103.429 74.6023C103.429 73.4659 103.635 72.474 104.047 71.6264C104.464 70.7789 105.041 70.1207 105.78 69.652C106.523 69.1832 107.387 68.9489 108.372 68.9489C109.357 68.9489 110.219 69.1832 110.957 69.652C111.701 70.1207 112.278 70.7789 112.69 71.6264C113.107 72.474 113.315 73.4659 113.315 74.6023C113.315 75.7292 113.107 76.714 112.69 77.5568C112.278 78.3996 111.701 79.0554 110.957 79.5241C110.219 79.9929 109.357 80.2273 108.372 80.2273ZM108.372 78.7216C109.12 78.7216 109.736 78.5298 110.219 78.1463C110.702 77.7628 111.059 77.2585 111.291 76.6335C111.523 76.0085 111.639 75.3314 111.639 74.6023C111.639 73.8731 111.523 73.1937 111.291 72.5639C111.059 71.9342 110.702 71.4252 110.219 71.0369C109.736 70.6487 109.12 70.4545 108.372 70.4545C107.624 70.4545 107.009 70.6487 106.526 71.0369C106.043 71.4252 105.685 71.9342 105.453 72.5639C105.221 73.1937 105.105 73.8731 105.105 74.6023C105.105 75.3314 105.221 76.0085 105.453 76.6335C105.685 77.2585 106.043 77.7628 106.526 78.1463C107.009 78.5298 107.624 78.7216 108.372 78.7216ZM120.448 80.2273C119.397 80.2273 118.49 79.9953 117.728 79.5312C116.97 79.0625 116.385 78.4091 115.973 77.571C115.566 76.7282 115.363 75.7481 115.363 74.6307C115.363 73.5133 115.566 72.5284 115.973 71.6761C116.385 70.8191 116.958 70.1515 117.692 69.6733C118.431 69.1903 119.292 68.9489 120.277 68.9489C120.846 68.9489 121.407 69.0436 121.961 69.233C122.515 69.4223 123.019 69.7301 123.473 70.1562C123.928 70.5777 124.29 71.1364 124.56 71.8324C124.83 72.5284 124.965 73.3854 124.965 74.4034V75.1136H116.556V73.6648H123.26C123.26 73.0492 123.137 72.5 122.891 72.017C122.65 71.5341 122.304 71.1529 121.854 70.8736C121.409 70.5942 120.883 70.4545 120.277 70.4545C119.61 70.4545 119.032 70.6203 118.544 70.9517C118.061 71.2784 117.69 71.7045 117.429 72.2301C117.169 72.7557 117.039 73.3191 117.039 73.9205V74.8864C117.039 75.7102 117.181 76.4086 117.465 76.9815C117.754 77.5497 118.154 77.983 118.665 78.2812C119.176 78.5748 119.771 78.7216 120.448 78.7216C120.888 78.7216 121.286 78.66 121.641 78.5369C122.001 78.4091 122.311 78.2197 122.571 77.9688C122.832 77.7131 123.033 77.3958 123.175 77.017L124.794 77.4716C124.624 78.0208 124.337 78.5038 123.935 78.9205C123.533 79.3324 123.035 79.6544 122.444 79.8864C121.852 80.1136 121.186 80.2273 120.448 80.2273ZM133.14 84.0909V69.0909H134.759V70.8239H134.958C135.081 70.6345 135.251 70.393 135.469 70.0994C135.692 69.8011 136.009 69.536 136.421 69.304C136.837 69.0672 137.401 68.9489 138.111 68.9489C139.03 68.9489 139.839 69.1785 140.54 69.6378C141.241 70.0971 141.788 70.7481 142.181 71.5909C142.574 72.4337 142.77 73.428 142.77 74.5739C142.77 75.7292 142.574 76.7306 142.181 77.5781C141.788 78.4209 141.243 79.0743 140.547 79.5384C139.851 79.9976 139.049 80.2273 138.14 80.2273C137.439 80.2273 136.878 80.1113 136.456 79.8793C136.035 79.6425 135.711 79.375 135.483 79.0767C135.256 78.7737 135.081 78.5227 134.958 78.3239H134.816V84.0909H133.14ZM134.787 74.5455C134.787 75.3693 134.908 76.0961 135.15 76.7259C135.391 77.3509 135.744 77.8409 136.208 78.196C136.672 78.5464 137.24 78.7216 137.912 78.7216C138.613 78.7216 139.198 78.5369 139.667 78.1676C140.14 77.7936 140.495 77.2917 140.732 76.6619C140.973 76.0275 141.094 75.322 141.094 74.5455C141.094 73.7784 140.976 73.0871 140.739 72.4716C140.507 71.8513 140.154 71.3613 139.681 71.0014C139.212 70.6368 138.623 70.4545 137.912 70.4545C137.23 70.4545 136.658 70.6274 136.194 70.973C135.73 71.3139 135.379 71.7921 135.142 72.4077C134.906 73.0185 134.787 73.7311 134.787 74.5455ZM146.016 84.0909C145.732 84.0909 145.479 84.0672 145.256 84.0199C145.033 83.9773 144.88 83.9347 144.794 83.892L145.221 82.4148C145.628 82.5189 145.988 82.5568 146.3 82.5284C146.613 82.5 146.89 82.3603 147.131 82.1094C147.377 81.8632 147.602 81.4631 147.806 80.9091L148.118 80.0568L144.084 69.0909H145.902L148.914 77.7841H149.027L152.039 69.0909H153.857L149.226 81.5909C149.018 82.1544 148.76 82.6207 148.452 82.9901C148.144 83.3641 147.787 83.6411 147.38 83.821C146.977 84.0009 146.523 84.0909 146.016 84.0909ZM156.069 80V69.0909H157.745V73.8352H158.853L162.774 69.0909H164.933L160.529 74.3466L164.99 80H162.831L159.251 75.3977H157.745V80H156.069ZM170.794 80.2273C169.809 80.2273 168.945 79.9929 168.202 79.5241C167.463 79.0554 166.885 78.3996 166.469 77.5568C166.057 76.714 165.851 75.7292 165.851 74.6023C165.851 73.4659 166.057 72.474 166.469 71.6264C166.885 70.7789 167.463 70.1207 168.202 69.652C168.945 69.1832 169.809 68.9489 170.794 68.9489C171.779 68.9489 172.641 69.1832 173.379 69.652C174.123 70.1207 174.7 70.7789 175.112 71.6264C175.529 72.474 175.737 73.4659 175.737 74.6023C175.737 75.7292 175.529 76.714 175.112 77.5568C174.7 78.3996 174.123 79.0554 173.379 79.5241C172.641 79.9929 171.779 80.2273 170.794 80.2273ZM170.794 78.7216C171.542 78.7216 172.158 78.5298 172.641 78.1463C173.124 77.7628 173.481 77.2585 173.713 76.6335C173.945 76.0085 174.061 75.3314 174.061 74.6023C174.061 73.8731 173.945 73.1937 173.713 72.5639C173.481 71.9342 173.124 71.4252 172.641 71.0369C172.158 70.6487 171.542 70.4545 170.794 70.4545C170.046 70.4545 169.43 70.6487 168.947 71.0369C168.464 71.4252 168.107 71.9342 167.875 72.5639C167.643 73.1937 167.527 73.8731 167.527 74.6023C167.527 75.3314 167.643 76.0085 167.875 76.6335C168.107 77.2585 168.464 77.7628 168.947 78.1463C169.43 78.5298 170.046 78.7216 170.794 78.7216ZM178.296 80V69.0909H182.756C183.93 69.0909 184.863 69.3561 185.554 69.8864C186.246 70.4167 186.591 71.1174 186.591 71.9886C186.591 72.6515 186.395 73.1652 186.002 73.5298C185.609 73.8897 185.105 74.1335 184.489 74.2614C184.891 74.3182 185.282 74.4602 185.661 74.6875C186.044 74.9148 186.362 75.2273 186.613 75.625C186.864 76.018 186.989 76.5009 186.989 77.0739C186.989 77.6326 186.847 78.1321 186.563 78.5724C186.279 79.0128 185.872 79.3608 185.341 79.6165C184.811 79.8722 184.176 80 183.438 80H178.296ZM179.887 78.4659H183.438C184.016 78.4659 184.468 78.3286 184.794 78.054C185.121 77.7794 185.284 77.4053 185.284 76.9318C185.284 76.3684 185.121 75.9257 184.794 75.6037C184.468 75.277 184.016 75.1136 183.438 75.1136H179.887V78.4659ZM179.887 73.6648H182.756C183.206 73.6648 183.592 73.6032 183.914 73.4801C184.236 73.3523 184.482 73.1723 184.652 72.9403C184.828 72.7036 184.915 72.4242 184.915 72.1023C184.915 71.643 184.723 71.2831 184.34 71.0227C183.956 70.7576 183.428 70.625 182.756 70.625H179.887V73.6648ZM193.958 80.2273C192.973 80.2273 192.109 79.9929 191.366 79.5241C190.627 79.0554 190.049 78.3996 189.633 77.5568C189.221 76.714 189.015 75.7292 189.015 74.6023C189.015 73.4659 189.221 72.474 189.633 71.6264C190.049 70.7789 190.627 70.1207 191.366 69.652C192.109 69.1832 192.973 68.9489 193.958 68.9489C194.943 68.9489 195.805 69.1832 196.543 69.652C197.287 70.1207 197.864 70.7789 198.276 71.6264C198.693 72.474 198.901 73.4659 198.901 74.6023C198.901 75.7292 198.693 76.714 198.276 77.5568C197.864 78.3996 197.287 79.0554 196.543 79.5241C195.805 79.9929 194.943 80.2273 193.958 80.2273ZM193.958 78.7216C194.706 78.7216 195.322 78.5298 195.805 78.1463C196.288 77.7628 196.645 77.2585 196.877 76.6335C197.109 76.0085 197.225 75.3314 197.225 74.6023C197.225 73.8731 197.109 73.1937 196.877 72.5639C196.645 71.9342 196.288 71.4252 195.805 71.0369C195.322 70.6487 194.706 70.4545 193.958 70.4545C193.21 70.4545 192.594 70.6487 192.112 71.0369C191.629 71.4252 191.271 71.9342 191.039 72.5639C190.807 73.1937 190.691 73.8731 190.691 74.6023C190.691 75.3314 190.807 76.0085 191.039 76.6335C191.271 77.2585 191.629 77.7628 192.112 78.1463C192.594 78.5298 193.21 78.7216 193.958 78.7216ZM200.295 83.125V78.4375H201.204C201.427 78.2055 201.618 77.9545 201.779 77.6847C201.94 77.4148 202.08 77.0952 202.199 76.7259C202.322 76.3518 202.426 75.8973 202.511 75.3622C202.596 74.8224 202.672 74.1714 202.738 73.4091L203.108 69.0909H210.039V78.4375H211.716V83.125H210.039V80H201.971V83.125H200.295ZM203.108 78.4375H208.363V70.6534H204.67L204.386 73.4091C204.268 74.5502 204.121 75.5469 203.946 76.3991C203.77 77.2514 203.491 77.9309 203.108 78.4375ZM218.372 80.2273C217.349 80.2273 216.469 79.9858 215.73 79.5028C214.991 79.0199 214.423 78.3546 214.026 77.5071C213.628 76.6596 213.429 75.6913 213.429 74.6023C213.429 73.4943 213.633 72.5166 214.04 71.669C214.452 70.8168 215.025 70.1515 215.759 69.6733C216.497 69.1903 217.359 68.9489 218.344 68.9489C219.111 68.9489 219.802 69.0909 220.418 69.375C221.033 69.6591 221.537 70.0568 221.93 70.5682C222.323 71.0795 222.567 71.6761 222.662 72.358H220.986C220.858 71.8608 220.574 71.4205 220.134 71.0369C219.698 70.6487 219.111 70.4545 218.372 70.4545C217.719 70.4545 217.146 70.625 216.653 70.9659C216.166 71.3021 215.785 71.7779 215.51 72.3935C215.24 73.0043 215.105 73.7216 215.105 74.5455C215.105 75.3883 215.238 76.1222 215.503 76.7472C215.773 77.3722 216.152 77.8575 216.639 78.2031C217.132 78.5488 217.709 78.7216 218.372 78.7216C218.808 78.7216 219.203 78.6458 219.558 78.4943C219.913 78.3428 220.214 78.125 220.46 77.8409C220.706 77.5568 220.882 77.2159 220.986 76.8182H222.662C222.567 77.4621 222.333 78.0421 221.959 78.5582C221.589 79.0696 221.099 79.4768 220.489 79.7798C219.883 80.0781 219.177 80.2273 218.372 80.2273ZM224.253 70.6534V69.0909H233.116V70.6534H229.537V80H227.861V70.6534H224.253ZM235.561 80V69.0909H240.022C241.196 69.0909 242.129 69.3561 242.82 69.8864C243.511 70.4167 243.857 71.1174 243.857 71.9886C243.857 72.6515 243.66 73.1652 243.267 73.5298C242.874 73.8897 242.37 74.1335 241.755 74.2614C242.157 74.3182 242.548 74.4602 242.926 74.6875C243.31 74.9148 243.627 75.2273 243.878 75.625C244.129 76.018 244.255 76.5009 244.255 77.0739C244.255 77.6326 244.113 78.1321 243.828 78.5724C243.544 79.0128 243.137 79.3608 242.607 79.6165C242.077 79.8722 241.442 80 240.703 80H235.561ZM237.152 78.4659H240.703C241.281 78.4659 241.733 78.3286 242.06 78.054C242.387 77.7794 242.55 77.4053 242.55 76.9318C242.55 76.3684 242.387 75.9257 242.06 75.6037C241.733 75.277 241.281 75.1136 240.703 75.1136H237.152V78.4659ZM237.152 73.6648H240.022C240.471 73.6648 240.857 73.6032 241.179 73.4801C241.501 73.3523 241.748 73.1723 241.918 72.9403C242.093 72.7036 242.181 72.4242 242.181 72.1023C242.181 71.643 241.989 71.2831 241.605 71.0227C241.222 70.7576 240.694 70.625 240.022 70.625H237.152V73.6648ZM251.224 80.2273C250.239 80.2273 249.375 79.9929 248.631 79.5241C247.893 79.0554 247.315 78.3996 246.898 77.5568C246.487 76.714 246.281 75.7292 246.281 74.6023C246.281 73.4659 246.487 72.474 246.898 71.6264C247.315 70.7789 247.893 70.1207 248.631 69.652C249.375 69.1832 250.239 68.9489 251.224 68.9489C252.209 68.9489 253.07 69.1832 253.809 69.652C254.552 70.1207 255.13 70.7789 255.542 71.6264C255.959 72.474 256.167 73.4659 256.167 74.6023C256.167 75.7292 255.959 76.714 255.542 77.5568C255.13 78.3996 254.552 79.0554 253.809 79.5241C253.07 79.9929 252.209 80.2273 251.224 80.2273ZM251.224 78.7216C251.972 78.7216 252.587 78.5298 253.07 78.1463C253.553 77.7628 253.911 77.2585 254.143 76.6335C254.375 76.0085 254.491 75.3314 254.491 74.6023C254.491 73.8731 254.375 73.1937 254.143 72.5639C253.911 71.9342 253.553 71.4252 253.07 71.0369C252.587 70.6487 251.972 70.4545 251.224 70.4545C250.476 70.4545 249.86 70.6487 249.377 71.0369C248.894 71.4252 248.537 71.9342 248.305 72.5639C248.073 73.1937 247.957 73.8731 247.957 74.6023C247.957 75.3314 248.073 76.0085 248.305 76.6335C248.537 77.2585 248.894 77.7628 249.377 78.1463C249.86 78.5298 250.476 78.7216 251.224 78.7216ZM264.35 80V69.0909H272.93V80H271.254V70.6534H266.027V80H264.35ZM280.423 80.2273C279.438 80.2273 278.574 79.9929 277.831 79.5241C277.092 79.0554 276.514 78.3996 276.098 77.5568C275.686 76.714 275.48 75.7292 275.48 74.6023C275.48 73.4659 275.686 72.474 276.098 71.6264C276.514 70.7789 277.092 70.1207 277.831 69.652C278.574 69.1832 279.438 68.9489 280.423 68.9489C281.408 68.9489 282.27 69.1832 283.008 69.652C283.752 70.1207 284.329 70.7789 284.741 71.6264C285.158 72.474 285.366 73.4659 285.366 74.6023C285.366 75.7292 285.158 76.714 284.741 77.5568C284.329 78.3996 283.752 79.0554 283.008 79.5241C282.27 79.9929 281.408 80.2273 280.423 80.2273ZM280.423 78.7216C281.171 78.7216 281.787 78.5298 282.27 78.1463C282.752 77.7628 283.11 77.2585 283.342 76.6335C283.574 76.0085 283.69 75.3314 283.69 74.6023C283.69 73.8731 283.574 73.1937 283.342 72.5639C283.11 71.9342 282.752 71.4252 282.27 71.0369C281.787 70.6487 281.171 70.4545 280.423 70.4545C279.675 70.4545 279.059 70.6487 278.576 71.0369C278.093 71.4252 277.736 71.9342 277.504 72.5639C277.272 73.1937 277.156 73.8731 277.156 74.6023C277.156 75.3314 277.272 76.0085 277.504 76.6335C277.736 77.2585 278.093 77.7628 278.576 78.1463C279.059 78.5298 279.675 78.7216 280.423 78.7216ZM295.226 77.5284L300.482 69.0909H302.413V80H300.737V71.5625L295.51 80H293.55V69.0909H295.226V77.5284ZM309.915 80.2273C308.892 80.2273 308.012 79.9858 307.273 79.5028C306.534 79.0199 305.966 78.3546 305.569 77.5071C305.171 76.6596 304.972 75.6913 304.972 74.6023C304.972 73.4943 305.176 72.5166 305.583 71.669C305.995 70.8168 306.568 70.1515 307.301 69.6733C308.04 69.1903 308.902 68.9489 309.887 68.9489C310.654 68.9489 311.345 69.0909 311.961 69.375C312.576 69.6591 313.08 70.0568 313.473 70.5682C313.866 71.0795 314.11 71.6761 314.205 72.358H312.529C312.401 71.8608 312.117 71.4205 311.676 71.0369C311.241 70.6487 310.654 70.4545 309.915 70.4545C309.262 70.4545 308.689 70.625 308.196 70.9659C307.709 71.3021 307.328 71.7779 307.053 72.3935C306.783 73.0043 306.648 73.7216 306.648 74.5455C306.648 75.3883 306.781 76.1222 307.046 76.7472C307.316 77.3722 307.694 77.8575 308.182 78.2031C308.675 78.5488 309.252 78.7216 309.915 78.7216C310.351 78.7216 310.746 78.6458 311.101 78.4943C311.456 78.3428 311.757 78.125 312.003 77.8409C312.249 77.5568 312.425 77.2159 312.529 76.8182H314.205C314.11 77.4621 313.876 78.0421 313.502 78.5582C313.132 79.0696 312.642 79.4768 312.032 79.7798C311.426 80.0781 310.72 80.2273 309.915 80.2273ZM316.655 80V69.0909H325.235V80H323.559V70.6534H318.331V80H316.655ZM332.728 80.2273C331.743 80.2273 330.879 79.9929 330.135 79.5241C329.397 79.0554 328.819 78.3996 328.402 77.5568C327.99 76.714 327.784 75.7292 327.784 74.6023C327.784 73.4659 327.99 72.474 328.402 71.6264C328.819 70.7789 329.397 70.1207 330.135 69.652C330.879 69.1832 331.743 68.9489 332.728 68.9489C333.712 68.9489 334.574 69.1832 335.313 69.652C336.056 70.1207 336.634 70.7789 337.046 71.6264C337.462 72.474 337.671 73.4659 337.671 74.6023C337.671 75.7292 337.462 76.714 337.046 77.5568C336.634 78.3996 336.056 79.0554 335.313 79.5241C334.574 79.9929 333.712 80.2273 332.728 80.2273ZM332.728 78.7216C333.476 78.7216 334.091 78.5298 334.574 78.1463C335.057 77.7628 335.415 77.2585 335.647 76.6335C335.879 76.0085 335.995 75.3314 335.995 74.6023C335.995 73.8731 335.879 73.1937 335.647 72.5639C335.415 71.9342 335.057 71.4252 334.574 71.0369C334.091 70.6487 333.476 70.4545 332.728 70.4545C331.98 70.4545 331.364 70.6487 330.881 71.0369C330.398 71.4252 330.041 71.9342 329.809 72.5639C329.577 73.1937 329.461 73.8731 329.461 74.6023C329.461 75.3314 329.577 76.0085 329.809 76.6335C330.041 77.2585 330.398 77.7628 330.881 78.1463C331.364 78.5298 331.98 78.7216 332.728 78.7216ZM339.263 80V78.4375H339.661C339.988 78.4375 340.26 78.3736 340.478 78.2457C340.696 78.1132 340.871 77.8835 341.004 77.5568C341.141 77.2254 341.245 76.7661 341.316 76.179C341.392 75.5871 341.446 74.8343 341.479 73.9205L341.678 69.0909H348.951V80H347.275V70.6534H343.269L343.099 74.5455C343.061 75.4403 342.98 76.2287 342.857 76.9105C342.739 77.5876 342.557 78.1558 342.31 78.6151C342.069 79.0743 341.747 79.42 341.344 79.652C340.942 79.884 340.438 80 339.832 80H339.263ZM353.475 73.0398H356.6C357.879 73.0398 358.856 73.3641 359.533 74.0128C360.21 74.6615 360.549 75.483 360.549 76.4773C360.549 77.1307 360.397 77.7249 360.094 78.2599C359.791 78.7902 359.346 79.214 358.759 79.5312C358.172 79.8438 357.452 80 356.6 80H352.026V69.0909H353.702V78.4375H356.6C357.263 78.4375 357.808 78.2623 358.234 77.9119C358.66 77.5616 358.873 77.1117 358.873 76.5625C358.873 75.9848 358.66 75.5137 358.234 75.1491C357.808 74.7846 357.263 74.6023 356.6 74.6023H353.475V73.0398ZM362.419 77.2159H364.208C364.246 77.7083 364.469 78.0824 364.876 78.3381C365.288 78.5938 365.823 78.7216 366.481 78.7216C367.154 78.7216 367.729 78.5843 368.207 78.3097C368.685 78.0303 368.924 77.5805 368.924 76.9602C368.924 76.5956 368.834 76.2784 368.654 76.0085C368.475 75.7339 368.221 75.5208 367.895 75.3693C367.568 75.2178 367.182 75.142 366.737 75.142H364.862V73.6364H366.737C367.404 73.6364 367.897 73.4848 368.214 73.1818C368.536 72.8788 368.697 72.5 368.697 72.0455C368.697 71.5578 368.524 71.1671 368.179 70.8736C367.833 70.5753 367.343 70.4261 366.708 70.4261C366.069 70.4261 365.537 70.5705 365.11 70.8594C364.684 71.1435 364.459 71.5104 364.436 71.9602H362.674C362.693 71.3731 362.873 70.8546 363.214 70.4048C363.555 69.9503 364.019 69.5952 364.606 69.3395C365.193 69.0791 365.866 68.9489 366.623 68.9489C367.39 68.9489 368.056 69.0838 368.619 69.3537C369.187 69.6188 369.625 69.9811 369.933 70.4403C370.245 70.8949 370.402 71.411 370.402 71.9886C370.402 72.6042 370.229 73.1013 369.883 73.4801C369.538 73.8589 369.104 74.1288 368.583 74.2898V74.4034C368.995 74.4318 369.353 74.5644 369.656 74.8011C369.964 75.0331 370.203 75.3385 370.373 75.7173C370.544 76.0914 370.629 76.5057 370.629 76.9602C370.629 77.6231 370.451 78.2008 370.096 78.6932C369.741 79.1809 369.253 79.5597 368.633 79.8295C368.013 80.0947 367.305 80.2273 366.51 80.2273C365.738 80.2273 365.047 80.1018 364.436 79.8509C363.825 79.5952 363.34 79.2424 362.98 78.7926C362.625 78.3381 362.438 77.8125 362.419 77.2159ZM377.415 80.2273C376.43 80.2273 375.566 79.9929 374.823 79.5241C374.084 79.0554 373.507 78.3996 373.09 77.5568C372.678 76.714 372.472 75.7292 372.472 74.6023C372.472 73.4659 372.678 72.474 373.09 71.6264C373.507 70.7789 374.084 70.1207 374.823 69.652C375.566 69.1832 376.43 68.9489 377.415 68.9489C378.4 68.9489 379.262 69.1832 380 69.652C380.744 70.1207 381.321 70.7789 381.733 71.6264C382.15 72.474 382.358 73.4659 382.358 74.6023C382.358 75.7292 382.15 76.714 381.733 77.5568C381.321 78.3996 380.744 79.0554 380 79.5241C379.262 79.9929 378.4 80.2273 377.415 80.2273ZM377.415 78.7216C378.163 78.7216 378.779 78.5298 379.262 78.1463C379.745 77.7628 380.102 77.2585 380.334 76.6335C380.566 76.0085 380.682 75.3314 380.682 74.6023C380.682 73.8731 380.566 73.1937 380.334 72.5639C380.102 71.9342 379.745 71.4252 379.262 71.0369C378.779 70.6487 378.163 70.4545 377.415 70.4545C376.667 70.4545 376.051 70.6487 375.569 71.0369C375.086 71.4252 374.728 71.9342 374.496 72.5639C374.264 73.1937 374.148 73.8731 374.148 74.6023C374.148 75.3314 374.264 76.0085 374.496 76.6335C374.728 77.2585 375.086 77.7628 375.569 78.1463C376.051 78.5298 376.667 78.7216 377.415 78.7216ZM384.917 80V69.0909H389.377C390.551 69.0909 391.484 69.3561 392.175 69.8864C392.867 70.4167 393.212 71.1174 393.212 71.9886C393.212 72.6515 393.016 73.1652 392.623 73.5298C392.23 73.8897 391.726 74.1335 391.11 74.2614C391.513 74.3182 391.903 74.4602 392.282 74.6875C392.665 74.9148 392.983 75.2273 393.234 75.625C393.485 76.018 393.61 76.5009 393.61 77.0739C393.61 77.6326 393.468 78.1321 393.184 78.5724C392.9 79.0128 392.493 79.3608 391.962 79.6165C391.432 79.8722 390.798 80 390.059 80H384.917ZM386.508 78.4659H390.059C390.637 78.4659 391.089 78.3286 391.415 78.054C391.742 77.7794 391.906 77.4053 391.906 76.9318C391.906 76.3684 391.742 75.9257 391.415 75.6037C391.089 75.277 390.637 75.1136 390.059 75.1136H386.508V78.4659ZM386.508 73.6648H389.377C389.827 73.6648 390.213 73.6032 390.535 73.4801C390.857 73.3523 391.103 73.1723 391.273 72.9403C391.449 72.7036 391.536 72.4242 391.536 72.1023C391.536 71.643 391.344 71.2831 390.961 71.0227C390.577 70.7576 390.049 70.625 389.377 70.625H386.508V73.6648ZM399.358 80.2557C398.666 80.2557 398.039 80.1255 397.475 79.8651C396.912 79.5999 396.465 79.2188 396.133 78.7216C395.802 78.2197 395.636 77.6136 395.636 76.9034C395.636 76.2784 395.759 75.7718 396.005 75.3835C396.252 74.9905 396.581 74.6828 396.993 74.4602C397.404 74.2377 397.859 74.072 398.356 73.9631C398.858 73.8494 399.362 73.7595 399.869 73.6932C400.532 73.608 401.069 73.544 401.481 73.5014C401.898 73.4541 402.201 73.3759 402.39 73.267C402.584 73.1581 402.681 72.9687 402.681 72.6989V72.642C402.681 71.9413 402.49 71.3968 402.106 71.0085C401.727 70.6203 401.152 70.4261 400.38 70.4261C399.58 70.4261 398.953 70.6013 398.498 70.9517C398.044 71.3021 397.724 71.6761 397.539 72.0739L395.949 71.5057C396.233 70.8428 396.611 70.3267 397.085 69.9574C397.563 69.5833 398.084 69.3229 398.647 69.1761C399.216 69.0246 399.774 68.9489 400.324 68.9489C400.674 68.9489 401.076 68.9915 401.531 69.0767C401.99 69.1572 402.433 69.3253 402.859 69.581C403.29 69.8366 403.647 70.2225 403.931 70.7386C404.216 71.2547 404.358 71.946 404.358 72.8125V80H402.681V78.5227H402.596C402.483 78.7595 402.293 79.0128 402.028 79.2827C401.763 79.5526 401.41 79.7822 400.97 79.9716C400.529 80.161 399.992 80.2557 399.358 80.2557ZM399.613 78.75C400.276 78.75 400.835 78.6198 401.289 78.3594C401.749 78.099 402.094 77.7628 402.326 77.3509C402.563 76.9389 402.681 76.5057 402.681 76.0511V74.517C402.61 74.6023 402.454 74.6804 402.213 74.7514C401.976 74.8177 401.701 74.8769 401.389 74.929C401.081 74.9763 400.78 75.0189 400.487 75.0568C400.198 75.09 399.964 75.1184 399.784 75.142C399.348 75.1989 398.941 75.2912 398.562 75.419C398.188 75.5421 397.885 75.7292 397.653 75.9801C397.426 76.2263 397.312 76.5625 397.312 76.9886C397.312 77.571 397.528 78.0114 397.958 78.3097C398.394 78.6032 398.946 78.75 399.613 78.75ZM414.718 73.7784V75.3409H408.695V73.7784H414.718ZM409.093 69.0909V80H407.417V69.0909H409.093ZM415.996 69.0909V80H414.32V69.0909H415.996ZM420.734 77.5284L425.989 69.0909H427.921V80H426.245V71.5625L421.018 80H419.058V69.0909H420.734V77.5284ZM436.218 73.8636V75.4261H430.451V73.8636H436.218ZM431.872 69.0909V80H430.196V69.0909H431.872ZM439.571 80.2273C438.586 80.2273 437.722 79.9929 436.978 79.5241C436.24 79.0554 435.662 78.3996 435.245 77.5568C434.833 76.714 434.627 75.7292 434.627 74.6023C434.627 73.4659 434.833 72.474 435.245 71.6264C435.662 70.7789 436.24 70.1207 436.978 69.652C437.722 69.1832 438.586 68.9489 439.571 68.9489C440.556 68.9489 441.417 69.1832 442.156 69.652C442.899 70.1207 443.477 70.7789 443.889 71.6264C444.306 72.474 444.514 73.4659 444.514 74.6023C444.514 75.7292 444.306 76.714 443.889 77.5568C443.477 78.3996 442.899 79.0554 442.156 79.5241C441.417 79.9929 440.556 80.2273 439.571 80.2273ZM439.571 78.7216C440.319 78.7216 440.934 78.5298 441.417 78.1463C441.9 77.7628 442.258 77.2585 442.49 76.6335C442.722 76.0085 442.838 75.3314 442.838 74.6023C442.838 73.8731 442.722 73.1937 442.49 72.5639C442.258 71.9342 441.9 71.4252 441.417 71.0369C440.934 70.6487 440.319 70.4545 439.571 70.4545C438.823 70.4545 438.207 70.6487 437.724 71.0369C437.241 71.4252 436.884 71.9342 436.652 72.5639C436.42 73.1937 436.304 73.8731 436.304 74.6023C436.304 75.3314 436.42 76.0085 436.652 76.6335C436.884 77.2585 437.241 77.7628 437.724 78.1463C438.207 78.5298 438.823 78.7216 439.571 78.7216ZM17.5341 104V93.0909H19.2102V97.8352H20.3182L24.2386 93.0909H26.3977L21.9943 98.3466L26.4545 104H24.2955L20.7159 99.3977H19.2102V104H17.5341ZM32.4009 104.227C31.3498 104.227 30.4431 103.995 29.6808 103.531C28.9232 103.062 28.3384 102.409 27.9265 101.571C27.5193 100.728 27.3157 99.7481 27.3157 98.6307C27.3157 97.5133 27.5193 96.5284 27.9265 95.6761C28.3384 94.8191 28.9113 94.1515 29.6452 93.6733C30.3839 93.1903 31.2456 92.9489 32.2305 92.9489C32.7987 92.9489 33.3597 93.0436 33.9137 93.233C34.4677 93.4223 34.9719 93.7301 35.4265 94.1562C35.881 94.5777 36.2433 95.1364 36.5131 95.8324C36.783 96.5284 36.918 97.3854 36.918 98.4034V99.1136H28.5089V97.6648H35.2134C35.2134 97.0492 35.0903 96.5 34.8441 96.017C34.6026 95.5341 34.257 95.1529 33.8072 94.8736C33.3621 94.5942 32.8365 94.4545 32.2305 94.4545C31.5629 94.4545 30.9852 94.6203 30.4975 94.9517C30.0146 95.2784 29.6429 95.7045 29.3825 96.2301C29.122 96.7557 28.9918 97.3191 28.9918 97.9205V98.8864C28.9918 99.7102 29.1339 100.409 29.418 100.982C29.7068 101.55 30.1069 101.983 30.6183 102.281C31.1296 102.575 31.7238 102.722 32.4009 102.722C32.8413 102.722 33.239 102.66 33.5941 102.537C33.954 102.409 34.2641 102.22 34.5245 101.969C34.7849 101.713 34.9862 101.396 35.1282 101.017L36.7475 101.472C36.5771 102.021 36.2906 102.504 35.8881 102.92C35.4857 103.332 34.9885 103.654 34.3967 103.886C33.8048 104.114 33.1396 104.227 32.4009 104.227ZM39.4677 93.0909H41.1438V102.438H45.2631V93.0909H46.9393V102.438H51.0586V93.0909H52.7347V104H39.4677V93.0909ZM63.8924 89L64.7447 90.0227C64.4132 90.3447 64.0297 90.5696 63.5941 90.6974C63.1585 90.8253 62.6661 90.9034 62.1168 90.9318C61.5676 90.9602 60.9568 90.9886 60.2844 91.017C59.5269 91.0455 58.8995 91.2301 58.4023 91.571C57.9052 91.9119 57.5217 92.4044 57.2518 93.0483C56.9819 93.6922 56.8091 94.483 56.7333 95.4205H56.8754C57.2447 94.7386 57.756 94.2367 58.4094 93.9148C59.0629 93.5928 59.7636 93.4318 60.5117 93.4318C61.364 93.4318 62.131 93.6307 62.8129 94.0284C63.4947 94.4261 64.0344 95.0156 64.4322 95.7969C64.8299 96.5781 65.0288 97.5417 65.0288 98.6875C65.0288 99.8286 64.8252 100.813 64.418 101.642C64.0155 102.471 63.4497 103.11 62.7205 103.56C61.9961 104.005 61.1462 104.227 60.1708 104.227C59.1954 104.227 58.3408 103.998 57.6069 103.538C56.873 103.074 56.3024 102.388 55.8952 101.479C55.488 100.565 55.2844 99.4356 55.2844 98.0909V96.9261C55.2844 94.4972 55.6964 92.6553 56.5202 91.4006C57.3488 90.1458 58.5941 89.4972 60.256 89.4545C60.8432 89.4356 61.3664 89.4309 61.8256 89.4403C62.2849 89.4498 62.685 89.4285 63.0259 89.3764C63.3668 89.3243 63.6557 89.1989 63.8924 89ZM60.1708 102.722C60.829 102.722 61.3948 102.556 61.8683 102.224C62.3465 101.893 62.7134 101.427 62.9691 100.825C63.2248 100.219 63.3526 99.5066 63.3526 98.6875C63.3526 97.892 63.2224 97.215 62.962 96.6562C62.7063 96.0975 62.3394 95.6714 61.8612 95.3778C61.3829 95.0843 60.81 94.9375 60.1424 94.9375C59.6547 94.9375 59.2167 95.0204 58.8285 95.1861C58.4402 95.3518 58.1088 95.5956 57.8342 95.9176C57.5595 96.2396 57.3465 96.6326 57.195 97.0966C57.0482 97.5606 56.9701 98.0909 56.9606 98.6875C56.9606 99.9091 57.247 100.887 57.82 101.621C58.3929 102.355 59.1765 102.722 60.1708 102.722ZM71.2006 94.5114C70.8219 94.5161 70.4407 94.6132 70.0572 94.8026C69.6784 94.992 69.3612 95.2429 69.1055 95.5554C68.8545 95.8632 68.729 96.2064 68.729 96.5852H67.0813C67.0813 96.1117 67.195 95.6572 67.4222 95.2216C67.6495 94.786 67.9549 94.3977 68.3384 94.0568C68.7267 93.7159 69.167 93.446 69.6594 93.2472C70.1566 93.0483 70.6703 92.9489 71.2006 92.9489C72.195 92.9489 73.0378 93.1998 73.729 93.7017C74.4251 94.2036 74.953 94.8665 75.3129 95.6903C75.6774 96.5142 75.8597 97.4091 75.8597 98.375V98.7727C75.8597 99.7339 75.6774 100.629 75.3129 101.457C74.953 102.281 74.4251 102.944 73.729 103.446C73.0378 103.948 72.195 104.199 71.2006 104.199C70.4052 104.199 69.6973 104.024 69.0771 103.673C68.4568 103.318 67.9691 102.845 67.614 102.253C67.2589 101.661 67.0813 101.003 67.0813 100.278H68.729C68.729 100.69 68.8451 101.076 69.0771 101.436C69.3138 101.791 69.6192 102.08 69.9933 102.303C70.372 102.52 70.7745 102.632 71.2006 102.636C71.8351 102.632 72.3749 102.433 72.82 102.04C73.265 101.647 73.6036 101.154 73.8356 100.562C74.0676 99.9706 74.1836 99.3741 74.1836 98.7727V98.375C74.1836 97.7595 74.0676 97.1581 73.8356 96.571C73.6083 95.9792 73.2721 95.4891 72.8271 95.1009C72.3867 94.7126 71.8446 94.5161 71.2006 94.5114ZM74.8654 97.7216V99.2841H70.0927V97.7216H74.8654ZM78.413 104V93.0909H80.0891V97.8352H81.1971L85.1175 93.0909H87.2766L82.8732 98.3466L87.3335 104H85.1744L81.5948 99.3977H80.0891V104H78.413ZM94.4872 96.983V98.5455H88.1236V96.983H94.4872ZM97.4364 104V93.0909H106.016V104H104.34V94.6534H99.1126V104H97.4364ZM109.077 108.091V93.0909H110.696V94.8239H110.895C111.018 94.6345 111.189 94.393 111.407 94.0994C111.629 93.8011 111.946 93.536 112.358 93.304C112.775 93.0672 113.338 92.9489 114.049 92.9489C114.967 92.9489 115.777 93.1785 116.478 93.6378C117.178 94.0971 117.725 94.7481 118.118 95.5909C118.511 96.4337 118.708 97.428 118.708 98.5739C118.708 99.7292 118.511 100.731 118.118 101.578C117.725 102.421 117.181 103.074 116.485 103.538C115.789 103.998 114.986 104.227 114.077 104.227C113.376 104.227 112.815 104.111 112.394 103.879C111.972 103.643 111.648 103.375 111.421 103.077C111.194 102.774 111.018 102.523 110.895 102.324H110.753V108.091H109.077ZM110.725 98.5455C110.725 99.3693 110.846 100.096 111.087 100.726C111.328 101.351 111.681 101.841 112.145 102.196C112.609 102.546 113.177 102.722 113.85 102.722C114.551 102.722 115.135 102.537 115.604 102.168C116.078 101.794 116.433 101.292 116.669 100.662C116.911 100.027 117.032 99.322 117.032 98.5455C117.032 97.7784 116.913 97.0871 116.676 96.4716C116.444 95.8513 116.092 95.3613 115.618 95.0014C115.15 94.6368 114.56 94.4545 113.85 94.4545C113.168 94.4545 112.595 94.6274 112.131 94.973C111.667 95.3139 111.317 95.7921 111.08 96.4077C110.843 97.0185 110.725 97.7311 110.725 98.5455ZM125.696 104.227C124.712 104.227 123.847 103.993 123.104 103.524C122.365 103.055 121.788 102.4 121.371 101.557C120.959 100.714 120.753 99.7292 120.753 98.6023C120.753 97.4659 120.959 96.474 121.371 95.6264C121.788 94.7789 122.365 94.1207 123.104 93.652C123.847 93.1832 124.712 92.9489 125.696 92.9489C126.681 92.9489 127.543 93.1832 128.282 93.652C129.025 94.1207 129.603 94.7789 130.015 95.6264C130.431 96.474 130.64 97.4659 130.64 98.6023C130.64 99.7292 130.431 100.714 130.015 101.557C129.603 102.4 129.025 103.055 128.282 103.524C127.543 103.993 126.681 104.227 125.696 104.227ZM125.696 102.722C126.444 102.722 127.06 102.53 127.543 102.146C128.026 101.763 128.383 101.259 128.615 100.634C128.847 100.009 128.963 99.3314 128.963 98.6023C128.963 97.8731 128.847 97.1937 128.615 96.5639C128.383 95.9342 128.026 95.4252 127.543 95.0369C127.06 94.6487 126.444 94.4545 125.696 94.4545C124.948 94.4545 124.333 94.6487 123.85 95.0369C123.367 95.4252 123.009 95.9342 122.777 96.5639C122.545 97.1937 122.429 97.8731 122.429 98.6023C122.429 99.3314 122.545 100.009 122.777 100.634C123.009 101.259 123.367 101.763 123.85 102.146C124.333 102.53 124.948 102.722 125.696 102.722ZM139.931 93.0909V94.6534H134.874V104H133.198V93.0909H139.931ZM142.378 108.091V93.0909H143.997V94.8239H144.196C144.319 94.6345 144.49 94.393 144.707 94.0994C144.93 93.8011 145.247 93.536 145.659 93.304C146.076 93.0672 146.639 92.9489 147.349 92.9489C148.268 92.9489 149.078 93.1785 149.778 93.6378C150.479 94.0971 151.026 94.7481 151.419 95.5909C151.812 96.4337 152.009 97.428 152.009 98.5739C152.009 99.7292 151.812 100.731 151.419 101.578C151.026 102.421 150.482 103.074 149.786 103.538C149.089 103.998 148.287 104.227 147.378 104.227C146.677 104.227 146.116 104.111 145.695 103.879C145.273 103.643 144.949 103.375 144.722 103.077C144.494 102.774 144.319 102.523 144.196 102.324H144.054V108.091H142.378ZM144.026 98.5455C144.026 99.3693 144.146 100.096 144.388 100.726C144.629 101.351 144.982 101.841 145.446 102.196C145.91 102.546 146.478 102.722 147.151 102.722C147.851 102.722 148.436 102.537 148.905 102.168C149.378 101.794 149.733 101.292 149.97 100.662C150.212 100.027 150.332 99.322 150.332 98.5455C150.332 97.7784 150.214 97.0871 149.977 96.4716C149.745 95.8513 149.393 95.3613 148.919 95.0014C148.45 94.6368 147.861 94.4545 147.151 94.4545C146.469 94.4545 145.896 94.6274 145.432 94.973C144.968 95.3139 144.617 95.7921 144.381 96.4077C144.144 97.0185 144.026 97.7311 144.026 98.5455ZM157.776 104.256C157.084 104.256 156.457 104.125 155.893 103.865C155.33 103.6 154.883 103.219 154.551 102.722C154.22 102.22 154.054 101.614 154.054 100.903C154.054 100.278 154.177 99.7718 154.423 99.3835C154.67 98.9905 154.999 98.6828 155.411 98.4602C155.822 98.2377 156.277 98.072 156.774 97.9631C157.276 97.8494 157.78 97.7595 158.287 97.6932C158.95 97.608 159.487 97.544 159.899 97.5014C160.316 97.4541 160.619 97.3759 160.808 97.267C161.002 97.1581 161.099 96.9687 161.099 96.6989V96.642C161.099 95.9413 160.908 95.3968 160.524 95.0085C160.145 94.6203 159.57 94.4261 158.798 94.4261C157.998 94.4261 157.371 94.6013 156.916 94.9517C156.462 95.3021 156.142 95.6761 155.957 96.0739L154.366 95.5057C154.651 94.8428 155.029 94.3267 155.503 93.9574C155.981 93.5833 156.502 93.3229 157.065 93.1761C157.634 93.0246 158.192 92.9489 158.741 92.9489C159.092 92.9489 159.494 92.9915 159.949 93.0767C160.408 93.1572 160.851 93.3253 161.277 93.581C161.708 93.8366 162.065 94.2225 162.349 94.7386C162.634 95.2547 162.776 95.946 162.776 96.8125V104H161.099V102.523H161.014C160.901 102.759 160.711 103.013 160.446 103.283C160.181 103.553 159.828 103.782 159.388 103.972C158.947 104.161 158.41 104.256 157.776 104.256ZM158.031 102.75C158.694 102.75 159.253 102.62 159.707 102.359C160.167 102.099 160.512 101.763 160.744 101.351C160.981 100.939 161.099 100.506 161.099 100.051V98.517C161.028 98.6023 160.872 98.6804 160.631 98.7514C160.394 98.8177 160.119 98.8769 159.807 98.929C159.499 98.9763 159.198 99.0189 158.905 99.0568C158.616 99.09 158.382 99.1184 158.202 99.142C157.766 99.1989 157.359 99.2912 156.98 99.419C156.606 99.5421 156.303 99.7292 156.071 99.9801C155.844 100.226 155.73 100.562 155.73 100.989C155.73 101.571 155.946 102.011 156.376 102.31C156.812 102.603 157.364 102.75 158.031 102.75ZM171.801 101.727L175.608 93.0909H177.199L172.483 104H171.119L166.488 93.0909H168.051L171.801 101.727ZM167.511 93.0909V104H165.835V93.0909H167.511ZM176.091 104V93.0909H177.767V104H176.091ZM186.801 101.727L190.608 93.0909H192.199L187.483 104H186.119L181.488 93.0909H183.051L186.801 101.727ZM182.511 93.0909V104H180.835V93.0909H182.511ZM191.091 104V93.0909H192.767V104H191.091ZM197.284 97.0398H200.409C201.687 97.0398 202.665 97.3641 203.342 98.0128C204.019 98.6615 204.358 99.483 204.358 100.477C204.358 101.131 204.206 101.725 203.903 102.26C203.6 102.79 203.155 103.214 202.568 103.531C201.981 103.844 201.261 104 200.409 104H195.835V93.0909H197.511V102.438H200.409C201.072 102.438 201.616 102.262 202.042 101.912C202.468 101.562 202.681 101.112 202.681 100.562C202.681 99.9848 202.468 99.5137 202.042 99.1491C201.616 98.7846 201.072 98.6023 200.409 98.6023H197.284V97.0398ZM206.091 104V93.0909H207.767V104H206.091ZM218.136 101.528L223.392 93.0909H225.324V104H223.647V95.5625L218.42 104H216.46V93.0909H218.136V101.528ZM234.018 104V93.0909H238.479C239.653 93.0909 240.586 93.3561 241.277 93.8864C241.968 94.4167 242.314 95.1174 242.314 95.9886C242.314 96.6515 242.117 97.1652 241.724 97.5298C241.331 97.8897 240.827 98.1335 240.212 98.2614C240.614 98.3182 241.005 98.4602 241.384 98.6875C241.767 98.9148 242.084 99.2273 242.335 99.625C242.586 100.018 242.712 100.501 242.712 101.074C242.712 101.633 242.57 102.132 242.286 102.572C242.001 103.013 241.594 103.361 241.064 103.616C240.534 103.872 239.899 104 239.161 104H234.018ZM235.609 102.466H239.161C239.738 102.466 240.19 102.329 240.517 102.054C240.844 101.779 241.007 101.405 241.007 100.932C241.007 100.368 240.844 99.9257 240.517 99.6037C240.19 99.277 239.738 99.1136 239.161 99.1136H235.609V102.466ZM235.609 97.6648H238.479C238.929 97.6648 239.314 97.6032 239.636 97.4801C239.958 97.3523 240.205 97.1723 240.375 96.9403C240.55 96.7036 240.638 96.4242 240.638 96.1023C240.638 95.643 240.446 95.2831 240.062 95.0227C239.679 94.7576 239.151 94.625 238.479 94.625H235.609V97.6648ZM246.698 97.0398H249.823C251.101 97.0398 252.079 97.3641 252.756 98.0128C253.433 98.6615 253.772 99.483 253.772 100.477C253.772 101.131 253.62 101.725 253.317 102.26C253.014 102.79 252.569 103.214 251.982 103.531C251.395 103.844 250.675 104 249.823 104H245.249V93.0909H246.925V102.438H249.823C250.486 102.438 251.03 102.262 251.456 101.912C251.882 101.562 252.096 101.112 252.096 100.562C252.096 99.9848 251.882 99.5137 251.456 99.1491C251.03 98.7846 250.486 98.6023 249.823 98.6023H246.698V97.0398ZM255.505 104V93.0909H257.181V104H255.505ZM268.346 89L269.198 90.0227C268.866 90.3447 268.483 90.5696 268.047 90.6974C267.612 90.8253 267.119 90.9034 266.57 90.9318C266.021 90.9602 265.41 90.9886 264.738 91.017C263.98 91.0455 263.353 91.2301 262.855 91.571C262.358 91.9119 261.975 92.4044 261.705 93.0483C261.435 93.6922 261.262 94.483 261.186 95.4205H261.328C261.698 94.7386 262.209 94.2367 262.863 93.9148C263.516 93.5928 264.217 93.4318 264.965 93.4318C265.817 93.4318 266.584 93.6307 267.266 94.0284C267.948 94.4261 268.488 95.0156 268.885 95.7969C269.283 96.5781 269.482 97.5417 269.482 98.6875C269.482 99.8286 269.278 100.813 268.871 101.642C268.469 102.471 267.903 103.11 267.174 103.56C266.449 104.005 265.599 104.227 264.624 104.227C263.649 104.227 262.794 103.998 262.06 103.538C261.326 103.074 260.756 102.388 260.348 101.479C259.941 100.565 259.738 99.4356 259.738 98.0909V96.9261C259.738 94.4972 260.15 92.6553 260.973 91.4006C261.802 90.1458 263.047 89.4972 264.709 89.4545C265.296 89.4356 265.819 89.4309 266.279 89.4403C266.738 89.4498 267.138 89.4285 267.479 89.3764C267.82 89.3243 268.109 89.1989 268.346 89ZM264.624 102.722C265.282 102.722 265.848 102.556 266.321 102.224C266.8 101.893 267.167 101.427 267.422 100.825C267.678 100.219 267.806 99.5066 267.806 98.6875C267.806 97.892 267.676 97.215 267.415 96.6562C267.159 96.0975 266.792 95.6714 266.314 95.3778C265.836 95.0843 265.263 94.9375 264.596 94.9375C264.108 94.9375 263.67 95.0204 263.282 95.1861C262.893 95.3518 262.562 95.5956 262.287 95.9176C262.013 96.2396 261.8 96.6326 261.648 97.0966C261.501 97.5606 261.423 98.0909 261.414 98.6875C261.414 99.9091 261.7 100.887 262.273 101.621C262.846 102.355 263.63 102.722 264.624 102.722ZM276.478 104.227C275.493 104.227 274.629 103.993 273.885 103.524C273.147 103.055 272.569 102.4 272.152 101.557C271.74 100.714 271.534 99.7292 271.534 98.6023C271.534 97.4659 271.74 96.474 272.152 95.6264C272.569 94.7789 273.147 94.1207 273.885 93.652C274.629 93.1832 275.493 92.9489 276.478 92.9489C277.462 92.9489 278.324 93.1832 279.063 93.652C279.806 94.1207 280.384 94.7789 280.796 95.6264C281.212 96.474 281.421 97.4659 281.421 98.6023C281.421 99.7292 281.212 100.714 280.796 101.557C280.384 102.4 279.806 103.055 279.063 103.524C278.324 103.993 277.462 104.227 276.478 104.227ZM276.478 102.722C277.226 102.722 277.841 102.53 278.324 102.146C278.807 101.763 279.165 101.259 279.397 100.634C279.629 100.009 279.745 99.3314 279.745 98.6023C279.745 97.8731 279.629 97.1937 279.397 96.5639C279.165 95.9342 278.807 95.4252 278.324 95.0369C277.841 94.6487 277.226 94.4545 276.478 94.4545C275.73 94.4545 275.114 94.6487 274.631 95.0369C274.148 95.4252 273.791 95.9342 273.559 96.5639C273.327 97.1937 273.211 97.8731 273.211 98.6023C273.211 99.3314 273.327 100.009 273.559 100.634C273.791 101.259 274.148 101.763 274.631 102.146C275.114 102.53 275.73 102.722 276.478 102.722ZM283.979 108.091V93.0909H285.599V94.8239H285.798C285.921 94.6345 286.091 94.393 286.309 94.0994C286.531 93.8011 286.849 93.536 287.261 93.304C287.677 93.0672 288.241 92.9489 288.951 92.9489C289.87 92.9489 290.679 93.1785 291.38 93.6378C292.081 94.0971 292.628 94.7481 293.021 95.5909C293.414 96.4337 293.61 97.428 293.61 98.5739C293.61 99.7292 293.414 100.731 293.021 101.578C292.628 102.421 292.083 103.074 291.387 103.538C290.691 103.998 289.888 104.227 288.979 104.227C288.279 104.227 287.718 104.111 287.296 103.879C286.875 103.643 286.55 103.375 286.323 103.077C286.096 102.774 285.921 102.523 285.798 102.324H285.656V108.091H283.979ZM285.627 98.5455C285.627 99.3693 285.748 100.096 285.989 100.726C286.231 101.351 286.584 101.841 287.048 102.196C287.512 102.546 288.08 102.722 288.752 102.722C289.453 102.722 290.038 102.537 290.506 102.168C290.98 101.794 291.335 101.292 291.572 100.662C291.813 100.027 291.934 99.322 291.934 98.5455C291.934 97.7784 291.816 97.0871 291.579 96.4716C291.347 95.8513 290.994 95.3613 290.521 95.0014C290.052 94.6368 289.462 94.4545 288.752 94.4545C288.07 94.4545 287.497 94.6274 287.033 94.973C286.569 95.3139 286.219 95.7921 285.982 96.4077C285.746 97.0185 285.627 97.7311 285.627 98.5455ZM296.856 108.091C296.572 108.091 296.318 108.067 296.096 108.02C295.873 107.977 295.719 107.935 295.634 107.892L296.06 106.415C296.468 106.519 296.827 106.557 297.14 106.528C297.452 106.5 297.729 106.36 297.971 106.109C298.217 105.863 298.442 105.463 298.646 104.909L298.958 104.057L294.924 93.0909H296.742L299.754 101.784H299.867L302.879 93.0909H304.697L300.066 105.591C299.858 106.154 299.6 106.621 299.292 106.99C298.984 107.364 298.627 107.641 298.219 107.821C297.817 108.001 297.362 108.091 296.856 108.091ZM312.534 104V93.0909H314.21V97.8352H315.318L319.239 93.0909H321.398L316.994 98.3466L321.455 104H319.295L315.716 99.3977H314.21V104H312.534ZM326.487 104.256C325.795 104.256 325.168 104.125 324.604 103.865C324.041 103.6 323.594 103.219 323.262 102.722C322.931 102.22 322.765 101.614 322.765 100.903C322.765 100.278 322.888 99.7718 323.134 99.3835C323.38 98.9905 323.71 98.6828 324.121 98.4602C324.533 98.2377 324.988 98.072 325.485 97.9631C325.987 97.8494 326.491 97.7595 326.998 97.6932C327.661 97.608 328.198 97.544 328.61 97.5014C329.027 97.4541 329.33 97.3759 329.519 97.267C329.713 97.1581 329.81 96.9687 329.81 96.6989V96.642C329.81 95.9413 329.619 95.3968 329.235 95.0085C328.856 94.6203 328.281 94.4261 327.509 94.4261C326.709 94.4261 326.082 94.6013 325.627 94.9517C325.173 95.3021 324.853 95.6761 324.668 96.0739L323.077 95.5057C323.362 94.8428 323.74 94.3267 324.214 93.9574C324.692 93.5833 325.213 93.3229 325.776 93.1761C326.344 93.0246 326.903 92.9489 327.452 92.9489C327.803 92.9489 328.205 92.9915 328.66 93.0767C329.119 93.1572 329.562 93.3253 329.988 93.581C330.419 93.8366 330.776 94.2225 331.06 94.7386C331.344 95.2547 331.487 95.946 331.487 96.8125V104H329.81V102.523H329.725C329.612 102.759 329.422 103.013 329.157 103.283C328.892 103.553 328.539 103.782 328.099 103.972C327.658 104.161 327.121 104.256 326.487 104.256ZM326.742 102.75C327.405 102.75 327.964 102.62 328.418 102.359C328.878 102.099 329.223 101.763 329.455 101.351C329.692 100.939 329.81 100.506 329.81 100.051V98.517C329.739 98.6023 329.583 98.6804 329.342 98.7514C329.105 98.8177 328.83 98.8769 328.518 98.929C328.21 98.9763 327.909 99.0189 327.616 99.0568C327.327 99.09 327.093 99.1184 326.913 99.142C326.477 99.1989 326.07 99.2912 325.691 99.419C325.317 99.5421 325.014 99.7292 324.782 99.9801C324.555 100.226 324.441 100.562 324.441 100.989C324.441 101.571 324.656 102.011 325.087 102.31C325.523 102.603 326.075 102.75 326.742 102.75ZM333.061 94.6534V93.0909H341.925V94.6534H338.346V104H336.669V94.6534H333.061ZM348.377 104.227C347.326 104.227 346.42 103.995 345.657 103.531C344.9 103.062 344.315 102.409 343.903 101.571C343.496 100.728 343.292 99.7481 343.292 98.6307C343.292 97.5133 343.496 96.5284 343.903 95.6761C344.315 94.8191 344.888 94.1515 345.622 93.6733C346.36 93.1903 347.222 92.9489 348.207 92.9489C348.775 92.9489 349.336 93.0436 349.89 93.233C350.444 93.4223 350.949 93.7301 351.403 94.1562C351.858 94.5777 352.22 95.1364 352.49 95.8324C352.76 96.5284 352.895 97.3854 352.895 98.4034V99.1136H344.485V97.6648H351.19C351.19 97.0492 351.067 96.5 350.821 96.017C350.579 95.5341 350.234 95.1529 349.784 94.8736C349.339 94.5942 348.813 94.4545 348.207 94.4545C347.539 94.4545 346.962 94.6203 346.474 94.9517C345.991 95.2784 345.619 95.7045 345.359 96.2301C345.099 96.7557 344.968 97.3191 344.968 97.9205V98.8864C344.968 99.7102 345.11 100.409 345.395 100.982C345.683 101.55 346.083 101.983 346.595 102.281C347.106 102.575 347.7 102.722 348.377 102.722C348.818 102.722 349.216 102.66 349.571 102.537C349.931 102.409 350.241 102.22 350.501 101.969C350.761 101.713 350.963 101.396 351.105 101.017L352.724 101.472C352.554 102.021 352.267 102.504 351.865 102.92C351.462 103.332 350.965 103.654 350.373 103.886C349.781 104.114 349.116 104.227 348.377 104.227ZM362.177 93.0909V94.6534H357.12V104H355.444V93.0909H362.177ZM368.489 104.227C367.504 104.227 366.64 103.993 365.897 103.524C365.158 103.055 364.581 102.4 364.164 101.557C363.752 100.714 363.546 99.7292 363.546 98.6023C363.546 97.4659 363.752 96.474 364.164 95.6264C364.581 94.7789 365.158 94.1207 365.897 93.652C366.64 93.1832 367.504 92.9489 368.489 92.9489C369.474 92.9489 370.336 93.1832 371.075 93.652C371.818 94.1207 372.396 94.7789 372.808 95.6264C373.224 96.474 373.433 97.4659 373.433 98.6023C373.433 99.7292 373.224 100.714 372.808 101.557C372.396 102.4 371.818 103.055 371.075 103.524C370.336 103.993 369.474 104.227 368.489 104.227ZM368.489 102.722C369.237 102.722 369.853 102.53 370.336 102.146C370.819 101.763 371.176 101.259 371.408 100.634C371.64 100.009 371.756 99.3314 371.756 98.6023C371.756 97.8731 371.64 97.1937 371.408 96.5639C371.176 95.9342 370.819 95.4252 370.336 95.0369C369.853 94.6487 369.237 94.4545 368.489 94.4545C367.741 94.4545 367.126 94.6487 366.643 95.0369C366.16 95.4252 365.802 95.9342 365.57 96.5639C365.338 97.1937 365.222 97.8731 365.222 98.6023C365.222 99.3314 365.338 100.009 365.57 100.634C365.802 101.259 366.16 101.763 366.643 102.146C367.126 102.53 367.741 102.722 368.489 102.722ZM375.991 108.091V93.0909H377.61V94.8239H377.809C377.932 94.6345 378.103 94.393 378.321 94.0994C378.543 93.8011 378.86 93.536 379.272 93.304C379.689 93.0672 380.252 92.9489 380.963 92.9489C381.881 92.9489 382.691 93.1785 383.392 93.6378C384.092 94.0971 384.639 94.7481 385.032 95.5909C385.425 96.4337 385.622 97.428 385.622 98.5739C385.622 99.7292 385.425 100.731 385.032 101.578C384.639 102.421 384.095 103.074 383.399 103.538C382.703 103.998 381.9 104.227 380.991 104.227C380.29 104.227 379.729 104.111 379.308 103.879C378.886 103.643 378.562 103.375 378.335 103.077C378.108 102.774 377.932 102.523 377.809 102.324H377.667V108.091H375.991ZM377.639 98.5455C377.639 99.3693 377.76 100.096 378.001 100.726C378.243 101.351 378.595 101.841 379.059 102.196C379.523 102.546 380.092 102.722 380.764 102.722C381.465 102.722 382.049 102.537 382.518 102.168C382.992 101.794 383.347 101.292 383.583 100.662C383.825 100.027 383.946 99.322 383.946 98.5455C383.946 97.7784 383.827 97.0871 383.591 96.4716C383.359 95.8513 383.006 95.3613 382.532 95.0014C382.064 94.6368 381.474 94.4545 380.764 94.4545C380.082 94.4545 379.509 94.6274 379.045 94.973C378.581 95.3139 378.231 95.7921 377.994 96.4077C377.757 97.0185 377.639 97.7311 377.639 98.5455ZM389.855 101.528L395.11 93.0909H397.042V104H395.366V95.5625L390.139 104H388.179V93.0909H389.855V101.528ZM401.788 101.528L407.044 93.0909H408.976V104H407.3V95.5625L402.072 104H400.112V93.0909H401.788V101.528ZM405.936 89.4545H407.499C407.499 90.2216 407.233 90.849 406.703 91.3366C406.173 91.8243 405.453 92.0682 404.544 92.0682C403.649 92.0682 402.937 91.8243 402.406 91.3366C401.881 90.849 401.618 90.2216 401.618 89.4545H403.18C403.18 89.8239 403.282 90.1482 403.486 90.4276C403.694 90.7069 404.047 90.8466 404.544 90.8466C405.041 90.8466 405.396 90.7069 405.609 90.4276C405.827 90.1482 405.936 89.8239 405.936 89.4545Z" fill="#FFF4D5" fill-opacity="0.75"/>
</g>
<rect x="0.15" y="0.15" width="725.7" height="124.7" rx="7.85" stroke="#FFF4D5" stroke-width="0.3"/>
</g>
<defs>
<filter id="filter0_i_4034_99788" x="0" y="0" width="730" height="129" filterUnits="userSpaceOnUse" color-interpolation-filters="sRGB">
<feFlood flood-opacity="0" result="BackgroundImageFix"/>
<feBlend mode="normal" in="SourceGraphic" in2="BackgroundImageFix" result="shape"/>
<feColorMatrix in="SourceAlpha" type="matrix" values="0 0 0 0 0 0 0 0 0 0 0 0 0 0 0 0 0 0 127 0" result="hardAlpha"/>
<feOffset dx="4" dy="4"/>
<feGaussianBlur stdDeviation="6.05"/>
<feComposite in2="hardAlpha" operator="arithmetic" k2="-1" k3="1"/>
<feColorMatrix type="matrix" values="0 0 0 0 0 0 0 0 0 0 0 0 0 0 0 0 0 0 1 0"/>
<feBlend mode="normal" in2="shape" result="effect1_innerShadow_4034_99788"/>
</filter>
<radialGradient id="paint0_radial_4034_99788" cx="0" cy="0" r="1" gradientUnits="userSpaceOnUse" gradientTransform="translate(7.46395e-06 62.5) scale(726 148)">
<stop stop-color="#131339"/>
<stop offset="1" stop-color="#040306"/>
</radialGradient>
<radialGradient id="paint1_radial_4034_99788" cx="0" cy="0" r="1" gradientUnits="userSpaceOnUse" gradientTransform="translate(680.52 52.6892) rotate(68.2601) scale(51.8707 51.8707)">
<stop stop-color="#BEA8F3"/>
<stop offset="1" stop-color="#503A86"/>
</radialGradient>
<clipPath id="clip0_4034_99788">
<rect width="726" height="125" rx="8" fill="white"/>
</clipPath>
</defs>
</svg>
