<svg width="726" height="125" viewBox="0 0 726 125" fill="none" xmlns="http://www.w3.org/2000/svg">
<g filter="url(#filter0_i_4034_99804)">
<g clip-path="url(#clip0_4034_99804)">
<rect width="726" height="125" rx="8" fill="url(#paint0_radial_4034_99804)"/>
<mask id="mask0_4034_99804" style="mask-type:alpha" maskUnits="userSpaceOnUse" x="563" y="-53" width="235" height="212">
<rect x="563.148" y="46.1565" width="194.929" height="130.661" transform="rotate(-30.5753 563.148 46.1565)" fill="#D9D9D9"/>
</mask>
<g mask="url(#mask0_4034_99804)">
<path d="M652.598 113.395C609.419 86.7766 639.123 51.9531 630.665 29.8059C622.405 5.38265 669.35 -26.3634 694.915 -8.15383C720.479 10.0558 751.033 24.7011 740.17 61.6564C729.307 98.6117 695.778 140.013 652.598 113.395Z" fill="url(#paint1_radial_4034_99804)"/>
<rect x="543.961" y="40.8359" width="223.611" height="40.3668" transform="rotate(-30.5753 543.961 40.8359)" fill="black" fill-opacity="0.2"/>
<rect x="564.492" y="75.5859" width="223.611" height="39.3045" transform="rotate(-30.5753 564.492 75.5859)" fill="black" fill-opacity="0.2"/>
<rect x="584.031" y="109.695" width="223.611" height="39.8357" transform="rotate(-30.5753 584.031 109.695)" fill="black" fill-opacity="0.2"/>
<rect x="603.836" y="144.266" width="223.611" height="40.3668" transform="rotate(-30.5753 603.836 144.266)" fill="black" fill-opacity="0.2"/>
</g>
<path d="M16.5881 43.2102V36.4176H17.7557C18.1477 36.1051 18.5142 35.6648 18.8551 35.0966C19.196 34.5284 19.4858 33.75 19.7244 32.7614C19.9631 31.7727 20.1278 30.4943 20.2188 28.9261L20.679 21.5455H31.8352V36.4176H33.7784V43.1932H30.7443V39H19.6222V43.2102H16.5881ZM21.4375 36.4176H28.8011V24.196H23.5256L23.2528 28.9261C23.179 30.1136 23.0597 31.1761 22.8949 32.1136C22.7301 33.0511 22.5227 33.8778 22.2727 34.5938C22.0227 35.304 21.7443 35.9119 21.4375 36.4176ZM42.0135 39.2557C40.701 39.2557 39.5675 38.983 38.6129 38.4375C37.6641 37.8864 36.9339 37.108 36.4226 36.1023C35.9112 35.0909 35.6555 33.9006 35.6555 32.5312C35.6555 31.1847 35.9112 30.0028 36.4226 28.9858C36.9396 27.9631 37.6612 27.1676 38.5874 26.5994C39.5135 26.0256 40.6016 25.7386 41.8516 25.7386C42.6584 25.7386 43.4197 25.8693 44.1357 26.1307C44.8572 26.3864 45.4936 26.7841 46.0447 27.3239C46.6016 27.8636 47.0391 28.5511 47.3572 29.3864C47.6754 30.2159 47.8345 31.2045 47.8345 32.3523V33.2983H37.1044V31.2188H44.8771C44.8714 30.6278 44.7436 30.1023 44.4936 29.642C44.2436 29.1761 43.8942 28.8097 43.4453 28.5426C43.0021 28.2756 42.4851 28.142 41.8942 28.142C41.2635 28.142 40.7095 28.2955 40.2322 28.6023C39.755 28.9034 39.3828 29.3011 39.1158 29.7955C38.8544 30.2841 38.7209 30.821 38.7152 31.4062V33.2216C38.7152 33.983 38.8544 34.6364 39.1328 35.1818C39.4112 35.7216 39.8004 36.1364 40.3004 36.4261C40.8004 36.7102 41.3857 36.8523 42.0561 36.8523C42.505 36.8523 42.9112 36.7898 43.2749 36.6648C43.6385 36.5341 43.9538 36.3438 44.2209 36.0938C44.4879 35.8438 44.6896 35.5341 44.826 35.1648L47.7067 35.4886C47.5249 36.25 47.1783 36.9148 46.6669 37.483C46.1612 38.0455 45.5135 38.483 44.7237 38.7955C43.9339 39.1023 43.0305 39.2557 42.0135 39.2557ZM49.5412 39L49.5241 36.4602H49.9759C50.3168 36.4602 50.6037 36.3835 50.8366 36.2301C51.0696 36.0767 51.2628 35.821 51.4162 35.4631C51.5696 35.0994 51.6889 34.6108 51.7741 33.9972C51.8594 33.3835 51.919 32.6193 51.9531 31.7045L52.1832 25.9091H61.7287V39H58.7457V28.4403H54.9872L54.7827 32.6591C54.7315 33.75 54.6094 34.696 54.4162 35.4972C54.2287 36.2926 53.9616 36.9489 53.6151 37.4659C53.2741 37.983 52.8452 38.3693 52.3281 38.625C51.8111 38.875 51.2003 39 50.4957 39H49.5412ZM67.8097 34.8239L73.0511 25.9091H76.2216V39H73.2386V30.0767L68.0142 39H64.8352V25.9091H67.8097V34.8239ZM77.924 28.4403V25.9091H89.3786V28.4403H85.1428V39H82.1598V28.4403H77.924ZM97.0916 39.2557C95.7791 39.2557 94.6456 38.983 93.6911 38.4375C92.7422 37.8864 92.0121 37.108 91.5007 36.1023C90.9893 35.0909 90.7337 33.9006 90.7337 32.5312C90.7337 31.1847 90.9893 30.0028 91.5007 28.9858C92.0178 27.9631 92.7393 27.1676 93.6655 26.5994C94.5916 26.0256 95.6797 25.7386 96.9297 25.7386C97.7365 25.7386 98.4979 25.8693 99.2138 26.1307C99.9354 26.3864 100.572 26.7841 101.123 27.3239C101.68 27.8636 102.117 28.5511 102.435 29.3864C102.754 30.2159 102.913 31.2045 102.913 32.3523V33.2983H92.1825V31.2188H99.9553C99.9496 30.6278 99.8217 30.1023 99.5717 29.642C99.3217 29.1761 98.9723 28.8097 98.5234 28.5426C98.0803 28.2756 97.5632 28.142 96.9723 28.142C96.3416 28.142 95.7876 28.2955 95.3104 28.6023C94.8331 28.9034 94.4609 29.3011 94.1939 29.7955C93.9325 30.2841 93.799 30.821 93.7933 31.4062V33.2216C93.7933 33.983 93.9325 34.6364 94.2109 35.1818C94.4893 35.7216 94.8786 36.1364 95.3786 36.4261C95.8786 36.7102 96.4638 36.8523 97.1342 36.8523C97.5831 36.8523 97.9893 36.7898 98.353 36.6648C98.7166 36.5341 99.032 36.3438 99.299 36.0938C99.5661 35.8438 99.7678 35.5341 99.9041 35.1648L102.785 35.4886C102.603 36.25 102.256 36.9148 101.745 37.483C101.239 38.0455 100.592 38.483 99.8018 38.7955C99.0121 39.1023 98.1087 39.2557 97.0916 39.2557ZM111.233 39.2557C109.926 39.2557 108.804 38.9688 107.866 38.3949C106.935 37.821 106.216 37.0284 105.71 36.017C105.21 35 104.96 33.8295 104.96 32.5057C104.96 31.1761 105.216 30.0028 105.727 28.9858C106.239 27.9631 106.96 27.1676 107.892 26.5994C108.83 26.0256 109.938 25.7386 111.216 25.7386C112.278 25.7386 113.219 25.9347 114.037 26.3267C114.861 26.7131 115.517 27.2614 116.006 27.9716C116.494 28.6761 116.773 29.5 116.841 30.4432H113.892C113.773 29.8125 113.489 29.2869 113.04 28.8665C112.597 28.4403 112.003 28.2273 111.259 28.2273C110.628 28.2273 110.074 28.3977 109.597 28.7386C109.119 29.0739 108.747 29.5568 108.48 30.1875C108.219 30.8182 108.088 31.5739 108.088 32.4545C108.088 33.3466 108.219 34.1136 108.48 34.7557C108.741 35.392 109.108 35.8835 109.58 36.2301C110.057 36.571 110.616 36.7415 111.259 36.7415C111.713 36.7415 112.119 36.6562 112.477 36.4858C112.841 36.3097 113.145 36.0568 113.389 35.7273C113.634 35.3977 113.801 34.9972 113.892 34.5256H116.841C116.767 35.4517 116.494 36.2727 116.023 36.9886C115.551 37.6989 114.909 38.2557 114.097 38.6591C113.284 39.0568 112.33 39.2557 111.233 39.2557ZM121.462 30.1705H125.323C126.994 30.1705 128.286 30.5767 129.201 31.3892C130.116 32.2017 130.576 33.267 130.582 34.5852C130.576 35.4432 130.366 36.2045 129.951 36.8693C129.542 37.5341 128.945 38.0568 128.161 38.4375C127.383 38.8125 126.437 39 125.323 39H119.374V25.9091H122.349V36.4688H125.323C125.994 36.4688 126.545 36.2983 126.977 35.9574C127.408 35.6108 127.624 35.1676 127.624 34.6278C127.624 34.0597 127.408 33.5966 126.977 33.2386C126.545 32.8807 125.994 32.7017 125.323 32.7017H121.462V30.1705ZM139.179 39V25.9091H144.676C146.227 25.9091 147.452 26.2187 148.349 26.8381C149.253 27.4574 149.705 28.321 149.705 29.429C149.705 30.1619 149.449 30.7614 148.938 31.2273C148.432 31.6875 147.741 31.9972 146.866 32.1562C147.554 32.2131 148.156 32.3864 148.673 32.6761C149.196 32.9659 149.605 33.3466 149.901 33.8182C150.196 34.2898 150.344 34.8324 150.344 35.446C150.344 36.1676 150.153 36.7955 149.773 37.3295C149.398 37.858 148.849 38.2699 148.128 38.5653C147.412 38.8551 146.543 39 145.52 39H139.179ZM142.068 36.571H145.52C146.088 36.571 146.534 36.4375 146.858 36.1705C147.182 35.8977 147.344 35.5284 147.344 35.0625C147.344 34.5227 147.182 34.0994 146.858 33.7926C146.534 33.4801 146.088 33.3239 145.52 33.3239H142.068V36.571ZM142.068 31.3295H144.736C145.156 31.3295 145.517 31.2699 145.818 31.1506C146.119 31.0256 146.349 30.8523 146.509 30.6307C146.668 30.4034 146.747 30.1335 146.747 29.821C146.747 29.3722 146.563 29.0199 146.193 28.7642C145.83 28.5085 145.324 28.3807 144.676 28.3807H142.068V31.3295ZM154.978 30.1705H158.839C160.509 30.1705 161.802 30.5767 162.717 31.3892C163.631 32.2017 164.092 33.267 164.097 34.5852C164.092 35.4432 163.881 36.2045 163.467 36.8693C163.058 37.5341 162.461 38.0568 161.677 38.4375C160.898 38.8125 159.952 39 158.839 39H152.89V25.9091H155.864V36.4688H158.839C159.509 36.4688 160.06 36.2983 160.492 35.9574C160.924 35.6108 161.14 35.1676 161.14 34.6278C161.14 34.0597 160.924 33.5966 160.492 33.2386C160.06 32.8807 159.509 32.7017 158.839 32.7017H154.978V30.1705ZM165.725 39V25.9091H168.81V39H165.725ZM180.651 25.9091V28.4403H175.009V39H171.991V25.9091H180.651ZM188.295 39.2557C187.017 39.2557 185.909 38.9744 184.972 38.4119C184.034 37.8494 183.307 37.0625 182.79 36.0511C182.278 35.0398 182.023 33.858 182.023 32.5057C182.023 31.1534 182.278 29.9687 182.79 28.9517C183.307 27.9347 184.034 27.1449 184.972 26.5824C185.909 26.0199 187.017 25.7386 188.295 25.7386C189.574 25.7386 190.682 26.0199 191.619 26.5824C192.557 27.1449 193.281 27.9347 193.793 28.9517C194.31 29.9687 194.568 31.1534 194.568 32.5057C194.568 33.858 194.31 35.0398 193.793 36.0511C193.281 37.0625 192.557 37.8494 191.619 38.4119C190.682 38.9744 189.574 39.2557 188.295 39.2557ZM188.312 36.7841C189.006 36.7841 189.585 36.5937 190.051 36.2131C190.517 35.8267 190.864 35.3097 191.091 34.6619C191.324 34.0142 191.44 33.2926 191.44 32.4972C191.44 31.696 191.324 30.9716 191.091 30.3239C190.864 29.6705 190.517 29.1506 190.051 28.7642C189.585 28.3778 189.006 28.1847 188.312 28.1847C187.602 28.1847 187.011 28.3778 186.54 28.7642C186.074 29.1506 185.724 29.6705 185.491 30.3239C185.264 30.9716 185.151 31.696 185.151 32.4972C185.151 33.2926 185.264 34.0142 185.491 34.6619C185.724 35.3097 186.074 35.8267 186.54 36.2131C187.011 36.5937 187.602 36.7841 188.312 36.7841ZM196.028 42.8011V36.4602H197.067C197.346 36.2443 197.579 35.9517 197.766 35.5824C197.954 35.2074 198.107 34.767 198.227 34.2614C198.352 33.75 198.454 33.179 198.533 32.5483C198.613 31.9119 198.684 31.2273 198.746 30.4943L199.121 25.9091H208.582V36.4602H210.61V42.8011H207.627V39H199.062V42.8011H196.028ZM200.238 36.4602H205.633V28.3977H201.798L201.593 30.4943C201.479 31.8807 201.329 33.0682 201.141 34.0568C200.954 35.0455 200.653 35.8466 200.238 36.4602ZM218.624 39.2557C217.345 39.2557 216.237 38.9744 215.3 38.4119C214.362 37.8494 213.635 37.0625 213.118 36.0511C212.607 35.0398 212.351 33.858 212.351 32.5057C212.351 31.1534 212.607 29.9687 213.118 28.9517C213.635 27.9347 214.362 27.1449 215.3 26.5824C216.237 26.0199 217.345 25.7386 218.624 25.7386C219.902 25.7386 221.01 26.0199 221.947 26.5824C222.885 27.1449 223.609 27.9347 224.121 28.9517C224.638 29.9687 224.896 31.1534 224.896 32.5057C224.896 33.858 224.638 35.0398 224.121 36.0511C223.609 37.0625 222.885 37.8494 221.947 38.4119C221.01 38.9744 219.902 39.2557 218.624 39.2557ZM218.641 36.7841C219.334 36.7841 219.913 36.5937 220.379 36.2131C220.845 35.8267 221.192 35.3097 221.419 34.6619C221.652 34.0142 221.768 33.2926 221.768 32.4972C221.768 31.696 221.652 30.9716 221.419 30.3239C221.192 29.6705 220.845 29.1506 220.379 28.7642C219.913 28.3778 219.334 28.1847 218.641 28.1847C217.93 28.1847 217.339 28.3778 216.868 28.7642C216.402 29.1506 216.053 29.6705 215.82 30.3239C215.592 30.9716 215.479 31.696 215.479 32.4972C215.479 33.2926 215.592 34.0142 215.82 34.6619C216.053 35.3097 216.402 35.8267 216.868 36.2131C217.339 36.5937 217.93 36.7841 218.641 36.7841ZM230.489 34.8239L235.731 25.9091H238.901V39H235.918V30.0767L230.694 39H227.515V25.9091H230.489V34.8239ZM234.887 21.4091H237.197C237.197 22.4034 236.836 23.2102 236.114 23.8295C235.398 24.4432 234.427 24.75 233.2 24.75C231.984 24.75 231.015 24.4432 230.293 23.8295C229.577 23.2102 229.222 22.4034 229.228 21.4091H231.521C231.521 21.8182 231.646 22.1847 231.896 22.5085C232.151 22.8267 232.586 22.9858 233.2 22.9858C233.802 22.9858 234.231 22.8267 234.487 22.5085C234.748 22.1903 234.881 21.8239 234.887 21.4091ZM253.733 39.2557C252.426 39.2557 251.304 38.9688 250.366 38.3949C249.435 37.821 248.716 37.0284 248.21 36.017C247.71 35 247.46 33.8295 247.46 32.5057C247.46 31.1761 247.716 30.0028 248.227 28.9858C248.739 27.9631 249.46 27.1676 250.392 26.5994C251.33 26.0256 252.438 25.7386 253.716 25.7386C254.778 25.7386 255.719 25.9347 256.537 26.3267C257.361 26.7131 258.017 27.2614 258.506 27.9716C258.994 28.6761 259.273 29.5 259.341 30.4432H256.392C256.273 29.8125 255.989 29.2869 255.54 28.8665C255.097 28.4403 254.503 28.2273 253.759 28.2273C253.128 28.2273 252.574 28.3977 252.097 28.7386C251.619 29.0739 251.247 29.5568 250.98 30.1875C250.719 30.8182 250.588 31.5739 250.588 32.4545C250.588 33.3466 250.719 34.1136 250.98 34.7557C251.241 35.392 251.608 35.8835 252.08 36.2301C252.557 36.571 253.116 36.7415 253.759 36.7415C254.213 36.7415 254.619 36.6562 254.977 36.4858C255.341 36.3097 255.645 36.0568 255.889 35.7273C256.134 35.3977 256.301 34.9972 256.392 34.5256H259.341C259.267 35.4517 258.994 36.2727 258.523 36.9886C258.051 37.6989 257.409 38.2557 256.597 38.6591C255.784 39.0568 254.83 39.2557 253.733 39.2557ZM266.668 42.8011V36.4602H267.708C267.987 36.2443 268.219 35.9517 268.407 35.5824C268.594 35.2074 268.748 34.767 268.867 34.2614C268.992 33.75 269.094 33.179 269.174 32.5483C269.254 31.9119 269.325 31.2273 269.387 30.4943L269.762 25.9091H279.222V36.4602H281.251V42.8011H278.268V39H269.702V42.8011H266.668ZM270.879 36.4602H276.273V28.3977H272.438L272.234 30.4943C272.12 31.8807 271.969 33.0682 271.782 34.0568C271.594 35.0455 271.293 35.8466 270.879 36.4602ZM283.554 43.9091V25.9091H286.588V28.0739H286.767C286.926 27.7557 287.151 27.4176 287.44 27.0597C287.73 26.696 288.122 26.3864 288.616 26.1307C289.111 25.8693 289.741 25.7386 290.509 25.7386C291.52 25.7386 292.432 25.9972 293.244 26.5142C294.063 27.0256 294.71 27.7841 295.188 28.7898C295.67 29.7898 295.912 31.017 295.912 32.4716C295.912 33.9091 295.676 35.1307 295.205 36.1364C294.733 37.142 294.091 37.9091 293.278 38.4375C292.466 38.9659 291.545 39.2301 290.517 39.2301C289.767 39.2301 289.145 39.1051 288.651 38.8551C288.156 38.6051 287.759 38.304 287.457 37.9517C287.162 37.5937 286.932 37.2557 286.767 36.9375H286.639V43.9091H283.554ZM286.58 32.4545C286.58 33.3011 286.699 34.0426 286.938 34.679C287.182 35.3153 287.531 35.8125 287.986 36.1705C288.446 36.5227 289.003 36.6989 289.656 36.6989C290.338 36.6989 290.909 36.517 291.369 36.1534C291.83 35.7841 292.176 35.2812 292.409 34.6449C292.648 34.0028 292.767 33.2727 292.767 32.4545C292.767 31.642 292.651 30.9205 292.418 30.2898C292.185 29.6591 291.838 29.1648 291.378 28.8068C290.918 28.4489 290.344 28.2699 289.656 28.2699C288.997 28.2699 288.438 28.4432 287.977 28.7898C287.517 29.1364 287.168 29.6222 286.929 30.2472C286.696 30.8722 286.58 31.608 286.58 32.4545ZM300.026 43.9091C299.606 43.9091 299.217 43.875 298.859 43.8068C298.506 43.7443 298.225 43.6705 298.015 43.5852L298.731 41.1818C299.18 41.3125 299.58 41.375 299.933 41.3693C300.285 41.3636 300.594 41.2528 300.862 41.0369C301.134 40.8267 301.364 40.4744 301.552 39.9801L301.816 39.2727L297.069 25.9091H300.342L303.359 35.7955H303.495L306.521 25.9091H309.802L304.56 40.5852C304.316 41.2784 303.992 41.8722 303.589 42.3665C303.185 42.8665 302.691 43.2472 302.106 43.5085C301.526 43.7756 300.833 43.9091 300.026 43.9091ZM311.212 35.4119H314.272C314.3 35.9006 314.519 36.2784 314.928 36.5455C315.337 36.8125 315.869 36.946 316.522 36.946C317.187 36.946 317.746 36.8011 318.201 36.5114C318.661 36.2159 318.891 35.7699 318.891 35.1733C318.891 34.821 318.803 34.5114 318.627 34.2443C318.451 33.9716 318.204 33.7614 317.886 33.6136C317.567 33.4659 317.192 33.392 316.761 33.392H314.758V31.2017H316.761C317.403 31.2017 317.888 31.054 318.218 30.7585C318.553 30.4631 318.721 30.0909 318.721 29.642C318.721 29.1591 318.545 28.767 318.192 28.4659C317.846 28.1648 317.366 28.0142 316.752 28.0142C316.138 28.0142 315.627 28.1534 315.218 28.4318C314.815 28.7102 314.604 29.0682 314.587 29.5057H311.545C311.556 28.7443 311.783 28.0824 312.227 27.5199C312.675 26.9574 313.278 26.5199 314.033 26.2074C314.795 25.8949 315.653 25.7386 316.607 25.7386C317.63 25.7386 318.513 25.892 319.258 26.1989C320.002 26.5057 320.576 26.9347 320.979 27.4858C321.383 28.0312 321.585 28.6733 321.585 29.4119C321.585 30.1222 321.363 30.7102 320.92 31.1761C320.477 31.6364 319.88 31.9659 319.13 32.1648V32.3011C319.647 32.3295 320.113 32.4773 320.528 32.7443C320.942 33.0057 321.272 33.3608 321.516 33.8097C321.761 34.2585 321.883 34.7784 321.883 35.3693C321.883 36.1705 321.653 36.8636 321.192 37.4489C320.732 38.0284 320.099 38.4744 319.292 38.7869C318.491 39.0994 317.573 39.2557 316.539 39.2557C315.533 39.2557 314.633 39.1051 313.837 38.804C313.048 38.4972 312.42 38.0568 311.954 37.483C311.488 36.9091 311.241 36.2187 311.212 35.4119ZM326.4 30.1705H330.261C331.931 30.1705 333.224 30.5767 334.138 31.3892C335.053 32.2017 335.513 33.267 335.519 34.5852C335.513 35.4432 335.303 36.2045 334.888 36.8693C334.479 37.5341 333.883 38.0568 333.099 38.4375C332.32 38.8125 331.374 39 330.261 39H324.312V25.9091H327.286V36.4688H330.261C330.931 36.4688 331.482 36.2983 331.914 35.9574C332.346 35.6108 332.562 35.1676 332.562 34.6278C332.562 34.0597 332.346 33.5966 331.914 33.2386C331.482 32.8807 330.931 32.7017 330.261 32.7017H326.4V30.1705ZM345.902 39V28.4148H343.107C342.396 28.4148 341.851 28.5795 341.47 28.9091C341.089 29.2386 340.902 29.6477 340.908 30.1364C340.902 30.625 341.081 31.0284 341.445 31.3466C341.808 31.6648 342.328 31.8239 343.004 31.8239H346.874V34.0739H343.004C341.959 34.0739 341.055 33.9091 340.294 33.5795C339.533 33.25 338.947 32.7841 338.538 32.1818C338.129 31.5795 337.925 30.875 337.925 30.0682C337.925 29.2273 338.132 28.4972 338.547 27.8778C338.967 27.2528 339.564 26.7699 340.337 26.429C341.115 26.0824 342.038 25.9091 343.107 25.9091H348.791V39H345.902ZM337.447 39L341.104 32.2841H344.146L340.482 39H337.447ZM359.432 35.4119L363.318 25.9091H365.807L360.514 39H358.358L353.185 25.9091H355.648L359.432 35.4119ZM354.872 25.9091V39H351.898V25.9091H354.872ZM364.119 39V25.9091H367.068V39H364.119ZM373.153 34.8239L378.395 25.9091H381.565V39H378.582V30.0767L373.358 39H370.179V25.9091H373.153V34.8239Z" fill="#FFF4D5"/>
<path d="M28.642 65.4545V80H26.8807V67.017H19.5511V80H17.7898V65.4545H28.642ZM36.3995 80.2273C35.4147 80.2273 34.5505 79.9929 33.8072 79.5241C33.0685 79.0554 32.4909 78.3996 32.0742 77.5568C31.6623 76.714 31.4563 75.7292 31.4563 74.6023C31.4563 73.4659 31.6623 72.474 32.0742 71.6264C32.4909 70.7789 33.0685 70.1207 33.8072 69.652C34.5505 69.1832 35.4147 68.9489 36.3995 68.9489C37.3844 68.9489 38.2461 69.1832 38.9847 69.652C39.7281 70.1207 40.3058 70.7789 40.7177 71.6264C41.1344 72.474 41.3427 73.4659 41.3427 74.6023C41.3427 75.7292 41.1344 76.714 40.7177 77.5568C40.3058 78.3996 39.7281 79.0554 38.9847 79.5241C38.2461 79.9929 37.3844 80.2273 36.3995 80.2273ZM36.3995 78.7216C37.1476 78.7216 37.7631 78.5298 38.2461 78.1463C38.729 77.7628 39.0865 77.2585 39.3185 76.6335C39.5505 76.0085 39.6665 75.3314 39.6665 74.6023C39.6665 73.8731 39.5505 73.1937 39.3185 72.5639C39.0865 71.9342 38.729 71.4252 38.2461 71.0369C37.7631 70.6487 37.1476 70.4545 36.3995 70.4545C35.6514 70.4545 35.0359 70.6487 34.5529 71.0369C34.07 71.4252 33.7125 71.9342 33.4805 72.5639C33.2485 73.1937 33.1325 73.8731 33.1325 74.6023C33.1325 75.3314 33.2485 76.0085 33.4805 76.6335C33.7125 77.2585 34.07 77.7628 34.5529 78.1463C35.0359 78.5298 35.6514 78.7216 36.3995 78.7216ZM42.9354 80V78.4375H43.3331C43.6598 78.4375 43.9321 78.3736 44.1499 78.2457C44.3677 78.1132 44.5429 77.8835 44.6754 77.5568C44.8127 77.2254 44.9169 76.7661 44.9879 76.179C45.0637 75.5871 45.1181 74.8343 45.1513 73.9205L45.3501 69.0909H52.6229V80H50.9467V70.6534H46.9411L46.7706 74.5455C46.7327 75.4403 46.6522 76.2287 46.5291 76.9105C46.4107 77.5876 46.2285 78.1558 45.9822 78.6151C45.7408 79.0743 45.4188 79.42 45.0163 79.652C44.6139 79.884 44.1096 80 43.5036 80H42.9354ZM56.3871 84.0909C56.103 84.0909 55.8497 84.0672 55.6271 84.0199C55.4046 83.9773 55.2507 83.9347 55.1655 83.892L55.5916 82.4148C55.9988 82.5189 56.3587 82.5568 56.6712 82.5284C56.9837 82.5 57.2607 82.3603 57.5021 82.1094C57.7483 81.8632 57.9732 81.4631 58.1768 80.9091L58.4893 80.0568L54.4553 69.0909H56.2734L59.2848 77.7841H59.3984L62.4098 69.0909H64.228L59.5973 81.5909C59.389 82.1544 59.1309 82.6207 58.8232 82.9901C58.5154 83.3641 58.1579 83.6411 57.7507 83.821C57.3482 84.0009 56.8937 84.0909 56.3871 84.0909ZM74.5174 69.0909V80H72.8413V69.0909H74.5174ZM73.864 74.2898V75.8523C73.4852 75.9943 73.1088 76.1198 72.7347 76.2287C72.3607 76.3329 71.9677 76.4157 71.5558 76.4773C71.1438 76.5341 70.6916 76.5625 70.1992 76.5625C68.9634 76.5625 67.9715 76.2287 67.2234 75.5611C66.48 74.8935 66.1083 73.892 66.1083 72.5568V69.0625H67.7844V72.5568C67.7844 73.1155 67.891 73.5748 68.104 73.9347C68.3171 74.2945 68.6059 74.562 68.9705 74.7372C69.3351 74.9124 69.7447 75 70.1992 75C70.9094 75 71.551 74.9361 72.1239 74.8082C72.7016 74.6757 73.2816 74.5028 73.864 74.2898ZM79.2688 77.5284L84.5245 69.0909H86.4563V80H84.7802V71.5625L79.5529 80H77.5927V69.0909H79.2688V77.5284ZM88.0419 70.6534V69.0909H96.9055V70.6534H93.326V80H91.6499V70.6534H88.0419ZM103.358 80.2273C102.307 80.2273 101.4 79.9953 100.638 79.5312C99.8802 79.0625 99.2955 78.4091 98.8835 77.571C98.4763 76.7282 98.2727 75.7481 98.2727 74.6307C98.2727 73.5133 98.4763 72.5284 98.8835 71.6761C99.2955 70.8191 99.8684 70.1515 100.602 69.6733C101.341 69.1903 102.203 68.9489 103.188 68.9489C103.756 68.9489 104.317 69.0436 104.871 69.233C105.425 69.4223 105.929 69.7301 106.384 70.1562C106.838 70.5777 107.2 71.1364 107.47 71.8324C107.74 72.5284 107.875 73.3854 107.875 74.4034V75.1136H99.4659V73.6648H106.17C106.17 73.0492 106.047 72.5 105.801 72.017C105.56 71.5341 105.214 71.1529 104.764 70.8736C104.319 70.5942 103.794 70.4545 103.188 70.4545C102.52 70.4545 101.942 70.6203 101.455 70.9517C100.972 71.2784 100.6 71.7045 100.339 72.2301C100.079 72.7557 99.9489 73.3191 99.9489 73.9205V74.8864C99.9489 75.7102 100.091 76.4086 100.375 76.9815C100.664 77.5497 101.064 77.983 101.575 78.2812C102.087 78.5748 102.681 78.7216 103.358 78.7216C103.798 78.7216 104.196 78.66 104.551 78.5369C104.911 78.4091 105.221 78.2197 105.482 77.9688C105.742 77.7131 105.943 77.3958 106.085 77.017L107.705 77.4716C107.534 78.0208 107.248 78.5038 106.845 78.9205C106.443 79.3324 105.946 79.6544 105.354 79.8864C104.762 80.1136 104.097 80.2273 103.358 80.2273ZM114.885 83.125V78.4375H115.794C116.017 78.2055 116.208 77.9545 116.369 77.6847C116.53 77.4148 116.67 77.0952 116.788 76.7259C116.911 76.3518 117.016 75.8973 117.101 75.3622C117.186 74.8224 117.262 74.1714 117.328 73.4091L117.697 69.0909H124.629V78.4375H126.305V83.125H124.629V80H116.561V83.125H114.885ZM117.697 78.4375H122.953V70.6534H119.26L118.976 73.4091C118.857 74.5502 118.711 75.5469 118.536 76.3991C118.36 77.2514 118.081 77.9309 117.697 78.4375ZM132.962 80.2273C131.977 80.2273 131.113 79.9929 130.37 79.5241C129.631 79.0554 129.053 78.3996 128.637 77.5568C128.225 76.714 128.019 75.7292 128.019 74.6023C128.019 73.4659 128.225 72.474 128.637 71.6264C129.053 70.7789 129.631 70.1207 130.37 69.652C131.113 69.1832 131.977 68.9489 132.962 68.9489C133.947 68.9489 134.809 69.1832 135.547 69.652C136.291 70.1207 136.868 70.7789 137.28 71.6264C137.697 72.474 137.905 73.4659 137.905 74.6023C137.905 75.7292 137.697 76.714 137.28 77.5568C136.868 78.3996 136.291 79.0554 135.547 79.5241C134.809 79.9929 133.947 80.2273 132.962 80.2273ZM132.962 78.7216C133.71 78.7216 134.326 78.5298 134.809 78.1463C135.292 77.7628 135.649 77.2585 135.881 76.6335C136.113 76.0085 136.229 75.3314 136.229 74.6023C136.229 73.8731 136.113 73.1937 135.881 72.5639C135.649 71.9342 135.292 71.4252 134.809 71.0369C134.326 70.6487 133.71 70.4545 132.962 70.4545C132.214 70.4545 131.598 70.6487 131.115 71.0369C130.632 71.4252 130.275 71.9342 130.043 72.5639C129.811 73.1937 129.695 73.8731 129.695 74.6023C129.695 75.3314 129.811 76.0085 130.043 76.6335C130.275 77.2585 130.632 77.7628 131.115 78.1463C131.598 78.5298 132.214 78.7216 132.962 78.7216ZM144.896 80.2273C143.873 80.2273 142.992 79.9858 142.254 79.5028C141.515 79.0199 140.947 78.3546 140.549 77.5071C140.151 76.6596 139.952 75.6913 139.952 74.6023C139.952 73.4943 140.156 72.5166 140.563 71.669C140.975 70.8168 141.548 70.1515 142.282 69.6733C143.021 69.1903 143.882 68.9489 144.867 68.9489C145.634 68.9489 146.326 69.0909 146.941 69.375C147.557 69.6591 148.061 70.0568 148.454 70.5682C148.847 71.0795 149.091 71.6761 149.185 72.358H147.509C147.381 71.8608 147.097 71.4205 146.657 71.0369C146.221 70.6487 145.634 70.4545 144.896 70.4545C144.242 70.4545 143.669 70.625 143.177 70.9659C142.689 71.3021 142.308 71.7779 142.033 72.3935C141.763 73.0043 141.629 73.7216 141.629 74.5455C141.629 75.3883 141.761 76.1222 142.026 76.7472C142.296 77.3722 142.675 77.8575 143.163 78.2031C143.655 78.5488 144.233 78.7216 144.896 78.7216C145.331 78.7216 145.727 78.6458 146.082 78.4943C146.437 78.3428 146.737 78.125 146.984 77.8409C147.23 77.5568 147.405 77.2159 147.509 76.8182H149.185C149.091 77.4621 148.856 78.0421 148.482 78.5582C148.113 79.0696 147.623 79.4768 147.012 79.7798C146.406 80.0781 145.701 80.2273 144.896 80.2273ZM150.776 70.6534V69.0909H159.64V70.6534H156.06V80H154.384V70.6534H150.776ZM165.95 80.2273C164.965 80.2273 164.101 79.9929 163.358 79.5241C162.619 79.0554 162.042 78.3996 161.625 77.5568C161.213 76.714 161.007 75.7292 161.007 74.6023C161.007 73.4659 161.213 72.474 161.625 71.6264C162.042 70.7789 162.619 70.1207 163.358 69.652C164.101 69.1832 164.965 68.9489 165.95 68.9489C166.935 68.9489 167.797 69.1832 168.536 69.652C169.279 70.1207 169.857 70.7789 170.268 71.6264C170.685 72.474 170.893 73.4659 170.893 74.6023C170.893 75.7292 170.685 76.714 170.268 77.5568C169.857 78.3996 169.279 79.0554 168.536 79.5241C167.797 79.9929 166.935 80.2273 165.95 80.2273ZM165.95 78.7216C166.698 78.7216 167.314 78.5298 167.797 78.1463C168.28 77.7628 168.637 77.2585 168.869 76.6335C169.101 76.0085 169.217 75.3314 169.217 74.6023C169.217 73.8731 169.101 73.1937 168.869 72.5639C168.637 71.9342 168.28 71.4252 167.797 71.0369C167.314 70.6487 166.698 70.4545 165.95 70.4545C165.202 70.4545 164.587 70.6487 164.104 71.0369C163.621 71.4252 163.263 71.9342 163.031 72.5639C162.799 73.1937 162.683 73.8731 162.683 74.6023C162.683 75.3314 162.799 76.0085 163.031 76.6335C163.263 77.2585 163.621 77.7628 164.104 78.1463C164.587 78.5298 165.202 78.7216 165.95 78.7216ZM175.128 77.5284L180.384 69.0909H182.316V80H180.64V71.5625L175.412 80H173.452V69.0909H175.128V77.5284ZM179.276 65.4545H180.838C180.838 66.2216 180.573 66.849 180.043 67.3366C179.513 67.8243 178.793 68.0682 177.884 68.0682C176.989 68.0682 176.276 67.8243 175.746 67.3366C175.221 66.849 174.958 66.2216 174.958 65.4545H176.52C176.52 65.8239 176.622 66.1482 176.826 66.4276C177.034 66.7069 177.387 66.8466 177.884 66.8466C178.381 66.8466 178.736 66.7069 178.949 66.4276C179.167 66.1482 179.276 65.8239 179.276 65.4545ZM192.687 73.7784V75.3409H186.664V73.7784H192.687ZM187.062 69.0909V80H185.386V69.0909H187.062ZM193.965 69.0909V80H192.289V69.0909H193.965ZM201.458 80.2273C200.473 80.2273 199.609 79.9929 198.866 79.5241C198.127 79.0554 197.549 78.3996 197.133 77.5568C196.721 76.714 196.515 75.7292 196.515 74.6023C196.515 73.4659 196.721 72.474 197.133 71.6264C197.549 70.7789 198.127 70.1207 198.866 69.652C199.609 69.1832 200.473 68.9489 201.458 68.9489C202.443 68.9489 203.305 69.1832 204.043 69.652C204.787 70.1207 205.364 70.7789 205.776 71.6264C206.193 72.474 206.401 73.4659 206.401 74.6023C206.401 75.7292 206.193 76.714 205.776 77.5568C205.364 78.3996 204.787 79.0554 204.043 79.5241C203.305 79.9929 202.443 80.2273 201.458 80.2273ZM201.458 78.7216C202.206 78.7216 202.822 78.5298 203.305 78.1463C203.788 77.7628 204.145 77.2585 204.377 76.6335C204.609 76.0085 204.725 75.3314 204.725 74.6023C204.725 73.8731 204.609 73.1937 204.377 72.5639C204.145 71.9342 203.788 71.4252 203.305 71.0369C202.822 70.6487 202.206 70.4545 201.458 70.4545C200.71 70.4545 200.094 70.6487 199.612 71.0369C199.129 71.4252 198.771 71.9342 198.539 72.5639C198.307 73.1937 198.191 73.8731 198.191 74.6023C198.191 75.3314 198.307 76.0085 198.539 76.6335C198.771 77.2585 199.129 77.7628 199.612 78.1463C200.094 78.5298 200.71 78.7216 201.458 78.7216ZM213.534 80.2273C212.483 80.2273 211.576 79.9953 210.814 79.5312C210.056 79.0625 209.471 78.4091 209.059 77.571C208.652 76.7282 208.449 75.7481 208.449 74.6307C208.449 73.5133 208.652 72.5284 209.059 71.6761C209.471 70.8191 210.044 70.1515 210.778 69.6733C211.517 69.1903 212.378 68.9489 213.363 68.9489C213.931 68.9489 214.493 69.0436 215.047 69.233C215.6 69.4223 216.105 69.7301 216.559 70.1562C217.014 70.5777 217.376 71.1364 217.646 71.8324C217.916 72.5284 218.051 73.3854 218.051 74.4034V75.1136H209.642V73.6648H216.346C216.346 73.0492 216.223 72.5 215.977 72.017C215.735 71.5341 215.39 71.1529 214.94 70.8736C214.495 70.5942 213.969 70.4545 213.363 70.4545C212.696 70.4545 212.118 70.6203 211.63 70.9517C211.147 71.2784 210.776 71.7045 210.515 72.2301C210.255 72.7557 210.125 73.3191 210.125 73.9205V74.8864C210.125 75.7102 210.267 76.4086 210.551 76.9815C210.84 77.5497 211.24 77.983 211.751 78.2812C212.262 78.5748 212.857 78.7216 213.534 78.7216C213.974 78.7216 214.372 78.66 214.727 78.5369C215.087 78.4091 215.397 78.2197 215.657 77.9688C215.918 77.7131 216.119 77.3958 216.261 77.017L217.88 77.4716C217.71 78.0208 217.423 78.5038 217.021 78.9205C216.618 79.3324 216.121 79.6544 215.529 79.8864C214.938 80.1136 214.272 80.2273 213.534 80.2273ZM226.225 80V69.0909H230.686C231.86 69.0909 232.793 69.3561 233.484 69.8864C234.175 70.4167 234.521 71.1174 234.521 71.9886C234.521 72.6515 234.324 73.1652 233.931 73.5298C233.538 73.8897 233.034 74.1335 232.419 74.2614C232.821 74.3182 233.212 74.4602 233.591 74.6875C233.974 74.9148 234.291 75.2273 234.542 75.625C234.793 76.018 234.919 76.5009 234.919 77.0739C234.919 77.6326 234.777 78.1321 234.493 78.5724C234.208 79.0128 233.801 79.3608 233.271 79.6165C232.741 79.8722 232.106 80 231.368 80H226.225ZM227.816 78.4659H231.368C231.945 78.4659 232.397 78.3286 232.724 78.054C233.051 77.7794 233.214 77.4053 233.214 76.9318C233.214 76.3684 233.051 75.9257 232.724 75.6037C232.397 75.277 231.945 75.1136 231.368 75.1136H227.816V78.4659ZM227.816 73.6648H230.686C231.136 73.6648 231.521 73.6032 231.843 73.4801C232.165 73.3523 232.412 73.1723 232.582 72.9403C232.757 72.7036 232.845 72.4242 232.845 72.1023C232.845 71.643 232.653 71.2831 232.27 71.0227C231.886 70.7576 231.358 70.625 230.686 70.625H227.816V73.6648ZM241.888 80.2273C240.903 80.2273 240.039 79.9929 239.295 79.5241C238.557 79.0554 237.979 78.3996 237.562 77.5568C237.151 76.714 236.945 75.7292 236.945 74.6023C236.945 73.4659 237.151 72.474 237.562 71.6264C237.979 70.7789 238.557 70.1207 239.295 69.652C240.039 69.1832 240.903 68.9489 241.888 68.9489C242.873 68.9489 243.734 69.1832 244.473 69.652C245.216 70.1207 245.794 70.7789 246.206 71.6264C246.623 72.474 246.831 73.4659 246.831 74.6023C246.831 75.7292 246.623 76.714 246.206 77.5568C245.794 78.3996 245.216 79.0554 244.473 79.5241C243.734 79.9929 242.873 80.2273 241.888 80.2273ZM241.888 78.7216C242.636 78.7216 243.251 78.5298 243.734 78.1463C244.217 77.7628 244.575 77.2585 244.807 76.6335C245.039 76.0085 245.155 75.3314 245.155 74.6023C245.155 73.8731 245.039 73.1937 244.807 72.5639C244.575 71.9342 244.217 71.4252 243.734 71.0369C243.251 70.6487 242.636 70.4545 241.888 70.4545C241.14 70.4545 240.524 70.6487 240.041 71.0369C239.558 71.4252 239.201 71.9342 238.969 72.5639C238.737 73.1937 238.621 73.8731 238.621 74.6023C238.621 75.3314 238.737 76.0085 238.969 76.6335C239.201 77.2585 239.558 77.7628 240.041 78.1463C240.524 78.5298 241.14 78.7216 241.888 78.7216ZM248.708 77.2159H250.498C250.535 77.7083 250.758 78.0824 251.165 78.3381C251.577 78.5938 252.112 78.7216 252.77 78.7216C253.443 78.7216 254.018 78.5843 254.496 78.3097C254.974 78.0303 255.213 77.5805 255.213 76.9602C255.213 76.5956 255.123 76.2784 254.944 76.0085C254.764 75.7339 254.51 75.5208 254.184 75.3693C253.857 75.2178 253.471 75.142 253.026 75.142H251.151V73.6364H253.026C253.694 73.6364 254.186 73.4848 254.503 73.1818C254.825 72.8788 254.986 72.5 254.986 72.0455C254.986 71.5578 254.813 71.1671 254.468 70.8736C254.122 70.5753 253.632 70.4261 252.998 70.4261C252.358 70.4261 251.826 70.5705 251.4 70.8594C250.973 71.1435 250.748 71.5104 250.725 71.9602H248.963C248.982 71.3731 249.162 70.8546 249.503 70.4048C249.844 69.9503 250.308 69.5952 250.895 69.3395C251.482 69.0791 252.155 68.9489 252.912 68.9489C253.679 68.9489 254.345 69.0838 254.908 69.3537C255.476 69.6188 255.914 69.9811 256.222 70.4403C256.534 70.8949 256.691 71.411 256.691 71.9886C256.691 72.6042 256.518 73.1013 256.172 73.4801C255.827 73.8589 255.393 74.1288 254.873 74.2898V74.4034C255.284 74.4318 255.642 74.5644 255.945 74.8011C256.253 75.0331 256.492 75.3385 256.662 75.7173C256.833 76.0914 256.918 76.5057 256.918 76.9602C256.918 77.6231 256.74 78.2008 256.385 78.6932C256.03 79.1809 255.542 79.5597 254.922 79.8295C254.302 80.0947 253.594 80.2273 252.799 80.2273C252.027 80.2273 251.336 80.1018 250.725 79.8509C250.114 79.5952 249.629 79.2424 249.269 78.7926C248.914 78.3381 248.727 77.8125 248.708 77.2159ZM266.574 73.7784V75.3409H260.551V73.7784H266.574ZM260.949 69.0909V80H259.272V69.0909H260.949ZM267.852 69.0909V80H266.176V69.0909H267.852ZM274.123 80.2557C273.432 80.2557 272.805 80.1255 272.241 79.8651C271.678 79.5999 271.23 79.2188 270.899 78.7216C270.567 78.2197 270.402 77.6136 270.402 76.9034C270.402 76.2784 270.525 75.7718 270.771 75.3835C271.017 74.9905 271.346 74.6828 271.758 74.4602C272.17 74.2377 272.625 74.072 273.122 73.9631C273.624 73.8494 274.128 73.7595 274.635 73.6932C275.297 73.608 275.835 73.544 276.247 73.5014C276.663 73.4541 276.967 73.3759 277.156 73.267C277.35 73.1581 277.447 72.9687 277.447 72.6989V72.642C277.447 71.9413 277.255 71.3968 276.872 71.0085C276.493 70.6203 275.918 70.4261 275.146 70.4261C274.346 70.4261 273.718 70.6013 273.264 70.9517C272.809 71.3021 272.49 71.6761 272.305 72.0739L270.714 71.5057C270.998 70.8428 271.377 70.3267 271.85 69.9574C272.329 69.5833 272.85 69.3229 273.413 69.1761C273.981 69.0246 274.54 68.9489 275.089 68.9489C275.44 68.9489 275.842 68.9915 276.297 69.0767C276.756 69.1572 277.199 69.3253 277.625 69.581C278.056 69.8366 278.413 70.2225 278.697 70.7386C278.981 71.2547 279.123 71.946 279.123 72.8125V80H277.447V78.5227H277.362C277.248 78.7595 277.059 79.0128 276.794 79.2827C276.529 79.5526 276.176 79.7822 275.735 79.9716C275.295 80.161 274.758 80.2557 274.123 80.2557ZM274.379 78.75C275.042 78.75 275.6 78.6198 276.055 78.3594C276.514 78.099 276.86 77.7628 277.092 77.3509C277.329 76.9389 277.447 76.5057 277.447 76.0511V74.517C277.376 74.6023 277.22 74.6804 276.978 74.7514C276.742 74.8177 276.467 74.8769 276.154 74.929C275.847 74.9763 275.546 75.0189 275.252 75.0568C274.964 75.09 274.729 75.1184 274.549 75.142C274.114 75.1989 273.707 75.2912 273.328 75.419C272.954 75.5421 272.651 75.7292 272.419 75.9801C272.191 76.2263 272.078 76.5625 272.078 76.9886C272.078 77.571 272.293 78.0114 272.724 78.3097C273.16 78.6032 273.711 78.75 274.379 78.75ZM288.915 69.0909V70.6534H283.859V80H282.183V69.0909H288.915ZM291.362 84.0909V69.0909H292.982V70.8239H293.18C293.304 70.6345 293.474 70.393 293.692 70.0994C293.914 69.8011 294.232 69.536 294.643 69.304C295.06 69.0672 295.624 68.9489 296.334 68.9489C297.252 68.9489 298.062 69.1785 298.763 69.6378C299.464 70.0971 300.01 70.7481 300.403 71.5909C300.796 72.4337 300.993 73.428 300.993 74.5739C300.993 75.7292 300.796 76.7306 300.403 77.5781C300.01 78.4209 299.466 79.0743 298.77 79.5384C298.074 79.9976 297.271 80.2273 296.362 80.2273C295.661 80.2273 295.1 80.1113 294.679 79.8793C294.258 79.6425 293.933 79.375 293.706 79.0767C293.479 78.7737 293.304 78.5227 293.18 78.3239H293.038V84.0909H291.362ZM293.01 74.5455C293.01 75.3693 293.131 76.0961 293.372 76.7259C293.614 77.3509 293.966 77.8409 294.43 78.196C294.894 78.5464 295.463 78.7216 296.135 78.7216C296.836 78.7216 297.42 78.5369 297.889 78.1676C298.363 77.7936 298.718 77.2917 298.955 76.6619C299.196 76.0275 299.317 75.322 299.317 74.5455C299.317 73.7784 299.198 73.0871 298.962 72.4716C298.73 71.8513 298.377 71.3613 297.903 71.0014C297.435 70.6368 296.845 70.4545 296.135 70.4545C295.453 70.4545 294.88 70.6274 294.416 70.973C293.952 71.3139 293.602 71.7921 293.365 72.4077C293.128 73.0185 293.01 73.7311 293.01 74.5455ZM306.76 80.2557C306.069 80.2557 305.441 80.1255 304.878 79.8651C304.314 79.5999 303.867 79.2188 303.536 78.7216C303.204 78.2197 303.038 77.6136 303.038 76.9034C303.038 76.2784 303.161 75.7718 303.408 75.3835C303.654 74.9905 303.983 74.6828 304.395 74.4602C304.807 74.2377 305.261 74.072 305.759 73.9631C306.26 73.8494 306.765 73.7595 307.271 73.6932C307.934 73.608 308.472 73.544 308.884 73.5014C309.3 73.4541 309.603 73.3759 309.793 73.267C309.987 73.1581 310.084 72.9687 310.084 72.6989V72.642C310.084 71.9413 309.892 71.3968 309.509 71.0085C309.13 70.6203 308.554 70.4261 307.783 70.4261C306.982 70.4261 306.355 70.6013 305.901 70.9517C305.446 71.3021 305.126 71.6761 304.942 72.0739L303.351 71.5057C303.635 70.8428 304.014 70.3267 304.487 69.9574C304.965 69.5833 305.486 69.3229 306.05 69.1761C306.618 69.0246 307.177 68.9489 307.726 68.9489C308.076 68.9489 308.479 68.9915 308.933 69.0767C309.393 69.1572 309.835 69.3253 310.261 69.581C310.692 69.8366 311.05 70.2225 311.334 70.7386C311.618 71.2547 311.76 71.946 311.76 72.8125V80H310.084V78.5227H309.999C309.885 78.7595 309.696 79.0128 309.43 79.2827C309.165 79.5526 308.813 79.7822 308.372 79.9716C307.932 80.161 307.394 80.2557 306.76 80.2557ZM307.016 78.75C307.679 78.75 308.237 78.6198 308.692 78.3594C309.151 78.099 309.497 77.7628 309.729 77.3509C309.965 76.9389 310.084 76.5057 310.084 76.0511V74.517C310.013 74.6023 309.857 74.6804 309.615 74.7514C309.378 74.8177 309.104 74.8769 308.791 74.929C308.483 74.9763 308.183 75.0189 307.889 75.0568C307.6 75.09 307.366 75.1184 307.186 75.142C306.75 75.1989 306.343 75.2912 305.964 75.419C305.59 75.5421 305.287 75.7292 305.055 75.9801C304.828 76.2263 304.714 76.5625 304.714 76.9886C304.714 77.571 304.93 78.0114 305.361 78.3097C305.796 78.6032 306.348 78.75 307.016 78.75ZM314.137 80L318.569 74.4602L314.194 69.0909H316.183L319.819 73.75H320.728V69.0909H322.404V73.75H323.285L326.922 69.0909H328.91L324.564 74.4602L328.967 80H326.95L323.257 75.3125H322.404V80H320.728V75.3125H319.876L316.154 80H314.137ZM330.197 83.125V78.4375H331.107C331.329 78.2055 331.521 77.9545 331.682 77.6847C331.843 77.4148 331.982 77.0952 332.101 76.7259C332.224 76.3518 332.328 75.8973 332.413 75.3622C332.499 74.8224 332.574 74.1714 332.641 73.4091L333.01 69.0909H339.942V78.4375H341.618V83.125H339.942V80H331.874V83.125H330.197ZM333.01 78.4375H338.266V70.6534H334.572L334.288 73.4091C334.17 74.5502 334.023 75.5469 333.848 76.3991C333.673 77.2514 333.393 77.9309 333.01 78.4375ZM348.417 80.2273C347.365 80.2273 346.459 79.9953 345.696 79.5312C344.939 79.0625 344.354 78.4091 343.942 77.571C343.535 76.7282 343.331 75.7481 343.331 74.6307C343.331 73.5133 343.535 72.5284 343.942 71.6761C344.354 70.8191 344.927 70.1515 345.661 69.6733C346.4 69.1903 347.261 68.9489 348.246 68.9489C348.814 68.9489 349.375 69.0436 349.929 69.233C350.483 69.4223 350.988 69.7301 351.442 70.1562C351.897 70.5777 352.259 71.1364 352.529 71.8324C352.799 72.5284 352.934 73.3854 352.934 74.4034V75.1136H344.525V73.6648H351.229C351.229 73.0492 351.106 72.5 350.86 72.017C350.618 71.5341 350.273 71.1529 349.823 70.8736C349.378 70.5942 348.852 70.4545 348.246 70.4545C347.578 70.4545 347.001 70.6203 346.513 70.9517C346.03 71.2784 345.658 71.7045 345.398 72.2301C345.138 72.7557 345.007 73.3191 345.007 73.9205V74.8864C345.007 75.7102 345.15 76.4086 345.434 76.9815C345.722 77.5497 346.123 77.983 346.634 78.2812C347.145 78.5748 347.739 78.7216 348.417 78.7216C348.857 78.7216 349.255 78.66 349.61 78.5369C349.97 78.4091 350.28 78.2197 350.54 77.9688C350.801 77.7131 351.002 77.3958 351.144 77.017L352.763 77.4716C352.593 78.0208 352.306 78.5038 351.904 78.9205C351.501 79.3324 351.004 79.6544 350.412 79.8864C349.82 80.1136 349.155 80.2273 348.417 80.2273ZM362.784 73.7784V75.3409H356.762V73.7784H362.784ZM357.159 69.0909V80H355.483V69.0909H357.159ZM364.063 69.0909V80H362.387V69.0909H364.063ZM368.8 77.5284L374.056 69.0909H375.988V80H374.311V71.5625L369.084 80H367.124V69.0909H368.8V77.5284ZM383.631 80.2273C382.58 80.2273 381.674 79.9953 380.911 79.5312C380.154 79.0625 379.569 78.4091 379.157 77.571C378.75 76.7282 378.546 75.7481 378.546 74.6307C378.546 73.5133 378.75 72.5284 379.157 71.6761C379.569 70.8191 380.142 70.1515 380.876 69.6733C381.614 69.1903 382.476 68.9489 383.461 68.9489C384.029 68.9489 384.59 69.0436 385.144 69.233C385.698 69.4223 386.202 69.7301 386.657 70.1562C387.112 70.5777 387.474 71.1364 387.744 71.8324C388.013 72.5284 388.148 73.3854 388.148 74.4034V75.1136H379.739V73.6648H386.444C386.444 73.0492 386.321 72.5 386.075 72.017C385.833 71.5341 385.487 71.1529 385.038 70.8736C384.593 70.5942 384.067 70.4545 383.461 70.4545C382.793 70.4545 382.216 70.6203 381.728 70.9517C381.245 71.2784 380.873 71.7045 380.613 72.2301C380.353 72.7557 380.222 73.3191 380.222 73.9205V74.8864C380.222 75.7102 380.364 76.4086 380.648 76.9815C380.937 77.5497 381.337 77.983 381.849 78.2812C382.36 78.5748 382.954 78.7216 383.631 78.7216C384.072 78.7216 384.469 78.66 384.825 78.5369C385.184 78.4091 385.495 78.2197 385.755 77.9688C386.015 77.7131 386.217 77.3958 386.359 77.017L387.978 77.4716C387.808 78.0208 387.521 78.5038 387.119 78.9205C386.716 79.3324 386.219 79.6544 385.627 79.8864C385.035 80.1136 384.37 80.2273 383.631 80.2273ZM16.8523 101.216H18.642C18.6799 101.708 18.9025 102.082 19.3097 102.338C19.7216 102.594 20.2566 102.722 20.9148 102.722C21.5871 102.722 22.1624 102.584 22.6406 102.31C23.1188 102.03 23.358 101.58 23.358 100.96C23.358 100.596 23.268 100.278 23.0881 100.009C22.9081 99.7339 22.6548 99.5208 22.3281 99.3693C22.0014 99.2178 21.6155 99.142 21.1705 99.142H19.2955V97.6364H21.1705C21.8381 97.6364 22.3305 97.4848 22.6477 97.1818C22.9697 96.8788 23.1307 96.5 23.1307 96.0455C23.1307 95.5578 22.9579 95.1671 22.6122 94.8736C22.2666 94.5753 21.7765 94.4261 21.142 94.4261C20.5028 94.4261 19.9702 94.5705 19.544 94.8594C19.1179 95.1435 18.893 95.5104 18.8693 95.9602H17.108C17.1269 95.3731 17.3068 94.8546 17.6477 94.4048C17.9886 93.9503 18.4527 93.5952 19.0398 93.3395C19.6269 93.0791 20.2992 92.9489 21.0568 92.9489C21.8239 92.9489 22.4891 93.0838 23.0526 93.3537C23.6207 93.6188 24.0587 93.9811 24.3665 94.4403C24.679 94.8949 24.8352 95.411 24.8352 95.9886C24.8352 96.6042 24.6624 97.1013 24.3168 97.4801C23.9711 97.8589 23.5379 98.1288 23.017 98.2898V98.4034C23.429 98.4318 23.7865 98.5644 24.0895 98.8011C24.3973 99.0331 24.6364 99.3385 24.8068 99.7173C24.9773 100.091 25.0625 100.506 25.0625 100.96C25.0625 101.623 24.8849 102.201 24.5298 102.693C24.1747 103.181 23.687 103.56 23.0668 103.83C22.4465 104.095 21.7386 104.227 20.9432 104.227C20.1714 104.227 19.4801 104.102 18.8693 103.851C18.2585 103.595 17.7732 103.242 17.4134 102.793C17.0582 102.338 16.8712 101.812 16.8523 101.216ZM30.6271 104.256C29.9358 104.256 29.3085 104.125 28.745 103.865C28.1816 103.6 27.7341 103.219 27.4027 102.722C27.0713 102.22 26.9055 101.614 26.9055 100.903C26.9055 100.278 27.0286 99.7718 27.2749 99.3835C27.5211 98.9905 27.8501 98.6828 28.2621 98.4602C28.674 98.2377 29.1286 98.072 29.6257 97.9631C30.1276 97.8494 30.6319 97.7595 31.1385 97.6932C31.8014 97.608 32.3388 97.544 32.7507 97.5014C33.1674 97.4541 33.4704 97.3759 33.6598 97.267C33.8539 97.1581 33.951 96.9687 33.951 96.6989V96.642C33.951 95.9413 33.7592 95.3968 33.3757 95.0085C32.9969 94.6203 32.4216 94.4261 31.6499 94.4261C30.8497 94.4261 30.2223 94.6013 29.7678 94.9517C29.3132 95.3021 28.9936 95.6761 28.8089 96.0739L27.218 95.5057C27.5021 94.8428 27.8809 94.3267 28.3544 93.9574C28.8326 93.5833 29.3535 93.3229 29.9169 93.1761C30.4851 93.0246 31.0438 92.9489 31.593 92.9489C31.9434 92.9489 32.3459 92.9915 32.8004 93.0767C33.2597 93.1572 33.7024 93.3253 34.1286 93.581C34.5594 93.8366 34.9169 94.2225 35.201 94.7386C35.4851 95.2547 35.6271 95.946 35.6271 96.8125V104H33.951V102.523H33.8658C33.7521 102.759 33.5627 103.013 33.2976 103.283C33.0324 103.553 32.6797 103.782 32.2393 103.972C31.799 104.161 31.2616 104.256 30.6271 104.256ZM30.8828 102.75C31.5457 102.75 32.1044 102.62 32.5589 102.359C33.0182 102.099 33.3639 101.763 33.5959 101.351C33.8326 100.939 33.951 100.506 33.951 100.051V98.517C33.88 98.6023 33.7237 98.6804 33.4822 98.7514C33.2455 98.8177 32.9709 98.8769 32.6584 98.929C32.3506 98.9763 32.05 99.0189 31.7564 99.0568C31.4676 99.09 31.2332 99.1184 31.0533 99.142C30.6177 99.1989 30.2105 99.2912 29.8317 99.419C29.4576 99.5421 29.1546 99.7292 28.9226 99.9801C28.6953 100.226 28.5817 100.562 28.5817 100.989C28.5817 101.571 28.7971 102.011 29.228 102.31C29.6636 102.603 30.2152 102.75 30.8828 102.75ZM44.3114 108.091V93.0909H45.9308V94.8239H46.1296C46.2527 94.6345 46.4232 94.393 46.641 94.0994C46.8635 93.8011 47.1808 93.536 47.5927 93.304C48.0094 93.0672 48.5728 92.9489 49.283 92.9489C50.2016 92.9489 51.0112 93.1785 51.712 93.6378C52.4128 94.0971 52.9596 94.7481 53.3526 95.5909C53.7456 96.4337 53.9421 97.428 53.9421 98.5739C53.9421 99.7292 53.7456 100.731 53.3526 101.578C52.9596 102.421 52.4151 103.074 51.7191 103.538C51.0231 103.998 50.2205 104.227 49.3114 104.227C48.6107 104.227 48.0496 104.111 47.6282 103.879C47.2068 103.643 46.8825 103.375 46.6552 103.077C46.4279 102.774 46.2527 102.523 46.1296 102.324H45.9876V108.091H44.3114ZM45.9592 98.5455C45.9592 99.3693 46.0799 100.096 46.3214 100.726C46.5629 101.351 46.9156 101.841 47.3796 102.196C47.8436 102.546 48.4118 102.722 49.0842 102.722C49.7849 102.722 50.3697 102.537 50.8384 102.168C51.3119 101.794 51.667 101.292 51.9038 100.662C52.1452 100.027 52.266 99.322 52.266 98.5455C52.266 97.7784 52.1476 97.0871 51.9109 96.4716C51.6789 95.8513 51.3261 95.3613 50.8526 95.0014C50.3839 94.6368 49.7944 94.4545 49.0842 94.4545C48.4023 94.4545 47.8294 94.6274 47.3654 94.973C46.9014 95.3139 46.551 95.7921 46.3143 96.4077C46.0775 97.0185 45.9592 97.7311 45.9592 98.5455ZM61.0728 104.227C60.0217 104.227 59.1149 103.995 58.3526 103.531C57.5951 103.062 57.0103 102.409 56.5984 101.571C56.1912 100.728 55.9876 99.7481 55.9876 98.6307C55.9876 97.5133 56.1912 96.5284 56.5984 95.6761C57.0103 94.8191 57.5832 94.1515 58.3171 93.6733C59.0558 93.1903 59.9175 92.9489 60.9023 92.9489C61.4705 92.9489 62.0316 93.0436 62.5856 93.233C63.1396 93.4223 63.6438 93.7301 64.0984 94.1562C64.5529 94.5777 64.9151 95.1364 65.185 95.8324C65.4549 96.5284 65.5898 97.3854 65.5898 98.4034V99.1136H57.1808V97.6648H63.8853C63.8853 97.0492 63.7622 96.5 63.516 96.017C63.2745 95.5341 62.9289 95.1529 62.479 94.8736C62.034 94.5942 61.5084 94.4545 60.9023 94.4545C60.2347 94.4545 59.6571 94.6203 59.1694 94.9517C58.6864 95.2784 58.3147 95.7045 58.0543 96.2301C57.7939 96.7557 57.6637 97.3191 57.6637 97.9205V98.8864C57.6637 99.7102 57.8058 100.409 58.0898 100.982C58.3787 101.55 58.7788 101.983 59.2901 102.281C59.8015 102.575 60.3957 102.722 61.0728 102.722C61.5131 102.722 61.9109 102.66 62.266 102.537C62.6258 102.409 62.936 102.22 63.1964 101.969C63.4568 101.713 63.658 101.396 63.8001 101.017L65.4194 101.472C65.2489 102.021 64.9625 102.504 64.56 102.92C64.1576 103.332 63.6604 103.654 63.0685 103.886C62.4767 104.114 61.8114 104.227 61.0728 104.227ZM68.1396 104V93.0909H69.8157V97.8352H70.9237L74.8441 93.0909H77.0032L72.5998 98.3466L77.06 104H74.9009L71.3214 99.3977H69.8157V104H68.1396ZM82.8643 104.227C81.8795 104.227 81.0154 103.993 80.272 103.524C79.5334 103.055 78.9557 102.4 78.5391 101.557C78.1271 100.714 77.9212 99.7292 77.9212 98.6023C77.9212 97.4659 78.1271 96.474 78.5391 95.6264C78.9557 94.7789 79.5334 94.1207 80.272 93.652C81.0154 93.1832 81.8795 92.9489 82.8643 92.9489C83.8492 92.9489 84.7109 93.1832 85.4496 93.652C86.1929 94.1207 86.7706 94.7789 87.1825 95.6264C87.5992 96.474 87.8075 97.4659 87.8075 98.6023C87.8075 99.7292 87.5992 100.714 87.1825 101.557C86.7706 102.4 86.1929 103.055 85.4496 103.524C84.7109 103.993 83.8492 104.227 82.8643 104.227ZM82.8643 102.722C83.6125 102.722 84.228 102.53 84.7109 102.146C85.1939 101.763 85.5514 101.259 85.7834 100.634C86.0154 100.009 86.1314 99.3314 86.1314 98.6023C86.1314 97.8731 86.0154 97.1937 85.7834 96.5639C85.5514 95.9342 85.1939 95.4252 84.7109 95.0369C84.228 94.6487 83.6125 94.4545 82.8643 94.4545C82.1162 94.4545 81.5007 94.6487 81.0178 95.0369C80.5348 95.4252 80.1773 95.9342 79.9453 96.5639C79.7133 97.1937 79.5973 97.8731 79.5973 98.6023C79.5973 99.3314 79.7133 100.009 79.9453 100.634C80.1773 101.259 80.5348 101.763 81.0178 102.146C81.5007 102.53 82.1162 102.722 82.8643 102.722ZM96.332 101.727L100.139 93.0909H101.73L97.0138 104H95.6502L91.0195 93.0909H92.582L96.332 101.727ZM92.0423 93.0909V104H90.3661V93.0909H92.0423ZM100.622 104V93.0909H102.298V104H100.622ZM109.94 104.227C108.889 104.227 107.982 103.995 107.22 103.531C106.462 103.062 105.877 102.409 105.466 101.571C105.058 100.728 104.855 99.7481 104.855 98.6307C104.855 97.5133 105.058 96.5284 105.466 95.6761C105.877 94.8191 106.45 94.1515 107.184 93.6733C107.923 93.1903 108.785 92.9489 109.77 92.9489C110.338 92.9489 110.899 93.0436 111.453 93.233C112.007 93.4223 112.511 93.7301 112.966 94.1562C113.42 94.5777 113.782 95.1364 114.052 95.8324C114.322 96.5284 114.457 97.3854 114.457 98.4034V99.1136H106.048V97.6648H112.752C112.752 97.0492 112.629 96.5 112.383 96.017C112.142 95.5341 111.796 95.1529 111.346 94.8736C110.901 94.5942 110.376 94.4545 109.77 94.4545C109.102 94.4545 108.524 94.6203 108.037 94.9517C107.554 95.2784 107.182 95.7045 106.922 96.2301C106.661 96.7557 106.531 97.3191 106.531 97.9205V98.8864C106.531 99.7102 106.673 100.409 106.957 100.982C107.246 101.55 107.646 101.983 108.157 102.281C108.669 102.575 109.263 102.722 109.94 102.722C110.38 102.722 110.778 102.66 111.133 102.537C111.493 102.409 111.803 102.22 112.064 101.969C112.324 101.713 112.525 101.396 112.667 101.017L114.287 101.472C114.116 102.021 113.83 102.504 113.427 102.92C113.025 103.332 112.528 103.654 111.936 103.886C111.344 104.114 110.679 104.227 109.94 104.227ZM124.308 97.7784V99.3409H118.285V97.7784H124.308ZM118.683 93.0909V104H117.007V93.0909H118.683ZM125.586 93.0909V104H123.91V93.0909H125.586ZM127.483 107.125V102.438H128.392C128.614 102.205 128.806 101.955 128.967 101.685C129.128 101.415 129.268 101.095 129.386 100.726C129.509 100.352 129.613 99.8973 129.699 99.3622C129.784 98.8224 129.859 98.1714 129.926 97.4091L130.295 93.0909H137.227V102.438H138.903V107.125H137.227V104H129.159V107.125H127.483ZM130.295 102.438H135.551V94.6534H131.858L131.574 97.4091C131.455 98.5502 131.308 99.5469 131.133 100.399C130.958 101.251 130.679 101.931 130.295 102.438ZM144.338 104.256C143.647 104.256 143.019 104.125 142.456 103.865C141.893 103.6 141.445 103.219 141.114 102.722C140.782 102.22 140.616 101.614 140.616 100.903C140.616 100.278 140.74 99.7718 140.986 99.3835C141.232 98.9905 141.561 98.6828 141.973 98.4602C142.385 98.2377 142.839 98.072 143.337 97.9631C143.839 97.8494 144.343 97.7595 144.849 97.6932C145.512 97.608 146.05 97.544 146.462 97.5014C146.878 97.4541 147.181 97.3759 147.371 97.267C147.565 97.1581 147.662 96.9687 147.662 96.6989V96.642C147.662 95.9413 147.47 95.3968 147.087 95.0085C146.708 94.6203 146.133 94.4261 145.361 94.4261C144.561 94.4261 143.933 94.6013 143.479 94.9517C143.024 95.3021 142.705 95.6761 142.52 96.0739L140.929 95.5057C141.213 94.8428 141.592 94.3267 142.065 93.9574C142.544 93.5833 143.064 93.3229 143.628 93.1761C144.196 93.0246 144.755 92.9489 145.304 92.9489C145.654 92.9489 146.057 92.9915 146.511 93.0767C146.971 93.1572 147.413 93.3253 147.839 93.581C148.27 93.8366 148.628 94.2225 148.912 94.7386C149.196 95.2547 149.338 95.946 149.338 96.8125V104H147.662V102.523H147.577C147.463 102.759 147.274 103.013 147.009 103.283C146.743 103.553 146.391 103.782 145.95 103.972C145.51 104.161 144.973 104.256 144.338 104.256ZM144.594 102.75C145.257 102.75 145.815 102.62 146.27 102.359C146.729 102.099 147.075 101.763 147.307 101.351C147.544 100.939 147.662 100.506 147.662 100.051V98.517C147.591 98.6023 147.435 98.6804 147.193 98.7514C146.956 98.8177 146.682 98.8769 146.369 98.929C146.062 98.9763 145.761 99.0189 145.467 99.0568C145.179 99.09 144.944 99.1184 144.764 99.142C144.329 99.1989 143.921 99.2912 143.543 99.419C143.169 99.5421 142.866 99.7292 142.634 99.9801C142.406 100.226 142.293 100.562 142.293 100.989C142.293 101.571 142.508 102.011 142.939 102.31C143.375 102.603 143.926 102.75 144.594 102.75ZM160.977 93.0909V102.438H162.511V107.523H160.835V104H152.397V93.0909H154.074V102.438H159.301V93.0909H160.977ZM166.769 101.528L172.025 93.0909H173.956V104H172.28V95.5625L167.053 104H165.093V93.0909H166.769V101.528ZM178.702 101.528L183.958 93.0909H185.89V104H184.214V95.5625L178.987 104H177.026V93.0909H178.702V101.528ZM201.886 97.7784V99.3409H195.863V97.7784H201.886ZM196.261 93.0909V104H194.585V93.0909H196.261ZM203.164 93.0909V104H201.488V93.0909H203.164ZM209.436 104.256C208.744 104.256 208.117 104.125 207.554 103.865C206.99 103.6 206.543 103.219 206.211 102.722C205.88 102.22 205.714 101.614 205.714 100.903C205.714 100.278 205.837 99.7718 206.083 99.3835C206.33 98.9905 206.659 98.6828 207.071 98.4602C207.483 98.2377 207.937 98.072 208.434 97.9631C208.936 97.8494 209.44 97.7595 209.947 97.6932C210.61 97.608 211.147 97.544 211.559 97.5014C211.976 97.4541 212.279 97.3759 212.468 97.267C212.663 97.1581 212.76 96.9687 212.76 96.6989V96.642C212.76 95.9413 212.568 95.3968 212.184 95.0085C211.806 94.6203 211.23 94.4261 210.458 94.4261C209.658 94.4261 209.031 94.6013 208.576 94.9517C208.122 95.3021 207.802 95.6761 207.618 96.0739L206.027 95.5057C206.311 94.8428 206.69 94.3267 207.163 93.9574C207.641 93.5833 208.162 93.3229 208.725 93.1761C209.294 93.0246 209.852 92.9489 210.402 92.9489C210.752 92.9489 211.154 92.9915 211.609 93.0767C212.068 93.1572 212.511 93.3253 212.937 93.581C213.368 93.8366 213.725 94.2225 214.01 94.7386C214.294 95.2547 214.436 95.946 214.436 96.8125V104H212.76V102.523H212.674C212.561 102.759 212.371 103.013 212.106 103.283C211.841 103.553 211.488 103.782 211.048 103.972C210.608 104.161 210.07 104.256 209.436 104.256ZM209.691 102.75C210.354 102.75 210.913 102.62 211.368 102.359C211.827 102.099 212.172 101.763 212.404 101.351C212.641 100.939 212.76 100.506 212.76 100.051V98.517C212.689 98.6023 212.532 98.6804 212.291 98.7514C212.054 98.8177 211.779 98.8769 211.467 98.929C211.159 98.9763 210.859 99.0189 210.565 99.0568C210.276 99.09 210.042 99.1184 209.862 99.142C209.426 99.1989 209.019 99.2912 208.64 99.419C208.266 99.5421 207.963 99.7292 207.731 99.9801C207.504 100.226 207.39 100.562 207.39 100.989C207.39 101.571 207.606 102.011 208.037 102.31C208.472 102.603 209.024 102.75 209.691 102.75ZM217.495 93.0909H219.171V102.438H223.29V93.0909H224.967V102.438H229.086V93.0909H230.762V104H217.495V93.0909ZM238.397 104.227C237.346 104.227 236.439 103.995 235.677 103.531C234.919 103.062 234.335 102.409 233.923 101.571C233.515 100.728 233.312 99.7481 233.312 98.6307C233.312 97.5133 233.515 96.5284 233.923 95.6761C234.335 94.8191 234.907 94.1515 235.641 93.6733C236.38 93.1903 237.242 92.9489 238.227 92.9489C238.795 92.9489 239.356 93.0436 239.91 93.233C240.464 93.4223 240.968 93.7301 241.423 94.1562C241.877 94.5777 242.239 95.1364 242.509 95.8324C242.779 96.5284 242.914 97.3854 242.914 98.4034V99.1136H234.505V97.6648H241.21C241.21 97.0492 241.086 96.5 240.84 96.017C240.599 95.5341 240.253 95.1529 239.803 94.8736C239.358 94.5942 238.833 94.4545 238.227 94.4545C237.559 94.4545 236.981 94.6203 236.494 94.9517C236.011 95.2784 235.639 95.7045 235.379 96.2301C235.118 96.7557 234.988 97.3191 234.988 97.9205V98.8864C234.988 99.7102 235.13 100.409 235.414 100.982C235.703 101.55 236.103 101.983 236.614 102.281C237.126 102.575 237.72 102.722 238.397 102.722C238.837 102.722 239.235 102.66 239.59 102.537C239.95 102.409 240.26 102.22 240.521 101.969C240.781 101.713 240.982 101.396 241.124 101.017L242.744 101.472C242.573 102.021 242.287 102.504 241.884 102.92C241.482 103.332 240.985 103.654 240.393 103.886C239.801 104.114 239.136 104.227 238.397 104.227ZM252.197 93.0909V94.6534H247.14V104H245.464V93.0909H252.197ZM258.509 104.227C257.524 104.227 256.66 103.993 255.917 103.524C255.178 103.055 254.6 102.4 254.184 101.557C253.772 100.714 253.566 99.7292 253.566 98.6023C253.566 97.4659 253.772 96.474 254.184 95.6264C254.6 94.7789 255.178 94.1207 255.917 93.652C256.66 93.1832 257.524 92.9489 258.509 92.9489C259.494 92.9489 260.355 93.1832 261.094 93.652C261.837 94.1207 262.415 94.7789 262.827 95.6264C263.244 96.474 263.452 97.4659 263.452 98.6023C263.452 99.7292 263.244 100.714 262.827 101.557C262.415 102.4 261.837 103.055 261.094 103.524C260.355 103.993 259.494 104.227 258.509 104.227ZM258.509 102.722C259.257 102.722 259.873 102.53 260.355 102.146C260.838 101.763 261.196 101.259 261.428 100.634C261.66 100.009 261.776 99.3314 261.776 98.6023C261.776 97.8731 261.66 97.1937 261.428 96.5639C261.196 95.9342 260.838 95.4252 260.355 95.0369C259.873 94.6487 259.257 94.4545 258.509 94.4545C257.761 94.4545 257.145 94.6487 256.662 95.0369C256.179 95.4252 255.822 95.9342 255.59 96.5639C255.358 97.1937 255.242 97.8731 255.242 98.6023C255.242 99.3314 255.358 100.009 255.59 100.634C255.822 101.259 256.179 101.763 256.662 102.146C257.145 102.53 257.761 102.722 258.509 102.722ZM276.067 104.227C275.045 104.227 274.164 103.986 273.425 103.503C272.687 103.02 272.119 102.355 271.721 101.507C271.323 100.66 271.124 99.6913 271.124 98.6023C271.124 97.4943 271.328 96.5166 271.735 95.669C272.147 94.8168 272.72 94.1515 273.454 93.6733C274.192 93.1903 275.054 92.9489 276.039 92.9489C276.806 92.9489 277.497 93.0909 278.113 93.375C278.728 93.6591 279.233 94.0568 279.626 94.5682C280.019 95.0795 280.263 95.6761 280.357 96.358H278.681C278.553 95.8608 278.269 95.4205 277.829 95.0369C277.393 94.6487 276.806 94.4545 276.067 94.4545C275.414 94.4545 274.841 94.625 274.349 94.9659C273.861 95.3021 273.48 95.7779 273.205 96.3935C272.935 97.0043 272.8 97.7216 272.8 98.5455C272.8 99.3883 272.933 100.122 273.198 100.747C273.468 101.372 273.847 101.857 274.335 102.203C274.827 102.549 275.405 102.722 276.067 102.722C276.503 102.722 276.898 102.646 277.254 102.494C277.609 102.343 277.909 102.125 278.156 101.841C278.402 101.557 278.577 101.216 278.681 100.818H280.357C280.263 101.462 280.028 102.042 279.654 102.558C279.285 103.07 278.795 103.477 278.184 103.78C277.578 104.078 276.872 104.227 276.067 104.227ZM287.381 104.227C286.33 104.227 285.424 103.995 284.661 103.531C283.904 103.062 283.319 102.409 282.907 101.571C282.5 100.728 282.296 99.7481 282.296 98.6307C282.296 97.5133 282.5 96.5284 282.907 95.6761C283.319 94.8191 283.892 94.1515 284.626 93.6733C285.364 93.1903 286.226 92.9489 287.211 92.9489C287.779 92.9489 288.34 93.0436 288.894 93.233C289.448 93.4223 289.952 93.7301 290.407 94.1562C290.862 94.5777 291.224 95.1364 291.494 95.8324C291.763 96.5284 291.898 97.3854 291.898 98.4034V99.1136H283.489V97.6648H290.194C290.194 97.0492 290.071 96.5 289.825 96.017C289.583 95.5341 289.237 95.1529 288.788 94.8736C288.343 94.5942 287.817 94.4545 287.211 94.4545C286.543 94.4545 285.966 94.6203 285.478 94.9517C284.995 95.2784 284.623 95.7045 284.363 96.2301C284.103 96.7557 283.972 97.3191 283.972 97.9205V98.8864C283.972 99.7102 284.114 100.409 284.398 100.982C284.687 101.55 285.087 101.983 285.599 102.281C286.11 102.575 286.704 102.722 287.381 102.722C287.822 102.722 288.219 102.66 288.575 102.537C288.934 102.409 289.245 102.22 289.505 101.969C289.765 101.713 289.967 101.396 290.109 101.017L291.728 101.472C291.558 102.021 291.271 102.504 290.869 102.92C290.466 103.332 289.969 103.654 289.377 103.886C288.785 104.114 288.12 104.227 287.381 104.227ZM294.448 108.091V93.0909H296.067V94.8239H296.266C296.389 94.6345 296.56 94.393 296.778 94.0994C297 93.8011 297.317 93.536 297.729 93.304C298.146 93.0672 298.71 92.9489 299.42 92.9489C300.338 92.9489 301.148 93.1785 301.849 93.6378C302.549 94.0971 303.096 94.7481 303.489 95.5909C303.882 96.4337 304.079 97.428 304.079 98.5739C304.079 99.7292 303.882 100.731 303.489 101.578C303.096 102.421 302.552 103.074 301.856 103.538C301.16 103.998 300.357 104.227 299.448 104.227C298.747 104.227 298.186 104.111 297.765 103.879C297.344 103.643 297.019 103.375 296.792 103.077C296.565 102.774 296.389 102.523 296.266 102.324H296.124V108.091H294.448ZM296.096 98.5455C296.096 99.3693 296.217 100.096 296.458 100.726C296.7 101.351 297.052 101.841 297.516 102.196C297.98 102.546 298.549 102.722 299.221 102.722C299.922 102.722 300.506 102.537 300.975 102.168C301.449 101.794 301.804 101.292 302.04 100.662C302.282 100.027 302.403 99.322 302.403 98.5455C302.403 97.7784 302.284 97.0871 302.048 96.4716C301.816 95.8513 301.463 95.3613 300.989 95.0014C300.521 94.6368 299.931 94.4545 299.221 94.4545C298.539 94.4545 297.966 94.6274 297.502 94.973C297.038 95.3139 296.688 95.7921 296.451 96.4077C296.214 97.0185 296.096 97.7311 296.096 98.5455ZM306.636 104V93.0909H311.096C312.27 93.0909 313.203 93.3561 313.894 93.8864C314.585 94.4167 314.931 95.1174 314.931 95.9886C314.931 96.6515 314.735 97.1652 314.342 97.5298C313.949 97.8897 313.444 98.1335 312.829 98.2614C313.231 98.3182 313.622 98.4602 314.001 98.6875C314.384 98.9148 314.701 99.2273 314.952 99.625C315.203 100.018 315.329 100.501 315.329 101.074C315.329 101.633 315.187 102.132 314.903 102.572C314.619 103.013 314.211 103.361 313.681 103.616C313.151 103.872 312.516 104 311.778 104H306.636ZM308.227 102.466H311.778C312.355 102.466 312.808 102.329 313.134 102.054C313.461 101.779 313.624 101.405 313.624 100.932C313.624 100.368 313.461 99.9257 313.134 99.6037C312.808 99.277 312.355 99.1136 311.778 99.1136H308.227V102.466ZM308.227 97.6648H311.096C311.546 97.6648 311.932 97.6032 312.254 97.4801C312.576 97.3523 312.822 97.1723 312.992 96.9403C313.167 96.7036 313.255 96.4242 313.255 96.1023C313.255 95.643 313.063 95.2831 312.68 95.0227C312.296 94.7576 311.768 94.625 311.096 94.625H308.227V97.6648ZM319.542 101.528L324.798 93.0909H326.73V104H325.054V95.5625L319.826 104H317.866V93.0909H319.542V101.528ZM334.232 104.227C333.209 104.227 332.328 103.986 331.589 103.503C330.851 103.02 330.283 102.355 329.885 101.507C329.487 100.66 329.288 99.6913 329.288 98.6023C329.288 97.4943 329.492 96.5166 329.899 95.669C330.311 94.8168 330.884 94.1515 331.618 93.6733C332.357 93.1903 333.218 92.9489 334.203 92.9489C334.97 92.9489 335.661 93.0909 336.277 93.375C336.893 93.6591 337.397 94.0568 337.79 94.5682C338.183 95.0795 338.427 95.6761 338.521 96.358H336.845C336.717 95.8608 336.433 95.4205 335.993 95.0369C335.557 94.6487 334.97 94.4545 334.232 94.4545C333.578 94.4545 333.005 94.625 332.513 94.9659C332.025 95.3021 331.644 95.7779 331.369 96.3935C331.099 97.0043 330.964 97.7216 330.964 98.5455C330.964 99.3883 331.097 100.122 331.362 100.747C331.632 101.372 332.011 101.857 332.499 102.203C332.991 102.549 333.569 102.722 334.232 102.722C334.667 102.722 335.062 102.646 335.418 102.494C335.773 102.343 336.073 102.125 336.32 101.841C336.566 101.557 336.741 101.216 336.845 100.818H338.521C338.427 101.462 338.192 102.042 337.818 102.558C337.449 103.07 336.959 103.477 336.348 103.78C335.742 104.078 335.036 104.227 334.232 104.227ZM344.182 104.256C343.491 104.256 342.863 104.125 342.3 103.865C341.736 103.6 341.289 103.219 340.957 102.722C340.626 102.22 340.46 101.614 340.46 100.903C340.46 100.278 340.583 99.7718 340.83 99.3835C341.076 98.9905 341.405 98.6828 341.817 98.4602C342.229 98.2377 342.683 98.072 343.18 97.9631C343.682 97.8494 344.187 97.7595 344.693 97.6932C345.356 97.608 345.893 97.544 346.305 97.5014C346.722 97.4541 347.025 97.3759 347.214 97.267C347.409 97.1581 347.506 96.9687 347.506 96.6989V96.642C347.506 95.9413 347.314 95.3968 346.93 95.0085C346.552 94.6203 345.976 94.4261 345.205 94.4261C344.404 94.4261 343.777 94.6013 343.322 94.9517C342.868 95.3021 342.548 95.6761 342.364 96.0739L340.773 95.5057C341.057 94.8428 341.436 94.3267 341.909 93.9574C342.387 93.5833 342.908 93.3229 343.472 93.1761C344.04 93.0246 344.598 92.9489 345.148 92.9489C345.498 92.9489 345.901 92.9915 346.355 93.0767C346.814 93.1572 347.257 93.3253 347.683 93.581C348.114 93.8366 348.472 94.2225 348.756 94.7386C349.04 95.2547 349.182 95.946 349.182 96.8125V104H347.506V102.523H347.42C347.307 102.759 347.117 103.013 346.852 103.283C346.587 103.553 346.234 103.782 345.794 103.972C345.354 104.161 344.816 104.256 344.182 104.256ZM344.438 102.75C345.1 102.75 345.659 102.62 346.114 102.359C346.573 102.099 346.919 101.763 347.151 101.351C347.387 100.939 347.506 100.506 347.506 100.051V98.517C347.435 98.6023 347.278 98.6804 347.037 98.7514C346.8 98.8177 346.526 98.8769 346.213 98.929C345.905 98.9763 345.605 99.0189 345.311 99.0568C345.022 99.09 344.788 99.1184 344.608 99.142C344.172 99.1989 343.765 99.2912 343.386 99.419C343.012 99.5421 342.709 99.7292 342.477 99.9801C342.25 100.226 342.136 100.562 342.136 100.989C342.136 101.571 342.352 102.011 342.783 102.31C343.218 102.603 343.77 102.75 344.438 102.75Z" fill="#FFF4D5" fill-opacity="0.75"/>
</g>
<rect x="0.15" y="0.15" width="725.7" height="124.7" rx="7.85" stroke="#FFF4D5" stroke-width="0.3"/>
</g>
<defs>
<filter id="filter0_i_4034_99804" x="0" y="0" width="730" height="129" filterUnits="userSpaceOnUse" color-interpolation-filters="sRGB">
<feFlood flood-opacity="0" result="BackgroundImageFix"/>
<feBlend mode="normal" in="SourceGraphic" in2="BackgroundImageFix" result="shape"/>
<feColorMatrix in="SourceAlpha" type="matrix" values="0 0 0 0 0 0 0 0 0 0 0 0 0 0 0 0 0 0 127 0" result="hardAlpha"/>
<feOffset dx="4" dy="4"/>
<feGaussianBlur stdDeviation="6.05"/>
<feComposite in2="hardAlpha" operator="arithmetic" k2="-1" k3="1"/>
<feColorMatrix type="matrix" values="0 0 0 0 0 0 0 0 0 0 0 0 0 0 0 0 0 0 1 0"/>
<feBlend mode="normal" in2="shape" result="effect1_innerShadow_4034_99804"/>
</filter>
<radialGradient id="paint0_radial_4034_99804" cx="0" cy="0" r="1" gradientUnits="userSpaceOnUse" gradientTransform="translate(7.46395e-06 62.5) scale(726 148)">
<stop stop-color="#131339"/>
<stop offset="1" stop-color="#040306"/>
</radialGradient>
<radialGradient id="paint1_radial_4034_99804" cx="0" cy="0" r="1" gradientUnits="userSpaceOnUse" gradientTransform="translate(680.52 52.6892) rotate(68.2601) scale(51.8707 51.8707)">
<stop stop-color="#BEA8F3"/>
<stop offset="1" stop-color="#503A86"/>
</radialGradient>
<clipPath id="clip0_4034_99804">
<rect width="726" height="125" rx="8" fill="white"/>
</clipPath>
</defs>
</svg>
