<svg width="148" height="80" viewBox="0 0 148 80" fill="none" xmlns="http://www.w3.org/2000/svg">
<g filter="url(#filter0_i_4034_99673)">
<circle cx="40.0027" cy="40.0027" r="34.0887" fill="#14143A"/>
</g>
<path d="M40.1885 13.3887C53.9266 13.3887 65.4304 23.7737 66.9863 37.0947L63.8945 37.0947C62.5185 25.3138 52.3394 16.4805 40.1885 16.4805C27.0961 16.4806 16.4824 27.0941 16.4824 40.1865C16.4825 53.2788 27.0962 63.8925 40.1885 63.8926C47.2258 63.8926 53.5458 60.8274 57.8896 55.9551L61.1465 55.9551C57.8899 62.1741 48.9494 66.9844 40.1885 66.9844C25.3885 66.9843 13.3907 54.9865 13.3906 40.1865C13.3906 25.3864 25.3884 13.3888 40.1885 13.3887ZM49.1914 30.2822L49.1914 33.7998L39.6357 33.7998C37.263 33.7998 35.5015 34.3038 34.3516 35.3115C33.2017 36.3193 32.627 37.9414 32.627 40.1768C32.627 42.4118 33.2019 44.0423 34.3516 45.0684C35.5015 46.0761 37.263 46.5801 39.6357 46.5801L49.4648 46.5801L49.4648 50.1533L39.335 50.1533C35.721 50.1533 32.9556 49.3196 31.0391 47.6523C29.1226 45.9667 28.1641 43.4747 28.1641 40.1768C28.1641 36.8969 29.1225 34.4133 31.0391 32.7275C32.9556 31.042 35.7211 30.2082 39.335 30.2266L49.1914 30.2822Z" fill="url(#paint0_linear_4034_99673)"/>
<defs>
<filter id="filter0_i_4034_99673" x="4.99602" y="5.91406" width="69.0954" height="69.0953" filterUnits="userSpaceOnUse" color-interpolation-filters="sRGB">
<feFlood flood-opacity="0" result="BackgroundImageFix"/>
<feBlend mode="normal" in="SourceGraphic" in2="BackgroundImageFix" result="shape"/>
<feColorMatrix in="SourceAlpha" type="matrix" values="0 0 0 0 0 0 0 0 0 0 0 0 0 0 0 0 0 0 127 0" result="hardAlpha"/>
<feOffset dx="-0.918039" dy="0.918039"/>
<feGaussianBlur stdDeviation="0.918039"/>
<feComposite in2="hardAlpha" operator="arithmetic" k2="-1" k3="1"/>
<feColorMatrix type="matrix" values="0 0 0 0 0.517647 0 0 0 0 0.490196 0 0 0 0 0.776471 0 0 0 1 0"/>
<feBlend mode="normal" in2="shape" result="effect1_innerShadow_4034_99673"/>
</filter>
<linearGradient id="paint0_linear_4034_99673" x1="22.1155" y1="20.5555" x2="53.0505" y2="64.4897" gradientUnits="userSpaceOnUse">
<stop offset="0.213682" stop-color="#A1936B"/>
<stop offset="0.217162" stop-color="#F6E1A3"/>
<stop offset="0.747193" stop-color="#F6E1A3"/>
<stop offset="0.747306" stop-color="#A1936B"/>
</linearGradient>
</defs>
</svg>
