<svg width="40" height="40" viewBox="0 0 40 40" fill="none" xmlns="http://www.w3.org/2000/svg">
<rect x="1.74846e-06" y="40" width="40" height="40" rx="20" transform="rotate(-90 1.74846e-06 40)" fill="#825FDB"/>
<path d="M23 20.375C21.8875 20.375 20.7999 20.0451 19.8749 19.427C18.9499 18.8089 18.2289 17.9304 17.8032 16.9026C17.3774 15.8748 17.266 14.7438 17.4831 13.6526C17.7001 12.5615 18.2359 11.5592 19.0225 10.7725C19.8092 9.98586 20.8115 9.45013 21.9026 9.23309C22.9938 9.01605 24.1248 9.12744 25.1526 9.55318C26.1804 9.97892 27.0589 10.6999 27.677 11.6249C28.2951 12.5499 28.625 13.6375 28.625 14.75C28.625 16.2418 28.0324 17.6726 26.9775 18.7275C25.9226 19.7824 24.4918 20.375 23 20.375ZM23 11.375C22.3325 11.375 21.68 11.5729 21.125 11.9438C20.5699 12.3146 20.1374 12.8417 19.8819 13.4584C19.6265 14.0751 19.5596 14.7537 19.6899 15.4084C19.8201 16.0631 20.1415 16.6645 20.6135 17.1365C21.0855 17.6085 21.6869 17.9299 22.3416 18.0602C22.9963 18.1904 23.6749 18.1235 24.2916 17.8681C24.9083 17.6127 25.4354 17.1801 25.8062 16.6251C26.1771 16.07 26.375 15.4175 26.375 14.75C26.375 13.8549 26.0194 12.9965 25.3865 12.3635C24.7536 11.7306 23.8951 11.375 23 11.375Z" fill="#FFF4D5"/>
<path d="M33.5 30.875C33.2028 30.8711 32.9189 30.7513 32.7088 30.5412C32.4987 30.3311 32.3789 30.0472 32.375 29.75C32.375 26.825 30.785 24.875 23 24.875C15.215 24.875 13.625 26.825 13.625 29.75C13.625 30.0484 13.5065 30.3345 13.2955 30.5455C13.0845 30.7565 12.7984 30.875 12.5 30.875C12.2016 30.875 11.9155 30.7565 11.7045 30.5455C11.4935 30.3345 11.375 30.0484 11.375 29.75C11.375 22.625 19.52 22.625 23 22.625C26.48 22.625 34.625 22.625 34.625 29.75C34.6211 30.0472 34.5013 30.3311 34.2912 30.5412C34.0811 30.7513 33.7972 30.8711 33.5 30.875Z" fill="#FFF4D5"/>
<path d="M14.4801 21.5901H14.0001C12.8066 21.4747 11.7078 20.89 10.9455 19.9645C10.1831 19.039 9.81968 17.8486 9.93505 16.6551C10.0504 15.4616 10.6352 14.3628 11.5607 13.6005C12.4862 12.8382 13.6766 12.4747 14.8701 12.5901C15.0231 12.5967 15.1732 12.6344 15.3111 12.701C15.449 12.7677 15.5719 12.8618 15.6721 12.9775C15.7724 13.0933 15.848 13.2284 15.8942 13.3744C15.9405 13.5204 15.9564 13.6743 15.9411 13.8267C15.9257 13.9791 15.8794 14.1268 15.805 14.2607C15.7306 14.3945 15.6296 14.5118 15.5083 14.6053C15.3869 14.6988 15.2478 14.7665 15.0993 14.8043C14.9509 14.8421 14.7963 14.8491 14.6451 14.8251C14.3522 14.7959 14.0565 14.826 13.7756 14.9136C13.4947 15.0013 13.2343 15.1446 13.0101 15.3351C12.7822 15.5188 12.5933 15.7461 12.4542 16.0036C12.3152 16.2612 12.2288 16.5438 12.2001 16.8351C12.169 17.13 12.197 17.4282 12.2824 17.7122C12.3677 17.9962 12.5088 18.2603 12.6972 18.4893C12.8857 18.7182 13.1178 18.9074 13.3802 19.0457C13.6425 19.1841 13.9297 19.2688 14.2251 19.2951C14.7134 19.3369 15.2022 19.2212 15.6201 18.9651C15.8747 18.8079 16.1813 18.7584 16.4724 18.8273C16.7636 18.8962 17.0154 19.078 17.1726 19.3326C17.3297 19.5872 17.3793 19.8938 17.3103 20.1849C17.2414 20.4761 17.0597 20.7279 16.8051 20.8851C16.1094 21.3288 15.305 21.5727 14.4801 21.5901Z" fill="#FFF4D5"/>
<path d="M6.5 29.75C6.20284 29.7461 5.91894 29.6263 5.7088 29.4162C5.49866 29.2061 5.37889 28.9222 5.375 28.625C5.375 24.575 6.455 21.875 11.75 21.875C12.0484 21.875 12.3345 21.9935 12.5455 22.2045C12.7565 22.4155 12.875 22.7016 12.875 23C12.875 23.2984 12.7565 23.5845 12.5455 23.7955C12.3345 24.0065 12.0484 24.125 11.75 24.125C8.225 24.125 7.625 25.25 7.625 28.625C7.62112 28.9222 7.50134 29.2061 7.2912 29.4162C7.08106 29.6263 6.79716 29.7461 6.5 29.75Z" fill="#FFF4D5"/>
</svg>
