<svg width="40" height="40" viewBox="0 0 40 40" fill="none" xmlns="http://www.w3.org/2000/svg">
<rect x="1.74846e-06" y="40" width="40" height="40" rx="20" transform="rotate(-90 1.74846e-06 40)" fill="#825FDB"/>
<path d="M20 24.395C19.1307 24.395 18.281 24.1372 17.5583 23.6543C16.8355 23.1714 16.2722 22.485 15.9395 21.6819C15.6069 20.8788 15.5199 19.9951 15.6894 19.1426C15.859 18.29 16.2776 17.5069 16.8922 16.8922C17.5069 16.2776 18.29 15.859 19.1426 15.6894C19.9951 15.5199 20.8788 15.6069 21.6819 15.9395C22.485 16.2722 23.1714 16.8355 23.6543 17.5583C24.1372 18.281 24.395 19.1307 24.395 20C24.395 21.1656 23.9319 22.2835 23.1077 23.1077C22.2835 23.9319 21.1656 24.395 20 24.395ZM20 17.855C19.5757 17.855 19.161 17.9808 18.8083 18.2165C18.4555 18.4522 18.1806 18.7872 18.0183 19.1791C17.8559 19.5711 17.8134 20.0024 17.8962 20.4185C17.979 20.8345 18.1833 21.2167 18.4832 21.5167C18.7832 21.8167 19.1654 22.021 19.5815 22.1038C19.9976 22.1865 20.4289 22.1441 20.8208 21.9817C21.2128 21.8194 21.5478 21.5444 21.7835 21.1917C22.0192 20.8389 22.145 20.4242 22.145 20C22.145 19.4311 21.919 18.8855 21.5167 18.4832C21.1145 18.081 20.5689 17.855 20 17.855Z" fill="#FFF4D5"/>
<path d="M20.09 33.125C19.6514 33.123 19.2176 33.0345 18.8133 32.8644C18.4091 32.6943 18.0424 32.446 17.7344 32.1338C17.4264 31.8216 17.1831 31.4516 17.0184 31.0451C16.8538 30.6386 16.7711 30.2036 16.775 29.765C16.7691 29.6297 16.7251 29.4988 16.6482 29.3874C16.5712 29.276 16.4644 29.1885 16.34 29.135C16.2024 29.0718 16.0491 29.0509 15.8995 29.075C15.75 29.099 15.6109 29.1669 15.5 29.27C14.8772 29.8881 14.0374 30.238 13.16 30.245C12.2771 30.2507 11.4268 29.9116 10.79 29.3C10.4807 28.9908 10.2353 28.6236 10.0679 28.2196C9.90051 27.8155 9.81435 27.3824 9.81435 26.945C9.81435 26.5076 9.90051 26.0745 10.0679 25.6704C10.2353 25.2664 10.4807 24.8992 10.79 24.59C10.8958 24.4936 10.9718 24.3689 11.009 24.2307C11.0462 24.0925 11.0431 23.9465 11 23.81C10.9269 23.6834 10.8221 23.5781 10.6958 23.5044C10.5695 23.4307 10.4262 23.3913 10.28 23.39C9.39745 23.3865 8.55071 23.0405 7.9183 22.4249C7.28589 21.8093 6.91723 20.9722 6.89002 20.09C6.89198 19.6527 6.98006 19.2201 7.14923 18.8168C7.3184 18.4135 7.56533 18.0475 7.87595 17.7397C8.18656 17.4319 8.55476 17.1883 8.95953 17.0227C9.3643 16.8572 9.79771 16.773 10.235 16.775C10.3703 16.7691 10.5012 16.7251 10.6126 16.6482C10.7241 16.5712 10.8115 16.4644 10.865 16.34C10.9282 16.2024 10.9491 16.049 10.9251 15.8995C10.901 15.75 10.8331 15.6109 10.73 15.5C10.112 14.8772 9.76202 14.0374 9.75502 13.16C9.74735 12.722 9.82696 12.2869 9.9892 11.88C10.1514 11.4731 10.3931 11.1025 10.7 10.79C11.0092 10.4807 11.3764 10.2353 11.7805 10.0679C12.1845 9.9005 12.6176 9.81433 13.055 9.81433C13.4924 9.81433 13.9255 9.9005 14.3296 10.0679C14.7336 10.2353 15.1008 10.4807 15.41 10.79C15.518 10.8928 15.6506 10.966 15.7951 11.0028C15.9395 11.0396 16.091 11.0386 16.235 11C16.3663 10.9281 16.4775 10.8246 16.5587 10.6989C16.6399 10.5732 16.6885 10.4292 16.7 10.28C16.6996 9.39484 17.0439 8.54431 17.6599 7.90868C18.2759 7.27305 19.1153 6.9023 20 6.875C20.4373 6.87892 20.8696 6.96895 21.2721 7.13993C21.6746 7.31091 22.0395 7.5595 22.3459 7.87151C22.6524 8.18352 22.8943 8.55283 23.0581 8.95836C23.2218 9.36389 23.304 9.79769 23.3 10.235C23.3057 10.3723 23.3475 10.5056 23.4213 10.6215C23.495 10.7374 23.5981 10.8317 23.72 10.895C23.8524 10.9436 23.9958 10.9539 24.1338 10.9247C24.2717 10.8955 24.3987 10.8281 24.5 10.73C25.1228 10.1119 25.9626 9.76201 26.84 9.755C27.2788 9.74125 27.7157 9.81807 28.1234 9.98066C28.5312 10.1432 28.9011 10.3881 29.21 10.7C29.5193 11.0092 29.7647 11.3764 29.9321 11.7804C30.0995 12.1845 30.1857 12.6176 30.1857 13.055C30.1857 13.4924 30.0995 13.9255 29.9321 14.3296C29.7647 14.7336 29.5193 15.1008 29.21 15.41C29.115 15.5223 29.05 15.6569 29.0212 15.8012C28.9923 15.9455 29.0005 16.0948 29.045 16.235C29.1169 16.3663 29.2204 16.4775 29.3461 16.5587C29.4718 16.6399 29.6158 16.6885 29.765 16.7C30.6424 16.7112 31.4815 17.0606 32.1075 17.6754C32.7335 18.2903 33.098 19.123 33.125 20C33.1211 20.4373 33.0311 20.8696 32.8601 21.2721C32.6891 21.6746 32.4405 22.0395 32.1285 22.3459C31.8165 22.6524 31.4472 22.8943 31.0417 23.058C30.6361 23.2217 30.2023 23.304 29.765 23.3C29.6278 23.3057 29.4944 23.3475 29.3786 23.4213C29.2627 23.495 29.1683 23.5981 29.105 23.72C29.0564 23.8524 29.0461 23.9958 29.0753 24.1337C29.1045 24.2717 29.172 24.3986 29.27 24.5C29.8881 25.1228 30.238 25.9626 30.245 26.84C30.2527 27.278 30.1731 27.7131 30.0108 28.12C29.8486 28.5269 29.607 28.8975 29.3 29.21C28.9908 29.5193 28.6236 29.7647 28.2196 29.9321C27.8155 30.0995 27.3824 30.1857 26.945 30.1857C26.5076 30.1857 26.0745 30.0995 25.6705 29.9321C25.2664 29.7647 24.8992 29.5193 24.59 29.21C24.4887 29.1119 24.3617 29.0445 24.2238 29.0153C24.0858 28.9861 23.9424 28.9964 23.81 29.045C23.6834 29.1181 23.5781 29.223 23.5044 29.3492C23.4307 29.4755 23.3913 29.6188 23.39 29.765C23.3788 30.6424 23.0294 31.4815 22.4146 32.1075C21.7998 32.7335 20.967 33.098 20.09 33.125ZM16.025 26.81C16.4229 26.8054 16.817 26.8872 17.18 27.05C17.7158 27.2733 18.1753 27.6473 18.5027 28.1265C18.8302 28.6058 19.0117 29.1697 19.025 29.75C19.0209 30.0393 19.1299 30.3189 19.3288 30.529C19.5277 30.7391 19.8009 30.8633 20.09 30.875C20.3791 30.8521 20.6486 30.72 20.8437 30.5054C21.0388 30.2908 21.1447 30.01 21.14 29.72C21.1436 29.1377 21.3116 28.5682 21.6248 28.0772C21.9379 27.5862 22.3835 27.1938 22.91 26.945C23.4578 26.7171 24.0608 26.6568 24.6428 26.7716C25.2249 26.8864 25.7598 27.1712 26.18 27.59C26.3789 27.7889 26.6487 27.9007 26.93 27.9007C27.2113 27.9007 27.4811 27.7889 27.68 27.59C27.8789 27.3911 27.9907 27.1213 27.9907 26.84C27.9907 26.5587 27.8789 26.2889 27.68 26.09C27.2637 25.6681 26.9818 25.1324 26.8696 24.5504C26.7575 23.9685 26.8203 23.3663 27.05 22.82C27.2866 22.2937 27.67 21.8467 28.1542 21.5328C28.6384 21.2188 29.2029 21.0512 29.78 21.05C30.0654 21.0542 30.3411 20.9467 30.5484 20.7506C30.7557 20.5545 30.8783 20.2852 30.89 20C30.8707 19.7096 30.7396 19.4379 30.5242 19.2421C30.3089 19.0463 30.026 18.9416 29.735 18.95C29.1478 18.934 28.5768 18.7542 28.0865 18.4308C27.5961 18.1075 27.2059 17.6534 26.96 17.12C26.7355 16.5667 26.677 15.96 26.7915 15.374C26.9061 14.788 27.1887 14.248 27.605 13.82C27.7035 13.7215 27.7816 13.6046 27.8349 13.4759C27.8882 13.3472 27.9157 13.2093 27.9157 13.07C27.9157 12.9307 27.8882 12.7928 27.8349 12.6641C27.7816 12.5354 27.7035 12.4185 27.605 12.32C27.5065 12.2215 27.3896 12.1434 27.2609 12.0901C27.1322 12.0368 26.9943 12.0093 26.855 12.0093C26.7157 12.0093 26.5778 12.0368 26.4491 12.0901C26.3204 12.1434 26.2035 12.2215 26.105 12.32C25.6833 12.7117 25.1578 12.9738 24.5912 13.0751C24.0246 13.1763 23.4409 13.1125 22.9096 12.8911C22.3783 12.6697 21.9219 12.3002 21.5948 11.8266C21.2678 11.353 21.0838 10.7953 21.065 10.22C21.0692 9.93464 20.9617 9.65893 20.7656 9.4516C20.5695 9.24427 20.3002 9.1217 20.015 9.11C19.7246 9.12929 19.4529 9.26039 19.2571 9.47577C19.0613 9.69115 18.9566 9.97404 18.965 10.265C18.949 10.8522 18.7692 11.4232 18.4459 11.9135C18.1225 12.4039 17.6684 12.7941 17.135 13.04C16.5817 13.2645 15.9751 13.323 15.389 13.2085C14.803 13.094 14.2631 12.8113 13.835 12.395C13.7365 12.2965 13.6196 12.2184 13.4909 12.1651C13.3622 12.1118 13.2243 12.0843 13.085 12.0843C12.9457 12.0843 12.8078 12.1118 12.6791 12.1651C12.5504 12.2184 12.4335 12.2965 12.335 12.395C12.2365 12.4935 12.1584 12.6104 12.1051 12.7391C12.0518 12.8678 12.0244 13.0057 12.0244 13.145C12.0244 13.2843 12.0518 13.4222 12.1051 13.5509C12.1584 13.6796 12.2365 13.7965 12.335 13.895C12.7488 14.3185 13.028 14.855 13.1374 15.4369C13.2468 16.0188 13.1816 16.6201 12.95 17.165C12.7267 17.7008 12.3527 18.1602 11.8735 18.4877C11.3943 18.8152 10.8303 18.9966 10.25 19.01C9.96068 19.0059 9.68115 19.1149 9.47101 19.3138C9.26087 19.5127 9.13672 19.7859 9.12502 20.075C9.14787 20.3641 9.28004 20.6336 9.49462 20.8287C9.7092 21.0238 9.99006 21.1297 10.28 21.125C10.8624 21.1286 11.4318 21.2966 11.9228 21.6098C12.4138 21.9229 12.8063 22.3685 13.055 22.895C13.2829 23.4428 13.3432 24.0458 13.2284 24.6278C13.1136 25.2099 12.8288 25.7448 12.41 26.165C12.3115 26.2635 12.2334 26.3804 12.1801 26.5091C12.1268 26.6378 12.0994 26.7757 12.0994 26.915C12.0994 27.0543 12.1268 27.1922 12.1801 27.3209C12.2334 27.4496 12.3115 27.5665 12.41 27.665C12.5085 27.7635 12.6254 27.8416 12.7541 27.8949C12.8828 27.9482 13.0207 27.9757 13.16 27.9757C13.2993 27.9757 13.4372 27.9482 13.5659 27.8949C13.6946 27.8416 13.8115 27.7635 13.91 27.665C14.4802 27.1207 15.2368 26.8148 16.025 26.81Z" fill="#FFF4D5"/>
</svg>
