<svg width="80" height="80" viewBox="0 0 80 80" fill="none" xmlns="http://www.w3.org/2000/svg">
<path fill-rule="evenodd" clip-rule="evenodd" d="M40 2.09238e-06C60.5061 5.38041e-05 77.6775 15.5021 80 35.3857L75.3848 35.3857C73.3308 17.8009 58.1369 4.61626 40 4.61621C20.4577 4.61621 4.61523 20.4584 4.61523 40.001C4.6154 59.5434 20.4578 75.3857 40 75.3857C50.5041 75.3857 59.9371 70.8116 66.4209 63.5391L71.2822 63.5391C66.4212 72.8218 53.0767 80.0009 40 80.001C17.9088 80.001 0.000168853 62.0924 -2.09243e-06 40.001C-9.36833e-07 17.9094 17.9087 9.36794e-07 40 2.09238e-06ZM53.4404 25.2314L53.4404 30.4834L39.1777 30.4834C35.6363 30.4835 33.0074 31.2352 31.291 32.7393C29.5746 34.2435 28.7158 36.6643 28.7158 40.001C28.7158 43.3377 29.5746 45.7721 31.291 47.3037C33.0074 48.8078 35.6363 49.5595 39.1777 49.5596L53.8496 49.5596L53.8496 54.8936L38.7285 54.8936C33.3341 54.8935 29.2064 53.649 26.3457 51.1602C23.485 48.6439 22.0547 44.924 22.0547 40.001C22.0547 35.1053 23.485 31.399 26.3457 28.8828C29.2064 26.3667 33.3341 25.1221 38.7285 25.1494L53.4404 25.2314Z" fill="url(#paint0_linear_4034_99740)"/>
<defs>
<linearGradient id="paint0_linear_4034_99740" x1="13.0233" y1="10.6978" x2="59.1993" y2="76.2768" gradientUnits="userSpaceOnUse">
<stop offset="0.213682" stop-color="#A1936B"/>
<stop offset="0.217162" stop-color="#F6E1A3"/>
<stop offset="0.747193" stop-color="#F6E1A3"/>
<stop offset="0.747306" stop-color="#A1936B"/>
</linearGradient>
</defs>
</svg>
