<svg width="32" height="32" viewBox="0 0 32 32" fill="none" xmlns="http://www.w3.org/2000/svg">
<path d="M16 16.25C15.2583 16.25 14.5333 16.0301 13.9166 15.618C13.2999 15.206 12.8193 14.6203 12.5355 13.9351C12.2516 13.2498 12.1774 12.4958 12.3221 11.7684C12.4668 11.041 12.8239 10.3728 13.3484 9.84835C13.8728 9.3239 14.541 8.96675 15.2684 8.82206C15.9958 8.67736 16.7498 8.75162 17.4351 9.03545C18.1203 9.31928 18.706 9.79993 19.118 10.4166C19.5301 11.0333 19.75 11.7583 19.75 12.5C19.75 13.4946 19.3549 14.4484 18.6517 15.1517C17.9484 15.8549 16.9946 16.25 16 16.25ZM16 10.25C15.555 10.25 15.12 10.382 14.75 10.6292C14.38 10.8764 14.0916 11.2278 13.9213 11.639C13.751 12.0501 13.7064 12.5025 13.7932 12.939C13.8801 13.3754 14.0943 13.7763 14.409 14.091C14.7237 14.4057 15.1246 14.62 15.561 14.7068C15.9975 14.7936 16.4499 14.749 16.861 14.5787C17.2722 14.4084 17.6236 14.12 17.8708 13.75C18.118 13.38 18.25 12.945 18.25 12.5C18.25 11.9033 18.013 11.331 17.591 10.909C17.169 10.4871 16.5967 10.25 16 10.25Z" fill="#040306"/>
<path d="M23 23.25C22.8019 23.2474 22.6126 23.1676 22.4725 23.0275C22.3324 22.8874 22.2526 22.6981 22.25 22.5C22.25 20.55 21.19 19.25 16 19.25C10.81 19.25 9.75 20.55 9.75 22.5C9.75 22.6989 9.67098 22.8897 9.53033 23.0303C9.38968 23.171 9.19891 23.25 9 23.25C8.80109 23.25 8.61032 23.171 8.46967 23.0303C8.32902 22.8897 8.25 22.6989 8.25 22.5C8.25 17.75 13.68 17.75 16 17.75C18.32 17.75 23.75 17.75 23.75 22.5C23.7474 22.6981 23.6676 22.8874 23.5275 23.0275C23.3874 23.1676 23.1981 23.2474 23 23.25Z" fill="#040306"/>
</svg>
